<svg version="1.1" id="SVG_T2G1" xmlns="http://www.w3.org/2000/svg" xmlns:xlink="http://www.w3.org/1999/xlink" x="0px" y="0px"
	 viewBox="0 0 804.2 564.5" data-viewBox="0 0 804.2 564.5" style="enable-background:new 0 0 804.2 564.5;" xml:space="preserve">
<style type="text/css">
	#SVG_T2G1 .st0{fill:#3D3F41;}
	#SVG_T2G1 .st1{font-family:'Raleway'; font-weight:600;}
	#SVG_T2G1 .st2{font-size:10px; letter-spacing:-0.1px;}
	#SVG_T2G1 .st3{fill:#3B454A;}
	#SVG_T2G1 .st4{font-size:12px; letter-spacing:-0.1px; }
	#SVG_T2G1 .st5{fill:none;stroke:#3B454A;}
	#SVG_T2G1 .st6{font-family:'Raleway'; font-weight:400;}
	#SVG_T2G1 .st7{font-size:20px;}
	#SVG_T2G1 .st8{fill:#7DCDA5;}
	#SVG_T2G1 .st9{fill:none;stroke:#7DCDA5;stroke-width:1.362;stroke-miterlimit:10;}
	#SVG_T2G1 .st10{fill:none;stroke:#7DCDA5;stroke-width:1.362;}
	#SVG_T2G1 .st11{font-size:16px;}
	#SVG_T2G1 .st12{fill:none;stroke:#7DCDA5;stroke-width:2;stroke-miterlimit:10;}
	#SVG_T2G1 .st15{fill:none;stroke:#7DCDA5;stroke-miterlimit:10;}
	#SVG_T2G1 .st16{opacity:0.3;}
	#SVG_T2G1 .st17{clip-path:url(#T2G1_SVGID_2_);fill:#73818A;}
	#SVG_T2G1 .st18{clip-path:url(#T2G1_SVGID_4_);fill:#73818A;}
	#SVG_T2G1 .st19{clip-path:url(#T2G1_SVGID_6_);fill:#73818A;}
	#SVG_T2G1 .st20{clip-path:url(#T2G1_SVGID_8_);fill:#73818A;}
	#SVG_T2G1 .st21{clip-path:url(#T2G1_SVGID_10_);fill:#73818A;}
</style>
<g class="anim6">
	<text transform="matrix(1 0 0 1 75.3622 169.7017)"><tspan x="0" y="0" class="st0 st1 st11 st13">Workplace</tspan> <tspan x="0" y="1.3em" class="st0 st1 st11 st13">safety</tspan></text>
	<path class="st8" d="M92.9,130.1v8.5h6.2v-8.2C97,130.9,95,130.7,92.9,130.1 M89,120.5c0.1,0,0.1-0.1,0.2-0.1c0-0.2,0-0.4,0-0.6
		c0-1.9,0-3.9,0-5.8c0-1.1,0.7-1.8,1.7-1.9c1-0.1,1.8,0.6,1.9,1.7c0,0.2,0,0.5,0,0.8c0,4.2,0,8.4,0,12.6c0,0.5,0.1,0.7,0.6,0.9
		c1.6,0.5,3.3,0.6,4.9,0.2c0.5-0.1,0.7-0.3,0.7-0.9c0-5.7,0-11.4,0-17.1c0-0.2,0-0.4,0-0.6c-0.7-3.7-4-6.5-7.8-6.7
		c-4.6-0.2-8.5,3.5-8.5,8.2c0,0.8,0,1.5-0.9,2c-4.7,2.5-5.9,8.4-2.6,12.5c2.1,2.6,5.8,3.6,8.9,2.5c0.3-0.1,0.7-0.3,0.8-0.5
		c0.3-0.5,0-1.9-0.4-2.3c-1.4-1.4-2.8-2.8-4.3-4.3c-0.9-0.9-1-2-0.1-2.8c0.8-0.8,1.8-0.7,2.7,0.2C87.7,119.2,88.3,119.8,89,120.5
		M102.8,138.5h45V78.1h-45V138.5z M99.1,104.7V89c0-4.1,0-8.3,0-12.4c0-1.5,0.7-2.2,2.2-2.2c16,0,32,0,48,0c1.5,0,2.2,0.7,2.2,2.4
		c0,13.6,0,27.1,0,40.7c0,6.7,0,13.3,0,20v1c1.7,0,3.3,0,5,0c0.4,0,0.8,0,1.2,0.1c0.9,0.2,1.5,1,1.5,1.9c-0.1,0.9-0.8,1.6-1.7,1.7
		c-0.3,0-0.6,0-0.9,0c-24,0-48,0-71.9,0c-0.3,0-0.6,0-0.9,0c-1-0.1-1.7-0.8-1.7-1.8c0-1,0.7-1.7,1.7-1.8c1.2-0.1,2.4,0,3.6,0
		c2,0,2,0,2-2c0-1.9,0-3.8,0-5.6c0-0.2,0-0.5,0-0.8c-1.7,0.5-3.3,0.7-5,0.5c-4.7-0.6-8.6-4.8-8.8-9.5c-0.2-4.1,1.5-7.2,4.9-9.5
		c0.2-0.1,0.4-0.4,0.4-0.7c0.1-4.3,2.9-8.1,7-9.5c4.1-1.4,8.2-0.2,11.3,3.3C99,104.6,99,104.6,99.1,104.7"/>
	<rect x="128.4" y="93.3" class="st8" width="4.5" height="4.3"/>
	<rect x="117.7" y="82.4" class="st8" width="4.3" height="4.5"/>
	<rect x="128.4" y="125.5" class="st8" width="4.5" height="4.3"/>
	<rect x="106.9" y="93.3" class="st8" width="4.6" height="4.3"/>
	<rect x="106.9" y="125.5" class="st8" width="4.6" height="4.3"/>
	<rect x="128.4" y="104.1" class="st8" width="4.5" height="4.3"/>
	<rect x="128.4" y="114.8" class="st8" width="4.5" height="4.4"/>
	<rect x="106.9" y="114.8" class="st8" width="4.6" height="4.4"/>
	<rect x="117.6" y="93.3" class="st8" width="4.6" height="4.3"/>
	<rect x="139" y="93.3" class="st8" width="4.6" height="4.3"/>
	<rect x="117.6" y="125.5" class="st8" width="4.6" height="4.3"/>
	<rect x="139" y="125.5" class="st8" width="4.6" height="4.3"/>
	<rect x="106.9" y="104.1" class="st8" width="4.6" height="4.3"/>
	<rect x="139.1" y="82.4" class="st8" width="4.3" height="4.6"/>
	<rect x="117.6" y="104.1" class="st8" width="4.6" height="4.3"/>
	<rect x="139" y="114.7" class="st8" width="4.6" height="4.4"/>
	<rect x="117.6" y="114.8" class="st8" width="4.6" height="4.4"/>
	<rect x="139" y="104.1" class="st8" width="4.6" height="4.3"/>
	<rect x="128.4" y="82.4" class="st8" width="4.3" height="4.6"/>
	<rect x="107" y="82.4" class="st8" width="4.4" height="4.5"/>
	<rect x="128.4" y="93.3" class="st8" width="4.5" height="4.3"/>
	<rect x="117.7" y="82.4" class="st8" width="4.3" height="4.5"/>
	<rect x="128.4" y="125.5" class="st8" width="4.5" height="4.3"/>
	<rect x="106.9" y="93.3" class="st8" width="4.6" height="4.3"/>
	<rect x="106.9" y="125.5" class="st8" width="4.6" height="4.3"/>
	<rect x="128.4" y="104.1" class="st8" width="4.5" height="4.3"/>
	<rect x="128.4" y="114.8" class="st8" width="4.5" height="4.4"/>
	<rect x="106.9" y="114.8" class="st8" width="4.6" height="4.4"/>
	<rect x="117.6" y="93.3" class="st8" width="4.6" height="4.3"/>
	<rect x="139" y="93.3" class="st8" width="4.6" height="4.3"/>
	<rect x="117.6" y="125.5" class="st8" width="4.6" height="4.3"/>
	<rect x="139" y="125.5" class="st8" width="4.6" height="4.3"/>
	<rect x="106.9" y="104.1" class="st8" width="4.6" height="4.3"/>
	<rect x="139.1" y="82.4" class="st8" width="4.3" height="4.6"/>
	<rect x="117.6" y="104.1" class="st8" width="4.6" height="4.3"/>
	<rect x="139" y="114.7" class="st8" width="4.6" height="4.4"/>
	<rect x="117.6" y="114.8" class="st8" width="4.6" height="4.4"/>
	<rect x="139" y="104.1" class="st8" width="4.6" height="4.3"/>
	<rect x="128.4" y="82.4" class="st8" width="4.3" height="4.6"/>
	<rect x="107" y="82.4" class="st8" width="4.4" height="4.5"/>
</g>
<g class="anim7">
	<text transform="matrix(1 0 0 1 282.0634 170.7017)"><tspan x="0" y="0" class="st0 st1 st11 st13">Workers'</tspan> <tspan x="0" y="1.3em" class="st0 st1 st11 st13">rights</tspan></text>
	<path class="st8" d="M313.2,99.5c0.3,1.2,0.5,2.3,0.8,3.4h1.1c0.3-1.2,0.5-2.3,0.8-3.4H313.2z M314.2,108.3c0,0.2,0,0.2-0.1,0.3
		c-0.4,2.7-0.8,5.5-1.2,8.2c-0.3,2.1-0.6,4.3-0.9,6.4c0,0.3-0.1,0.7,0.1,0.9c0.7,0.8,1.5,1.6,2.4,2.4c0.7-0.7,1.3-1.4,2-2
		c0.5-0.4,0.5-0.8,0.4-1.3c-0.4-3-0.9-6-1.3-9c-0.3-2-0.6-3.9-0.9-5.9C314.7,108.3,314.5,108.3,314.2,108.3 M339.1,136.4v-0.7
		c0-6.9,0-13.9,0-20.8c0-2.7-0.9-5-2.6-7c-3.9-4.5-9.3-6.5-15.1-7.8c-0.4,1.5-0.6,3-1,4.5c-0.3,0.9-0.2,1.9-0.1,2.8
		c0.2,1,0.3,2,0.4,2.9c0.7,4.7,1.3,9.4,2,14.1c0.1,1-0.1,1.8-0.8,2.6c-1.8,1.7-3.5,3.4-5.3,5.1c-1.1,1.1-2.8,1.1-3.9,0
		c-1.8-1.7-3.6-3.4-5.4-5.2c-0.6-0.6-0.9-1.4-0.8-2.3c0.8-5.5,1.6-10.9,2.3-16.4c0.1-1.1,0.5-2.1,0.2-3.2c-0.4-1.6-0.8-3.2-1.2-5
		c-1.4,0.4-2.8,0.7-4.2,1.1c-3.5,1.1-6.8,2.7-9.5,5.2c-2.6,2.4-4.1,5.3-4,9c0.1,6.8,0,13.6,0,20.3v0.7H339.1z M314.5,141.7
		c-9,0-17.9,0-26.9,0c-1.3,0-2.3-0.5-2.9-1.7c-0.2-0.4-0.2-0.8-0.2-1.2c0-8.1,0-16.2,0-24.4c0-3.9,1.5-7.2,4-10.1
		c3.8-4.4,8.8-7,14.4-8.5c4.7-1.3,9.5-1.8,14.4-1.5c5.9,0.4,11.6,1.8,16.7,4.8c3.6,2.1,6.7,4.8,8.7,8.5c1.2,2.2,1.8,4.6,1.8,7.1
		c0,8,0,16,0,24c0,1.9-1.2,3-3.1,3C332.4,141.7,323.5,141.7,314.5,141.7"/>
	<path class="st8" d="M314.4,87.2c6,0.1,10.9-4.6,11-10.4c0.1-5.8-4.8-10.7-10.7-10.7c-5.9-0.1-11,4.3-11.1,10.1
		C303.5,82.4,308.2,87.1,314.4,87.2 M314,60.8c8.6-0.3,16.4,6.2,16.8,15.3c0.4,8.4-6.6,15.8-15.6,16.3c-8.8,0.5-16.5-6.3-17.1-14.8
		C297.6,68.8,304.8,61.1,314,60.8"/>
</g>
<g class="anim8">
	<text transform="matrix(1 0 0 1 466.2089 170.7017)"><tspan x="0" y="0" class="st0 st1 st11">Consumer</tspan> <tspan x="0" y="1.3em" class="st0 st1 st11">rights</tspan></text>
	<path class="st8" d="M501.8,76.9c-0.8,0.7-1.5,1.5-2.2,2.2c0,0,0,0.1,0.1,0.1c1.1-0.1,2.3-0.2,3.4-0.4
		C502.6,78.1,502.2,77.5,501.8,76.9 M489.4,85.1c1.1-0.1,2.2-0.3,3.3-0.4c0.1,0,0.2-0.1,0.2-0.2c0.2-0.4,0.3-0.8,0.5-1.1
		c0.1-0.3,0.3-0.5,0.4-0.8c-1.9,0.2-3.7,0.4-5.6,0.6C489.4,83.5,489.7,84.2,489.4,85.1 M496.1,84.3c6.7-0.8,13.2-1.6,19.8-2.4
		c0,0,0,0,0-0.1c-0.3-0.1-0.7-0.2-1-0.3c-0.5-0.1-0.8-0.4-1-0.9c-0.1-0.2-0.1-0.2-0.3-0.2c-1.9,0.2-3.8,0.4-5.8,0.6
		c-0.5,0.1-1,0.1-1.4,0.2c-0.2,0-0.5,0.1-0.7,0.1c-0.2,0-0.3,0-0.5,0c-2.4,0.3-4.9,0.5-7.3,0.8c-0.4,0-0.7,0.2-0.8,0.5
		C496.8,83.2,496.5,83.7,496.1,84.3 M516.8,77.4c-0.1-0.7-0.1-1.3-0.2-2c-0.1-1-0.7-1.7-1.7-2c-0.8-0.3-1.7-0.4-2.5-0.4
		c-2.4,0-4.7,0.5-6.9,1.6c-0.4,0.2-0.9,0.5-1.4,0.7c0.8,1.1,1.5,2.1,2.2,3.1c0.1,0.1,0.2,0.1,0.3,0.1c0.6-0.1,1.2-0.1,1.8-0.2
		c2-0.2,3.9-0.4,5.9-0.6C515.1,77.5,515.9,77.5,516.8,77.4 M486.6,80.4c0.1,0,0.2,0,0.3,0c2.9-0.3,5.7-0.6,8.6-0.9
		c0.2,0,0.4-0.1,0.5-0.3c1-1.5,2.2-2.8,3.5-4.1c0.3-0.2,0.5-0.4,0.8-0.7c-0.8-1.2-1.7-2.2-3-2.9c-0.6-0.3-1.2-0.5-1.8-0.5
		c-1.7-0.1-3.3,0.3-4.8,1.3c-1.9,1.3-3.1,3.2-3.8,5.4C486.6,78.6,486.5,79.5,486.6,80.4 M477.9,84.6c0,0.1,0,0.2,0,0.4
		c-0.1,2.6-0.1,5.1-0.2,7.7c-0.1,4.9-0.3,9.8-0.4,14.7c-0.1,4.1-0.2,8.2-0.3,12.4c-0.1,5.1-0.3,10.2-0.4,15.4c0,0.2,0.1,0.3,0.3,0.4
		c2.1,0.9,4.2,1.8,6.3,2.6c0.1,0,0.2,0.1,0.3,0.1v-0.3c0-16.5,0-33.1,0-49.6c0-0.5-0.1-1,0.2-1.5c0.2-0.2,0.3-0.5,0.5-0.7
		c0.1-0.1,0.3-0.3,0.5-0.4C482.5,85.2,480.2,84.9,477.9,84.6 M500.7,86.6c-1.8,0.2-3.6,0.4-5.4,0.6c-0.2,0-0.3,0.1-0.3,0.3
		c-0.5,1.9-0.8,3.8-0.9,5.7c0,0.9-0.6,1.5-1.4,1.5c-0.8,0-1.4-0.6-1.4-1.5c0-1.4,0.1-2.7,0.4-4.1c0.1-0.5,0.2-0.9,0.3-1.4
		c-1.8,0.2-3.7,0.4-5.5,0.6v50.3c12.8-1.8,25.5-3.6,38.3-5.3c-0.8-16.4-1.7-32.8-2.5-49.1c-1.3,0.2-2.5,0.3-3.8,0.5
		c0,0.1,0,0.1,0,0.1c-0.4,2.2-0.7,4.5-0.7,6.7c0,0.3-0.1,0.6-0.2,0.8c-0.3,0.6-0.9,0.9-1.6,0.7c-0.7-0.2-1.1-0.7-1.1-1.4
		c0-1.7,0.2-3.4,0.4-5c0.1-0.5,0.2-1,0.2-1.6c-3.9,0.5-7.7,0.9-11.6,1.3L500.7,86.6z M519.2,80c1.2,0.3,2.3,0.6,3.5,0.9
		c0.5,0.1,0.9,0.2,1.4,0.4c0.5,0.2,0.8,0.6,0.9,1.2c0.1,1.6,0.2,3.1,0.3,4.7c0.1,2.7,0.3,5.3,0.4,8c0.1,2.2,0.2,4.5,0.4,6.7
		c0.1,2.7,0.3,5.4,0.4,8.1c0.1,2.3,0.2,4.5,0.4,6.8c0.1,2.7,0.3,5.3,0.4,8c0.1,2.2,0.2,4.5,0.4,6.7c0,0.9,0.1,1.8,0.1,2.7
		c0,0.2,0,0.5,0,0.7c-0.1,0.7-0.6,1.1-1.3,1.2c-2.1,0.3-4.1,0.6-6.2,0.9c-2.2,0.3-4.5,0.6-6.7,0.9c-2.2,0.3-4.4,0.6-6.7,0.9
		c-2.2,0.3-4.5,0.6-6.7,0.9c-2.2,0.3-4.4,0.6-6.7,0.9c-2.2,0.3-4.4,0.6-6.7,0.9c-0.5,0.1-0.9,0.2-1.4,0.2c-0.3,0-0.7,0-1-0.2
		c-3.2-1.3-6.4-2.6-9.6-3.9c-0.6-0.3-0.9-0.7-0.9-1.4c0.1-2.5,0.1-5.1,0.2-7.6c0.1-2.9,0.1-5.8,0.2-8.6c0.1-4.5,0.2-9.1,0.3-13.6
		c0.1-3.6,0.2-7.1,0.2-10.7c0.1-4.2,0.2-8.4,0.3-12.6c0-0.8,0.6-1.4,1.4-1.4c2.4-0.3,4.7-0.5,7.1-0.8c0-0.4,0-0.8,0-1.3
		c0.2-2.7,1.2-5.2,2.9-7.3c1.5-1.9,3.5-3.2,5.9-3.7c1.8-0.4,3.6-0.5,5.3,0.2c1.3,0.5,2.4,1.4,3.4,2.5c0.5,0.5,0.9,1.1,1.4,1.6
		c0,0,0.1-0.1,0.2-0.1c2.1-1.3,4.4-2.1,6.9-2.5c2.1-0.3,4.1-0.3,6.2,0.4c2.2,0.7,3.4,2.3,3.7,4.6c0.2,1.5,0,3-0.2,4.5
		C519.2,79.8,519.2,79.9,519.2,80"/>
	<path class="st15" d="M501.8,76.9c-0.8,0.7-1.5,1.5-2.2,2.2c0,0,0,0.1,0.1,0.1c1.1-0.1,2.3-0.2,3.4-0.4
		C502.6,78.1,502.2,77.5,501.8,76.9z M489.4,85.1c1.1-0.1,2.2-0.3,3.3-0.4c0.1,0,0.2-0.1,0.2-0.2c0.2-0.4,0.3-0.8,0.5-1.1
		c0.1-0.3,0.3-0.5,0.4-0.8c-1.9,0.2-3.7,0.4-5.6,0.6C489.4,83.5,489.7,84.2,489.4,85.1z M496.1,84.3c6.7-0.8,13.2-1.6,19.8-2.4
		c0,0,0,0,0-0.1c-0.3-0.1-0.7-0.2-1-0.3c-0.5-0.1-0.8-0.4-1-0.9c-0.1-0.2-0.1-0.2-0.3-0.2c-1.9,0.2-3.8,0.4-5.8,0.6
		c-0.5,0.1-1,0.1-1.4,0.2c-0.2,0-0.5,0.1-0.7,0.1c-0.2,0-0.3,0-0.5,0c-2.4,0.3-4.9,0.5-7.3,0.8c-0.4,0-0.7,0.2-0.8,0.5
		C496.8,83.2,496.5,83.7,496.1,84.3z M516.8,77.4c-0.1-0.7-0.1-1.3-0.2-2c-0.1-1-0.7-1.7-1.7-2c-0.8-0.3-1.7-0.4-2.5-0.4
		c-2.4,0-4.7,0.5-6.9,1.6c-0.4,0.2-0.9,0.5-1.4,0.7c0.8,1.1,1.5,2.1,2.2,3.1c0.1,0.1,0.2,0.1,0.3,0.1c0.6-0.1,1.2-0.1,1.8-0.2
		c2-0.2,3.9-0.4,5.9-0.6C515.1,77.5,515.9,77.5,516.8,77.4z M486.6,80.4c0.1,0,0.2,0,0.3,0c2.9-0.3,5.7-0.6,8.6-0.9
		c0.2,0,0.4-0.1,0.5-0.3c1-1.5,2.2-2.8,3.5-4.1c0.3-0.2,0.5-0.4,0.8-0.7c-0.8-1.2-1.7-2.2-3-2.9c-0.6-0.3-1.2-0.5-1.8-0.5
		c-1.7-0.1-3.3,0.3-4.8,1.3c-1.9,1.3-3.1,3.2-3.8,5.4C486.6,78.6,486.5,79.5,486.6,80.4z M477.9,84.6c0,0.1,0,0.2,0,0.4
		c-0.1,2.6-0.1,5.1-0.2,7.7c-0.1,4.9-0.3,9.8-0.4,14.7c-0.1,4.1-0.2,8.2-0.3,12.4c-0.1,5.1-0.3,10.2-0.4,15.4c0,0.2,0.1,0.3,0.3,0.4
		c2.1,0.9,4.2,1.8,6.3,2.6c0.1,0,0.2,0.1,0.3,0.1v-0.3c0-16.5,0-33.1,0-49.6c0-0.5-0.1-1,0.2-1.5c0.2-0.2,0.3-0.5,0.5-0.7
		c0.1-0.1,0.3-0.3,0.5-0.4C482.5,85.2,480.2,84.9,477.9,84.6z M500.7,86.6c-1.8,0.2-3.6,0.4-5.4,0.6c-0.2,0-0.3,0.1-0.3,0.3
		c-0.5,1.9-0.8,3.8-0.9,5.7c0,0.9-0.6,1.5-1.4,1.5c-0.8,0-1.4-0.6-1.4-1.5c0-1.4,0.1-2.7,0.4-4.1c0.1-0.5,0.2-0.9,0.3-1.4
		c-1.8,0.2-3.7,0.4-5.5,0.6v50.3c12.8-1.8,25.5-3.6,38.3-5.3c-0.8-16.4-1.7-32.8-2.5-49.1c-1.3,0.2-2.5,0.3-3.8,0.5
		c0,0.1,0,0.1,0,0.1c-0.4,2.2-0.7,4.5-0.7,6.7c0,0.3-0.1,0.6-0.2,0.8c-0.3,0.6-0.9,0.9-1.6,0.7c-0.7-0.2-1.1-0.7-1.1-1.4
		c0-1.7,0.2-3.4,0.4-5c0.1-0.5,0.2-1,0.2-1.6c-3.9,0.5-7.7,0.9-11.6,1.3L500.7,86.6z M519.2,80c1.2,0.3,2.3,0.6,3.5,0.9
		c0.5,0.1,0.9,0.2,1.4,0.4c0.5,0.2,0.8,0.6,0.9,1.2c0.1,1.6,0.2,3.1,0.3,4.7c0.1,2.7,0.3,5.3,0.4,8c0.1,2.2,0.2,4.5,0.4,6.7
		c0.1,2.7,0.3,5.4,0.4,8.1c0.1,2.3,0.2,4.5,0.4,6.8c0.1,2.7,0.3,5.3,0.4,8c0.1,2.2,0.2,4.5,0.4,6.7c0,0.9,0.1,1.8,0.1,2.7
		c0,0.2,0,0.5,0,0.7c-0.1,0.7-0.6,1.1-1.3,1.2c-2.1,0.3-4.1,0.6-6.2,0.9c-2.2,0.3-4.5,0.6-6.7,0.9c-2.2,0.3-4.4,0.6-6.7,0.9
		c-2.2,0.3-4.5,0.6-6.7,0.9c-2.2,0.3-4.4,0.6-6.7,0.9c-2.2,0.3-4.4,0.6-6.7,0.9c-0.5,0.1-0.9,0.2-1.4,0.2c-0.3,0-0.7,0-1-0.2
		c-3.2-1.3-6.4-2.6-9.6-3.9c-0.6-0.3-0.9-0.7-0.9-1.4c0.1-2.5,0.1-5.1,0.2-7.6c0.1-2.9,0.1-5.8,0.2-8.6c0.1-4.5,0.2-9.1,0.3-13.6
		c0.1-3.6,0.2-7.1,0.2-10.7c0.1-4.2,0.2-8.4,0.3-12.6c0-0.8,0.6-1.4,1.4-1.4c2.4-0.3,4.7-0.5,7.1-0.8c0-0.4,0-0.8,0-1.3
		c0.2-2.7,1.2-5.2,2.9-7.3c1.5-1.9,3.5-3.2,5.9-3.7c1.8-0.4,3.6-0.5,5.3,0.2c1.3,0.5,2.4,1.4,3.4,2.5c0.5,0.5,0.9,1.1,1.4,1.6
		c0,0,0.1-0.1,0.2-0.1c2.1-1.3,4.4-2.1,6.9-2.5c2.1-0.3,4.1-0.3,6.2,0.4c2.2,0.7,3.4,2.3,3.7,4.6c0.2,1.5,0,3-0.2,4.5
		C519.2,79.8,519.2,79.9,519.2,80z"/>
</g>
<g class="anim9">
	<text transform="matrix(1 0 0 1 172.2714 339.4766)"><tspan x="0" y="0" class="st0 st1 st11">Community</tspan></text>
	<path class="st8" d="M181.6,287.5c0-1.9,0-3.7,0-5.6c0-0.7,0.4-1,1.1-1c3.9,0,7.7,0,11.6,0c0.7,0,1.1,0.4,1.1,1c0,3.8,0,7.5,0,11.3
		c0,0.7-0.4,1-1.1,1c-0.5,0-0.9,0-1.4,0c-0.4,0-0.5,0.1-0.5,0.4c-0.1,1.6-0.3,3.3-0.4,4.9c-0.1,1.5-0.3,3.1-0.4,4.6
		c0,0.5-0.5,0.9-1,0.9c-1.4,0-2.8,0-4.2,0c-0.5,0-0.9-0.4-1-0.9c-0.2-2.5-0.4-5.1-0.6-7.6c-0.1-0.6-0.1-1.3-0.2-1.9
		c0-0.3-0.1-0.4-0.5-0.4c-0.4,0-0.9,0-1.3,0c-0.8,0-1.2-0.3-1.2-1.1C181.6,291.3,181.6,289.4,181.6,287.5 M183.6,287.6
		c0,1.4,0,2.9,0,4.3c0,0.4,0.1,0.5,0.5,0.5c0.4,0,0.8,0,1.2,0c0.7,0,1,0.3,1.1,0.9c0.1,0.9,0.2,1.7,0.2,2.6c0.2,2.3,0.4,4.6,0.6,6.9
		c0,0.3,0.1,0.4,0.4,0.4c0.5,0,1,0,1.6,0c0.3,0,0.4-0.1,0.5-0.4c0.2-2.1,0.3-4.1,0.5-6.2c0.1-1.1,0.2-2.3,0.3-3.4
		c0.1-0.5,0.4-0.8,1-0.8c0.4,0,0.9,0,1.3,0c0.4,0,0.5-0.1,0.5-0.5c0-2.9,0-5.8,0-8.7c0-0.4-0.1-0.5-0.5-0.5c-2.9,0-5.9,0-8.8,0
		c-0.4,0-0.5,0.1-0.5,0.5V287.6"/>
	<path class="st9" d="M181.6,287.5c0-1.9,0-3.7,0-5.6c0-0.7,0.4-1,1.1-1c3.9,0,7.7,0,11.6,0c0.7,0,1.1,0.4,1.1,1c0,3.8,0,7.5,0,11.3
		c0,0.7-0.4,1-1.1,1c-0.5,0-0.9,0-1.4,0c-0.4,0-0.5,0.1-0.5,0.4c-0.1,1.6-0.3,3.3-0.4,4.9c-0.1,1.5-0.3,3.1-0.4,4.6
		c0,0.5-0.5,0.9-1,0.9c-1.4,0-2.8,0-4.2,0c-0.5,0-0.9-0.4-1-0.9c-0.2-2.5-0.4-5.1-0.6-7.6c-0.1-0.6-0.1-1.3-0.2-1.9
		c0-0.3-0.1-0.4-0.5-0.4c-0.4,0-0.9,0-1.3,0c-0.8,0-1.2-0.3-1.2-1.1C181.6,291.3,181.6,289.4,181.6,287.5 M183.6,287.6
		c0,1.4,0,2.9,0,4.3c0,0.4,0.1,0.5,0.5,0.5c0.4,0,0.8,0,1.2,0c0.7,0,1,0.3,1.1,0.9c0.1,0.9,0.2,1.7,0.2,2.6c0.2,2.3,0.4,4.6,0.6,6.9
		c0,0.3,0.1,0.4,0.4,0.4c0.5,0,1,0,1.6,0c0.3,0,0.4-0.1,0.5-0.4c0.2-2.1,0.3-4.1,0.5-6.2c0.1-1.1,0.2-2.3,0.3-3.4
		c0.1-0.5,0.4-0.8,1-0.8c0.4,0,0.9,0,1.3,0c0.4,0,0.5-0.1,0.5-0.5c0-2.9,0-5.8,0-8.7c0-0.4-0.1-0.5-0.5-0.5c-2.9,0-5.9,0-8.8,0
		c-0.4,0-0.5,0.1-0.5,0.5V287.6"/>
	<path class="st8" d="M188.5,274.9c-2.7,0-4.7-2-4.6-4.4c0-2.2,2.2-4.1,4.7-4.1c2.6,0,4.7,2,4.6,4.3C193.1,273,191,274.9,188.5,274.9
		M185.8,270.6c0,1.4,1.2,2.5,2.7,2.5c1.5,0,2.7-1.1,2.7-2.5c0-1.4-1.2-2.5-2.7-2.5C187,268.1,185.8,269.3,185.8,270.6"/>
	<path class="st9" d="M188.5,274.9c-2.7,0-4.7-2-4.6-4.4c0-2.2,2.2-4.1,4.7-4.1c2.6,0,4.7,2,4.6,4.3C193.1,273,191,274.9,188.5,274.9
		M185.8,270.6c0,1.4,1.2,2.5,2.7,2.5c1.5,0,2.7-1.1,2.7-2.5c0-1.4-1.2-2.5-2.7-2.5C187,268.1,185.8,269.3,185.8,270.6"/>
	<path class="st8" d="M197.8,264.8c-2.7,0-4.7-2-4.6-4.4c0-2.2,2.2-4.1,4.7-4.1c2.6,0,4.7,2,4.6,4.3
		C202.5,262.9,200.3,264.8,197.8,264.8 M195.2,260.5c0,1.4,1.2,2.5,2.7,2.5c1.5,0,2.7-1.1,2.7-2.5c0-1.4-1.2-2.5-2.7-2.5
		C196.4,258,195.1,259.1,195.2,260.5"/>
	<path class="st9" d="M197.8,264.8c-2.7,0-4.7-2-4.6-4.4c0-2.2,2.2-4.1,4.7-4.1c2.6,0,4.7,2,4.6,4.3
		C202.5,262.9,200.3,264.8,197.8,264.8 M195.2,260.5c0,1.4,1.2,2.5,2.7,2.5c1.5,0,2.7-1.1,2.7-2.5c0-1.4-1.2-2.5-2.7-2.5
		C196.4,258,195.1,259.1,195.2,260.5"/>
	<path class="st8" d="M202.9,287.5c0-1.9,0-3.7,0-5.6c0-0.7,0.4-1,1.1-1c3.9,0,7.7,0,11.6,0c0.7,0,1.1,0.4,1.1,1c0,3.8,0,7.5,0,11.3
		c0,0.7-0.4,1-1.1,1c-0.5,0-0.9,0-1.4,0c-0.4,0-0.5,0.1-0.5,0.4c-0.1,1.6-0.3,3.3-0.4,4.9c-0.1,1.5-0.3,3.1-0.4,4.6
		c0,0.5-0.5,0.9-1,0.9c-1.4,0-2.8,0-4.2,0c-0.5,0-0.9-0.4-1-0.9c-0.2-2.5-0.4-5.1-0.6-7.6c-0.1-0.6-0.1-1.3-0.2-1.9
		c0-0.3-0.1-0.4-0.5-0.4c-0.4,0-0.9,0-1.3,0c-0.8,0-1.2-0.3-1.2-1.1C202.9,291.3,202.9,289.4,202.9,287.5 M204.9,287.6
		c0,1.4,0,2.9,0,4.3c0,0.4,0.1,0.5,0.5,0.5c0.4,0,0.8,0,1.2,0c0.7,0,1,0.3,1.1,0.9c0.1,0.9,0.2,1.7,0.2,2.6c0.2,2.3,0.4,4.6,0.6,6.9
		c0,0.3,0.1,0.4,0.4,0.4c0.5,0,1,0,1.6,0c0.3,0,0.4-0.1,0.5-0.4c0.2-2.1,0.3-4.1,0.5-6.2c0.1-1.1,0.2-2.3,0.3-3.4
		c0.1-0.5,0.4-0.8,1-0.8c0.4,0,0.9,0,1.3,0c0.4,0,0.5-0.1,0.5-0.5c0-2.9,0-5.8,0-8.7c0-0.4-0.1-0.5-0.5-0.5c-2.9,0-5.9,0-8.8,0
		c-0.4,0-0.5,0.1-0.5,0.5V287.6"/>
	<path class="st9" d="M202.9,287.5c0-1.9,0-3.7,0-5.6c0-0.7,0.4-1,1.1-1c3.9,0,7.7,0,11.6,0c0.7,0,1.1,0.4,1.1,1c0,3.8,0,7.5,0,11.3
		c0,0.7-0.4,1-1.1,1c-0.5,0-0.9,0-1.4,0c-0.4,0-0.5,0.1-0.5,0.4c-0.1,1.6-0.3,3.3-0.4,4.9c-0.1,1.5-0.3,3.1-0.4,4.6
		c0,0.5-0.5,0.9-1,0.9c-1.4,0-2.8,0-4.2,0c-0.5,0-0.9-0.4-1-0.9c-0.2-2.5-0.4-5.1-0.6-7.6c-0.1-0.6-0.1-1.3-0.2-1.9
		c0-0.3-0.1-0.4-0.5-0.4c-0.4,0-0.9,0-1.3,0c-0.8,0-1.2-0.3-1.2-1.1C202.9,291.3,202.9,289.4,202.9,287.5 M204.9,287.6
		c0,1.4,0,2.9,0,4.3c0,0.4,0.1,0.5,0.5,0.5c0.4,0,0.8,0,1.2,0c0.7,0,1,0.3,1.1,0.9c0.1,0.9,0.2,1.7,0.2,2.6c0.2,2.3,0.4,4.6,0.6,6.9
		c0,0.3,0.1,0.4,0.4,0.4c0.5,0,1,0,1.6,0c0.3,0,0.4-0.1,0.5-0.4c0.2-2.1,0.3-4.1,0.5-6.2c0.1-1.1,0.2-2.3,0.3-3.4
		c0.1-0.5,0.4-0.8,1-0.8c0.4,0,0.9,0,1.3,0c0.4,0,0.5-0.1,0.5-0.5c0-2.9,0-5.8,0-8.7c0-0.4-0.1-0.5-0.5-0.5c-2.9,0-5.9,0-8.8,0
		c-0.4,0-0.5,0.1-0.5,0.5V287.6"/>
	<path class="st8" d="M209.8,274.9c-2.7,0-4.7-2-4.6-4.4c0-2.2,2.2-4.1,4.7-4.1c2.6,0,4.7,2,4.6,4.3
		C214.4,273,212.3,274.9,209.8,274.9 M207.1,270.6c0,1.4,1.2,2.5,2.7,2.5c1.5,0,2.7-1.1,2.7-2.5c0-1.4-1.2-2.5-2.7-2.5
		C208.3,268.1,207.1,269.3,207.1,270.6"/>
	<path class="st9" d="M209.8,274.9c-2.7,0-4.7-2-4.6-4.4c0-2.2,2.2-4.1,4.7-4.1c2.6,0,4.7,2,4.6,4.3
		C214.4,273,212.3,274.9,209.8,274.9 M207.1,270.6c0,1.4,1.2,2.5,2.7,2.5c1.5,0,2.7-1.1,2.7-2.5c0-1.4-1.2-2.5-2.7-2.5
		C208.3,268.1,207.1,269.3,207.1,270.6"/>
	<path class="st8" d="M218.2,264.8c-2.7,0-4.7-2-4.6-4.4c0-2.2,2.2-4.1,4.7-4.1c2.6,0,4.7,2,4.6,4.3
		C222.9,262.9,220.7,264.8,218.2,264.8 M215.6,260.5c0,1.4,1.2,2.5,2.7,2.5c1.5,0,2.7-1.1,2.7-2.5c0-1.4-1.2-2.5-2.7-2.5
		C216.8,258,215.6,259.1,215.6,260.5"/>
	<path class="st9" d="M218.2,264.8c-2.7,0-4.7-2-4.6-4.4c0-2.2,2.2-4.1,4.7-4.1c2.6,0,4.7,2,4.6,4.3
		C222.9,262.9,220.7,264.8,218.2,264.8 M215.6,260.5c0,1.4,1.2,2.5,2.7,2.5c1.5,0,2.7-1.1,2.7-2.5c0-1.4-1.2-2.5-2.7-2.5
		C216.8,258,215.6,259.1,215.6,260.5"/>
	<path class="st8" d="M229.4,280.9c1.1,0,2.2,0,3.3,0c0.7,0,1.1,0.3,1.2,1c0.2,2.4,0.4,4.9,0.6,7.3c0.2,2.1,0.4,4.3,0.5,6.4
		c0.1,0.9,0.2,1.8,0.2,2.6c0,0.2,0,0.5-0.1,0.7c-0.1,0.3-0.5,0.5-0.9,0.5c-0.3,0-0.6,0-0.9,0c-0.4,0-0.5,0.1-0.5,0.5
		c-0.1,1.4-0.2,2.9-0.4,4.3c0,0.5-0.4,0.9-1,0.9c-1.4,0-2.8,0-4.2,0c-0.6,0-0.9-0.4-1-0.9c-0.1-1.4-0.2-2.9-0.4-4.3
		c0-0.4-0.1-0.4-0.5-0.4c-0.3,0-0.6,0-0.9,0c-0.6,0-1-0.5-1-1c0.2-3,0.5-5.9,0.7-8.9c0.2-2.5,0.4-5.1,0.6-7.6
		c0.1-0.8,0.4-1.1,1.3-1.1H229.4 M229.3,303.5c0.2,0,0.5,0,0.7,0c0.4,0,0.5-0.1,0.5-0.4c0.1-1.5,0.2-2.9,0.4-4.4c0-0.5,0.4-0.8,1-0.8
		c0.3,0,0.5,0,0.8,0c0.4,0,0.5-0.1,0.5-0.4c-0.1-0.9-0.1-1.9-0.2-2.8c-0.2-2.2-0.4-4.4-0.6-6.6c-0.1-1.6-0.3-3.2-0.4-4.8
		c0-0.3-0.2-0.4-0.5-0.4c-1.4,0-2.8,0-4.2,0c-0.4,0-0.5,0.1-0.5,0.4c-0.2,2.2-0.4,4.4-0.6,6.5c-0.2,1.9-0.3,3.8-0.5,5.7
		c-0.1,0.6-0.1,1.3-0.2,1.9c0,0.3,0.1,0.4,0.4,0.4c0.1,0,0.2,0,0.3,0c1.2-0.1,1.5,0.4,1.5,1.3c0.1,1.3,0.2,2.6,0.3,4
		c0,0.3,0.2,0.4,0.5,0.4C228.8,303.5,229.1,303.5,229.3,303.5"/>
	<path class="st9" d="M229.4,280.9c1.1,0,2.2,0,3.3,0c0.7,0,1.1,0.3,1.2,1c0.2,2.4,0.4,4.9,0.6,7.3c0.2,2.1,0.4,4.3,0.5,6.4
		c0.1,0.9,0.2,1.8,0.2,2.6c0,0.2,0,0.5-0.1,0.7c-0.1,0.3-0.5,0.5-0.9,0.5c-0.3,0-0.6,0-0.9,0c-0.4,0-0.5,0.1-0.5,0.5
		c-0.1,1.4-0.2,2.9-0.4,4.3c0,0.5-0.4,0.9-1,0.9c-1.4,0-2.8,0-4.2,0c-0.6,0-0.9-0.4-1-0.9c-0.1-1.4-0.2-2.9-0.4-4.3
		c0-0.4-0.1-0.4-0.5-0.4c-0.3,0-0.6,0-0.9,0c-0.6,0-1-0.5-1-1c0.2-3,0.5-5.9,0.7-8.9c0.2-2.5,0.4-5.1,0.6-7.6
		c0.1-0.8,0.4-1.1,1.3-1.1H229.4 M229.3,303.5c0.2,0,0.5,0,0.7,0c0.4,0,0.5-0.1,0.5-0.4c0.1-1.5,0.2-2.9,0.4-4.4c0-0.5,0.4-0.8,1-0.8
		c0.3,0,0.5,0,0.8,0c0.4,0,0.5-0.1,0.5-0.4c-0.1-0.9-0.1-1.9-0.2-2.8c-0.2-2.2-0.4-4.4-0.6-6.6c-0.1-1.6-0.3-3.2-0.4-4.8
		c0-0.3-0.2-0.4-0.5-0.4c-1.4,0-2.8,0-4.2,0c-0.4,0-0.5,0.1-0.5,0.4c-0.2,2.2-0.4,4.4-0.6,6.5c-0.2,1.9-0.3,3.8-0.5,5.7
		c-0.1,0.6-0.1,1.3-0.2,1.9c0,0.3,0.1,0.4,0.4,0.4c0.1,0,0.2,0,0.3,0c1.2-0.1,1.5,0.4,1.5,1.3c0.1,1.3,0.2,2.6,0.3,4
		c0,0.3,0.2,0.4,0.5,0.4C228.8,303.5,229.1,303.5,229.3,303.5"/>
	<path class="st8" d="M229.4,266.4c2.6,0.1,4.7,2,4.6,4.4c-0.1,2.3-2.2,4.2-4.7,4.1c-2.6-0.1-4.7-2-4.6-4.4
		C224.8,268.2,226.9,266.3,229.4,266.4 M232,270.6c0-1.4-1.2-2.5-2.7-2.5c-1.5,0-2.7,1.1-2.7,2.4c0,1.4,1.2,2.5,2.7,2.5
		C230.8,273.1,232,272,232,270.6"/>
	<path class="st9" d="M229.4,266.4c2.6,0.1,4.7,2,4.6,4.4c-0.1,2.3-2.2,4.2-4.7,4.1c-2.6-0.1-4.7-2-4.6-4.4
		C224.8,268.2,226.9,266.3,229.4,266.4 M232,270.6c0-1.4-1.2-2.5-2.7-2.5c-1.5,0-2.7,1.1-2.7,2.4c0,1.4,1.2,2.5,2.7,2.5
		C230.8,273.1,232,272,232,270.6"/>
	<path class="st8" d="M238.7,256.3c2.6,0.1,4.7,2,4.6,4.4c-0.1,2.3-2.2,4.2-4.7,4.1c-2.6-0.1-4.7-2-4.6-4.4
		C234.1,258.1,236.3,256.2,238.7,256.3 M241.4,260.5c0-1.4-1.2-2.5-2.7-2.5c-1.5,0-2.7,1.1-2.7,2.4c0,1.4,1.2,2.5,2.7,2.5
		C240.1,263,241.4,261.9,241.4,260.5"/>
	<path class="st9" d="M238.7,256.3c2.6,0.1,4.7,2,4.6,4.4c-0.1,2.3-2.2,4.2-4.7,4.1c-2.6-0.1-4.7-2-4.6-4.4
		C234.1,258.1,236.3,256.2,238.7,256.3 M241.4,260.5c0-1.4-1.2-2.5-2.7-2.5c-1.5,0-2.7,1.1-2.7,2.4c0,1.4,1.2,2.5,2.7,2.5
		C240.1,263,241.4,261.9,241.4,260.5"/>
	<path class="st8" d="M247.7,280.9c1.1,0,2.2,0,3.3,0c0.7,0,1.1,0.3,1.2,1c0.2,2.4,0.4,4.9,0.6,7.3c0.2,2.1,0.4,4.3,0.5,6.4
		c0.1,0.9,0.2,1.8,0.2,2.6c0,0.2,0,0.5-0.1,0.7c-0.1,0.3-0.5,0.5-0.9,0.5c-0.3,0-0.6,0-0.9,0c-0.4,0-0.5,0.1-0.5,0.5
		c-0.1,1.4-0.2,2.9-0.4,4.3c0,0.5-0.4,0.9-1,0.9c-1.4,0-2.8,0-4.2,0c-0.6,0-0.9-0.4-1-0.9c-0.1-1.4-0.2-2.9-0.4-4.3
		c0-0.4-0.1-0.4-0.5-0.4c-0.3,0-0.6,0-0.9,0c-0.6,0-1-0.5-1-1c0.2-3,0.5-5.9,0.7-8.9c0.2-2.5,0.4-5.1,0.6-7.6
		c0.1-0.8,0.4-1.1,1.3-1.1H247.7 M247.7,303.5c0.2,0,0.5,0,0.7,0c0.4,0,0.5-0.1,0.5-0.4c0.1-1.5,0.2-2.9,0.4-4.4c0-0.5,0.4-0.8,1-0.8
		c0.3,0,0.5,0,0.8,0c0.4,0,0.5-0.1,0.5-0.4c-0.1-0.9-0.1-1.9-0.2-2.8c-0.2-2.2-0.4-4.4-0.6-6.6c-0.1-1.6-0.3-3.2-0.4-4.8
		c0-0.3-0.2-0.4-0.5-0.4c-1.4,0-2.8,0-4.2,0c-0.4,0-0.5,0.1-0.5,0.4c-0.2,2.2-0.4,4.4-0.6,6.5c-0.2,1.9-0.3,3.8-0.5,5.7
		c-0.1,0.6-0.1,1.3-0.2,1.9c0,0.3,0.1,0.4,0.4,0.4c0.1,0,0.2,0,0.3,0c1.2-0.1,1.5,0.4,1.5,1.3c0.1,1.3,0.2,2.6,0.3,4
		c0,0.3,0.2,0.4,0.5,0.4C247.2,303.5,247.4,303.5,247.7,303.5"/>
	<path class="st9" d="M247.7,280.9c1.1,0,2.2,0,3.3,0c0.7,0,1.1,0.3,1.2,1c0.2,2.4,0.4,4.9,0.6,7.3c0.2,2.1,0.4,4.3,0.5,6.4
		c0.1,0.9,0.2,1.8,0.2,2.6c0,0.2,0,0.5-0.1,0.7c-0.1,0.3-0.5,0.5-0.9,0.5c-0.3,0-0.6,0-0.9,0c-0.4,0-0.5,0.1-0.5,0.5
		c-0.1,1.4-0.2,2.9-0.4,4.3c0,0.5-0.4,0.9-1,0.9c-1.4,0-2.8,0-4.2,0c-0.6,0-0.9-0.4-1-0.9c-0.1-1.4-0.2-2.9-0.4-4.3
		c0-0.4-0.1-0.4-0.5-0.4c-0.3,0-0.6,0-0.9,0c-0.6,0-1-0.5-1-1c0.2-3,0.5-5.9,0.7-8.9c0.2-2.5,0.4-5.1,0.6-7.6
		c0.1-0.8,0.4-1.1,1.3-1.1H247.7 M247.7,303.5c0.2,0,0.5,0,0.7,0c0.4,0,0.5-0.1,0.5-0.4c0.1-1.5,0.2-2.9,0.4-4.4c0-0.5,0.4-0.8,1-0.8
		c0.3,0,0.5,0,0.8,0c0.4,0,0.5-0.1,0.5-0.4c-0.1-0.9-0.1-1.9-0.2-2.8c-0.2-2.2-0.4-4.4-0.6-6.6c-0.1-1.6-0.3-3.2-0.4-4.8
		c0-0.3-0.2-0.4-0.5-0.4c-1.4,0-2.8,0-4.2,0c-0.4,0-0.5,0.1-0.5,0.4c-0.2,2.2-0.4,4.4-0.6,6.5c-0.2,1.9-0.3,3.8-0.5,5.7
		c-0.1,0.6-0.1,1.3-0.2,1.9c0,0.3,0.1,0.4,0.4,0.4c0.1,0,0.2,0,0.3,0c1.2-0.1,1.5,0.4,1.5,1.3c0.1,1.3,0.2,2.6,0.3,4
		c0,0.3,0.2,0.4,0.5,0.4C247.2,303.5,247.4,303.5,247.7,303.5"/>
	<path class="st8" d="M247.8,266.4c2.6,0.1,4.7,2,4.6,4.4c-0.1,2.3-2.2,4.2-4.7,4.1c-2.6-0.1-4.7-2-4.6-4.4
		C243.1,268.2,245.3,266.3,247.8,266.4 M250.4,270.6c0-1.4-1.2-2.5-2.7-2.5c-1.5,0-2.7,1.1-2.7,2.4c0,1.4,1.2,2.5,2.7,2.5
		C249.2,273.1,250.4,272,250.4,270.6"/>
	<path class="st9" d="M247.8,266.4c2.6,0.1,4.7,2,4.6,4.4c-0.1,2.3-2.2,4.2-4.7,4.1c-2.6-0.1-4.7-2-4.6-4.4
		C243.1,268.2,245.3,266.3,247.8,266.4 M250.4,270.6c0-1.4-1.2-2.5-2.7-2.5c-1.5,0-2.7,1.1-2.7,2.4c0,1.4,1.2,2.5,2.7,2.5
		C249.2,273.1,250.4,272,250.4,270.6"/>
	<path class="st8" d="M207.7,255.4c-2.7,0-4.7-2-4.6-4.4c0-2.2,2.2-4.1,4.7-4.1c2.6,0,4.7,2,4.6,4.3
		C212.4,253.6,210.2,255.5,207.7,255.4 M205.1,251.1c0,1.4,1.2,2.5,2.7,2.5c1.5,0,2.7-1.1,2.7-2.5c0-1.4-1.2-2.5-2.7-2.5
		C206.3,248.7,205,249.8,205.1,251.1"/>
	<path class="st10" d="M207.7,255.4c-2.7,0-4.7-2-4.6-4.4c0-2.2,2.2-4.1,4.7-4.1c2.6,0,4.7,2,4.6,4.3
		C212.4,253.6,210.2,255.5,207.7,255.4 M205.1,251.1c0,1.4,1.2,2.5,2.7,2.5c1.5,0,2.7-1.1,2.7-2.5c0-1.4-1.2-2.5-2.7-2.5
		C206.3,248.7,205,249.8,205.1,251.1"/>
	<path class="st8" d="M228.2,246.9c2.6,0.1,4.7,2,4.6,4.4c-0.1,2.3-2.2,4.2-4.7,4.1c-2.6-0.1-4.7-2-4.6-4.4
		C223.6,248.7,225.7,246.9,228.2,246.9 M230.9,251.2c0-1.4-1.2-2.5-2.7-2.5c-1.5,0-2.7,1.1-2.7,2.4c0,1.4,1.2,2.5,2.7,2.5
		C229.6,253.7,230.9,252.5,230.9,251.2"/>
	<path class="st10" d="M228.2,246.9c2.6,0.1,4.7,2,4.6,4.4c-0.1,2.3-2.2,4.2-4.7,4.1c-2.6-0.1-4.7-2-4.6-4.4
		C223.6,248.7,225.7,246.9,228.2,246.9 M230.9,251.2c0-1.4-1.2-2.5-2.7-2.5c-1.5,0-2.7,1.1-2.7,2.4c0,1.4,1.2,2.5,2.7,2.5
		C229.6,253.7,230.9,252.5,230.9,251.2"/>
</g>
<g class="anim10">
	<text transform="matrix(1 0 0 1 371.9531 339.166)"><tspan x="0" y="0" class="st0 st1 st11">Environment</tspan></text>
	<path class="st8" d="M443.1,298.2c1.6-0.5,3.1-0.8,4.5-1.4c4.3-1.8,7.8-5.5,7.5-11.3c-0.1-2.4-0.4-4.8-0.8-7.2
		c-0.7-4.8-1.7-9.6-3.5-14.2c-1.6-4.1-3.9-7.7-7.4-10.4c-1.3-1-1.6-1-2.9,0c-2.9,2.3-5,5.3-6.6,8.7c-0.1,0.2-0.1,0.6-0.1,0.8
		c0.9,2.6,0.6,5.2-0.3,7.8c-0.2,0.6-0.2,1.1,0.1,1.7c1.8,3.2,1.5,6.7-1,9c-1.4,1.3-2.7,2.7-3.4,4.5c-0.2,0.5-0.4,1-0.3,1.5
		c0.4,3.1,1.9,5.5,4.4,7.4c2.2,1.7,4.7,2.6,7.5,2.9c0-0.3,0-0.5,0-0.7c0-1.9,0-3.9,0-5.8c0-0.4-0.2-0.8-0.4-1
		c-1.8-1.8-3.5-3.6-5.3-5.3c-0.5-0.6-0.6-1.2-0.1-1.6c0.5-0.5,1-0.4,1.6,0.2c1.2,1.2,2.5,2.5,3.7,3.7c0.2,0.1,0.3,0.3,0.6,0.5
		c0-3.6,0-7,0-10.4c0-1.6,0-3.2,0-4.8c0-0.8,0.4-1.2,1.1-1.2c0.7,0,1,0.5,1,1.3c0,2.1,0,4.2,0,6.3c0,0.2,0,0.5,0.1,0.9
		c0.8-0.9,1.5-1.6,2.2-2.3c0.6-0.6,1.2-0.7,1.7-0.3c0.5,0.5,0.5,1.1-0.2,1.7c-1.1,1.1-2.1,2.2-3.2,3.2c-0.4,0.4-0.5,0.7-0.5,1.3
		c0,4.6,0,9.1,0,13.7V298.2z M407.2,271.2c0.3-0.3,0.5-0.5,0.7-0.6c1.5-1.5,2.9-2.9,4.4-4.4c0.5-0.5,1.1-0.6,1.6-0.1
		c0.4,0.4,0.4,1,0,1.6c-0.1,0.2-0.3,0.3-0.4,0.4c-1.9,1.9-3.8,3.8-5.7,5.7c-0.2,0.2-0.5,0.6-0.5,1c0,5.8,0,11.6,0,17.4
		c0,0.4,0.2,0.7,0.6,0.8c0.8,0.2,1.6,0.5,2.5,0.6c3.7,0.6,6.7-0.5,8.3-3.8c0.5-1,1.4-1.4,2.5-1.4c3.5,0.1,6-1.6,7.3-4.8
		c0.4-1,1-1.7,1.8-2.4c2.8-2,3.4-4.8,1.7-7.8c-0.6-1-0.6-1.9-0.2-2.9c0.4-1.1,0.7-2.3,0.8-3.5c0.2-2.5-0.7-4.7-2.5-6.4
		c-1-0.9-1.3-2-0.7-3.3c0.1-0.2,0.2-0.5,0.2-0.7c1.1-4.1-0.3-7-4.1-8.7c-2.3-1-4.6-0.8-7-0.1c-1.6,0.5-2.6,0.1-3.4-1.3
		c-2.8-5.1-7.3-7.4-13-7.2c-5.3,0.2-9.3,2.6-11.7,7.4c-1.1,2.2-1.5,4.7-1.4,7.2c0.1,1.7-0.8,2.7-2.5,2.9c-1.4,0.2-2.8,0.5-4.2,0.9
		c-3.6,1.1-6.9,4.5-6.9,9.1c0,3.8,1.7,6.7,4.6,8.9c1.1,0.9,1.6,1.8,1.6,3.3c-0.1,2.7,0.9,5.1,2.9,6.9c2,1.8,4.3,2.9,7,2.3
		c0.8-0.2,1.6-0.6,2.4-0.9c1.7-0.8,3.4,0.1,3.8,2c0.1,0.7,0.3,1.3,0.5,1.9c0.5,1.3,1.4,2.1,2.8,2.4c1.3,0.3,2.5,0,3.7-0.6
		c0.5-0.2,0.6-0.5,0.6-1c0-2.6,0-5.1,0-7.7c0-0.5-0.2-0.9-0.5-1.3c-2-2-4-3.9-5.9-5.9c-0.3-0.3-0.5-0.8-0.5-1.1
		c0-0.3,0.4-0.7,0.7-0.8c0.4-0.1,0.9,0.1,1.1,0.4c1.5,1.4,2.9,2.9,4.4,4.3c0.2,0.2,0.4,0.3,0.7,0.6v-1.1c0-5.4,0-10.8,0-16.2
		c0-0.8,0.4-1.3,1.1-1.3c0.6,0,1,0.5,1,1.3c0,2.4,0,4.8,0,7.2V271.2z M441,300.2c-7-1.1-12-4.4-14-11.4c0,0-0.1,0-0.2,0.1
		c-1.7,1.2-3.6,1.6-5.7,1.6c-0.4,0-0.7,0.1-0.9,0.5c-2.2,3.8-5.8,5.4-10.1,4.7c-1-0.2-1.9-0.4-2.9-0.6v0.9c0,4.2,0,8.4,0,12.6
		c0,0.2,0,0.5,0,0.7c-0.1,0.6-0.4,0.9-1,1c-0.6,0-1-0.3-1.1-0.9c0-0.3,0-0.5,0-0.8c0-4.2,0-8.4,0-12.5v-0.7c-1.4,0.1-2.7,0.5-4,0.4
		c-3.3-0.4-5.1-2.3-5.6-5.7c-0.2-1.1-0.3-1.2-1.3-0.7c-6.7,3.4-13.7-2.1-14.7-7.6c-0.2-1-0.3-2-0.3-3c0-0.6-0.2-0.9-0.6-1.3
		c-2.8-2.1-4.7-4.7-5.4-8.2c-1.3-6.5,2.7-12,8.5-13.8c1.3-0.4,2.7-0.6,4.1-0.8c0.6-0.1,0.8-0.3,0.8-1c-0.2-8.5,5-15.1,13.4-16.4
		c6.6-1,13.4,2.1,16.6,8c0.3,0.6,0.6,0.7,1.2,0.5c2.4-0.7,4.8-0.9,7.2-0.2c5.8,1.8,8,6.5,6.3,12.1c-0.2,0.7-0.2,1.2,0.4,1.7
		c0.4,0.3,0.7,0.7,1,1.1c0.2-0.4,0.5-0.8,0.7-1.2c1.8-3,3.9-5.7,6.8-7.7c1.4-0.9,2.5-0.9,3.9,0c3.2,2.2,5.5,5.2,7.3,8.6
		c2.6,4.9,3.9,10.1,4.7,15.5c0.5,3.2,1,6.5,1.2,9.7c0.4,7.2-4.4,11.7-9.2,13.6c-1.5,0.6-3.1,0.9-4.9,1.4c0,0.1,0,0.3,0,0.6
		c0,2.6,0,5.2,0,7.8c0,0.9-0.4,1.4-1,1.4c-0.7,0-1.1-0.5-1.1-1.5C441,305.9,441,303,441,300.2"/>
	<path class="st12" d="M443.1,298.2c1.6-0.5,3.1-0.8,4.5-1.4c4.3-1.8,7.8-5.5,7.5-11.3c-0.1-2.4-0.4-4.8-0.8-7.2
		c-0.7-4.8-1.7-9.6-3.5-14.2c-1.6-4.1-3.9-7.7-7.4-10.4c-1.3-1-1.6-1-2.9,0c-2.9,2.3-5,5.3-6.6,8.7c-0.1,0.2-0.1,0.6-0.1,0.8
		c0.9,2.6,0.6,5.2-0.3,7.8c-0.2,0.6-0.2,1.1,0.1,1.7c1.8,3.2,1.5,6.7-1,9c-1.4,1.3-2.7,2.7-3.4,4.5c-0.2,0.5-0.4,1-0.3,1.5
		c0.4,3.1,1.9,5.5,4.4,7.4c2.2,1.7,4.7,2.6,7.5,2.9c0-0.3,0-0.5,0-0.7c0-1.9,0-3.9,0-5.8c0-0.4-0.2-0.8-0.4-1
		c-1.8-1.8-3.5-3.6-5.3-5.3c-0.5-0.6-0.6-1.2-0.1-1.6c0.5-0.5,1-0.4,1.6,0.2c1.2,1.2,2.5,2.5,3.7,3.7c0.2,0.1,0.3,0.3,0.6,0.5
		c0-3.6,0-7,0-10.4c0-1.6,0-3.2,0-4.8c0-0.8,0.4-1.2,1.1-1.2c0.7,0,1,0.5,1,1.3c0,2.1,0,4.2,0,6.3c0,0.2,0,0.5,0.1,0.9
		c0.8-0.9,1.5-1.6,2.2-2.3c0.6-0.6,1.2-0.7,1.7-0.3c0.5,0.5,0.5,1.1-0.2,1.7c-1.1,1.1-2.1,2.2-3.2,3.2c-0.4,0.4-0.5,0.7-0.5,1.3
		c0,4.6,0,9.1,0,13.7V298.2z M407.2,271.2c0.3-0.3,0.5-0.5,0.7-0.6c1.5-1.5,2.9-2.9,4.4-4.4c0.5-0.5,1.1-0.6,1.6-0.1
		c0.4,0.4,0.4,1,0,1.6c-0.1,0.2-0.3,0.3-0.4,0.4c-1.9,1.9-3.8,3.8-5.7,5.7c-0.2,0.2-0.5,0.6-0.5,1c0,5.8,0,11.6,0,17.4
		c0,0.4,0.2,0.7,0.6,0.8c0.8,0.2,1.6,0.5,2.5,0.6c3.7,0.6,6.7-0.5,8.3-3.8c0.5-1,1.4-1.4,2.5-1.4c3.5,0.1,6-1.6,7.3-4.8
		c0.4-1,1-1.7,1.8-2.4c2.8-2,3.4-4.8,1.7-7.8c-0.6-1-0.6-1.9-0.2-2.9c0.4-1.1,0.7-2.3,0.8-3.5c0.2-2.5-0.7-4.7-2.5-6.4
		c-1-0.9-1.3-2-0.7-3.3c0.1-0.2,0.2-0.5,0.2-0.7c1.1-4.1-0.3-7-4.1-8.7c-2.3-1-4.6-0.8-7-0.1c-1.6,0.5-2.6,0.1-3.4-1.3
		c-2.8-5.1-7.3-7.4-13-7.2c-5.3,0.2-9.3,2.6-11.7,7.4c-1.1,2.2-1.5,4.7-1.4,7.2c0.1,1.7-0.8,2.7-2.5,2.9c-1.4,0.2-2.8,0.5-4.2,0.9
		c-3.6,1.1-6.9,4.5-6.9,9.1c0,3.8,1.7,6.7,4.6,8.9c1.1,0.9,1.6,1.8,1.6,3.3c-0.1,2.7,0.9,5.1,2.9,6.9c2,1.8,4.3,2.9,7,2.3
		c0.8-0.2,1.6-0.6,2.4-0.9c1.7-0.8,3.4,0.1,3.8,2c0.1,0.7,0.3,1.3,0.5,1.9c0.5,1.3,1.4,2.1,2.8,2.4c1.3,0.3,2.5,0,3.7-0.6
		c0.5-0.2,0.6-0.5,0.6-1c0-2.6,0-5.1,0-7.7c0-0.5-0.2-0.9-0.5-1.3c-2-2-4-3.9-5.9-5.9c-0.3-0.3-0.5-0.8-0.5-1.1
		c0-0.3,0.4-0.7,0.7-0.8c0.4-0.1,0.9,0.1,1.1,0.4c1.5,1.4,2.9,2.9,4.4,4.3c0.2,0.2,0.4,0.3,0.7,0.6v-1.1c0-5.4,0-10.8,0-16.2
		c0-0.8,0.4-1.3,1.1-1.3c0.6,0,1,0.5,1,1.3c0,2.4,0,4.8,0,7.2V271.2z M441,300.2c-7-1.1-12-4.4-14-11.4c0,0-0.1,0-0.2,0.1
		c-1.7,1.2-3.6,1.6-5.7,1.6c-0.4,0-0.7,0.1-0.9,0.5c-2.2,3.8-5.8,5.4-10.1,4.7c-1-0.2-1.9-0.4-2.9-0.6v0.9c0,4.2,0,8.4,0,12.6
		c0,0.2,0,0.5,0,0.7c-0.1,0.6-0.4,0.9-1,1c-0.6,0-1-0.3-1.1-0.9c0-0.3,0-0.5,0-0.8c0-4.2,0-8.4,0-12.5v-0.7c-1.4,0.1-2.7,0.5-4,0.4
		c-3.3-0.4-5.1-2.3-5.6-5.7c-0.2-1.1-0.3-1.2-1.3-0.7c-6.7,3.4-13.7-2.1-14.7-7.6c-0.2-1-0.3-2-0.3-3c0-0.6-0.2-0.9-0.6-1.3
		c-2.8-2.1-4.7-4.7-5.4-8.2c-1.3-6.5,2.7-12,8.5-13.8c1.3-0.4,2.7-0.6,4.1-0.8c0.6-0.1,0.8-0.3,0.8-1c-0.2-8.5,5-15.1,13.4-16.4
		c6.6-1,13.4,2.1,16.6,8c0.3,0.6,0.6,0.7,1.2,0.5c2.4-0.7,4.8-0.9,7.2-0.2c5.8,1.8,8,6.5,6.3,12.1c-0.2,0.7-0.2,1.2,0.4,1.7
		c0.4,0.3,0.7,0.7,1,1.1c0.2-0.4,0.5-0.8,0.7-1.2c1.8-3,3.9-5.7,6.8-7.7c1.4-0.9,2.5-0.9,3.9,0c3.2,2.2,5.5,5.2,7.3,8.6
		c2.6,4.9,3.9,10.1,4.7,15.5c0.5,3.2,1,6.5,1.2,9.7c0.4,7.2-4.4,11.7-9.2,13.6c-1.5,0.6-3.1,0.9-4.9,1.4c0,0.1,0,0.3,0,0.6
		c0,2.6,0,5.2,0,7.8c0,0.9-0.4,1.4-1,1.4c-0.7,0-1.1-0.5-1.1-1.5C441,305.9,441,303,441,300.2z"/>
</g>
<g class="anim4">
	<text transform="matrix(1 0 0 1 731.5644 10.2598)" class="st3 st1 st4">100%</text>
	<text transform="matrix(1 0 0 1 733.1279 83.7002)"><tspan x="0" y="0" class="st0 st1 st2">environmental</tspan> <tspan x="0" y="1.3em" class="st0 st1 st2">protection</tspan></text>
	<text transform="matrix(1 0 0 1 733.1279 169.9204)"><tspan x="0" y="0" class="st0 st1 st2">workplace</tspan> <tspan x="0" y="1.3em" class="st0 st1 st2">safety</tspan></text>
	<text transform="matrix(1 0 0 1 733.1279 204.0703)"><tspan x="0" y="0" class="st0 st1 st2">workers’</tspan> <tspan x="0" y="1.3em" class="st0 st1 st2">rights</tspan></text>
	<text transform="matrix(1 0 0 1 733.1279 234.1304)"><tspan x="0" y="0" class="st0 st1 st2">impact on</tspan> <tspan x="0" y="1.3em" class="st0 st1 st2">communities</tspan></text>
	<text transform="matrix(1 0 0 1 733.1279 307.8398)"><tspan x="0" y="0" class="st0 st1 st2">consumer</tspan> <tspan x="0" y="1.3em" class="st0 st1 st2">rights</tspan></text>
	<text transform="matrix(1 0 0 1 731.5644 494.0635)" class="st3 st1 st4">0%</text>
	<text transform="matrix(1 0 0 1 5.9648 525.5352)" class="st3 st1 st4">0</text>
	<text transform="matrix(1 0 0 1 703.8486 525.5352)" class="st3 st1 st4">10</text>
	<text transform="matrix(1 0 0 1 356.7724 525.5352)" class="st3 st1 st4">5</text>
</g>
<g class="anim1"><text transform="matrix(1 0 0 1 506.3017 559.9307)"><tspan x="0" y="0" class="st3 st1 st7">Ranking of priorities</tspan></text></g>
<g class="anim2"><line class="st5" x1="8" y1="502.5" x2="709.9" y2="502.5"/></g>
<g class="anim3"><line class="st5" x1="719.7" y1="490" x2="719.7" y2="6.8"/></g>
<g class="anim5">
	<g class="st16">
		<g>
			<defs>
				<rect id="T2G1_SVGID_1_" y="77.6" width="719" height="417.4"/>
			</defs>
			<clipPath id="T2G1_SVGID_2_">
				<use xlink:href="#T2G1_SVGID_1_"  style="overflow:visible;"/>
			</clipPath>
			<path class="st17" d="M11.7,494.1c0,0-0.1,0-0.1,0c-1.4,0-2.5-1.1-2.5-2.4c-0.1-1.4,1-2.6,2.4-2.7c19.4-0.9,37.1-2.1,56.1-3.2
				c38.2-2.3,77.6-4.6,116.5-5c22.9-0.2,46.1,1.7,68.5,3.6c34.7,2.9,70.5,5.9,105.6,0.8c14.5-2.1,29.2-2.5,43.5-2.8
				c44.4-1.1,86.4-2.1,129.4-51.5c38.5-44.2,77.9-133,115.9-218.8c19.1-43,38.8-87.5,58.2-126c0.6-1.3,2.2-1.8,3.4-1.1
				c1.3,0.6,1.8,407.9,1.1,409.1H11.7z"/>
		</g>
	</g>
	<g class="st16">
		<g>
			<defs>
				<rect id="T2G1_SVGID_3_" x="0" y="164.8" width="719" height="330.7"/>
			</defs>
			<clipPath id="T2G1_SVGID_4_">
				<use xlink:href="#T2G1_SVGID_3_"  style="overflow:visible;"/>
			</clipPath>
			<path class="st18" d="M709.4,494.5c0.9-1.1,0.8-321.2-0.3-322.1c-1.1-0.9-2.7-0.8-3.6,0.3c-19.4,23.3-39.1,49.2-58.2,74.2
				c-38,49.9-77.4,101.5-115.9,134.6c-63,53.9-125.8,76-173.5,89.2c-37.3,10.3-75.4,8.8-112.2,7.3c-20.2-0.8-41.1-1.6-61.7-0.5
				c-38.8,2.1-78.2,5-116.4,7.8c-19,1.4-36.8,2.8-56.1,4.2c-1.4,0.1-2.5,1.3-2.4,2.7c0.1,1.3,1.2,2.4,2.5,2.4c0.1,0,0.1,0,0.2,0
				H709.4z"/>
		</g>
	</g>
	<g class="st16">
		<g>
			<defs>
				<rect id="T2G1_SVGID_5_" x="0" y="199" width="719" height="296.5"/>
			</defs>
			<clipPath id="T2G1_SVGID_6_">
				<use xlink:href="#T2G1_SVGID_5_"  style="overflow:visible;"/>
			</clipPath>
			<path class="st19" d="M11.6,494.5L11.6,494.5c-1.4,0-2.6-1.1-2.6-2.5c0-1.4,1.1-2.6,2.5-2.6c19.4-0.2,37.1,0.1,56.2,0.3
				c38.1,0.5,77.4,1.1,116.1-2.2c10.9-0.9,22-1.7,32.7-2.4c46.3-3.1,94.2-6.4,141.1-25.5c47-19.1,94.9-54.8,141.3-89.2
				c10.7-8,21.8-16.2,32.6-24.1c38.7-28.1,78.1-60.6,116.2-92.1c19.1-15.8,38.8-32,58.2-47.6c1.1-0.9,2.7-0.7,3.6,0.4
				c0.9,1.1,0.7,286.7-0.4,287.6H11.6z"/>
		</g>
	</g>
	<g class="st16">
		<g>
			<defs>
				<rect id="T2G1_SVGID_7_" x="8.1" y="302.7" width="711.7" height="192.8"/>
			</defs>
			<clipPath id="T2G1_SVGID_8_">
				<use xlink:href="#T2G1_SVGID_7_"  style="overflow:visible;"/>
			</clipPath>
			<path class="st20" d="M20.4,494.5c-0.1,0-3.2-1.3-3.3-2.9c-0.1-1.7,1.2-3.2,2.9-3.3l171.7-10.1c19.2-1.1,38.6-1.1,57.4-1
				c37.3,0.1,75.9,0.2,113.7-9c41.4-10.2,83.7-31.1,124.5-51.4c15.3-7.6,31-15.4,46.6-22.6c38.1-17.6,76.9-37,114.4-55.8
				c18.8-9.4,38.2-19.1,57.2-28.5c1.5-0.7,3.4-0.1,4.1,1.4c0.7,1.5,1.8,182.3,0.3,183.1H20.4z"/>
		</g>
	</g>
	<g class="st16">
		<g>
			<defs>
				<rect id="T2G1_SVGID_9_" x="4.2" y="229.1" width="716.4" height="266"/>
			</defs>
			<clipPath id="T2G1_SVGID_10_">
				<use xlink:href="#T2G1_SVGID_9_"  style="overflow:visible;"/>
			</clipPath>
			<path class="st21" d="M710.9,494.1c1.3-1.1,0.5-255.6-0.7-256.9c-1.1-1.3-3.1-1.5-4.4-0.3c-19.3,16.5-38.8,34.3-57.7,51.6
				c-37.7,34.4-76.7,70-114.9,96.1c-67.1,45.8-121.8,73.6-172,87.5c-38,10.5-76.8,9.3-114.3,8.2c-18.9-0.6-38.5-1.2-57.9-0.3
				l-172.9,8c-1.7,0.1-3,1.5-3,3.2c0.1,1.7,1.4,3,3.1,3c0,0,0.1,0,0.1,0L710.9,494.1z"/>
		</g>
	</g>
</g>
</svg>
