<svg version="1.1" id="SVG_T3G1" xmlns="http://www.w3.org/2000/svg" xmlns:xlink="http://www.w3.org/1999/xlink" x="0px" y="0px"
	 viewBox="0 0 804.2 563" data-viewBox="0 0 804.2 563" style="enable-background:new 0 0 804.2 563;" xml:space="preserve">
<style type="text/css">
	#SVG_T3G1 .st0{fill:#3B454A; letter-spacing:-.1px;}
	#SVG_T3G1 .st1{font-family:'Raleway'; font-weight:600;}
	#SVG_T3G1 .st2{font-size:12px;}
	#SVG_T3G1 .st3{fill:none;stroke:#3B454A;}
	#SVG_T3G1 .st4{font-family:'Raleway'; font-weight:400;}
	#SVG_T3G1 .st5{fill:#3D3F41; letter-spacing:-.1px;}
	#SVG_T3G1 .st6{font-size:10px;}
	#SVG_T3G1 .st7{fill:#DE3849;}
	#SVG_T3G1 .st8{fill:none;stroke:#E5E5E5;stroke-width:0.729;stroke-miterlimit:10;}
	#SVG_T3G1 .st9{font-size:40px;}
	#SVG_T3G1 .st10{font-size:20px;}
	#SVG_T3G1 .st11{opacity:0.3;}
	#SVG_T3G1 .st12{clip-path:url(#T3G1_SVGID_2_);fill:#73818A;}
	#SVG_T3G1 .st13{clip-path:url(#T3G1_SVGID_4_);fill:#73818A;}
	#SVG_T3G1 .st14{clip-path:url(#T3G1_SVGID_6_);fill:#73818A;}
	#SVG_T3G1 .st15{clip-path:url(#T3G1_SVGID_8_);fill:#73818A;}
	#SVG_T3G1 .st16{clip-path:url(#T3G1_SVGID_10_);fill:#73818A;}
	#SVG_T3G1 .st17{fill:none;stroke:#DE384A;stroke-width:5.107;stroke-linecap:round;stroke-linejoin:round;stroke-miterlimit:10;}
</style>
<g class="anim2">
	<line class="st3" x1="8" y1="502.5" x2="709.9" y2="502.5"/>
</g>
<g class="anim3">
	<line class="st3" x1="719.7" y1="490" x2="719.7" y2="6.8"/>
</g>
<g class="anim6">
	<text transform="matrix(1 0 0 1 22.1406 164.3882)"><tspan x="0" y="0" class="st7 st1 st2">Disclose board</tspan> <tspan x="0" y="1.3em" class="st7 st1 st2">members</tspan></text>
	
	<path class="st7" d="M101,100.2c-0.1-1.5-0.1-2.8-0.2-4.2C100,90.7,94,87.3,89,89.5c-4.5,1.9-6,5.8-5.3,10.7H101z M53,100.2
		c0-1.2,0.1-2.2,0-3.3c-0.4-6.1-6.9-9.9-12.3-7.2c-4.1,2-5.4,5.8-4.9,10.5H53z M76.9,100.2c0-1.1,0.1-2.1,0-3.1
		c-0.3-5.1-4.8-8.8-9.6-8.2c-5.2,0.7-8.6,5.1-7.6,11.3H76.9z M101,103.7v1.2c0,8.4,0,16.9,0,25.3c0,0.3,0,0.7,0,1
		c-0.1,0.9-0.8,1.5-1.7,1.5c-0.9,0-1.6-0.7-1.6-1.6c0-0.3,0-0.6,0-0.9c0-8.4,0-16.9,0-25.3v-1.2H39.1v1.1c0,8.5,0,17,0,25.5
		c0,0.4,0,0.7-0.1,1.1c-0.2,0.8-0.8,1.3-1.7,1.3c-0.9,0-1.4-0.5-1.6-1.4c-0.1-0.4-0.1-0.7-0.1-1.1c0-8.5,0-16.9,0-25.4v-1.2h-1.1
		c-3.3,0-6.5,0-9.8,0c-0.5,0-1.1-0.1-1.6-0.4c-0.6-0.4-0.9-1-0.6-1.8c0.3-0.8,0.9-1.2,1.8-1.2c2,0,4,0,6,0c0.6,0,1.2,0,1.9,0
		c0-1.1,0-2,0-3c0.1-5.8,4.2-10.6,9.9-11.6c6.2-1.1,12.2,2.7,13.8,8.8c0.1,0.3,0.2,0.7,0.3,1.1C58,87.8,64.5,85,69.4,85.5
		c5.3,0.5,9.6,4.4,10.8,10.4c0.7-3.5,2.3-6.3,5.1-8.2c2.8-1.9,5.9-2.7,9.2-1.9c7.5,1.9,10.2,7.2,9.8,14.6c0.6,0,1.2,0,1.7,0
		c2,0,4.1,0,6.1,0c0.9,0,1.6,0.3,1.9,1.2c0.3,0.7,0.1,1.4-0.5,1.8c-0.4,0.3-1,0.4-1.6,0.4c-3.3,0-6.5,0-9.8,0H101z"/>
	<path class="st8" d="M101,100.2c-0.1-1.5-0.1-2.8-0.2-4.2C100,90.7,94,87.3,89,89.5c-4.5,1.9-6,5.8-5.3,10.7H101z M53,100.2
		c0-1.2,0.1-2.2,0-3.3c-0.4-6.1-6.9-9.9-12.3-7.2c-4.1,2-5.4,5.8-4.9,10.5H53z M76.9,100.2c0-1.1,0.1-2.1,0-3.1
		c-0.3-5.1-4.8-8.8-9.6-8.2c-5.2,0.7-8.6,5.1-7.6,11.3H76.9z M101,103.7v1.2c0,8.4,0,16.9,0,25.3c0,0.3,0,0.7,0,1
		c-0.1,0.9-0.8,1.5-1.7,1.5c-0.9,0-1.6-0.7-1.6-1.6c0-0.3,0-0.6,0-0.9c0-8.4,0-16.9,0-25.3v-1.2H39.1v1.1c0,8.5,0,17,0,25.5
		c0,0.4,0,0.7-0.1,1.1c-0.2,0.8-0.8,1.3-1.7,1.3c-0.9,0-1.4-0.5-1.6-1.4c-0.1-0.4-0.1-0.7-0.1-1.1c0-8.5,0-16.9,0-25.4v-1.2h-1.1
		c-3.3,0-6.5,0-9.8,0c-0.5,0-1.1-0.1-1.6-0.4c-0.6-0.4-0.9-1-0.6-1.8c0.3-0.8,0.9-1.2,1.8-1.2c2,0,4,0,6,0c0.6,0,1.2,0,1.9,0
		c0-1.1,0-2,0-3c0.1-5.8,4.2-10.6,9.9-11.6c6.2-1.1,12.2,2.7,13.8,8.8c0.1,0.3,0.2,0.7,0.3,1.1C58,87.8,64.5,85,69.4,85.5
		c5.3,0.5,9.6,4.4,10.8,10.4c0.7-3.5,2.3-6.3,5.1-8.2c2.8-1.9,5.9-2.7,9.2-1.9c7.5,1.9,10.2,7.2,9.8,14.6c0.6,0,1.2,0,1.7,0
		c2,0,4.1,0,6.1,0c0.9,0,1.6,0.3,1.9,1.2c0.3,0.7,0.1,1.4-0.5,1.8c-0.4,0.3-1,0.4-1.6,0.4c-3.3,0-6.5,0-9.8,0H101z"/>
	<path class="st7" d="M92.3,71.8c-2.4,0-4.4,2-4.4,4.3c0,2.6,1.9,4.6,4.4,4.6c2.5,0,4.5-2,4.5-4.4C96.7,73.9,94.7,71.8,92.3,71.8
		M100.1,76.1c0.1,4.3-3.5,7.9-7.8,7.9c-4.3,0.1-7.9-3.5-7.9-7.9c-0.1-4.2,3.5-7.8,7.7-7.9C96.5,68.2,100,71.7,100.1,76.1"/>
	<path class="st8" d="M92.3,71.8c-2.4,0-4.4,2-4.4,4.3c0,2.6,1.9,4.6,4.4,4.6c2.5,0,4.5-2,4.5-4.4C96.7,73.9,94.7,71.8,92.3,71.8z
		M100.1,76.1c0.1,4.3-3.5,7.9-7.8,7.9c-4.3,0.1-7.9-3.5-7.9-7.9c-0.1-4.2,3.5-7.8,7.7-7.9C96.5,68.2,100,71.7,100.1,76.1z"/>
	<path class="st7" d="M48.7,76.3c0-2.5-2-4.5-4.4-4.5c-2.5,0-4.5,2-4.5,4.4c0,2.5,2,4.5,4.4,4.5C46.8,80.8,48.8,78.8,48.7,76.3
		M36.5,76.1c0-4.2,3.5-7.8,7.8-7.8c4.3,0,7.9,3.6,7.9,7.9c0,4.2-3.6,7.8-7.8,7.8C40,84.1,36.5,80.6,36.5,76.1"/>
	<path class="st8" d="M48.7,76.3c0-2.5-2-4.5-4.4-4.5c-2.5,0-4.5,2-4.5,4.4c0,2.5,2,4.5,4.4,4.5C46.8,80.8,48.8,78.8,48.7,76.3z
		M36.5,76.1c0-4.2,3.5-7.8,7.8-7.8c4.3,0,7.9,3.6,7.9,7.9c0,4.2-3.6,7.8-7.8,7.8C40,84.1,36.5,80.6,36.5,76.1z"/>
	<path class="st7" d="M63.8,76.2c0,2.6,1.9,4.5,4.5,4.5c2.5,0,4.4-2,4.4-4.4c0-2.5-2-4.5-4.5-4.5C65.8,71.9,63.8,73.9,63.8,76.2
		M68.3,68.3c4.3,0,7.9,3.6,7.8,8c-0.1,4.3-3.6,7.8-7.9,7.8c-4.4,0-7.9-3.6-7.9-8.1C60.4,71.8,64,68.3,68.3,68.3"/>
	<path class="st8" d="M63.8,76.2c0,2.6,1.9,4.5,4.5,4.5c2.5,0,4.4-2,4.4-4.4c0-2.5-2-4.5-4.5-4.5C65.8,71.9,63.8,73.9,63.8,76.2z
		M68.3,68.3c4.3,0,7.9,3.6,7.8,8c-0.1,4.3-3.6,7.8-7.9,7.8c-4.4,0-7.9-3.6-7.9-8.1C60.4,71.8,64,68.3,68.3,68.3z"/>
</g>
<g class="anim7">
	<text transform="matrix(1 0 0 1 189.3608 164.3882)"><tspan x="0" y="0" class="st7 st1 st2">Disclose owners</tspan> <tspan x="0" y="1.3em" class="st7 st1 st2">and shareholders</tspan></text>
		
	<path class="st7" d="M263.9,128.1h-72.1v7.5h72.1V128.1z M192.8,125.8h69.9c-0.6-0.9-1.2-1.7-1.7-2.5c-2.3-3.2-4.6-6.4-6.8-9.6
		c-0.3-0.4-0.5-0.5-1-0.5c-2.8,0-5.5,0-8.3,0c-0.9,0-1.3-0.4-1.3-1.2c0-0.8,0.4-1.2,1.3-1.2c3.1,0,6.2,0,9.4,0c0.6,0,1,0.2,1.3,0.7
		c3.5,4.9,6.9,9.7,10.4,14.6c0.2,0.3,0.3,0.7,0.3,1.1c0,3.1,0,6.1,0,9.2c0,1.2-0.4,1.5-1.5,1.5c-7.2,0-14.4,0-21.6,0
		c-17.3,0-34.7,0-52,0c-1.4,0-1.7-0.3-1.7-1.7c0-3,0-5.9,0-8.9c0-0.4,0.2-0.9,0.4-1.3c3.4-4.8,6.8-9.5,10.2-14.3
		c0.4-0.6,0.9-0.8,1.6-0.8c3.1,0,6.1,0,9.2,0c0.8,0,1.2,0.3,1.3,0.9c0.1,0.9-0.3,1.4-1.2,1.4c-2.8,0-5.6,0-8.5,0
		c-0.5,0-0.8,0.1-1,0.5c-2.7,3.8-5.4,7.6-8.1,11.4C193.1,125.4,193,125.5,192.8,125.8"/>
	<path class="st7" d="M196.9,68.3c0,2.7,2.1,4.9,4.8,4.9c2.6,0.1,4.8-2.3,4.8-4.9c0-2.7-2.2-4.8-4.8-4.9
		C199,63.4,196.9,65.5,196.9,68.3 M191.7,84.8h19.8c0-0.8,0-1.6,0-2.3c-0.2-3.6-2.6-5.9-6.2-5.9c-2.6,0-5.2,0-7.7,0
		c-2.1,0-3.7,1-4.9,2.7C191.5,81,191.7,82.9,191.7,84.8 M197.6,74.1c-2-1.5-3.1-3.6-3.1-6.1c0-1.9,0.8-3.6,2.2-4.9
		c2.6-2.5,7-2.7,9.8-0.3c1.7,1.5,2.6,3.4,2.5,5.8c-0.1,2.3-1.2,4.1-3.1,5.6c0.5,0.1,0.9,0.2,1.2,0.2c3.1,0.4,6,3.1,6.5,6.2
		c0.3,1.8,0.2,3.7,0.3,5.6c0,0.7-0.5,1-1.4,1c-2.4,0-4.9,0-7.3,0c-0.2,0-0.4,0-0.8,0c0.6,0.6,1.1,1.2,1.6,1.7
		c2.7,2.8,5.5,5.6,8.2,8.4c0.4,0.4,0.7,0.8,0.4,1.3c-0.2,0.3-0.5,0.7-0.9,0.8c-0.4,0.1-0.9-0.2-1.2-0.4c-2.2-2.2-4.3-4.5-6.5-6.7
		c-1.5-1.5-3-3.1-4.5-4.6c-0.2-0.2-0.6-0.4-1-0.4c-3.2,0-6.4,0-9.5,0c-1.3,0-1.6-0.3-1.6-1.6c0-1.7,0-3.3,0.3-5
		c0.6-3.5,3.8-6.1,7.3-6.3c0.2,0,0.4,0,0.5-0.1C197.6,74.2,197.6,74.1,197.6,74.1"/>
	<path class="st7" d="M258.9,68.3c0-2.9-2.3-4.9-4.7-4.9c-3.5,0-5.1,2.7-5.1,5c0,2.6,2.4,4.7,5.1,4.6C256.8,73,258.9,70.8,258.9,68.3
		M263.8,84.8c0-0.8,0-1.5,0-2.2c0-3.3-2.4-6.1-6.1-6.1c-2.6,0-5.1,0-7.7,0c-2.7,0-4.9,1.5-5.7,4c-0.3,1.1-0.3,2.3-0.4,3.4
		c-0.1,0.9,0,0.9,0.9,0.9c6.1,0,12.2,0,18.3,0C263.3,84.9,263.5,84.8,263.8,84.8 M258.2,74.1c1,0.2,1.9,0.3,2.7,0.7
		c3.5,1.4,5.2,4.1,5.3,7.8c0,1,0,2,0,3c0,1.3-0.3,1.6-1.6,1.6c-3.1,0-6.1,0-9.2,0c-0.7,0-1.1,0.2-1.5,0.7c-3.3,4-6.7,8.1-10.1,12.1
		c-0.5,0.6-1.2,0.7-1.8,0.2c-0.5-0.4-0.5-1.1,0-1.7c2.9-3.5,5.9-7,8.8-10.6c0.1-0.2,0.3-0.4,0.5-0.7c-0.4,0-0.6,0-0.8,0
		c-2.5,0-4.9,0-7.4,0c-1.3,0-1.5-0.3-1.5-1.5c0.1-1.7,0-3.4,0.3-5.1c0.6-3.4,3.9-6.1,7.3-6.2c0.2,0,0.4-0.1,0.7-0.1
		c-4-3-3.8-7.8-1.6-10.5c2.6-3.1,6.7-3.4,9.4-1.6c2.1,1.4,3.3,3.4,3.4,5.9C261.4,70.6,260.2,72.6,258.2,74.1"/>
	<path class="st7" d="M223.1,68.3c0,2.7,2.2,4.8,4.9,4.8c2.7,0,4.8-2.2,4.8-4.8c0-2.8-2.3-4.9-5.1-4.8
		C225.1,63.5,223,65.7,223.1,68.3 M217.9,84.8h4.8c4.7,0,9.5,0,14.2,0c0.6,0,0.8-0.2,0.8-0.8c0-0.6,0-1.2,0-1.7
		c-0.2-3.4-2.7-5.7-6-5.7c-2.6,0-5.3,0-7.9,0c-2.5,0-4.5,1.4-5.5,3.7C217.7,81.7,218,83.2,217.9,84.8 M229.1,87.2c0,1.7,0,3.4,0,5
		c0,0.7-0.3,1.2-0.9,1.3c-0.9,0.1-1.4-0.3-1.4-1.2c0-1.6,0-3.3,0-5c-0.2,0-0.5,0-0.7,0c-3.1,0-6.1,0-9.2,0c-0.8,0-1.3-0.3-1.3-1
		c-0.1-1.9-0.2-3.9,0.2-5.8c0.8-3.3,3.8-5.8,7.2-6.1c0.2,0,0.5-0.1,0.9-0.1c-2.4-1.8-3.5-4.1-3.2-6.9c0.2-1.8,1-3.3,2.3-4.4
		c2.9-2.6,7.2-2.5,9.9,0.2c1,1,1.7,2.2,2,3.6c0.3,1.4,0.2,2.8-0.3,4.1c-0.5,1.3-1.5,2.4-2.8,3.4c0.5,0.1,0.7,0.1,1,0.1
		c3.8,0.4,6.9,3.8,7.1,7.6c0.1,1.3,0,2.6,0,4c0,0.9-0.4,1.3-1.3,1.3c-3,0-6,0-9,0H229.1z"/>
	<path class="st7" d="M216.1,108.7c0,6.6,5.1,11.9,11.8,11.9c6.5,0,11.8-5.4,11.8-11.8c-0.1-6.6-5.3-11.9-11.7-11.9
		C221.3,96.9,216,102.2,216.1,108.7 M213.7,108.6c0-7.2,5.7-13.8,13.6-14.1c7.9-0.3,14.4,6,14.6,14c0.1,7.6-5.9,14.1-13.6,14.4
		C220.4,123.2,213.7,116.9,213.7,108.6"/>
	<path class="st7" d="M227.3,102.7c-1.2,0-2.1,0.7-2.2,1.7c-0.1,1.1,0.8,2.1,2.2,2.2V102.7z M228.9,110.1v4.2c1.3,0,2.3-0.9,2.4-2
		C231.4,111.1,230.5,110.3,228.9,110.1 M228.7,118.5h-1.5c0-0.4,0-0.8,0-1.2c0-0.4-0.1-0.6-0.6-0.6c-2-0.3-3.7-1.1-5.3-2.5
		c0.6-0.7,1.1-1.4,1.7-2.1c1.2,1,2.4,1.8,4.1,2.1c0-1.2,0-2.3,0-3.4c0-1.1,0-1-1-1.3c-0.7-0.2-1.5-0.5-2.2-0.9
		c-2.9-1.5-2.2-5.7-0.4-7c0.9-0.6,1.8-1,2.8-1.2c0.6-0.1,0.9-0.3,0.8-0.9c0-0.1,0-0.2,0-0.4h1.4c0.1,0.4,0.1,0.9,0.3,1.1
		c0.2,0.2,0.7,0.2,1.1,0.2c1.3,0.3,2.7,0.9,3.6,1.6c-0.5,0.7-1,1.4-1.5,2.2c-1-0.7-2.1-1.3-3.3-1.3c0,1,0,2,0,3c0,1.4,0,1.4,1.3,1.7
		c0.3,0.1,0.7,0.2,1,0.4c1.9,0.8,2.8,2.2,2.8,4.2c0,2-1,3.5-3,4.2c-0.6,0.2-1.2,0.3-1.8,0.4c-0.3,0.1-0.5,0.2-0.5,0.5
		C228.8,117.6,228.7,118,228.7,118.5"/>
</g>
<g class="anim8">
	<text transform="matrix(1 0 0 1 358.2011 164.3882)"><tspan x="0" y="0" class="st7 st1 st2">Disclose</tspan> <tspan x="0" y="1.3em" class="st7 st1 st2">subcontractors</tspan></text>
		
	<path class="st7" d="M415.4,83c-5.6-5.3-11.1-10.5-16.7-15.8V83H415.4z M360.6,137.4h56.5V85.5h-0.8c-6.1,0-12.2,0-18.3,0
		c-1.3,0-1.7-0.3-1.7-1.6c0-5.8,0-11.6,0-17.4v-0.8h-35.7V137.4z M358.2,102.1c0-12,0-24,0-36c0-1.1,0.3-1.9,1.3-2.4
		c0.4-0.2,0.8-0.3,1.2-0.3c12.2,0,24.4,0,36.5,0c0.5,0,1,0.2,1.3,0.6c6.7,6.3,13.4,12.7,20.1,19c0.6,0.6,0.8,1.2,0.8,2
		c0,17.7,0,35.4,0,53.2c0,1.4-0.3,1.7-1.7,1.7c-19.3,0-38.5,0-57.8,0c-1.4,0-1.7-0.3-1.7-1.7C358.2,126.1,358.2,114.1,358.2,102.1"/>
	<path class="st7" d="M428.2,133.4c0,0,0.1,0,0.1,0c1-3.6,2.1-7.1,3.2-10.8H425C426.1,126.2,427.1,129.8,428.2,133.4 M424.8,85.6h7.2
		c0-1.4,0-2.8,0-4.2c0-1.3-0.5-2.2-1.5-3c-2-1.5-5.4-0.5-5.7,1.9C424.7,82.1,424.8,83.8,424.8,85.6 M432,88h-7.2v32.2h7.2V88z
		M434.3,101.2c0,6.6,0,13.2,0,19.9c0,0.4-0.1,0.8-0.2,1.1c-1.5,5.1-3,10.2-4.5,15.3c-0.2,0.6-0.4,1-1,1.2c-0.6,0.2-1.3-0.2-1.5-1
		c-0.7-2.5-1.4-5-2.2-7.5c-0.8-2.7-1.6-5.5-2.3-8.2c-0.1-0.3-0.2-0.7-0.2-1c0-13.2,0.1-26.5,0.1-39.7c0-2.7,1.7-5,4.2-5.7
		c2.7-0.7,5.5,0.4,6.9,2.7c0.6,1,0.8,2.1,0.8,3.2c0,6.5,0,13.1,0,19.6H434.3z"/>
	<path class="st7" d="M386.7,76c-1.7-1.9-3.2-3.7-4.9-5.5c-0.4,0.3-0.7,0.5-1,0.8c1.6,1.9,3.2,3.7,4.8,5.5
		C386,76.5,386.3,76.3,386.7,76 M365.3,84c1.6,1.9,3.2,3.7,4.9,5.6c0.4-0.3,0.7-0.6,1-0.9c-1.6-1.9-3.2-3.7-4.8-5.5
		C366,83.5,365.7,83.7,365.3,84 M379.7,73.7c-3.7,3-7.3,5.9-10.9,8.9c1.1,1.3,2.2,2.5,3.3,3.8c3.7-3,7.3-5.9,10.9-8.9
		C381.9,76.2,380.8,75,379.7,73.7 M385.7,79.7c-0.2,0-0.3,0-0.3,0c-0.8-0.5-1.3,0.1-1.8,0.6c-3.1,2.5-6.2,5.1-9.4,7.6
		c-0.3,0.2-0.4,0.4-0.3,0.8c0.2,0.5,0,0.9-0.4,1.2c-0.9,0.7-1.8,1.5-2.8,2.2c-0.6,0.4-1.3,0.3-1.8-0.3c-2-2.3-4.1-4.7-6.1-7
		c-0.5-0.6-0.5-1.3,0.1-1.8c0.9-0.8,1.9-1.5,2.9-2.3c0.4-0.3,0.8-0.2,1.3-0.1c0.2,0.1,0.5,0.1,0.6-0.1c3.4-2.8,6.8-5.5,10.2-8.3
		c0.1-0.1,0.2-0.4,0.2-0.6c-0.1-0.6,0.1-1.1,0.5-1.4c0.9-0.8,1.9-1.5,2.8-2.3c0.6-0.4,1.2-0.3,1.7,0.3c1.5,1.7,3,3.5,4.5,5.2
		c0.5,0.6,1,1.2,1.5,1.7c0.6,0.7,0.6,1.4-0.1,1.9c-0.9,0.8-1.8,1.5-2.8,2.2C386,79.6,385.8,79.7,385.7,79.7"/>
	<path class="st7" d="M380.5,86.5c0.1,0.1,0.1,0.2,0.1,0.2c4.3,5.3,8.5,10.7,12.9,16c0.3,0.4,0.8,0.6,1.3,0.8c1,0.3,1.8-0.4,1.7-1.4
		c-0.1-0.5-0.3-1-0.7-1.3c-4.3-4.7-8.7-9.3-13-14c-0.4-0.4-0.8-0.8-1.2-1.3C381.2,85.9,380.9,86.2,380.5,86.5 M398.9,102.2
		c0,1.5-0.6,2.6-1.9,3.3c-1.4,0.7-2.9,0.6-4.1-0.3c-0.9-0.7-1.7-1.7-2.4-2.6c-4.1-5.1-8.1-10.2-12.2-15.3c-0.7-0.9-0.7-1.4,0.3-2.1
		c0.8-0.6,1.6-1.2,2.3-1.9c0.8-0.7,1.3-0.6,2,0.1c2,2.2,4.1,4.3,6.1,6.5c2.8,3,5.7,6,8.5,9C398.3,99.8,398.8,100.9,398.9,102.2"/>
	<path class="st7" d="M388.9,112.5c7,0,14,0,21,0c0.6,0,1.2,0,1.5,0.6c0.3,0.7,0,1.4-0.8,1.6c-0.2,0-0.4,0.1-0.6,0.1
		c-14.1,0-28.1,0-42.2,0c-0.8,0-1.3-0.2-1.4-0.8c-0.2-0.7,0.1-1.3,0.8-1.5c0.2-0.1,0.5-0.1,0.7-0.1
		C374.8,112.5,381.8,112.5,388.9,112.5"/>
	<path class="st7" d="M388.8,131.8c-7,0-14.1,0-21.1,0c-0.5,0-1,0-1.3-0.5c-0.4-0.7,0-1.5,0.8-1.7c0.2,0,0.4,0,0.6,0
		c14.1,0,28.1,0,42.2,0c0.6,0,1.2,0,1.4,0.7c0.3,0.8-0.1,1.5-0.9,1.6c-0.2,0-0.5,0-0.7,0C402.8,131.8,395.8,131.8,388.8,131.8"/>
	<path class="st7" d="M388.9,120.9c7.1,0,14.1,0,21.2,0c1,0,1.7,1,1.2,1.7c-0.2,0.3-0.7,0.5-1,0.6c-0.5,0.1-1,0-1.5,0
		c-13.6,0-27.2,0-40.8,0c-0.3,0-0.6,0-0.9-0.1c-0.6-0.1-0.8-0.6-0.8-1.1c0-0.6,0.3-1,0.9-1.1c0.2,0,0.5,0,0.8,0
		C374.9,120.9,381.9,120.9,388.9,120.9"/>
	<path class="st7" d="M378.4,106.2c-3.5,0-7,0-10.4,0c-1,0-1.5-0.4-1.4-1.2c0-0.6,0.4-1,1.1-1.1c0.4,0,0.7,0,1.1,0
		c6.7,0,13.4,0,20.1,0c1.1,0,1.7,0.7,1.3,1.7c-0.2,0.6-0.7,0.7-1.3,0.7c-1.5,0-3.1,0-4.6,0C382.4,106.2,380.4,106.2,378.4,106.2"/>
	<path class="st7" d="M375.3,95.5c2.5,0,4.9,0,7.4,0c1.1,0,1.6,0.8,1.2,1.7c-0.2,0.5-0.7,0.6-1.2,0.6c-0.9,0-1.9,0-2.8,0
		c-4,0-7.9,0-11.9,0c-0.4,0-1-0.2-1.3-0.5c-0.6-0.8,0-1.7,1.1-1.8c2.4,0,4.7,0,7.1,0C375,95.5,375.2,95.5,375.3,95.5"/>
	<path class="st7" d="M404.2,97.8c-1.9,0-3.9,0-5.8,0c-1,0-1.5-0.9-1.1-1.7c0.3-0.5,0.7-0.6,1.2-0.6c1.8,0,3.7,0,5.5,0
		c2,0,4.1,0,6.1,0c1,0,1.6,0.9,1,1.7c-0.2,0.3-0.8,0.5-1.2,0.5C408,97.8,406.1,97.8,404.2,97.8"/>
	<path class="st7" d="M405.1,106.2c-1.6,0-3.1,0-4.7,0c-0.5,0-1-0.1-1.2-0.7c-0.3-0.9,0.2-1.6,1.3-1.6c1.5,0,2.9,0,4.4,0
		c1.7,0,3.4,0,5.1,0c0.7,0,1.2,0.3,1.3,1c0.1,0.7-0.4,1.3-1.2,1.3C408.3,106.2,406.7,106.2,405.1,106.2"/>
</g>
<g class="anim9">
	<text transform="matrix(1 0 0 1 507.4091 164.3882)"><tspan x="0" y="0" class="st7 st1 st2">Disclose</tspan> <tspan x="0" y="1.3em" class="st7 st1 st2">clients</tspan></text>
	<path class="st7" d="M546.7,101.9c9.7,0.2,18.2-7.7,18.2-18c0-10.3-8-18.1-18-18.2c-10.1-0.1-18.1,8.1-18.2,18
		C528.6,93.9,536.9,102,546.7,101.9 M567.3,84c-0.1,10.8-9,20.5-21.2,20.2c-10.6-0.3-20.2-8.9-19.8-21.3c0.4-10.5,9-19.9,21.2-19.5
		C558.2,63.6,567.2,72.2,567.3,84"/>
	<path class="st7" d="M520,117.7c-2.7,0-5,2.2-5,4.8c0,2.9,2.3,5.3,5,5.3c2.7,0,5-2.4,5-5C525,119.9,522.8,117.7,520,117.7
		M530.1,139.6c0-0.8,0-1.5,0-2.2c0-3.7-2.6-6.3-6.3-6.3c-2.6,0-5.2,0-7.7,0c-0.7,0-1.5,0.1-2.1,0.3c-3.2,1-4.9,4.6-4,8.1H530.1z
		M516,128.7c-4.2-3.3-4-8.1-1.6-10.9c2.7-3.1,7.4-3.5,10.3-0.9c1.8,1.6,2.8,3.6,2.6,6c-0.1,2.4-1.3,4.2-3.3,5.8
		c0.7,0.1,1.2,0.1,1.7,0.3c3.8,0.9,6.4,4,6.6,7.8c0.1,1.3,0,2.7,0,4c0,0.8-0.4,1.1-1.1,1.2c-0.3,0-0.5,0-0.8,0c-7,0-14.1,0-21.1,0
		c-0.3,0-0.7,0-1,0c-0.6-0.1-1-0.4-1-1c0-1.9-0.1-3.9,0.3-5.8c0.7-3.5,3.9-6.1,7.4-6.4C515.3,128.8,515.6,128.8,516,128.7"/>
	<path class="st7" d="M546.9,117.7c-2.8,0-5,2.2-5,4.8c0,2.9,2.2,5.2,5,5.2c2.7,0,5-2.3,5-5C551.9,120,549.6,117.7,546.9,117.7
		M536.7,139.6h20.2c0-0.8,0-1.6,0-2.3c0-3.4-2.5-6-6-6.1c-2.7-0.1-5.5,0-8.2,0c-3,0-5.3,1.9-5.9,4.7
		C536.6,137.1,536.7,138.3,536.7,139.6 M542.8,128.7c-2.3-1.8-3.5-4-3.3-6.9c0.1-1.8,0.9-3.3,2.2-4.5c2.7-2.6,7.1-2.8,9.9-0.3
		c1.8,1.6,2.7,3.6,2.6,6c-0.1,2.4-1.3,4.2-3.3,5.8c0.7,0.1,1.2,0.1,1.7,0.2c3.8,0.8,6.4,4,6.6,7.8c0.1,1.3,0,2.7,0,4
		c0,0.9-0.3,1.2-1.2,1.3c-0.3,0-0.5,0-0.8,0c-7,0-14,0-21,0c-0.2,0-0.3,0-0.5,0c-1.3,0-1.7-0.4-1.6-1.7c0.1-1.8,0-3.6,0.3-5.3
		c0.7-3.5,3.9-6,7.5-6.3C542.2,128.8,542.4,128.8,542.8,128.7"/>
	<path class="st7" d="M573.7,117.7c-2.8,0-5,2.2-5,4.9c0,2.8,2.3,5.2,5.1,5.1c2.7,0,5-2.3,5-5C578.8,120,576.4,117.7,573.7,117.7
		M563.4,139.6h20.3c0-0.8,0-1.6,0-2.4c-0.2-3.5-2.7-5.9-6.1-6c-2.7,0-5.4,0-8.1,0c-2.9,0-5.4,1.9-5.9,4.6
		C563.4,137,563.5,138.3,563.4,139.6 M577.8,128.7c0.6,0.1,1.2,0.1,1.7,0.2c3.8,0.8,6.4,4,6.6,8c0.1,1.3,0,2.6,0,3.9
		c0,0.8-0.3,1.1-1.1,1.2c-0.3,0-0.6,0-0.9,0c-7,0-14,0-21.1,0c-0.3,0-0.7,0-1-0.1c-0.6-0.1-1-0.4-1-1c0-1.9-0.1-3.9,0.3-5.8
		c0.7-3.6,3.9-6.1,7.5-6.4c0.2,0,0.4,0,0.7-0.1c-2.5-2-3.8-4.5-3.1-7.7c0.4-1.9,1.4-3.3,2.9-4.4c3.3-2.3,7.6-1.7,10.1,1.4
		C581.7,120.7,582.1,125.3,577.8,128.7"/>
	<path class="st7" d="M573.5,82.9c0.2,0,0.4,0,0.6,0c3,0,6,0,9.1,0c1,0,1.4,0.4,1.5,1.4c0,0.2,0,0.4,0,0.7c0,9.7,0,19.5,0,29.2
		c0,0.3,0,0.7-0.1,1c-0.1,0.6-0.6,0.9-1.1,0.9c-0.6,0-1-0.3-1.1-0.9c-0.1-0.4-0.1-0.7-0.1-1.1c0-9.3,0-18.5,0-27.8
		c0-0.6-0.2-0.8-0.8-0.8c-2.4,0-4.9,0-7.3,0c-0.2,0-0.4,0-0.6,0c-0.1,0.1-0.2,0.2-0.2,0.3c0.2,0.1,0.5,0.1,0.6,0.3
		c1,0.9,1.9,1.7,2.8,2.6c0.6,0.5,0.6,1.2,0.2,1.7c-0.5,0.6-1.1,0.6-1.7,0c-1.8-1.7-3.7-3.4-5.5-5c-0.9-0.8-0.9-1.4,0-2.2
		c1.8-1.6,3.6-3.2,5.4-4.8c0.8-0.7,1.9-0.5,2,0.5c0,0.4-0.2,0.9-0.5,1.2c-0.8,0.8-1.7,1.6-2.6,2.3c-0.2,0.1-0.3,0.3-0.5,0.4
		C573.5,82.8,573.5,82.8,573.5,82.9"/>
	<path class="st7" d="M518.9,85.4c-0.2,0-0.4,0-0.6,0c-2.1,0-4.2,0-6.3,0c-0.6,0-0.7,0.2-0.7,0.7c0,9.4,0,18.7,0,28.1
		c0,0.3,0,0.6-0.1,0.9c-0.1,0.6-0.7,1-1.3,0.9c-0.6-0.1-1-0.4-1-1.1c0-0.2,0-0.3,0-0.5c0-9.9,0-19.8,0-29.7c0-0.1,0-0.3,0-0.4
		c0-0.9,0.4-1.2,1.3-1.2c2.6,0,5.2,0,7.7,0h1c-0.2-0.3-0.4-0.5-0.5-0.6c-0.9-0.8-1.8-1.6-2.7-2.4c-0.7-0.6-0.6-1.5,0.1-1.9
		c0.4-0.3,0.9-0.3,1.3,0.1c1.9,1.7,3.9,3.4,5.8,5.1c0.6,0.6,0.7,1.3,0.1,1.9c-1.9,1.7-3.8,3.5-5.7,5.2c-0.6,0.5-1.3,0.5-1.7,0
		c-0.5-0.5-0.4-1.2,0.2-1.8c0.9-0.9,1.9-1.7,2.8-2.6c0.2-0.1,0.3-0.3,0.5-0.4C519,85.5,518.9,85.5,518.9,85.4"/>
	<path class="st7" d="M545.6,92.5v-0.7c0-1,0-2,0-3c0-0.7,0.4-1.1,1-1.1c0.6-0.1,1.1,0.3,1.3,0.9c0.1,0.3,0.1,0.6,0.1,0.9
		c0,1,0,2,0,2.9c3.2,0.4,7.8-4,7.8-7.6c-0.2,0-0.4,0-0.6,0c-1,0-2.1,0-3.1,0c-0.7,0-1.1-0.4-1.1-1.1c0-0.6,0.3-1.1,0.9-1.2
		c0.6-0.1,1.1-0.1,1.7-0.1c0.7,0,1.5,0,2.2,0c-0.3-3.6-3.8-7.2-7.3-7.6c-0.5-0.1-0.5,0.1-0.5,0.5c0,1,0,2.1,0,3.1
		c0,0.8-0.5,1.2-1.2,1.1c-0.7,0-1.1-0.4-1.1-1.2c0-0.3,0-0.7,0-1v-2.5c-3.7,0.2-7.4,3.8-7.8,7.6c0.6,0,1.3,0,1.9,0c0.7,0,1.3,0,2,0.1
		c0.7,0.1,1,0.6,0.9,1.3c0,0.6-0.4,1-1.1,1c-0.5,0-1,0-1.4,0c-0.8,0-1.5,0-2.3,0C538.3,89.5,542.6,92.5,545.6,92.5 M558.2,85
		c-0.4,2.7-1.5,5-3.4,6.9c-1.8,1.8-3.9,2.8-6.3,3.2c-0.5,0.1-0.6,0.2-0.6,0.7c0,0.9,0,1.8,0,2.7c0,0.2,0,0.5,0,0.7
		c-0.1,0.7-0.6,1.1-1.3,1c-0.7-0.1-1-0.5-1.1-1.2c0-1.1,0-2.2,0-3.3c0-0.5-0.2-0.6-0.6-0.7c-4.6-0.5-8.8-4.6-9.5-9.2
		c-0.1-0.6-0.2-0.9-0.9-0.8c-0.9,0.1-1.9,0-2.8,0c-0.8,0-1.3-0.3-1.4-1c-0.2-0.8,0.3-1.4,1.2-1.5c1,0,2,0,3,0h0.6
		c0.4-1.2,0.7-2.4,1.2-3.5c1.7-3.7,4.7-5.9,8.7-6.6c0.4-0.1,0.6-0.2,0.6-0.7c0-1,0-2.1,0-3.1c0-0.8,0.4-1.2,1.1-1.3
		c0.7,0,1.2,0.4,1.3,1.2c0,1.1,0,2.1,0,3.2c0,0.4,0.1,0.6,0.6,0.7c4.1,0.7,7,3,8.8,6.8c0.5,1,0.7,2.1,1.1,3.3c1.1,0,2.4,0,3.6,0
		c1,0,1.5,0.8,1.2,1.7c-0.2,0.6-0.8,0.8-1.3,0.8c-1,0-1.9,0-2.9,0C558.7,85,558.5,85,558.2,85"/>
</g>
<g class="anim11">
	<text transform="matrix(1 0 0 1 14.7245 403.1875)" class="st7 st1 st9">6.6</text>
	<text transform="matrix(1 0 0 1 16.9999 425.2871)"><tspan x="0" y="0" class="st5 st1 st6">* average score for transparency requirements</tspan></text>
</g>
<g class="anim4">
	<text transform="matrix(1 0 0 1 5.9648 525.5352)" class="st0 st1 st2">0</text>
	<text transform="matrix(1 0 0 1 356.7724 525.5352)" class="st0 st1 st2">5</text>
	<text transform="matrix(1 0 0 1 703.8486 525.5352)" class="st0 st1 st2">10</text>
	<text transform="matrix(1 0 0 1 731.5644 10.2598)" class="st0 st1 st2">100%</text>
	<text transform="matrix(1 0 0 1 733.1279 83.7002)"><tspan x="0" y="0" class="st5 st1 st6">environmental</tspan> <tspan x="0" y="1.3em" class="st5 st1 st6">protection</tspan></text>
	<text transform="matrix(1 0 0 1 733.1279 169.9204)"><tspan x="0" y="0" class="st5 st1 st6">workplace</tspan> <tspan x="0" y="1.3em" class="st5 st1 st6">safety</tspan></text>
	<text transform="matrix(1 0 0 1 733.1279 204.0703)"><tspan x="0" y="0" class="st5 st1 st6">workers’</tspan> <tspan x="0" y="1.3em" class="st5 st1 st6">rights</text>
	<text transform="matrix(1 0 0 1 733.1279 234.1304)"><tspan  x="0" y="0"class="st5 st1 st6">impact on</tspan> <tspan x="0" y="1.3em" class="st5 st1 st6">communities</tspan></text>
	<text transform="matrix(1 0 0 1 733.1279 307.8398)"><tspan x="0" y="0" class="st5 st1 st6">consumer</tspan> <tspan x="0" y="1.3em" class="st5 st1 st6">rights</text>
	<text transform="matrix(1 0 0 1 731.5644 494.0635)" class="st0 st1 st2">0%</text>
</g>
<g class="anim1">
	<text transform="matrix(1 0 0 1 273.5302 558.5078)"><tspan x="0" y="0" class="st1 st10">Priority given to transparency requirements</tspan></text>
</g>
<g class="anim5">
	<g class="st11">
		<g>
			<defs>
				<rect id="T3G1_SVGID_1_" y="77.6" width="719" height="417.4"/>
			</defs>
			<clipPath id="T3G1_SVGID_2_">
				<use xlink:href="#T3G1_SVGID_1_"  style="overflow:visible;"/>
			</clipPath>
			<path class="st12" d="M11.7,494.1c0,0-0.1,0-0.1,0c-1.4,0-2.5-1.1-2.5-2.4c-0.1-1.4,1-2.6,2.4-2.7c19.4-0.9,37.1-2.1,56.1-3.2
				c38.2-2.3,77.6-4.6,116.5-5c22.9-0.2,46.1,1.7,68.5,3.6c34.7,2.9,70.5,5.9,105.6,0.8c14.5-2.1,29.2-2.5,43.5-2.8
				c44.4-1.1,86.4-2.1,129.4-51.5c38.5-44.2,77.9-133,115.9-218.8c19.1-43,38.8-87.5,58.2-126c0.6-1.3,2.2-1.8,3.4-1.1
				c1.3,0.6,1.8,407.9,1.1,409.1H11.7z"/>
		</g>
	</g>
	<g class="st11">
		<g>
			<defs>
				<rect id="T3G1_SVGID_3_" x="0" y="164.8" width="719" height="330.7"/>
			</defs>
			<clipPath id="T3G1_SVGID_4_">
				<use xlink:href="#T3G1_SVGID_3_"  style="overflow:visible;"/>
			</clipPath>
			<path class="st13" d="M709.4,494.5c0.9-1.1,0.8-321.2-0.3-322.1c-1.1-0.9-2.7-0.8-3.6,0.3c-19.4,23.3-39.1,49.2-58.2,74.2
				c-38,49.9-77.4,101.5-115.9,134.6c-63,53.9-125.8,76-173.5,89.2c-37.3,10.3-75.4,8.8-112.2,7.3c-20.2-0.8-41.1-1.6-61.7-0.5
				c-38.8,2.1-78.2,5-116.4,7.8c-19,1.4-36.8,2.8-56.1,4.2c-1.4,0.1-2.5,1.3-2.4,2.7c0.1,1.3,1.2,2.4,2.5,2.4c0.1,0,0.1,0,0.2,0
				H709.4z"/>
		</g>
	</g>
	<g class="st11">
		<g>
			<defs>
				<rect id="T3G1_SVGID_5_" x="0" y="199" width="719" height="296.5"/>
			</defs>
			<clipPath id="T3G1_SVGID_6_">
				<use xlink:href="#T3G1_SVGID_5_"  style="overflow:visible;"/>
			</clipPath>
			<path class="st14" d="M11.6,494.5L11.6,494.5c-1.4,0-2.6-1.1-2.6-2.5c0-1.4,1.1-2.6,2.5-2.6c19.4-0.2,37.1,0.1,56.2,0.3
				c38.1,0.5,77.4,1.1,116.1-2.2c10.9-0.9,22-1.7,32.7-2.4c46.3-3.1,94.2-6.4,141.1-25.5c47-19.1,94.9-54.8,141.3-89.2
				c10.7-8,21.8-16.2,32.6-24.1c38.7-28.1,78.1-60.6,116.2-92.1c19.1-15.8,38.8-32,58.2-47.6c1.1-0.9,2.7-0.7,3.6,0.4
				c0.9,1.1,0.7,286.7-0.4,287.6H11.6z"/>
		</g>
	</g>
	<g class="st11">
		<g>
			<defs>
				<rect id="T3G1_SVGID_7_" x="8.1" y="302.7" width="711.7" height="192.8"/>
			</defs>
			<clipPath id="T3G1_SVGID_8_">
				<use xlink:href="#T3G1_SVGID_7_"  style="overflow:visible;"/>
			</clipPath>
			<path class="st15" d="M20.4,494.5c-0.1,0-3.2-1.3-3.3-2.9c-0.1-1.7,1.2-3.2,2.9-3.3l171.7-10.1c19.2-1.1,38.6-1.1,57.4-1
				c37.3,0.1,75.9,0.2,113.7-9c41.4-10.2,83.7-31.1,124.5-51.4c15.3-7.6,31-15.4,46.6-22.6c38.1-17.6,76.9-37,114.4-55.8
				c18.8-9.4,38.2-19.1,57.2-28.5c1.5-0.7,3.4-0.1,4.1,1.4c0.7,1.5,1.8,182.3,0.3,183.1H20.4z"/>
		</g>
	</g>
	<g class="st11">
		<g>
			<defs>
				<rect id="T3G1_SVGID_9_" x="4.2" y="229.1" width="716.4" height="266"/>
			</defs>
			<clipPath id="T3G1_SVGID_10_">
				<use xlink:href="#T3G1_SVGID_9_"  style="overflow:visible;"/>
			</clipPath>
			<path class="st16" d="M710.9,494.1c1.3-1.1,0.5-255.6-0.7-256.9c-1.1-1.3-3.1-1.5-4.4-0.3c-19.3,16.5-38.8,34.3-57.7,51.6
				c-37.7,34.4-76.7,70-114.9,96.1c-67.1,45.8-121.8,73.6-172,87.5c-38,10.5-76.8,9.3-114.3,8.2c-18.9-0.6-38.5-1.2-57.9-0.3
				l-172.9,8c-1.7,0.1-3,1.5-3,3.2c0.1,1.7,1.4,3,3.1,3c0,0,0.1,0,0.1,0L710.9,494.1z"/>
		</g>
	</g>
</g>
<g class="anim10">
	<text transform="matrix(1 0 0 1 287.9169 374.9766)"><tspan x="0" y="0" class="st7 st1 st2">transparency</tspan></text>
	<path class="st17" d="M709.4,405.8v86.8H11.6 M11.6,492.6c58.2-9.9,116.3-15.7,174.5-29.7c58.2-14.1,116.3-37,174.5-54.8
		s116.3-51.5,174.5-51.9c58.2-0.4,116.3,33,174.5,49.6"/>
</g>
</svg>
