<svg version="1.1" id="SVG_T5-1" xmlns="http://www.w3.org/2000/svg" xmlns:xlink="http://www.w3.org/1999/xlink" x="0px" y="0px"
	 viewBox="0 0 303.8 297.4" data-viewBox="0 0 303.8 297.4" style="enable-background:new 0 0 303.8 297.4;" xml:space="preserve">
<style type="text/css">
	#SVG_T5-1 .st0{fill:#3D3F41;}
	#SVG_T5-1 .st1{ font-weight:600;}
	#SVG_T5-1 .st2{font-size:10px; }
	#SVG_T5-1 .st3{font-size:25px;}
	#SVG_T5-1 .st4{fill:#DE3849;}
</style>
<g class="anim0"><text transform="matrix(1 0 0 1 140.6218 21.3749)" class="st0 st1 st3">سن</text></g>
<g class="anim1-1">
	<text transform="matrix(1 0 0 1 31.51 219.9066)" class="st0 st1 st2">زیر </text> 
	<text transform="matrix(1 0 0 1 31.51 236.9066)" class="st0 st1 st2">۲۰ </text> 
	<text transform="matrix(1 0 0 1 31.51 250.9066)" class="st0 st1 st2">سال</text>
</g>
<g class="anim2-1">
	<text transform="matrix(1 0 0 1 67.3699 225.7162)" class="st0 st1 st2">۲۰-</text>
	<text transform="matrix(1 0 0 1 67.3699 237.7162)" class="st0 st1 st2">۲۹</text>
</g>
<g class="anim3-1">
	<text transform="matrix(1 0 0 1 107.2498 225.7162)" class="st0 st1 st2">۳۰-</text>
	<text transform="matrix(1 0 0 1 107.2498 237.7162)" class="st0 st1 st2">۳۹</text>
</g>
<g class="anim4-1">
	<text transform="matrix(1 0 0 1 145.3699 225.7162)" class="st0 st1 st2">۴۰-</text>
	<text transform="matrix(1 0 0 1 145.3699 237.7162)" class="st0 st1 st2">۴۹</text>
</g>
<g class="anim5-1">
	<text transform="matrix(1 0 0 1 184.5999 225.7162)" class="st0 st1 st2">۵۰-</text>
	<text transform="matrix(1 0 0 1 184.5999 237.7162)" class="st0 st1 st2">۵۹</text>
</g>
<g class="anim6-1">
	<text transform="matrix(1 0 0 1 240.1799 225.9066)" class="st0 st1 st2 rtl">۶۰ و</text>
	<text transform="matrix(1 0 0 1 222.1799 237.9066)" class="st0 st1 st2">بالاتر</text>
</g>
<g class="anim7-1">
	<text transform="matrix(1 0 0 1 262.6301 225.7162)" class="st0 st1 st2">غیر</text>
	<text transform="matrix(1 0 0 1 255.6301 237.7162)" class="st0 st1 st2">مشخص</text>
</g>
<g class="anim1-2"><rect x="31.1" y="182.7" class="st4" width="12.9" height="25.5"/></g>
<g class="anim2-2"><rect x="69.9" y="103.3" class="st4" width="12.9" height="104.9"/></g>
<g class="anim7-2"><rect x="263.9" y="199.3" class="st4" width="12.9" height="9"/></g>
<g class="anim6-2"><rect x="225.1" y="166.8" class="st4" width="12.9" height="41.4"/></g>
<g class="anim5-2"><rect x="186.3" y="148.2" class="st4" width="12.9" height="60"/></g>
<g class="anim4-2"><rect x="147.5" y="97.2" class="st4" width="12.9" height="111.1"/></g>
<g class="anim3-2"><rect x="108.7" y="81.7" class="st4" width="12.9" height="126.6"/></g>
</g>
</svg>
