<svg version="1.1" id="SVG_T3G2" xmlns="http://www.w3.org/2000/svg" xmlns:xlink="http://www.w3.org/1999/xlink" x="0px" y="0px"
	 viewBox="0 0 789.2 539.8" data-viewBox="0 0 789.2 539.8" style="enable-background:new 0 0 789.2 539.8;" xml:space="preserve">
<style type="text/css">
	#SVG_T3G2 .st0{fill:#DE3849;}
	#SVG_T3G2 .st1{fill:#7DCDA5;}
	#SVG_T3G2 .st2{fill:none;stroke:#3B454A;stroke-width:1.013;}
	#SVG_T3G2 .st3{fill:#3B454A;}
	#SVG_T3G2 .st5{fill:#DE384A;}
	#SVG_T3G2 .st6{clip-path:url(#T3G2_SVGID_2_);fill:#7DCDA5;}
	#SVG_T3G2 .st7{clip-path:url(#T3G2_SVGID_2_);fill:#7DCCA6;}
	#SVG_T3G2 .st8{clip-path:url(#T3G2_SVGID_4_);fill:#7DCDA5;}
	#SVG_T3G2 .st9{clip-path:url(#T3G2_SVGID_4_);fill:#7DCCA6;}
	#SVG_T3G2 .st10{fill:#3D3F41;}
	#SVG_T3G2 .st11{font-family:'Raleway'; font-weight:600;}
	#SVG_T3G2 .st12{font-size:10px;}
	#SVG_T3G2 .st13{font-size:16px;}
	#SVG_T3G2 .st14{font-size:43.3967px;}
	#SVG_T3G2 .st15{font-family:'Raleway'; font-weight:400;}
	#SVG_T3G2 .st16{font-size:25.3003px;}
</style>
<g class="anim4">
	<path class="st0" d="M265.2,82.1C265,36.5,228-0.2,182.5,0c-45.5,0.2-82.3,37.3-82.1,82.8c0.2,45.5,37.3,82.3,82.8,82.1
		C228.7,164.6,265.4,127.6,265.2,82.1"/>
</g>
<g class="anim5">
	<path class="st1" d="M703.8,81.4c-0.2-38.2-31.3-69.1-69.5-68.9C596,12.6,565.2,43.7,565.4,82c0.2,38.2,31.3,69.1,69.5,68.9
		C673.1,150.7,704,119.6,703.8,81.4"/>
</g>
<g class="anim2">
	<path class="st0" d="M248.6,356.7c-0.2-35.4-29-64-64.4-63.8c-35.4,0.2-64,29-63.8,64.4c0.2,35.4,29,64,64.4,63.8
		C220.2,421,248.8,392.1,248.6,356.7"/>
</g>
<g class="anim3">
	<path class="st0" d="M247.5,228.6c-0.2-35.4-29-64-64.4-63.8c-35.4,0.2-64,29-63.8,64.4c0.2,35.4,29,64,64.4,63.8
		C219.1,292.9,247.7,264,247.5,228.6"/>	
</g>
<g class="anim1">
	<path class="st0" d="M244.1,480.2c-0.1-32.8-26.8-59.2-59.6-59.1c-32.8,0.1-59.2,26.8-59.1,59.6s26.8,59.2,59.6,59.1
		S244.2,513,244.1,480.2"/>
</g>
<g class="anim2-2"><line class="st2" x1="185.5" y1="357" x2="366.2" y2="357"/></g>
<g class="anim2-1"><path class="st3" d="M185.5,359.1c1.1,0,2-0.9,2-2c0-1.1-0.9-2-2-2c-1.1,0-2,0.9-2,2C183.5,358.1,184.4,359.1,185.5,359.1"/></g>
<g class="anim4-2"><line class="st2" x1="184.8" y1="82.6" x2="365.2" y2="82.6"/></g>
<g class="anim4-1"><path class="st3" d="M184.8,84.6c1.1,0,2-0.9,2-2c0-1.1-0.9-2-2-2c-1.1,0-2,0.9-2,2C182.8,83.7,183.7,84.6,184.8,84.6"/></g>
<g class="anim3-2"><line class="st2" x1="185.5" y1="228.9" x2="366.2" y2="228.9"/></g>
<g class="anim3-1"><path class="st3" d="M185.5,231c1.1,0,2-0.9,2-2c0-1.1-0.9-2-2-2c-1.1,0-2,0.9-2,2C183.5,230,184.4,231,185.5,231"/></g>
<g class="anim1-2"><line class="st2" x1="186.2" y1="480.5" x2="367" y2="480.5"/></g>
<g class="anim1-1"><path class="st3" d="M186.2,482.5c1.1,0,2-0.9,2-2c0-1.1-0.9-2-2-2c-1.1,0-2,0.9-2,2C184.2,481.6,185.1,482.5,186.2,482.5"/></g>
<g class="anim5-2-1"><line class="st2" x1="634.6" y1="81.7" x2="634.6" y2="194"/></g>
<g class="anim5-2-2"><line class="st2" x1="634.6" y1="194" x2="727.5" y2="194"/></g>
<g class="anim5-1"><path class="st3" d="M634.6,83.8c1.2,0,2.2-1,2.2-2.2c0-1.2-1-2.2-2.2-2.2c-1.2,0-2.2,1-2.2,2.2C632.4,82.9,633.4,83.8,634.6,83.8" /></g>
<g class="anim3-4">
	<path class="st1" d="M421.8,214.4c1,0,1.8-0.8,1.8-1.8c0-1-0.8-1.8-1.8-1.8c-1,0-1.8,0.8-1.8,1.8C420,213.5,420.8,214.4,421.8,214.4
		M417,209.1c0.1-0.1,0.2-0.2,0.2-0.3c1.4-1.7,3.1-2.5,5.3-2.2c1.2,0.2,2.2,0.5,3.1,1.4c1.2,1.1,1.7,2.5,2,4.1c0.1,0.7,0,1.5,0.2,2.2
		c0.7,2.4,2.2,3.9,4.8,4.3c3.6,0.5,6-2.2,6.4-4.7c0.2-1.4,0.1-2.8-0.3-4.2c-1.2-4.7-5.1-8.1-10-8.5c-3.6-0.3-6.8,0.9-9.4,3.6
		C418.3,206.1,417.4,207.5,417,209.1 M427.8,199.9c7,0.1,12.7,5.4,12.7,12.9c0,6.8-5.4,12.5-12.7,12.6c-7.3,0-13-5.9-12.7-13.3
		C415.2,205.9,420.3,200,427.8,199.9"/>
	<path class="st1" d="M397.3,197.9c-0.8,1.5-1.6,2.9-2.5,4.3h5C398.9,200.7,398.1,199.3,397.3,197.9 M399.5,219.1h-4.9
		c0.8,1.4,1.6,2.8,2.5,4.3C397.9,222,398.7,220.6,399.5,219.1 M391.2,217.1c-0.8-1.5-1.7-2.9-2.5-4.4c-0.9,1.5-1.7,2.9-2.5,4.4H391.2
		z M405.6,208.5c0.9-1.5,1.7-2.9,2.5-4.4h-5C404,205.6,404.8,207,405.6,208.5 M405.7,212.4c-0.9,1.6-1.8,3.1-2.7,4.7h5.5
		C407.5,215.5,406.6,214,405.7,212.4 M391.4,204.2h-5.5c0.9,1.6,1.8,3.1,2.7,4.7C389.6,207.3,390.5,205.7,391.4,204.2 M397,217.2
		c1.1,0,2.2,0,3.3,0c0.2,0,0.4-0.1,0.5-0.3c1.2-2,2.4-4.1,3.5-6.1c0.1-0.2,0.1-0.4,0-0.6c-1.1-1.9-2.2-3.8-3.3-5.7
		c-0.2-0.3-0.3-0.4-0.6-0.4c-2.1,0-4.3,0-6.4,0c-0.3,0-0.5,0.1-0.6,0.3c-1.1,2-2.3,4-3.5,6c-0.2,0.3-0.1,0.5,0,0.7
		c1.1,1.9,2.2,3.7,3.2,5.6c0.2,0.3,0.3,0.4,0.6,0.4C394.9,217.2,395.9,217.2,397,217.2 M411.5,202.2c-0.1,0.2-0.2,0.4-0.3,0.5
		c-1.4,2.5-2.8,4.9-4.3,7.3c-0.2,0.3-0.2,0.5,0,0.9c1.5,2.5,2.9,5.1,4.4,7.6c0.1,0.2,0.2,0.4,0.3,0.6h-0.6c-3,0-5.9,0-8.9,0
		c-0.4,0-0.6,0.1-0.7,0.4c-1.4,2.4-2.8,4.9-4.2,7.3c-0.1,0.1-0.2,0.3-0.3,0.5c-0.1-0.2-0.2-0.3-0.3-0.5c-1.4-2.4-2.8-4.8-4.2-7.3
		c-0.2-0.3-0.4-0.4-0.7-0.4c-3,0-6,0-9,0c0.1-0.2,0.2-0.4,0.3-0.5c1.4-2.5,2.8-4.9,4.3-7.3c0.2-0.3,0.2-0.5,0-0.9
		c-1.5-2.6-3-5.2-4.5-7.7c-0.1-0.1-0.1-0.3-0.3-0.5c0.2,0,0.4,0,0.6,0c3,0,5.9,0,8.9,0c0.4,0,0.6-0.1,0.9-0.5
		c1.4-2.4,2.8-4.8,4.1-7.2c0.1-0.2,0.2-0.3,0.3-0.5c1,1.8,2,3.5,3.1,5.3c0.5,0.8,1,1.6,1.4,2.4c0.2,0.4,0.4,0.5,0.9,0.5
		c2.8,0,5.6,0,8.3,0H411.5z"/>
	<path class="st1" d="M400.6,229.3c0.5,1.2,0.9,2.4,1.3,3.5c0.1,0.3-0.1,0.4-0.3,0.5c-2.3,0.8-4.6,1.7-6.9,2.5
		c-0.4,0.1-0.5,0.3-0.4,0.7c2.1,5.6,4.1,11.2,6.2,16.7c0.2,0.4,0.1,0.6-0.3,0.8c-1,0.3-2,0.7-3,1.1c-0.3,0.1-0.5,0-0.6-0.3
		c-1.7-4.5-3.3-8.9-5-13.4c-0.4-1.2-0.9-2.3-1.3-3.5c-0.1-0.4-0.3-0.4-0.6-0.3c-2.2,0.8-4.4,1.6-6.6,2.5c-0.2,0.1-0.3,0.1-0.5,0.2
		c-0.5-1.2-0.9-2.4-1.3-3.6c-0.1-0.3,0.1-0.4,0.3-0.4c1.7-0.6,3.5-1.3,5.2-1.9c0.5-0.2,1-0.4,1.5-0.5c0.4-0.1,0.5-0.3,0.3-0.7
		c-0.8-2.1-1.5-4.1-2.3-6.3c0.6-0.2,1.2-0.5,1.8-0.7c0.6-0.2,1.2-0.4,1.7-0.7c0.3-0.2,0.5,0,0.6,0.3c0.7,2,1.5,4,2.2,6
		c0.1,0.4,0.3,0.5,0.6,0.3c2.3-0.9,4.5-1.7,6.8-2.6C400.2,229.4,400.4,229.3,400.6,229.3"/>
	<path class="st0" d="M422.4,227.7c3.3-0.4,8.8,1.6,11.9,6.2c3.3,5,3.3,11.8-0.9,16.8c-3.8,4.6-10.6,6.3-16.2,4.1
		c-5.8-2.3-9.3-8-9-13.6c0.6,3.2,2,5.8,4.6,7.8c2.6,2,5.5,2.9,8.7,2.5c6.2-0.7,10.5-5.5,10.9-11.1C432.8,234.8,429,229.1,422.4,227.7
		"/>
	<path class="st0" d="M413.8,233.5c1.1,0.5,2.3,0.9,3.4,1.4c0.4,0.2,0.6,0.1,0.8-0.2c0.7-0.9,1.4-1.7,2.1-2.6
		c0.1-0.1,0.1-0.2,0.2-0.3c0,0,0.1,0.1,0.1,0.1c-0.1,1.3-0.2,2.5-0.3,3.8c0,0.4,0.1,0.5,0.4,0.7c1.2,0.4,2.3,0.9,3.6,1.4
		c-1.1,0.3-2,0.5-2.9,0.7c-0.4,0.1-1,0.1-1.3,0.4c-0.2,0.3-0.1,0.8-0.2,1.2c-0.1,1-0.1,1.9-0.2,3c-0.1-0.2-0.2-0.3-0.3-0.4
		c-0.6-1-1.2-2-1.8-2.9c-0.2-0.3-0.3-0.3-0.6-0.3c-1.2,0.3-2.5,0.6-3.8,1c0.7-0.8,1.3-1.6,2-2.3c0.3-0.3,0.8-0.7,0.8-1
		c0-0.4-0.4-0.8-0.6-1.1C414.7,235.2,414.2,234.4,413.8,233.5L413.8,233.5z"/>
	<path class="st1" d="M435.4,212.6c0,1-0.8,1.8-1.8,1.8c-1,0-1.8-0.8-1.8-1.8c0-1,0.8-1.8,1.8-1.8
		C434.7,210.8,435.4,211.6,435.4,212.6"/>
</g>
<g class="anim2-4">
	<path class="st1" d="M407.9,359.3c0.1-0.1,0.2-0.1,0.3-0.2c5-3.6,7.3-8.5,6.6-14.6c-0.5-4.6-2.8-8.2-6.6-10.8
		c-0.2-0.2-0.4-0.2-0.7,0c-1.8,1.2-3.3,2.7-4.4,4.5c-3.4,5.8-3.2,11.6,0.5,17.2C404.8,356.9,406.2,358.2,407.9,359.3 M410.4,360.5
		c5.2,2.3,13,1.4,17.8-4.7c4.6-5.9,4.4-14.4-0.7-19.9c-5.2-5.7-12.7-5.8-17.1-3.8C419.6,339,419.9,353.4,410.4,360.5 M405.3,360.5
		c-4.5-3.7-7-8.4-7-14.2c0-5.9,2.5-10.5,7-14.2c-6-2.5-13.5-0.9-18,5c-4.4,5.8-4,13.8,0.4,19.1C392.5,361.8,399.9,362.9,405.3,360.5
		M427.8,332.8c2.6-2.6,5.2-5.2,7.7-7.7c-0.1,0-0.3,0-0.5,0c-2.6,0-5.1,0-7.7,0c-1,0-1.7-0.9-1.3-1.7c0.2-0.6,0.7-0.8,1.3-0.8
		c0.8,0,1.7,0,2.5,0c2.9,0,5.9,0,8.8,0c0.8,0,1.3,0.6,1.3,1.4c0,0.7,0,1.3,0,2c0,3.1,0,6.1,0,9.2c0,0.8-0.5,1.3-1.3,1.3
		c-0.7,0-1.2-0.5-1.2-1.3c0-2.4,0-4.9,0-7.3V327c-2.6,2.6-5.1,5.1-7.7,7.7c0.6,0.9,1.4,1.9,2,3c3.7,6.6,2.8,14.8-2.3,20.5
		c-4.1,4.6-9.3,6.5-15.3,5.9c-2.1-0.2-4-0.8-5.9-1.7c-0.2-0.1-0.4-0.1-0.6,0c-2,1-4.2,1.6-6.4,1.8c-0.1,0-0.2,0-0.3,0.1v5.6h0.5
		c2.1,0,4.1,0,6.2,0c0.7,0,1.2,0.4,1.3,0.9c0.2,0.8-0.4,1.5-1.3,1.5c-2.1,0-4.1,0-6.2,0h-0.6v0.6c0,1.8,0,3.5,0,5.3
		c0,0.8-0.5,1.4-1.2,1.4c-0.8,0-1.3-0.5-1.3-1.3c0-1.8,0-3.5,0-5.3v-0.6h-0.5c-2.1,0-4.2,0-6.3,0c-0.7,0-1.1-0.4-1.3-1
		c-0.2-0.8,0.4-1.5,1.3-1.5c1.8,0,3.6,0,5.4,0h1.3v-5.6c-0.9-0.1-1.8-0.2-2.6-0.5c-6.3-1.6-10.7-5.4-12.9-11.5
		c-3.6-10.1,2.4-20.8,12.9-23.3c4.1-1,8-0.4,11.8,1.4c0.2,0.1,0.4,0.1,0.6,0c6.8-3.1,13.3-2.5,19.3,2.1
		C427.6,332.6,427.7,332.7,427.8,332.8"/>
</g>
<g class="anim4-4">
	<path class="st0" d="M393.5,69.1c0.3,0.2,0.5,0.4,0.8,0.5c0.3,0.1,0.5,0.3,0.5,0.6c0.8,3.5,1.7,6.9,2.5,10.4c0,0.2,0.1,0.3,0.2,0.6
		c1.4-1.9,2-4,1.8-6.2c-0.2-2.3-1.2-4.2-2.9-5.8c0.9,0,2.9,1.7,3.7,3.3c1.8,3.6,1.2,6.9-1.5,10c1.2-0.1,2.2-0.2,3.4-0.4
		c-1.2,0.8-2.5,1.2-3.8,1.3c-0.2,0.5-0.3,0.9-0.5,1.5c-0.4-0.3-0.8-0.7-1.2-1c-1.2,0.5-2.5,0.9-4,0.7c1.1-0.5,2-0.9,3-1.3
		c-6.6-2-7.4-9.4-4.5-12.8c-0.9,2.9-0.6,5.6,1.1,8.1c0.9,1.4,2.5,2.6,3.7,3c-0.3-1-0.5-2-0.8-3c-0.7-2.5-1.4-5.1-2.1-7.6
		c-0.1-0.4-0.1-0.7,0.2-1c0.2-0.2,0.3-0.5,0.4-0.8L393.5,69.1z"/>
	<path class="st0" d="M389.8,70.6c-2.9,4.6-2.4,8.7,1.5,12.5c-2-0.3-4.8-2.5-5.1-6C386,74.2,387.9,71.4,389.8,70.6"/>
	<path class="st0" d="M397.1,68.7c1.7-0.3,4.9,0.9,6.3,3.9c1.2,2.5,0.5,6.2-1.5,7.7C403.5,75.1,401.9,71.3,397.1,68.7"/>
	<path class="st0" d="M393.5,69.1l-0.2,0.1c-0.6,0.6-1.2,0.8-1.8,0.5c-0.6-0.3-0.8-0.7-0.8-1.3c0.4,0.2,0.8,0.5,1.2,0.5
		c0.5,0.1,0.9-0.3,1.1-0.8c1.2,0.6,1.8,0.3,2.1-1c0.4,0.5,0.5,1,0.2,1.5c-0.3,0.5-0.8,0.8-1.4,0.7C393.7,69.2,393.6,69.2,393.5,69.1"
		/>
	<path class="st0" d="M389.9,94.4c0-0.7,0.4-1.1,1.2-1.3c2.6-0.7,5.2-1.4,7.9-2.1c3.1-0.8,6.2-1.7,9.4-2.5c0.6-0.2,1.1-0.2,1.5,0.3
		c0.3,0.4,0.5,0.9,0.2,1.3c-0.2,0.3-0.6,0.6-1,0.7c-3.7,1-7.4,2-11.1,3c-2.1,0.6-4.2,1.1-6.3,1.7C390.7,95.8,389.9,95.2,389.9,94.4"
		/>
	<path class="st1" d="M431.3,74.8c-0.2,0-0.2,0.1-0.2,0.3c0,0.2,0,0.4,0,0.7c-0.2-0.2-0.3-0.4-0.4-0.5c-0.1-0.1-0.2-0.2-0.3-0.1
		c-0.2,0.1-0.4,0.1-0.6,0.2c0,0,0-0.1,0-0.1c0.4-0.4,0.6-0.9-0.1-1.3c0,0,0.1,0,0.1-0.1c0.1,0,0.2,0.1,0.3,0.1
		c0.6,0.2,0.4,0.2,0.8-0.3c0.1-0.1,0.1-0.2,0.2-0.3c0,0.3,0,0.4,0,0.6c0,0.2,0.1,0.3,0.2,0.3c0.2,0,0.3,0.1,0.5,0.2
		C431.7,74.7,431.5,74.8,431.3,74.8 M431.1,78.8c-0.2,0-0.2,0.1-0.2,0.3c0,0.2,0,0.4,0,0.7c-0.2-0.2-0.3-0.4-0.4-0.6
		c-0.1-0.1-0.2-0.2-0.3-0.1c-0.2,0.1-0.4,0.1-0.7,0.2c0.2-0.2,0.3-0.4,0.4-0.6c0.1-0.1,0.1-0.2,0-0.3c-0.1-0.2-0.2-0.3-0.3-0.5
		c0.1,0,0.3,0.1,0.4,0.1c0.3,0.1,0.4,0,0.5-0.2c0.1-0.1,0.2-0.2,0.3-0.4c0,0.1,0,0.2,0,0.2c0,0.7,0,0.7,0.6,0.9c0,0,0.1,0,0.2,0.1
		C431.5,78.7,431.3,78.8,431.1,78.8 M429.1,82.2c-0.2,0-0.3,0.2-0.3,0.4c0,0.2,0,0.3,0,0.5c-0.1-0.1-0.1-0.1-0.2-0.2
		c-0.4-0.5-0.4-0.5-1-0.3c-0.1,0-0.1,0-0.2,0.1c0.2-0.2,0.3-0.4,0.4-0.5c0.1-0.1,0.1-0.2,0-0.4c-0.1-0.2-0.2-0.3-0.4-0.5
		c0.3,0.1,0.5,0.1,0.7,0.2c0.2,0.1,0.3,0,0.4-0.1c0.1-0.2,0.2-0.3,0.4-0.5c0,0.3,0,0.5,0,0.7c0,0.2,0.1,0.2,0.2,0.3
		c0.2,0,0.4,0.1,0.6,0.2C429.4,82,429.2,82.1,429.1,82.2 M428,70.4c0.6,0.5,1,0.2,1.2-0.3c0,0,0,0,0.1,0c0,0.2,0,0.4,0,0.6
		c0,0.2,0.1,0.3,0.3,0.4c0.2,0,0.3,0.1,0.5,0.2c-0.2,0.1-0.4,0.1-0.6,0.2c-0.1,0-0.2,0.2-0.2,0.3c0,0.2,0,0.4,0,0.6c0,0-0.1,0-0.1,0
		c-0.3-0.6-0.7-0.7-1.3-0.3c0,0,0-0.1,0-0.1c0.1-0.2,0.2-0.3,0.3-0.5c0.1-0.1,0.1-0.3,0-0.4c-0.1-0.1-0.2-0.3-0.3-0.4
		C428,70.5,428,70.4,428,70.4 M426.7,69c-0.2,0.1-0.3,0.1-0.5,0.1c-0.3,0-0.4,0.2-0.3,0.4c0,0.2,0,0.3,0,0.6
		c-0.2-0.2-0.3-0.4-0.4-0.5c-0.1-0.2-0.2-0.2-0.4-0.1c-0.2,0.1-0.4,0.1-0.5,0.2c0,0,0-0.1,0-0.1c0.1-0.2,0.4-0.4,0.4-0.7
		c0-0.2-0.3-0.4-0.5-0.7c0.2,0.1,0.4,0.1,0.6,0.2c0.2,0.1,0.3,0,0.4-0.1c0.1-0.2,0.2-0.3,0.3-0.5c0,0,0.1,0,0.1,0
		C425.8,68.6,426.1,68.9,426.7,69C426.8,69,426.7,69,426.7,69 M425.5,84c-0.2,0-0.2,0.1-0.2,0.3c0,0.2,0,0.4,0,0.7
		c-0.2-0.3-0.3-0.6-0.6-0.6c-0.2-0.1-0.5,0.1-0.8,0.2c0.1-0.1,0.1-0.2,0.2-0.3c0.3-0.4,0.3-0.4,0-0.8c-0.1-0.1-0.1-0.2-0.2-0.3
		c0.2,0.1,0.3,0.1,0.4,0.1c0.6,0.2,0.4,0.2,0.8-0.3c0.1-0.1,0.1-0.2,0.2-0.3c0,0.1,0,0.2,0,0.3c0,0.6,0,0.6,0.6,0.8
		c0.1,0,0.1,0,0.3,0.1C425.9,83.9,425.7,84,425.5,84 M422.7,68.9C422.7,68.9,422.7,68.9,422.7,68.9c-0.3,0.1-0.6,0.1-0.7,0.3
		c-0.1,0.2,0,0.4,0,0.7c0,0,0,0.1,0,0.1c-0.2-0.2-0.3-0.5-0.5-0.7c-0.3,0.1-0.5,0.2-0.8,0.3c0.1-0.1,0.2-0.2,0.2-0.3
		c0.3-0.5,0.3-0.3,0-0.8c-0.1-0.1-0.1-0.2-0.1-0.3c0.1,0,0.2,0.1,0.3,0.1c0.6,0.2,0.4,0.2,0.8-0.3c0.1-0.1,0.1-0.2,0.2-0.3
		c0,0.3,0,0.5,0,0.7c0,0.2,0.1,0.3,0.2,0.3C422.4,68.7,422.6,68.7,422.7,68.9C422.7,68.8,422.7,68.8,422.7,68.9 M421.5,83.8
		c-0.2,0-0.2,0.1-0.2,0.3c0,0.2,0,0.4,0,0.7c-0.2-0.2-0.3-0.4-0.4-0.5c-0.1-0.2-0.2-0.2-0.4-0.1c-0.2,0.1-0.3,0.1-0.6,0.2
		c0-0.1,0.1-0.1,0.1-0.2c0.4-0.5,0.4-0.5,0-1.1c0,0-0.1-0.1-0.1-0.2c0.2,0.1,0.4,0.1,0.6,0.2c0.2,0.1,0.3,0,0.4-0.1
		c0.1-0.2,0.2-0.3,0.3-0.5c0,0.3,0,0.7,0.1,0.8c0.1,0.2,0.5,0.2,0.8,0.3C421.9,83.7,421.7,83.8,421.5,83.8 M418.7,70.9
		c-0.2,0-0.2,0.1-0.2,0.3c0,0.2,0,0.4,0,0.7c-0.2-0.3-0.4-0.5-0.5-0.7c-0.3,0.1-0.5,0.2-0.8,0.3c0,0,0-0.1,0-0.1
		c0.1-0.2,0.4-0.4,0.4-0.7c0-0.2-0.3-0.4-0.4-0.6c0,0,0.1,0,0.1,0c0.6,0.3,1,0.2,1.2-0.5c0,0,0,0.1,0.1,0.1c0,0.2,0,0.4,0,0.5
		c0,0.2,0.1,0.3,0.3,0.4c0.2,0,0.3,0.1,0.5,0.2C419,70.8,418.9,70.8,418.7,70.9 M418,81.8c-0.1,0.2-0.1,0.5-0.1,0.8
		c-0.1-0.2-0.3-0.3-0.3-0.4c-0.1-0.2-0.2-0.2-0.4-0.1c-0.1,0.1-0.3,0.1-0.5,0.1c0.1-0.2,0.2-0.3,0.3-0.5c0.1-0.1,0.1-0.2,0-0.4
		c-0.1-0.1-0.2-0.3-0.3-0.5c0.2,0.1,0.3,0.1,0.5,0.2c0.2,0.1,0.3,0,0.5-0.2c0.1-0.2,0.2-0.3,0.3-0.5c0,0.2,0,0.4,0,0.6
		c0,0.2,0.1,0.4,0.3,0.4c0.2,0,0.3,0.1,0.5,0.2C418.5,81.6,418.2,81.7,418,81.8 M416.2,78.3c-0.1,0.2-0.1,0.5-0.1,0.8
		c-0.2-0.2-0.3-0.4-0.5-0.7c-0.3,0.1-0.5,0.2-0.8,0.3c0,0-0.1,0-0.1,0c0.5-0.4,0.6-0.9,0-1.3c0,0,0.1,0,0.1,0
		c0.2,0.1,0.3,0.1,0.5,0.2c0.2,0.1,0.3,0,0.4-0.1c0.1-0.1,0.2-0.3,0.4-0.5c0,0.3,0,0.5,0,0.7c0,0.2,0.1,0.3,0.2,0.3
		c0.2,0,0.4,0.1,0.6,0.2C416.7,78.1,416.3,78.1,416.2,78.3 M415.6,73.5c0.2,0.1,0.3,0,0.4-0.1c0.1-0.2,0.2-0.3,0.4-0.5
		c0,0.3,0,0.5,0,0.6c0,0.2,0.1,0.3,0.3,0.4c0.2,0,0.4,0.1,0.6,0.2c-0.2,0.1-0.4,0.2-0.6,0.2c-0.2,0-0.3,0.2-0.3,0.4
		c0,0.2,0,0.3,0,0.6c-0.1-0.2-0.3-0.3-0.3-0.5c-0.1-0.2-0.3-0.3-0.5-0.1c-0.1,0.1-0.3,0.1-0.5,0.2c0.1-0.2,0.2-0.3,0.3-0.4
		c0.3-0.5,0.3-0.3,0-0.8c-0.1-0.1-0.1-0.2-0.3-0.3C415.2,73.4,415.4,73.4,415.6,73.5 M439.6,66.5c-2.8-0.8-5.7-1.5-8.5-2.3
		c-5.8-1.6-11.6-3.1-17.4-4.7c-1.7-0.4-2.9,0.3-3.3,1.9c-0.1,0.3-0.2,0.6-0.2,0.9l1.4,5.3c2.4,8.8,4.7,17.6,7.1,26.5
		c0.1,0.3,0.1,0.6,0.2,0.7c0,0.1,0,0.1,0,0.1l0,0.2l0,0.1c1.5,0.4,3.1,0.8,4.6,1.2c1.2,0.3,2.5,0.7,3.7,1c0.8,0.2,1.2,0.8,1,1.5
		c-0.2,0.7-0.8,1.1-1.5,0.9c-2.8-0.7-5.5-1.5-8.3-2.2c0,0-0.1,0-0.1,0c0,0,0-0.1,0-0.1c-0.5,1-1.5,1.8-2.8,2.1
		c-3.8,1-7.7,2.1-11.4,3.1l-0.1,0c0.3,0,0.5,0,0.8,0.1c7.8,2.1,15.6,4.2,23.4,6.3c1.6,0.4,2.9-0.3,3.3-1.8c3.3-12.5,6.7-24.9,10-37.4
		C442,68.1,441.3,66.9,439.6,66.5"/>
	<path class="st0" d="M401.6,101.6c-4.1,1.1-8.3,2.2-12.4,3.3c-1.8,0.5-3-0.2-3.5-2c-3.3-12.4-6.6-24.7-9.9-37.1
		c-0.1-0.5-0.2-0.9-0.1-1.2c0.1-1.1,0.8-1.9,2.1-2.3c8.6-2.3,17.2-4.6,25.8-6.9c0.4-0.1,0.7-0.1,1-0.1c1.2,0,2,0.7,2.4,2.1
		c3.3,12.4,6.6,24.8,10,37.2c0.1,0.3,0.1,0.6,0.2,0.8c0,0,0,0.1,0,0.1c0,0,0,0,0,0c0,1.3-0.8,2.2-2,2.5
		C410.7,99.2,406.2,100.4,401.6,101.6 M415.6,99.6c1.3-0.3,2.2-1.1,2.8-2.1c0.2-0.8,0.3-1.5,0.5-2.3c0,0,0,0,0,0l0-0.1l0-0.2
		c0,0,0-0.1,0-0.1c0-0.2-0.1-0.5-0.2-0.7c-2.4-8.8-4.7-17.6-7.1-26.5l-1.4-5.3c0,0,0,0,0,0c0,0-0.1,0-0.1,0c-0.5-1.9-1-3.8-1.5-5.7
		c-0.6-2.2-2.8-3.5-5-2.9c-8.8,2.3-17.6,4.7-26.3,7.1c-2.3,0.6-3.6,2.8-2.9,5.1c3.4,12.6,6.7,25.1,10.1,37.6c0.6,2.4,2.8,3.6,5.2,3
		c4.7-1.3,9.4-2.5,14.1-3.8c0.2,0,0.4-0.1,0.5-0.1l0.1,0C408,101.7,411.8,100.7,415.6,99.6"/>
</g>
<g class="anim1-4">
	<path class="st0" d="M391,475.3c0,2.4,0,4.8,0,7.2c0,0.7,0.2,0.8,0.8,0.8c0.6,0,1.3,0,1.9,0c1,0,1.6,0.5,1.7,1.5
		c0.1,1.4,0.2,2.8,0.3,4.2c0.3,3.8,0.6,7.6,0.9,11.4c0,0.4,0.2,0.6,0.7,0.6c0.8,0,1.6,0,2.4,0c0.5,0,0.7-0.2,0.7-0.7
		c0.3-3.4,0.5-6.8,0.8-10.2c0.1-1.9,0.3-3.8,0.5-5.6c0.1-0.9,0.7-1.3,1.5-1.4c0.7,0,1.4,0,2,0c0.7,0,0.8-0.2,0.8-0.8
		c0-4.8,0-9.6,0-14.3c0-0.7-0.2-0.8-0.8-0.8c-4.5,0-9,0-13.4,0c-0.7,0-0.8,0.1-0.8,0.8C391,470.5,391,472.9,391,475.3 M388,475.2
		c0-3.1,0-6.1,0-9.2c0-1.1,0.6-1.7,1.7-1.7c5.9,0,11.7,0,17.6,0c1.1,0,1.7,0.6,1.7,1.7c0,6.2,0,12.4,0,18.6c0,1.1-0.6,1.7-1.7,1.7
		c-0.7,0-1.4,0-2.1,0c-0.5,0-0.7,0.1-0.7,0.7c-0.2,2.7-0.4,5.4-0.7,8.2c-0.2,2.5-0.4,5.1-0.6,7.6c-0.1,0.8-0.7,1.4-1.5,1.4
		c-2.1,0-4.3,0-6.4,0c-0.8,0-1.4-0.6-1.5-1.4c-0.3-4.2-0.7-8.4-1-12.6c-0.1-1.1-0.2-2.1-0.3-3.2c0-0.5-0.2-0.7-0.8-0.7
		c-0.7,0-1.3,0-2,0c-1.2,0-1.8-0.6-1.8-1.8C388,481.4,388,478.3,388,475.2"/>
	<path class="st1" d="M424.7,501.5c0.4,0,0.7,0,1.1,0c0.6,0,0.7-0.2,0.8-0.7c0.2-2.4,0.4-4.8,0.6-7.2c0.1-0.8,0.6-1.4,1.5-1.4
		c0.4,0,0.8,0,1.2,0c0.5,0,0.7-0.2,0.7-0.7c-0.1-1.6-0.2-3.1-0.3-4.7c-0.3-3.6-0.6-7.2-0.8-10.8c-0.2-2.6-0.4-5.2-0.6-7.9
		c0-0.5-0.2-0.7-0.8-0.7c-2.1,0-4.3,0-6.4,0c-0.6,0-0.7,0.1-0.8,0.7c-0.3,3.6-0.6,7.2-0.8,10.8c-0.2,3.2-0.5,6.3-0.7,9.5
		c-0.1,1.1-0.2,2.1-0.2,3.2c0,0.5,0.2,0.7,0.6,0.7c0.2,0,0.3,0,0.5,0c1.9-0.1,2.2,0.7,2.3,2.2c0.1,2.2,0.3,4.3,0.5,6.5
		c0,0.4,0.3,0.7,0.7,0.7C423.9,501.4,424.3,501.5,424.7,501.5 M424.7,464.3c1.7,0,3.4,0,5,0c1.1,0,1.7,0.6,1.8,1.7
		c0.3,4,0.6,8,0.9,12c0.3,3.5,0.5,7.1,0.8,10.6c0.1,1.4,0.2,2.9,0.3,4.3c0,0.4,0,0.9-0.1,1.2c-0.2,0.6-0.7,0.9-1.3,0.9
		c-0.5,0-0.9,0-1.4,0c-0.6,0-0.8,0.1-0.8,0.8c-0.2,2.4-0.4,4.8-0.6,7.1c-0.1,0.9-0.6,1.4-1.5,1.5c-2.1,0-4.3,0-6.4,0
		c-0.9,0-1.4-0.6-1.5-1.6c-0.2-2.4-0.4-4.7-0.5-7.1c-0.1-0.6-0.2-0.7-0.8-0.7c-0.5,0-0.9,0-1.4,0c-1,0-1.6-0.7-1.5-1.7
		c0.4-4.9,0.8-9.8,1.1-14.7c0.3-4.2,0.6-8.4,1-12.6c0.1-1.3,0.6-1.8,1.9-1.8C421.5,464.3,423.1,464.3,424.7,464.3"/>
	<path class="st0" d="M394.4,455.6c0,2.3,1.9,4.2,4.1,4.2c2.3,0,4.1-1.9,4.1-4.2c0-2.3-1.9-4.1-4.1-4.1
		C396.3,451.5,394.4,453.3,394.4,455.6 M398.5,462.7c-4.1-0.1-7.1-3.3-7.1-7.4c0.1-3.7,3.4-6.9,7.2-6.8c4,0.1,7.2,3.3,7.1,7.3
		C405.6,459.6,402.4,462.8,398.5,462.7"/>
	<path class="st1" d="M428.9,455.6c0-2.3-1.8-4.2-4.1-4.2c-2.2,0-4.1,1.8-4.1,4c0,2.4,1.8,4.2,4.1,4.3
		C426.9,459.8,428.9,457.9,428.9,455.6 M424.8,448.5c4.1,0.1,7.1,3.3,7,7.3c-0.1,3.8-3.4,7-7.2,6.9c-4.1-0.1-7.2-3.3-7-7.3
		C417.7,451.5,421,448.4,424.8,448.5"/>
</g>
<g class="anim5-4">
	<path class="st1" d="M757.3,170.8c0,1.7,1.3,3,2.9,3c1.6,0,2.9-1.3,2.9-2.9c0-1.6-1.3-3-2.9-3C758.6,167.9,757.3,169.2,757.3,170.8
		M761.6,186.8h0.6c4.5,0,9,0,13.5,0c1.1,0,1.8,0.7,1.6,1.7c-0.1,0.7-0.7,1.2-1.3,1.3c-0.2,0-0.3,0-0.5,0c-4.4,0-8.9,0-13.3,0h-0.5
		v5.7c0.2,0,0.3,0,0.5,0c4.5,0,8.9,0.1,13.4,0.1c1,0,1.5,0.3,1.8,1.3c1.5,4,3,8.1,4.4,12.2c0.1,0.3,0.3,0.4,0.6,0.4
		c1.7,0,3.5,0,5.2,0c0.9,0,1.6,0.6,1.6,1.5c0,0.8-0.6,1.5-1.4,1.5c-2.3,0-4.6,0-6.9,0c-0.7,0-1.2-0.5-1.4-1.1
		c-0.7-1.9-1.4-3.8-2.1-5.8c-0.8-2.2-1.6-4.4-2.4-6.5c-0.1-0.3-0.3-0.4-0.6-0.4c-4.7,0-9.3-0.1-14-0.1c-1.3,0-1.9-0.6-1.9-1.9
		c0-6.5,0.1-13.1,0.1-19.6c0-0.4-0.1-0.5-0.4-0.6c-2.6-0.9-4.2-3.4-4-6.2c0.2-2.6,2.3-4.8,4.9-5.3c3-0.5,6,1.4,6.8,4.4
		c0.8,3-0.9,6.1-3.8,7.1c-0.3,0.1-0.5,0.3-0.5,0.6c0,3.1,0,6.1,0,9.2C761.6,186.4,761.6,186.5,761.6,186.8"/>
	<path class="st1" d="M760.3,214.2c5-0.2,9.2-2,12.7-5.8c0.7-0.7,1.4-0.9,2.1-0.5c0.9,0.5,1.1,1.6,0.4,2.3c-1.9,2.2-4.3,4-7,5.2
		c-3.4,1.6-7,2.1-10.7,1.7c-8.7-1-15.8-7.5-17.5-16.1c-1.4-7.2,0.6-13.5,5.9-18.6c1.8-1.8,4-3.1,6.4-4.1c0.9-0.4,1.8,0.1,2.1,0.9
		c0.2,0.6,0,1.3-0.6,1.6c-0.2,0.1-0.4,0.2-0.6,0.3c-5.3,2.3-8.9,6.3-10.2,12c-1.3,5.7,0,10.8,3.8,15.2
		C750.6,212.2,755,214.1,760.3,214.2"/>
</g>
<path class="st5" d="M608.9,351.1c-0.9,0.2-1.7,0.4-2.4,0.6c-4.2,1.2-8.4,2.6-12.6,3.6c-2.8,0.6-4.6,2.3-6.7,4
	c-3.1,2.5-6.2,5-9.3,7.6c-0.9,0.7-1.7,1.4-2.7,2.1c-1.8,1.2-3.7,1.3-5.6,0.3c-2-1.1-3.1-3-2.9-5.4c0.1-1.3,0.7-2.5,1.7-3.5
	c5.1-5.1,10.1-10.2,15.3-15.1c1.3-1.3,3.1-2.2,4.8-3.1c3.1-1.7,6.2-3.4,9.2-5c0-0.1,0-0.2,0-0.3c-0.5-0.1-0.9-0.2-1.4-0.2
	c-8.3,0-16.5-0.1-24.8-0.1c-2.1,0-3.8-0.6-5-2.3c-1.3-1.9-1.3-4-0.5-6c0.9-2.2,2.8-3.3,5.1-3.3c13.2,0,26.4,0,39.6,0h1.5
	c0-0.1,0-0.2,0-0.3c-1.6-0.5-3.1-1.1-4.7-1.6c-2.2-0.7-4.5-1.5-6.7-2.2c-2.2-0.7-4.3-1.5-6.5-2.1c-1.9-0.5-3.6-2.2-3.8-3.9
	c-0.3-2.8,1-4.9,3-5.6c1.1-0.4,2.5-0.3,3.6,0c4.4,1.3,8.7,2.8,13,4.2c3.6,1.2,7.3,2.5,10.9,3.7c3.2,1,6.4,2,9.6,3
	c0.8,0.3,1.6,0.7,2.4,0.8c1.4,0.3,2.9,0.6,4.4,0.6c19.6,0,39.2,0,58.9,0c1.8,0,1.8,0,1.8,1.8c0,9,0,18,0,27c0,1.7-0.1,1.8-1.8,1.8
	c-5.3,0-10.6,0-15.9,0c-1.2,0-2,0.4-2.7,1.3c-3.7,4.4-7.4,8.7-11.1,13c-4.3,5-8.5,10-12.8,15c-1.1,1.3-2.2,2.6-3.5,3.6
	c-2.1,1.5-4.6,1.4-6.9,0.2c-2.2-1.1-3.2-3.1-3.4-5.6c-0.2-2.3,1.1-4,2.1-5.8c2.3-4.1,4.7-8.1,7-12.2c1.1-1.9,0.2-5-1.6-6.1
	c-3.1-1.8-6.3-3.5-9.4-5.2c-1.5-0.8-3.1-1.7-4.6-2.5c-1.7-0.9-3.4-1.3-5.3-0.5c-1.6,0.7-3.4,0.9-4.6,2.3c-0.8,0.9-1.3,1.8-1.3,3
	c0,4.2-0.1,8.4,0,12.6c0,1,0.6,2,1.1,3c1.5,3.3,3.3,6.5,4.5,9.9c1.1,3-0.1,5.9-3.7,7.2c-3,1.1-5.2,0.2-6.9-2.7
	c-2.7-4.5-5.3-9-7.9-13.5c-0.4-0.8-0.6-1.8-0.6-2.7c-0.1-4.6,0-9.2,0-13.8V351.1z"/>
<g>
	<defs>
		<rect id="T3G2_SVGID_1_" x="536.2" y="449.4" width="71.9" height="88"/>
	</defs>
	<clipPath id="T3G2_SVGID_2_">
		<use xlink:href="#T3G2_SVGID_1_"  style="overflow:visible;"/>
	</clipPath>
	<path class="st6" d="M536.2,491.5c0-4.8,0-9.7,0-14.5c0-1.8,0.9-2.7,2.7-2.7c9.2,0,18.5,0,27.7,0c1.7,0,2.7,1,2.7,2.7
		c0,9.8,0,19.5,0,29.3c0,1.8-0.9,2.7-2.7,2.7c-1.1,0-2.2,0-3.4,0c-0.9,0-1.1,0.2-1.2,1.1c-0.3,4.3-0.7,8.6-1,12.9
		c-0.3,4-0.6,8-0.9,12c-0.1,1.3-1.1,2.2-2.4,2.2c-3.4,0-6.7,0-10.1,0c-1.3,0-2.3-0.9-2.4-2.2c-0.5-6.6-1-13.2-1.5-19.8
		c-0.1-1.7-0.3-3.4-0.4-5c-0.1-0.9-0.3-1.1-1.2-1.1c-1,0-2.1,0-3.1,0c-2,0-2.9-0.9-2.9-2.8C536.2,501.3,536.2,496.4,536.2,491.5
		 M540.9,491.6c0,3.8,0,7.5,0,11.3c0,1.1,0.2,1.3,1.3,1.3c1,0,2,0,3,0c1.6,0,2.5,0.8,2.7,2.4c0.2,2.2,0.4,4.5,0.5,6.7
		c0.5,6,0.9,12,1.4,18.1c0.1,0.7,0.4,1,1.1,1c1.2,0,2.5,0,3.7,0c0.7,0,1.1-0.3,1.1-1c0.4-5.4,0.8-10.7,1.2-16.1
		c0.2-3,0.4-5.9,0.7-8.9c0.1-1.3,1.1-2.1,2.4-2.1c1.1,0,2.1,0,3.2,0c1.1,0,1.3-0.2,1.3-1.3c0-7.5,0-15.1,0-22.6
		c0-1.1-0.2-1.3-1.3-1.3h-21.2c-1.1,0-1.3,0.2-1.3,1.3C540.9,484.1,540.9,487.9,540.9,491.6"/>
	<path class="st7" d="M594.1,474.3c2.7,0,5.3,0,8,0c1.8,0,2.7,0.9,2.8,2.6c0.5,6.3,1,12.6,1.5,19c0.4,5.6,0.9,11.2,1.3,16.8
		c0.2,2.3,0.4,4.6,0.5,6.9c0,0.6,0.1,1.4-0.2,1.9c-0.3,0.9-1.1,1.4-2.1,1.4c-0.7,0-1.5,0-2.2,0c-1,0-1.2,0.2-1.3,1.2
		c-0.3,3.8-0.6,7.5-0.9,11.3c-0.1,1.4-1,2.3-2.4,2.3c-3.4,0-6.7,0-10.1,0c-1.4,0-2.3-1-2.4-2.5c-0.3-3.7-0.6-7.4-0.9-11.1
		c-0.1-1-0.3-1.2-1.3-1.2c-0.7,0-1.4,0-2.1,0c-1.5-0.1-2.5-1.2-2.4-2.7c0.6-7.7,1.2-15.4,1.8-23.2c0.5-6.6,1-13.3,1.5-19.9
		c0.2-2.1,1-2.8,3.1-2.8H594.1 M594.1,533c0.6,0,1.2,0,1.8,0c0.9,0,1.2-0.3,1.2-1.2c0.3-3.8,0.6-7.6,0.9-11.4c0.1-1.3,1-2.2,2.3-2.2
		c0.6,0,1.2,0,1.8,0c0.8,0,1.2-0.3,1.1-1.2c-0.2-2.5-0.4-4.9-0.5-7.4c-0.4-5.7-0.9-11.4-1.3-17.1c-0.3-4.1-0.6-8.3-1-12.4
		c-0.1-0.9-0.4-1.1-1.2-1.1c-3.4,0-6.7,0-10.1,0c-0.9,0-1.2,0.2-1.2,1.1c-0.4,5.7-0.9,11.3-1.3,17c-0.4,5-0.8,10-1.2,14.9
		c-0.1,1.7-0.3,3.4-0.4,5c0,0.7,0.3,1,1,1.1c0.3,0,0.5,0,0.8,0c3-0.2,3.5,1.1,3.6,3.5c0.2,3.4,0.5,6.9,0.8,10.3
		c0.1,0.7,0.4,1.1,1.1,1.1C592.8,532.9,593.4,533,594.1,533"/>
	<path class="st6" d="M552.7,471.9c-6.4-0.1-11.3-5.2-11.2-11.7c0.1-5.9,5.3-10.9,11.3-10.8c6.3,0.1,11.3,5.2,11.2,11.4
		C563.9,467,558.8,472,552.7,471.9 M546.3,460.6c0,3.7,2.9,6.6,6.5,6.6c3.5,0,6.5-3,6.5-6.6c0-3.6-2.9-6.5-6.5-6.5
		C549.2,454.1,546.3,457,546.3,460.6"/>
	<path class="st7" d="M594.2,449.4c6.4,0.2,11.3,5.2,11.1,11.6c-0.1,6.1-5.3,11-11.3,10.9c-6.4-0.2-11.3-5.3-11.1-11.6
		C583,454.2,588.2,449.3,594.2,449.4 M600.6,460.7c0-3.6-2.9-6.6-6.5-6.6c-3.5,0-6.5,2.9-6.5,6.4c0,3.7,2.8,6.7,6.5,6.7
		C597.6,467.2,600.6,464.2,600.6,460.7"/>
</g>
<g>
	<defs>
		<rect id="T3G2_SVGID_3_" x="660.5" y="449.4" width="71.7" height="88"/>
	</defs>
	<clipPath id="T3G2_SVGID_4_">
		<use xlink:href="#T3G2_SVGID_3_"  style="overflow:visible;"/>
	</clipPath>
	<path class="st8" d="M660.5,491.5c0-4.8,0-9.7,0-14.5c0-1.8,0.9-2.7,2.7-2.7c9.3,0,18.5,0,27.7,0c1.7,0,2.7,1,2.7,2.7
		c0,9.8,0,19.5,0,29.3c0,1.8-0.9,2.7-2.7,2.7c-1.1,0-2.2,0-3.4,0c-0.9,0-1.1,0.2-1.2,1.1c-0.3,4.3-0.7,8.6-1,12.9
		c-0.3,4-0.6,8-0.9,12c-0.1,1.3-1.1,2.2-2.4,2.2c-3.4,0-6.7,0-10.1,0c-1.3,0-2.3-0.9-2.4-2.2c-0.5-6.6-1-13.2-1.5-19.8
		c-0.1-1.7-0.3-3.4-0.4-5c-0.1-0.9-0.3-1.1-1.2-1.1c-1,0-2.1,0-3.1,0c-2,0-2.9-0.9-2.9-2.8C660.5,501.3,660.5,496.4,660.5,491.5
		 M665.2,491.6c0,3.8,0,7.5,0,11.3c0,1.1,0.2,1.3,1.3,1.3c1,0,2,0,3,0c1.6,0,2.5,0.8,2.7,2.4c0.2,2.2,0.4,4.5,0.5,6.7
		c0.5,6,0.9,12,1.4,18.1c0.1,0.7,0.4,1,1.1,1c1.2,0,2.5,0,3.7,0c0.7,0,1.1-0.3,1.1-1c0.4-5.4,0.8-10.7,1.2-16.1
		c0.2-3,0.4-5.9,0.7-8.9c0.1-1.3,1.1-2.1,2.4-2.1c1.1,0,2.1,0,3.2,0c1.1,0,1.3-0.2,1.3-1.3c0-7.5,0-15.1,0-22.6
		c0-1.1-0.2-1.3-1.3-1.3h-21.2c-1.1,0-1.3,0.2-1.3,1.3C665.2,484.1,665.2,487.9,665.2,491.6"/>
	<path class="st9" d="M718.4,474.3c2.7,0,5.3,0,8,0c1.8,0,2.7,0.9,2.8,2.6c0.5,6.3,1,12.6,1.5,19c0.4,5.6,0.9,11.2,1.3,16.8
		c0.2,2.3,0.4,4.6,0.5,6.9c0,0.6,0.1,1.4-0.2,1.9c-0.3,0.9-1.1,1.4-2.1,1.4c-0.7,0-1.5,0-2.2,0c-1,0-1.2,0.2-1.3,1.2
		c-0.3,3.8-0.6,7.5-0.9,11.3c-0.1,1.4-1,2.3-2.4,2.3c-3.4,0-6.7,0-10.1,0c-1.4,0-2.3-1-2.4-2.5c-0.3-3.7-0.6-7.4-0.9-11.1
		c-0.1-1-0.3-1.2-1.3-1.2c-0.7,0-1.4,0-2.1,0c-1.5-0.1-2.5-1.2-2.4-2.7c0.6-7.7,1.2-15.4,1.8-23.2c0.5-6.6,1-13.3,1.5-19.9
		c0.2-2.1,1-2.8,3.1-2.8H718.4 M718.4,533c0.6,0,1.2,0,1.8,0c0.9,0,1.2-0.3,1.2-1.2c0.3-3.8,0.6-7.6,0.9-11.4c0.1-1.3,1-2.2,2.3-2.2
		c0.6,0,1.2,0,1.8,0c0.8,0,1.2-0.3,1.1-1.2c-0.2-2.5-0.4-4.9-0.5-7.4c-0.4-5.7-0.9-11.4-1.3-17.1c-0.3-4.1-0.6-8.3-1-12.4
		c-0.1-0.9-0.4-1.1-1.2-1.1c-3.4,0-6.7,0-10.1,0c-0.9,0-1.2,0.2-1.2,1.1c-0.4,5.7-0.9,11.3-1.3,17c-0.4,5-0.8,10-1.2,14.9
		c-0.1,1.7-0.3,3.4-0.4,5c0,0.7,0.3,1,1,1.1c0.3,0,0.5,0,0.8,0c3-0.2,3.5,1.1,3.6,3.5c0.2,3.4,0.5,6.9,0.8,10.3
		c0.1,0.7,0.4,1.1,1.1,1.1C717.1,532.9,717.8,533,718.4,533"/>
	<path class="st8" d="M677,471.9c-6.4-0.1-11.3-5.2-11.2-11.7c0.1-5.9,5.3-10.9,11.3-10.8c6.3,0.1,11.3,5.2,11.2,11.4
		C688.2,467,683.1,472,677,471.9 M670.6,460.6c0,3.7,2.9,6.6,6.5,6.6c3.5,0,6.5-3,6.5-6.6c0-3.6-2.9-6.5-6.5-6.5
		C673.5,454.1,670.6,457,670.6,460.6"/>
	<path class="st9" d="M718.5,449.4c6.4,0.2,11.3,5.2,11.1,11.6c-0.1,6.1-5.3,11-11.3,10.9c-6.4-0.2-11.3-5.3-11.1-11.6
		C707.3,454.2,712.5,449.3,718.5,449.4 M724.9,460.7c0-3.6-2.9-6.6-6.5-6.6c-3.5,0-6.5,2.9-6.5,6.4c0,3.7,2.8,6.7,6.5,6.7
		C721.9,467.2,724.9,464.2,724.9,460.7"/>
</g>
<path class="st5" d="M617.8,429.5c0-4.8,0-9.7,0-14.5c0-1.8,0.9-2.7,2.7-2.7c9.2,0,18.5,0,27.7,0c1.7,0,2.7,1,2.7,2.7
	c0,9.8,0,19.5,0,29.3c0,1.8-0.9,2.7-2.7,2.7c-1.1,0-2.2,0-3.4,0c-0.9,0-1.1,0.2-1.2,1.1c-0.3,4.3-0.7,8.6-1,12.9
	c-0.3,4-0.6,8-0.9,12c-0.1,1.3-1.1,2.2-2.4,2.2c-3.4,0-6.7,0-10.1,0c-1.3,0-2.3-0.9-2.4-2.2c-0.5-6.6-1-13.2-1.5-19.8
	c-0.1-1.7-0.3-3.4-0.4-5c-0.1-0.9-0.3-1.1-1.2-1.1c-1,0-2.1,0-3.1,0c-2,0-2.9-0.9-2.9-2.8C617.7,439.3,617.8,434.4,617.8,429.5
	 M622.5,429.6c0,3.8,0,7.5,0,11.3c0,1.1,0.2,1.3,1.3,1.3c1,0,2,0,3,0c1.6,0,2.5,0.8,2.7,2.4c0.2,2.2,0.4,4.5,0.5,6.7
	c0.5,6,0.9,12,1.4,18.1c0.1,0.7,0.4,1,1.1,1c1.2,0,2.5,0,3.7,0c0.7,0,1.1-0.3,1.1-1c0.4-5.4,0.8-10.7,1.2-16.1
	c0.2-3,0.4-5.9,0.7-8.9c0.1-1.3,1.1-2.1,2.4-2.1c1.1,0,2.1,0,3.2,0c1.1,0,1.3-0.2,1.3-1.3c0-7.5,0-15.1,0-22.6
	c0-1.1-0.2-1.3-1.3-1.3h-21.2c-1.1,0-1.3,0.2-1.3,1.3C622.5,422.1,622.5,425.9,622.5,429.6"/>
<path class="st5" d="M634.3,409.9c-6.4-0.1-11.3-5.2-11.2-11.7c0.1-5.9,5.3-10.9,11.3-10.8c6.3,0.1,11.3,5.2,11.2,11.4
	C645.4,405,640.3,410,634.3,409.9 M627.8,398.6c0,3.7,2.9,6.6,6.5,6.6c3.6,0,6.5-3,6.5-6.6c0-3.6-2.9-6.5-6.5-6.5
	C630.8,392.1,627.8,395,627.8,398.6"/>
<g class="anim4-0"><text transform="matrix(1 0 0 1 0 87.909)"><tspan x="0" y="0" class="st10 st11 st13">Nationality</tspan></text></g>
<g class="anim4-4">
	<text transform="matrix(1 0 0 1 290.793 70.6185)" class="st0 st11 st14">92</text>
	<text transform="matrix(1 0 0 1 346.1221 61.1673)" class="st0 st15 st16">%</text>
	<text transform="matrix(1 0 0 1 280.4126 99.1082)"><tspan x="-8" y="0" class="st10 st11 st12">* believe Iranians</tspan> <tspan x="0" y="1.3em" class="st10 st11 st12">should have</tspan> <tspan x="0" y="2.6em" class="st10 st11 st12">priority</tspan></text>
</g>
<g class="anim3-0"><text transform="matrix(1 0 0 1 22 222.1326)" class="st10 st11 st13">Religion</text></g>
<g class="anim3-4">
	<text transform="matrix(1 0 0 1 289.5425 217.2381)" class="st0 st11 st14">70</text>
	<text transform="matrix(1 0 0 1 347.2148 204.7869)" class="st0 st15 st16">%</text>
	<text transform="matrix(1 0 0 1 280.4126 243.9881)"><tspan x="-8" y="0" class="st10 st11 st12">* believe Muslims</tspan> <tspan x="0" y="1.3em" class="st10 st11 st12">should have</tspan> <tspan x="0" y="2.6em" class="st10 st11 st12">priority over</tspan> <tspan x="0" y="3.9em" class="st10 st11 st12">non-Muslims</text>
</g>
<g class="anim2-0"><text transform="matrix(1 0 0 1 35.5 344.3568)"><tspan x="0" y="0" class="st10 st11 st13">Sexual</tspan> <tspan x="-35" y="1.3em" class="st10 st11 st13">orientation</tspan></text></g>
<g class="anim2-4">
	<text transform="matrix(1 0 0 1 287.0513 346.1693)" class="st0 st11 st14">70</text>
	<text transform="matrix(1 0 0 1 344.7236 335.7181)" class="st0 st15 st16">%</text>
	<text transform="matrix(1 0 0 1 279.5029 373.2278)"><tspan x="-8" y="0" class="st10 st11 st12">* believe</tspan> <tspan x="0" y="1.3em" class="st10 st11 st12">homosexuals</tspan> <tspan x="0" y="2.6em" class="st10 st11 st12">should not be</tspan> <tspan x="0" y="3.9em" class="st10 st11 st12">hired</tspan></text>
</g>
<g class="anim1-0"><text transform="matrix(1 0 0 1 29.6 485.8128)" class="st10 st11 st13">Gender</text></g>
<g class="anim1-4">
	<text transform="matrix(1 0 0 1 289.6035 470.8157)" class="st0 st11 st14">65</text>
	<text transform="matrix(1 0 0 1 345.6709 458.3646)" class="st0 st15 st16">%</text>
	<text transform="matrix(1 0 0 1 279.5029 495.6878)"><tspan x="-8" y="0" class="st10 st11 st12">* believe men</tspan> <tspan x="0" y="1.3em" class="st10 st11 st12">should have</tspan> <tspan x="0" y="2.6em" class="st10 st11 st12">priority over</tspan> <tspan x="0" y="3.9em" class="st10 st11 st12">women</tspan></text>
</g>
<g class="anim5-0"><text transform="matrix(1 0 0 1 478.416 89.0286)" class="st10 st11 st13">Disability</text></g>
<g class="anim5-4">
	<text transform="matrix(1 0 0 1 652.6572 184.5301)" class="st1 st11 st14">78</text>
	<text transform="matrix(1 0 0 1 706.4248 174.0789)" class="st1 st15 st16">%</text>
	<text transform="matrix(1 0 0 1 648.8125 209.7982)"><tspan x="-8" y="0" class="st10 st11 st12">* in favor of</tspan> <tspan x="0" y="1.3em" class="st10 st11 st12">hiring and</tspan> <tspan x="0" y="2.6em" class="st10 st11 st12">supporting</tspan> <tspan x="0" y="3.9em" class="st10 st11 st12">disabled people</tspan></text>
</g>
</svg>
