<svg version="1.1" id="SVG_T2G3" xmlns="http://www.w3.org/2000/svg" xmlns:xlink="http://www.w3.org/1999/xlink" x="0px" y="0px"
	 viewBox="0 0 756.8 563" data-viewBox="0 0 756.8 563" style="enable-background:new 0 0 756.8 563;" xml:space="preserve">
<style type="text/css">
	#SVG_T2G3 .st0{fill:#3B454A;}
	#SVG_T2G3 .st1{font-family:'Raleway'; font-weight:600;}
	#SVG_T2G3 .st2{font-size:12px; letter-spacing:-.1px;}
	#SVG_T2G3 .st3{fill:none;stroke:#3B454A;}
	#SVG_T2G3 .st4{font-family:'Raleway'; font-weight:400;}
	#SVG_T2G3 .st5{fill:#DE3849; letter-spacing:-.1px;}
	#SVG_T2G3 .st6{fill:none;stroke:#DE3849;stroke-width:0.35;stroke-miterlimit:10;}
	#SVG_T2G3 .st7{fill:#E5E5E5;}
	#SVG_T2G3 .st8{font-size:16px;}
	#SVG_T2G3 .st9{font-size:30px;}
	#SVG_T2G3 .st10{font-size:40px;}
	#SVG_T2G3 .st11{font-size:10px;}
	#SVG_T2G3 .st12{font-size:20px;}
	#SVG_T2G3 .st13{fill:#7DCDA5;}
</style>
<g class="anim6-1"><polygon class="st5" points="465.8,94.5 447.7,81.2 84.8,81.2 84.8,134.5 447.7,134.5 465.8,121.2 483.9,107.9 "/></g>
<g class="anim7-1"><polygon class="st5" points="455.8,178.4 437.7,164.8 84.8,164.8 84.8,219.5 437.7,219.5 455.8,205.8 473.9,192.1 "/></g>
<g class="anim8-1"><polygon class="st5" points="435.8,263.1 417.7,249.8 84.8,249.8 84.8,303.1 417.7,303.1 435.8,289.8 453.9,276.4 "/></g>
<g class="anim6">
	<path class="st5" d="M51.3,103.4c0-1.6,0-3.2,0-4.8c0-1.4-0.3-2.8-1-4.1c-2.3-4.4-7.3-6.1-11.6-4.4c-3.5,1.4-5.5,4.1-5.8,7.9
		c-0.2,1.7,0,3.4,0,5.1c0,0.1,0,0.2,0.1,0.3H51.3z M42.1,132c3.1,0,6.3,0,9.4,0c0.5,0,1,0,1.5-0.1c2.7-0.6,4.3-2.7,4.3-5.5
		c0-5,0-9.9,0-14.9c0-3.3-2.3-5.6-5.6-5.6c-6.4,0-12.8,0-19.2,0c-3.3,0-5.6,2.3-5.6,5.6c0,5,0,9.9,0,14.9c0,0.5,0,1,0.2,1.5
		c0.6,2.5,2.7,4.1,5.4,4.1C35.7,132,38.9,132,42.1,132 M30.4,103.7c0-1.6,0-3.2,0-4.8c0-6.1,4.5-11.1,10.6-11.7
		c5.9-0.6,11.6,3.7,12.6,9.6c0.1,0.8,0.2,1.6,0.2,2.4c0,1.5,0,3,0,4.5c0.9,0.5,1.8,0.8,2.6,1.4c2.1,1.5,3.3,3.6,3.3,6.1
		c0.1,5.2,0.1,10.4,0,15.6c0,4.2-3.4,7.6-7.6,7.7c-4.3,0.1-8.6,0-12.8,0c-2.3,0-4.7,0-7,0c-4.2-0.1-7.6-3.4-7.7-7.6
		c-0.1-2.6,0-5.2,0-7.8c0-2.4,0-4.9,0-7.3c-0.1-3.8,2.4-7,5.7-7.9C30.2,103.8,30.3,103.7,30.4,103.7"/>
	<path class="st5" d="M43.9,119c0-1-0.8-1.8-1.9-1.8c-1,0-1.8,0.8-1.8,1.8c0,1,0.8,1.8,1.8,1.8C43,120.8,43.9,119.9,43.9,119
		M43.3,125.3c0,0.6,0,1.2,0,1.8c0,0.7-0.5,1.2-1.2,1.2c-0.7,0-1.2-0.5-1.2-1.2c0-1.2,0-2.4,0-3.6c0-0.3-0.1-0.5-0.4-0.6
		c-2.3-0.9-3.3-3.6-2.2-5.8c1-2.1,3.8-3,5.9-1.7c1.5,0.9,2.2,2.2,2.1,3.9c-0.1,1.8-1,3-2.6,3.7c-0.3,0.1-0.4,0.3-0.4,0.6
		C43.3,124.1,43.3,124.7,43.3,125.3L43.3,125.3z"/>
</g>
<g class="anim7">
	<path class="st5" d="M24.7,287.6h14.4v8.2c0,0,0.1,0,0.1,0.1c0.1-0.1,0.2-0.2,0.3-0.3c2.5-2.5,5-5,7.5-7.6c0.2-0.2,0.5-0.3,0.8-0.3
		c6.5,0,13,0,19.5,0h0.5v-26.9H24.7V287.6z M69.6,258.8v30.6H69c-6.8,0-13.6,0-20.4,0c-0.4,0-0.6,0.1-0.9,0.4c-3.3,3.3-6.7,6.7-10,10
		c-0.1,0.1-0.2,0.2-0.4,0.4v-10.7H22.9v-30.6H69.6z"/>
	<path class="st6" d="M24.7,287.6h14.4v8.2c0,0,0.1,0,0.1,0.1c0.1-0.1,0.2-0.2,0.3-0.3c2.5-2.5,5-5,7.5-7.6c0.2-0.2,0.5-0.3,0.8-0.3
		c6.5,0,13,0,19.5,0h0.5v-26.9H24.7V287.6z M69.6,258.8v30.6H69c-6.8,0-13.6,0-20.4,0c-0.4,0-0.6,0.1-0.9,0.4c-3.3,3.3-6.7,6.7-10,10
		c-0.1,0.1-0.2,0.2-0.4,0.4v-10.7H22.9v-30.6H69.6z"/>
</g>
<g class="anim8">
	<path class="st5" d="M49.5,175.1h5.9c-2-2-4-3.8-5.9-5.7V175.1z M55.3,194.7c-6.4,0-11.7,5-11.9,11.4c-0.2,6.9,5.1,12.4,11.9,12.4
		c6.5,0,11.9-5.4,11.9-11.8C67.2,200.1,61.9,194.7,55.3,194.7 M56.8,192.8c0-0.2,0-0.2,0-0.3c0-4.9,0-9.9,0-14.8
		c0-0.4-0.2-0.5-0.5-0.5c-2.5,0-5,0-7.5,0c-1.1,0-1.4-0.3-1.4-1.4c0-2.5,0-4.9,0-7.4c0-0.2,0-0.4,0-0.6H25.8v43.6h16.4
		c-1.5-4.8-1-9.3,2.2-13.3C47.5,194.1,51.7,192.4,56.8,192.8 M58.8,193.2c1.8,0.5,3.5,1.3,5,2.5c7,5.6,7.2,15.9,0.3,21.6
		c-6.4,5.4-16.3,3.7-20.6-3.4c-0.3-0.4-0.5-0.6-1-0.6c-5.7,0-11.4,0-17.1,0c-0.2,0-0.4,0-0.6,0c-0.6-0.1-0.9-0.4-0.9-0.9
		c0-0.2,0-0.4,0-0.5c0-14.9,0-29.8,0-44.7c0-1.2,0.3-1.5,1.5-1.5c7.6,0,15.2,0,22.8,0c0.6,0,1,0.2,1.4,0.6c2.9,3,5.8,5.9,8.8,8.9
		c0.4,0.4,0.6,0.8,0.6,1.4c0,5.3,0,10.7,0,16V193.2z"/>
	<path class="st5" d="M41.3,179.6c3.6,0,7.2,0,10.7,0c0.2,0,0.4,0,0.6,0c0.5,0.1,0.8,0.5,0.8,0.9c0,0.5-0.3,0.9-0.8,1
		c-0.1,0-0.2,0-0.4,0c-7.4,0-14.7,0-22.1,0c-0.3,0-0.8-0.2-1-0.4c-0.5-0.6-0.1-1.4,0.7-1.5c0.2,0,0.4,0,0.6,0
		C34.1,179.6,37.7,179.6,41.3,179.6"/>
	<path class="st5" d="M41.3,187.1c-3.7,0-7.3,0-11,0c-0.5,0-0.9-0.1-1.1-0.6c-0.3-0.6,0.1-1.3,0.8-1.4c0.2,0,0.4,0,0.6,0
		c7.2,0,14.3,0,21.5,0c0.2,0,0.4,0,0.6,0c0.5,0.1,0.9,0.5,0.9,1c0,0.5-0.4,0.9-0.9,0.9c-0.2,0-0.4,0-0.6,0
		C48.4,187.1,44.9,187.1,41.3,187.1"/>
	<path class="st5" d="M39.3,192.2c-3,0-5.9,0-8.9,0c-0.2,0-0.5,0-0.7-0.1c-0.4-0.2-0.6-0.5-0.6-0.9c0-0.4,0.3-0.8,0.7-0.9
		c0.2-0.1,0.5-0.1,0.7-0.1c5.9,0,11.7,0,17.6,0c1,0,1.4,0.3,1.4,1c0,0.7-0.5,1-1.4,1C45.1,192.2,42.2,192.2,39.3,192.2"/>
	<path class="st5" d="M35.9,197.2c-1.8,0-3.7,0-5.5,0c-0.2,0-0.5,0-0.7-0.1c-0.4-0.2-0.6-0.5-0.6-1c0-0.4,0.2-0.7,0.7-0.9
		c0.2-0.1,0.4-0.1,0.6-0.1c3.7,0,7.5,0,11.2,0c0.2,0,0.4,0,0.6,0.1c0.5,0.1,0.7,0.5,0.7,0.9c0,0.4-0.2,0.8-0.6,0.9
		c-0.2,0.1-0.5,0.1-0.7,0.1C39.6,197.2,37.8,197.2,35.9,197.2"/>
	<path class="st5" d="M34.4,200.2c1.3,0,2.6,0,4,0c0.8,0,1.2,0.4,1.2,1c0,0.6-0.5,1-1.2,1c-2.7,0-5.4,0-8.1,0c-0.7,0-1.2-0.4-1.2-1
		c0-0.6,0.5-1,1.2-1C31.7,200.2,33,200.2,34.4,200.2"/>
	<path class="st5" d="M53.9,209.7c1-1.1,1.9-2.2,2.9-3.4c1.3-1.6,2.7-3.1,4-4.7c0.3-0.4,0.8-0.5,1.2-0.3c0.4,0.2,0.6,0.6,0.5,1.1
		c0,0.2-0.2,0.4-0.3,0.6c-2.4,2.9-4.8,5.7-7.3,8.6c-0.6,0.7-1,0.7-1.7,0.2c-1.6-1.3-3.3-2.6-4.9-3.9c-0.4-0.3-0.6-0.7-0.4-1.1
		c0.1-0.3,0.5-0.6,0.8-0.7c0.3-0.1,0.7,0.1,0.9,0.3C51.1,207.4,52.5,208.5,53.9,209.7"/>
</g>
<g class="anim5">
	<path class="st13" d="M5.6,494.5L5.6,494.5c-1.4,0-2.6-1.1-2.6-2.5c0-1.4,1.1-2.6,2.5-2.6c19.4-0.2,37.1,0.1,56.2,0.3
		c38.1,0.5,77.4,1.1,116.1-2.2c10.9-0.9,22-1.7,32.7-2.4c46.3-3.1,94.2-6.4,141.1-25.5c47-19.1,94.9-54.8,141.3-89.2
		c10.7-8,21.8-16.2,32.6-24.1c38.7-28.1,78.1-60.6,116.2-92.1c19.1-15.8,38.8-32,58.2-47.6c1.1-0.9,2.7-0.7,3.6,0.4
		c0.9,1.1,0.7,286.7-0.4,287.6H5.6z"/>
</g>
<g class="anim2"><line class="st3" x1="2" y1="502.5" x2="703.9" y2="502.5"/></g>
<g class="anim3"><line class="st3" x1="713.8" y1="490" x2="713.8" y2="6.8"/></g>
<g class="anim6-2">
	<text transform="matrix(1 0 0 1 101.6582 112.0576)"><tspan x="0" y="0" class="st7 st1 st8">Respect workers’ privacy</tspan></text>
	<text transform="matrix(1 0 0 1 493.8662 114.2241)" class="st5 st1 st9">9.2</text>
</g>
<g class="anim7-2">
	<text transform="matrix(1 0 0 1 101.6582 197.9937)"><tspan x="0" y="0" class="st7 st1 st8">Provide written terms of work status</tspan></text>
	<text transform="matrix(1 0 0 1 483.876 203.5039)" class="st5 st1 st9">9.0</text>
</g>
<g class="anim8-2">
<text transform="matrix(1 0 0 1 101.6582 271.7539)"><tspan x="0" y="0" class="st7 st1 st8">Allow workers to safely</tspan> <tspan x="0" y="1.3em" class="st7 st1 st8">communicate concerns</tspan></text>
<text transform="matrix(1 0 0 1 460.8066 293.624)" class="st5 st1 st9">8.8</text>
</g>
<g class="anim10">
	<text transform="matrix(1 0 0 1 8.7598 403.1875)" class="st5 st1 st10">8.9</text>
	<text transform="matrix(1 0 0 1 10.0352 423.2871)"><tspan x="0" y="0" class="st0 st1 st11">* average score for workers’ rights</tspan></text>
</g>
<g class="anim4">
	<text transform="matrix(1 0 0 1 0 525.5352)" class="st0 st1 st2">0</text>
	<text transform="matrix(1 0 0 1 350.8076 525.5352)" class="st0 st1 st2">5</text>
	<text transform="matrix(1 0 0 1 697.8838 525.5352)" class="st0 st1 st2">10</text>
	<text transform="matrix(1 0 0 1 725.5996 10.2598)" class="st0 st1 st2">100%</text>
	<text transform="matrix(1 0 0 1 725.5996 494.0635)" class="st0 st1 st2">0%</text>
</g>
<g class="anim1"><text transform="matrix(1 0 0 1 388.2568 558.5078)"><tspan x="0" y="0" class="st0 st1 st12">Priority given to workers’ rights</tspan></text></g>
</svg>
