<svg version="1.1" id="SVG_T5-6" xmlns="http://www.w3.org/2000/svg" xmlns:xlink="http://www.w3.org/1999/xlink" x="0px" y="0px"
	 viewBox="0 0 303.8 297.4" data-viewBox="0 0 303.8 297.4" style="enable-background:new 0 0 303.8 297.4;" xml:space="preserve">
<style type="text/css">
	#SVG_T5-6 .st0{fill:#DE3849;}
	#SVG_T5-6 .st1{font-family:'Raleway'; font-weight:600;}
	#SVG_T5-6 .st2{font-size:19px;}
	#SVG_T5-6 .st3{font-family:'Raleway'; font-weight:400;}
	#SVG_T5-6 .st4{font-size:11.077px;}
	#SVG_T5-6 .st5{font-size:9px; letter-spacing:-0.5px;}
	#SVG_T5-6 .st7{fill:#3D3F41;}
	#SVG_T5-6 .st8{font-size:25px;}
</style>
<g class="anim0"><text transform="matrix(1 0 0 1 92.6631 21.3749)" class="st7 st1 st8">Salary</text></g>
<g class="anim1"><path class="st0" d="M18.2,144.5h41.9v78.9H18.2V144.5z M62.9,82.5h41.9v140.9H62.9V82.5z M106.9,127.5h42.6v95.9h-42.6V127.5z
		 M151.6,177.5h42.6v45.9h-42.6V177.5z M196.2,172.5h41.9v50.9h-41.9V172.5z M240.9,154.5h41.9v68.9h-41.9V154.5z"/></g>
<g class="anim2-1"><text transform="matrix(1 0 0 1 24.2822 137.0184)" class="st0 st1 st2">16</text>
	<text transform="matrix(1 0 0 1 44.877 130.6874)" class="st0 st3 st4">%</text>
</g>
<g class="anim2-0"><text transform="matrix(1 0 0 1 18.1846 236.0927)" class="st1 st5">Under </text>
	<text transform="matrix(1 0 0 1 18.1846 246.8925)" class="st1 st5">1,000,000 </text>
	<text transform="matrix(1 0 0 1 18.1846 257.6923)" class="st1 st5 st6">Tomans</text>
</g>
<g class="anim3-1"><text transform="matrix(1 0 0 1 68.0068 77.2587)" class="st0 st1 st2">29</text>
	<text transform="matrix(1 0 0 1 92.4268 70.9364)" class="st0 st3 st4">%</text>
</g>
<g class="anim3-0"><text transform="matrix(1 0 0 1 62.042 236.1356)" class="st1 st5">1,000,000</tspan></text>
	<text transform="matrix(1 0 0 1 62.042 246.9354)" class="st1 st5">–1,500,000</text>
	<text transform="matrix(1 0 0 1 62.042 257.7352)" class="st1 st5 st6">Tomans</text>
</g>
<g class="anim4-1"><text transform="matrix(1 0 0 1 112.1943 123.1864)" class="st0 st1 st2">20</text>
	<text transform="matrix(1 0 0 1 137.8945 116.8642)" class="st0 st3 st4">%</text>
</g>
<g class="anim4-0"><text transform="matrix(1 0 0 1 106.3125 235.8837)" class="st1 st5">1,500,000</text>
	<text transform="matrix(1 0 0 1 106.3125 246.6835)" class="st1 st5">–2,000,000</text>
	<text transform="matrix(1 0 0 1 106.3125 257.4833)" class="st1 st5 st6">Tomans</text>
</g>
<g class="anim5-1"><text transform="matrix(1 0 0 1 162.6396 172.5917)" class="st0 st1 st2">9</text>
	<text transform="matrix(1 0 0 1 175.2246 166.2724)" class="st0 st3 st4">%</text>
</g>
<g class="anim5-0"><text transform="matrix(1 0 0 1 150.5029 236.0097)" class="st1 st5">2,000,000</text>
	<text transform="matrix(1 0 0 1 150.5029 246.8095)" class="st1 st5">–2,500,000</text>
	<text transform="matrix(1 0 0 1 150.5029 257.6093)" class="st1 st5 st6">Tomans</text>
</g>
<g class="anim6-1"><text transform="matrix(1 0 0 1 202.3066 167.2421)" class="st0 st1 st2">10</text>
	<text transform="matrix(1 0 0 1 224.1943 160.9208)" class="st0 st3 st4">%</text>
</g>
<g class="anim6-0"><text transform="matrix(1 0 0 1 196.916 235.6317)" class="st1 st5">2,500,000</text>
	<text transform="matrix(1 0 0 1 196.916 246.4315)" class="st1 st5">–3,000,000</text>
	<text transform="matrix(1 0 0 1 196.916 257.2313)" class="st1 st5 st6">Tomans</text>
</g>
<g class="anim7-1"><text transform="matrix(1 0 0 1 246.8877 149.2733)" class="st0 st1 st2">14</text>
	<text transform="matrix(1 0 0 1 267.9961 142.9472)" class="st0 st3 st4">%</text>
</g>
<g class="anim7-0"><text transform="matrix(1 0 0 1 241.2676 235.7597)" class="st1 st5">Over </text>
	<text transform="matrix(1 0 0 1 241.2676 246.5595)" class="st1 st5">3,000,000 </text>
	<text transform="matrix(1 0 0 1 241.2676 257.3593)" class="st1 st5 st6">Tomans</text>
</g>
</svg>
