<svg version="1.1" id="SVG_T1G2" xmlns="http://www.w3.org/2000/svg" xmlns:xlink="http://www.w3.org/1999/xlink" x="0px" y="0px"
	 viewBox="0 0 505.8 364.3" data-viewBox="0 0 505.8 364.3" style="enable-background:new 0 0 505.8 364.3;" xml:space="preserve">
<style type="text/css">
	#SVG_T1G2 .st0{fill:#DF3A4A;}
	#SVG_T1G2 .st1{fill:none;}
	#SVG_T1G2 .st2{fill:#80CAA4;}
	#SVG_T1G2 .st3{fill:#E5E5E5;}
	#SVG_T1G2 .st4{fill:#DE3A4A;}
	#SVG_T1G2 .st5{fill:none;stroke:#DE3A4A;stroke-width:4;stroke-linecap:round;stroke-linejoin:round;stroke-dasharray:0,13;}
	#SVG_T1G2 .st6{fill:none;stroke:#DE3A4A;stroke-width:4.204;stroke-linecap:round;stroke-linejoin:round;}
	#SVG_T1G2 .st7{fill:none;stroke:#DE3A4A;stroke-width:4.204;stroke-linecap:round;stroke-linejoin:round;stroke-dasharray:0,12.014;}
	#SVG_T1G2 .st8{fill:none;stroke:#DE3A4A;}
	#SVG_T1G2 .st9{fill:#E4E4E4;}
	#SVG_T1G2 .st10{fill:#3C464B;}
	#SVG_T1G2 .st11{font-family:'Raleway'; font-weight:400;}
	#SVG_T1G2 .st12{font-size:9px;}
	#SVG_T1G2 .st13{fill:#5A5A5A;}
	#SVG_T1G2 .st14{font-size:8.4536px;}
	#SVG_T1G2 .st15{font-family:'Raleway'; font-weight:600;}
	#SVG_T1G2 .st16{font-size:30.5714px;}
	#SVG_T1G2 .st17{font-size:17.8232px;}
	#SVG_T1G2 .st18{letter-spacing:-1;}
	#SVG_T1G2 .st19{fill:#3E4042;}
	#SVG_T1G2 .st20{font-family:'Raleway'; font-weight:600;}
	#SVG_T1G2 .st21{font-size:11px;}
	#SVG_T1G2 .st22{font-size:13.4534px;}
	#SVG_T1G2 .st23{font-size:46.9581px;}
	#SVG_T1G2 .st24{font-family:'Raleway'; font-weight:300;}
	#SVG_T1G2 .st25{font-size:27.3765px;}
</style>
<g class="anim2">
	<line class="st5" x1="430.8" y1="100.3" x2="430.8" y2="215.3"/>
	<path class="st6" d="M430.5,220.6L430.5,220.6 M430.5,89.7L430.5,89.7"/>
</g>
<g class="anim3">
	<path class="st4" d="M431.6,49.3c-0.4,6-0.7,10.6-1.1,15.8c0,0.2,0.1,0.5,0.2,0.6c0.6,0.6,1.3,1.3,1.9,1.9c0.6-0.5,1-1,1.6-1.5
		c0.5-0.4,0.6-0.8,0.5-1.4c-0.3-4.2-0.6-8.6-0.9-12.8c-0.1-0.8-0.1-1.7-0.2-2.7H431.6z M455.4,74.3c0,0,0-0.3,0-0.4
		c0-3.6,0.1-7.1-0.2-10.7c-0.5-6.5-5.7-12.1-12.1-13.3c-2.1-0.4-4.2-0.3-6.3-0.3c0.1,1.8,0.2,3.4,0.4,5.1c0.3,3.7,0.5,7.5,0.8,11.2
		c0,0.5-0.2,1.1-0.6,1.5c-1.1,1.2-2.4,2.3-3.6,3.4c-0.8,0.7-1.6,0.7-2.3,0c-1.2-1.1-2.4-2.2-3.5-3.3c-0.3-0.4-0.6-1-0.6-1.5
		c0.2-4.2,0.6-8.4,0.8-12.7c0.1-1.2,0.2-2.5,0.2-3.7c-1.3,0-2.4,0-3.6,0c-2.9,0.1-5.6,0.9-8,2.5c-4.3,2.9-6.7,7-6.9,12.1
		c-0.2,3.2,0,6.5,0,9.7c0,0.1,0,0.3,0,0.3h6.8c0,0,0-0.5,0-0.7c0-2.2,0-4.4,0.1-6.6c0-0.4,0.1-0.8,0.3-1.2c0.4-0.6,1-0.8,1.7-0.6
		c0.7,0.2,1,0.8,1,1.6c0,2.1-0.1,4.3-0.1,6.4c0,0.4,0,1.2,0,1.2h25v-0.8c0-2.3,0.1-4.6,0.1-6.9c0-0.9,0.7-1.6,1.6-1.6
		c0.8,0,1.5,0.6,1.6,1.5c0,0.2,0,0.5,0,0.7c0,2.1,0,4.2,0,6.3c0,0.3,0,0.7,0,0.7H455.4z M432.8,46.6c0,0,5.6-0.1,8.4,0
		c8.7,0.4,16.2,7.4,17.2,15.9c0.3,2.9,0.2,5.8,0.3,8.6c0,1.5,0,2.9,0,4.4c0,1.4-0.5,1.9-2,1.9c-2.9,0-5.8-0.1-8.6-0.1
		c-9.3,0-18.7,0-28,0c-3.7,0-7.4,0.1-11.1,0.1c-1.6,0-2.1-0.4-2.1-2.1c0-3.7-0.1-7.3,0-11c0.2-6,2.8-10.7,7.6-14.3
		c3.3-2.5,7.2-3.6,11.4-3.6C428.1,46.5,430.8,46.5,432.8,46.6c0,0,0-0.2,0-0.2"/>
	<path class="st4" d="M432.7,40.3c6.1,0,10.9-4.9,10.8-11c0-6-5-10.8-11-10.8c-5.9,0-10.7,4.9-10.7,10.8
		C421.8,35.5,426.7,40.4,432.7,40.3 M446.6,29.5c0,7.7-6.3,13.9-14,13.9c-7.7,0-14-6.3-13.9-14.1c0.1-7.7,6.4-13.9,14.2-13.8
		C440.4,15.6,446.7,21.9,446.6,29.5"/>
	<path class="st4" d="M450.9,13.6c-1.7,1.7-3.3,3.4-4.8,4.9c-0.8-0.8-1.6-1.5-2.4-2.3c1.6-1.6,3.2-3.2,4.9-4.9
		c-0.5-0.1-0.9-0.1-1.2-0.1c-0.8-0.1-1.2-0.7-1.2-1.5c0-0.8,0.5-1.4,1.3-1.5c1.7,0,3.4,0,5.1,0c0.8,0,1.4,0.7,1.4,1.6
		c0,1.5,0,3,0,4.5c0,1-0.7,1.6-1.6,1.6c-0.9,0-1.5-0.6-1.5-1.6C450.9,14.2,450.9,14,450.9,13.6"/>
	<path class="st4" d="M433.8,5.3v7h-3v-7c0,0.3-0.4,0.5-0.6,0.7c-0.7,0.6-1.4,0.5-2.1-0.1c-0.6-0.6-0.6-1.5,0-2.1
		c1.1-1.1,2.3-2.3,3.4-3.4c0.6-0.6,1.5-0.6,2.2,0c1.1,1.1,2.3,2.2,3.3,3.3c0.7,0.7,0.6,1.5,0,2.2c-0.6,0.6-1.7,0.6-2.4,0
		C434.5,5.8,434.8,5.7,433.8,5.3"/>
	<path class="st4" d="M456.8,31.3h-7v-3h7.2c-0.3-1-0.5-0.7-0.7-0.9c-0.6-0.7-0.6-1.7,0-2.3c0.6-0.6,1.6-0.6,2.2,0
		c1.1,1,2.1,2.1,3.2,3.1c0.8,0.8,0.8,1.6,0,2.5c-1,1-2,2-3,3c-0.8,0.8-1.7,0.9-2.4,0.2c-0.7-0.7-0.6-1.3,0.2-2.2
		c0.1-0.1,0.2-0.4,0.5-0.4"/>
	<path class="st4" d="M416.7,11.4c1.7,1.7,3.3,3.3,4.9,4.9c-0.8,0.8-1.5,1.4-2.4,2.2c-1.5-1.6-3.2-3.2-4.9-5c0,0.5,0,0.7,0,1
		c-0.1,0.9-0.7,1.5-1.6,1.4c-0.9,0-1.5-0.5-1.5-1.4c0-1.7,0-3.3,0-5c0-0.7,0.6-1.3,1.3-1.3c1.7,0,3.3,0,5,0c0.9,0,1.4,0.7,1.4,1.5
		c0,0.8-0.5,1.4-1.4,1.5C417.4,11.3,417.1,11.3,416.7,11.4"/>
	<path class="st4" d="M415.8,28.3v3h-7.4c0.3,0,0.5,0.4,0.7,0.6c0.5,0.7,0.5,1.4-0.1,2c-0.6,0.6-1.5,0.7-2.1,0
		c-1.2-1.1-2.3-2.3-3.5-3.5c-0.5-0.6-0.5-1.4,0-2c1.1-1.2,2.2-2.3,3.4-3.4c0.6-0.6,1.6-0.6,2.2,0c0.6,0.6,0.6,1.7,0,2.4
		c-0.2,0.2-0.3-0.2-0.6,0.8H415.8z"/>
</g>
<g class="anim4">
	<line class="st7" x1="388.1" y1="69.9" x2="358.5" y2="89.3"/>
	<path class="st6" d="M354.3,92L354.3,92 M396.5,64.3L396.5,64.3"/>
</g>
<g class="anim5">
	<path class="st4" d="M327.2,171.4c25.6-14.4,34.7-46.8,20.2-72.3S300.3,64.5,274.7,79c-25.6,14.4-34.7,46.8-20.2,72.3
		C269,176.8,301.6,185.8,327.2,171.4"/>
	<path class="st1" d="M274.7,79c-25.6,14.4-34.7,46.8-20.2,72.3c14.5,25.5,47.1,34.5,72.7,20.1c25.6-14.4,34.7-46.8,20.2-72.3
		c-9.8-17.3-27.9-27-46.5-27C292,72.1,283,74.3,274.7,79"/>

	<path class="st9" d="M299.5,127.1c1.6,0,3.1,0.1,4.8,0.1c-0.8-0.7-1.5-1.4-2.2-2.1C301.2,125.8,300.4,126.4,299.5,127.1
		M310.2,107.7C310.2,107.7,310.2,107.7,310.2,107.7c-2.5-2-5.1-4-7.6-6c-2.7,1.8-5.3,3.7-7.9,5.5c0,0,0,0,0,0.1
		C299.9,107.5,305,107.6,310.2,107.7 M281.5,113.3c4.3,0.1,8.6,0.2,12.9,0.3c0-1.4,0.1-2.8,0.1-4.2c-4.3-0.1-8.6-0.2-12.9-0.3
		C281.6,110.5,281.5,111.9,281.5,113.3 M323.2,110.2c-4.3-0.1-8.6-0.2-12.9-0.3c0,1.4-0.1,2.8-0.1,4.2c4.3,0.1,8.6,0.2,12.9,0.3
		C323.2,113,323.2,111.6,323.2,110.2 M321,141.1c-12.9-0.3-25.9-0.7-38.8-1c0,0.5,0,0.9,0,1.4c12.9,0.3,25.8,0.7,38.8,1
		C321,142,321,141.5,321,141.1 M305.5,128.7c-2.4-0.1-4.8-0.1-7.1-0.2c-0.1,3.5-0.2,7-0.3,10.5c2.4,0.1,4.8,0.1,7.1,0.2
		C305.3,135.7,305.4,132.2,305.5,128.7 M321,139.6c0.2-8,0.4-15.9,0.6-23.8c-3.8-0.1-7.6-0.2-11.4-0.3c-0.2,8-0.4,15.9-0.6,23.8
		C313.4,139.4,317.2,139.5,321,139.6 M282.9,114.8c-0.2,8-0.4,15.9-0.6,23.8c3.8,0.1,7.6,0.2,11.5,0.3c0.2-8,0.4-15.9,0.6-23.8
		C290.5,115,286.7,114.9,282.9,114.8 M308.1,139.3c0.3-10.1,0.5-20.1,0.8-30.1c-4.3-0.1-8.6-0.2-12.9-0.3
		c-0.3,10.1-0.5,20.1-0.8,30.1c0.5,0,0.9,0,1.4,0c0-0.1,0-0.3,0-0.4c0.1-3.6,0.2-7.3,0.3-10.9c0-0.2,0.1-0.4,0.3-0.5
		c1.4-1.1,2.8-2.1,4.2-3.2c0.3-0.2,0.6-0.4,0.9-0.7c1.5,1.4,3,2.8,4.6,4.2c0.2,0.2,0.2,0.3,0.2,0.6c-0.1,3.6-0.2,7.1-0.3,10.7
		c0,0.1,0,0.3,0,0.4C307.2,139.3,307.6,139.3,308.1,139.3 M324.5,115.8c-0.5,0-0.9,0-1.4,0c-0.2,9.4-0.5,18.7-0.7,28.1
		c-13.9-0.4-27.8-0.7-41.7-1.1c0.2-9.3,0.5-18.7,0.7-28.1c-0.5,0-0.9,0-1.4,0c0.1-2.4,0.1-4.7,0.2-7c0.1,0,0.3,0,0.4,0
		c3.4,0.1,6.8,0.2,10.3,0.3c0.2,0,0.4-0.1,0.6-0.2c3.6-2.5,7.3-5,10.9-7.6c0.1-0.1,0.2-0.1,0.3-0.2c1.5,1.2,3,2.3,4.5,3.5
		c2.1,1.6,4.2,3.2,6.2,4.8c0.2,0.1,0.4,0.2,0.6,0.2c3.4,0.1,6.9,0.2,10.3,0.3c0.3,0,0.4,0.1,0.4,0.4c-0.1,2.1-0.1,4.2-0.2,6.2
		C324.5,115.6,324.5,115.7,324.5,115.8"/>
	<path class="st9" d="M302.4,111.1c-2,0-3.6,1.5-3.7,3.4c0,2,1.5,3.6,3.5,3.6c2,0,3.6-1.5,3.7-3.4
		C305.9,112.7,304.3,111.1,302.4,111.1 M307.3,114.7c-0.1,2.7-2.4,4.8-5.2,4.8c-2.8-0.1-5-2.4-4.9-5.1c0.1-2.7,2.4-4.8,5.2-4.7
		C305.2,109.7,307.4,112,307.3,114.7"/>
	<path class="st9" d="M290.9,134.6c0-1.9,0.1-3.7,0.1-5.6c-1.9-0.1-3.8-0.1-5.7-0.1c0,1.9-0.1,3.7-0.1,5.6
		C287.1,134.5,289,134.6,290.9,134.6 M292.5,131.9c0,1.1-0.1,2.2-0.1,3.3c0,0.7-0.3,0.9-1,0.9c-2.2-0.1-4.5-0.1-6.7-0.2
		c-0.7,0-0.9-0.3-0.9-0.9c0.1-2.2,0.1-4.4,0.2-6.6c0-0.7,0.3-0.9,1-0.9c2.2,0.1,4.5,0.1,6.7,0.2c0.7,0,0.9,0.3,0.9,0.9
		C292.5,129.7,292.5,130.8,292.5,131.9"/>
	<path class="st9" d="M285.5,124.6c1.9,0.1,3.8,0.1,5.7,0.1c0-1.9,0.1-3.7,0.1-5.5c-1.9,0-3.8-0.1-5.7-0.1
		C285.6,120.9,285.5,122.8,285.5,124.6 M288.3,126.1c-1.1,0-2.3-0.1-3.4-0.1c-0.6,0-0.9-0.3-0.9-0.9c0.1-2.2,0.1-4.5,0.2-6.7
		c0-0.6,0.3-0.9,0.9-0.8c2.3,0.1,4.6,0.1,6.8,0.2c0.6,0,0.9,0.3,0.9,0.9c-0.1,2.2-0.1,4.5-0.2,6.7c0,0.6-0.3,0.9-0.9,0.8
		C290.6,126.2,289.5,126.2,288.3,126.1"/>
	<path class="st9" d="M318.4,129.8c-1.9,0-3.8-0.1-5.7-0.1c0,1.9-0.1,3.7-0.1,5.6c1.9,0,3.8,0.1,5.7,0.1
		C318.3,133.5,318.3,131.6,318.4,129.8 M319.8,132.6c0,1.1-0.1,2.2-0.1,3.4c0,0.5-0.3,0.8-0.8,0.8c-2.3-0.1-4.7-0.1-7-0.2
		c-0.5,0-0.8-0.3-0.8-0.8c0.1-2.3,0.1-4.5,0.2-6.8c0-0.5,0.3-0.8,0.8-0.8c2.3,0.1,4.7,0.1,7,0.2c0.5,0,0.8,0.3,0.8,0.8
		C319.8,130.3,319.8,131.5,319.8,132.6"/>
	<path class="st9" d="M312.9,119.8c0,1.9-0.1,3.7-0.1,5.6c1.9,0.1,3.8,0.1,5.7,0.1c0-1.9,0.1-3.7,0.1-5.6
		C316.7,119.9,314.8,119.8,312.9,119.8 M315.8,118.4c1.2,0,2.3,0.1,3.5,0.1c0.6,0,0.8,0.3,0.8,0.8c-0.1,2.3-0.1,4.5-0.2,6.8
		c0,0.6-0.3,0.8-0.9,0.8c-2.3-0.1-4.6-0.1-6.9-0.2c-0.6,0-0.8-0.3-0.8-0.8c0.1-2.3,0.1-4.5,0.2-6.8c0-0.6,0.3-0.8,0.9-0.8
		C313.5,118.4,314.7,118.4,315.8,118.4"/>
	<path class="st9" d="M301.6,111.8c0.5,0,0.9,0,1.4,0c0,0.7,0,1.3-0.1,2c0.8,0,1.5,0,2.2,0.1c0,0.5,0,0.9,0,1.4
		c-1.2,0-2.4-0.1-3.7-0.1C301.6,114.1,301.6,113,301.6,111.8"/>
</g>
<g class="anim6">		
	<line class="st8" x1="280.8" y1="42.8" x2="318.8" y2="42.8"/>
	
	<text transform="matrix(1.0052 0 0 1 281.1185 37.4027)" class="st4 st15 st16">14</text>
	<text transform="matrix(1.0052 0 0 1 315.2591 27.2221)" class="st4 st11 st17">%</text>
	<text transform="matrix(1.0052 0 0 1 281.1576 54.4369)"><tspan x="0" y="0" class="st10 st11 st12">School/ </tspan><tspan x="0" y="10.8" class="st10 st11 st12">University</tspan></text>
</g>
<g class="anim7">
	<path class="st4" d="M229.5,239.4c31.1-17.5,42.1-56.9,24.5-87.8c-17.6-31-57.1-41.9-88.3-24.4c-31.1,17.5-42.1,56.9-24.5,87.8
		C158.8,246.1,198.3,257,229.5,239.4"/>
	<path class="st1" d="M165.7,127.3c-31.1,17.5-42.1,56.9-24.5,87.8c17.6,31,57.1,41.9,88.3,24.4c31.1-17.5,42.1-56.9,24.5-87.8
		c-11.9-21-33.9-32.7-56.4-32.7C186.7,118.9,175.8,121.6,165.7,127.3"/>

	<path class="st9" d="M184.8,202.2c-1.6-1.6-3.2-3.3-4.8-5c-0.6,0.6-1.3,1.2-2,1.8c-1.2,1.1-1.4,3.4-0.1,4.8c1.3,1.4,3.4,1.7,4.7,0.5
	C183.5,203.7,184.1,202.9,184.8,202.2 M221.5,168.1c-0.2,0.1-0.3,0.3-0.4,0.4c-1.7,1.6-3.5,3.3-5.2,4.9c-1.8,1.7-4.4,1.5-5.8-0.5
	c-1.1-1.5-0.9-3.6,0.6-5c1.7-1.7,3.5-3.3,5.2-5c0.1-0.1,0.2-0.2,0.4-0.4c-1.6-0.8-3.3-1-5-0.9c-6.5,0.6-10.7,7.3-8.7,12.9
	c0.3,0.7,0.1,1.2-0.5,1.7c-0.8,0.7-1.5,1.5-2.3,2.2c1.6,1.7,3.2,3.4,4.9,5.1c0.7-0.7,1.4-1.4,2.1-2.1c0.6-0.6,1.2-0.7,2-0.4
	c1.3,0.5,2.6,0.7,4,0.6c4.7-0.5,8.3-3.7,9.2-8.4C222.5,171.6,222.2,169.8,221.5,168.1 M199.1,175.5c-0.6-0.6-1.1-1.2-1.7-1.8
	c-2.6-2.5-6.3-2.6-9.1-0.2c-1.1,1-2.2,2-3.3,3c-2.2,2-4.4,4-6.4,6.1c-2.4,2.5-2.4,6.5,0,9c4.1,4.3,8.3,8.6,12.4,13
	c0.2,0.2,0.4,0.3,0.6,0.3c0.6,0.1,1.4-0.2,1.8-0.8c0.4-0.6,0.4-1.3,0-1.9c-0.1-0.2-0.3-0.3-0.3-0.5c-0.3-0.6-0.1-1.4,0.5-1.8
	c0.5-0.4,1.2-0.3,1.7,0.2c0.4,0.4,0.7,0.8,1.1,1.2c0.1,0.1,0.3,0.2,0.4,0.3c0.7,0.2,1.6-0.1,2-0.7c0.4-0.6,0.4-1.4-0.1-2
	c-0.1-0.1-0.2-0.2-0.3-0.3c-0.4-0.6-0.2-1.4,0.4-1.8c0.6-0.4,1.3-0.4,1.8,0.2c0.3,0.4,0.7,0.8,1.1,1.1c0.6,0.6,1.7,0.5,2.3-0.1
	c0.6-0.6,0.7-1.6,0.2-2.3c-0.1-0.1-0.1-0.2-0.2-0.3c-0.5-0.6-0.4-1.5,0.2-2c0.5-0.5,1.3-0.4,1.8,0.2c0.3,0.3,0.6,0.7,0.9,1
	c0.9,0.8,2.4,0.4,2.7-0.8c0.2-0.8,0-1.3-0.6-1.9c-4.3-4.5-8.6-9-12.9-13.5c-0.2-0.2-0.3-0.3-0.4-0.5c-0.4-0.5-0.3-1.3,0.2-1.7
	c0.5-0.4,1.2-0.4,1.7,0c0.1,0.1,0.3,0.3,0.4,0.4C198.3,176.2,198.7,175.9,199.1,175.5 M178.4,195.1c-0.6-0.6-1.3-1.1-1.8-1.7
	c-3.4-4-3.1-9.4,0.7-13c3-2.8,6-5.6,8.9-8.4c2-2,4.5-2.8,7.3-2.7c2.2,0.1,4,1,5.6,2.5c0.1,0.1,0.2,0.1,0.3,0.3
	c0.1-0.6,0.1-1.1,0.1-1.6c0.6-5.8,5.2-10.6,11.1-11.4c2.3-0.3,4.4,0,6.5,0.9c0.7,0.3,1.3,0.6,1.9,0.9c1,0.5,1.2,1.5,0.4,2.3
	c-2.3,2.2-4.7,4.4-7,6.7c-0.6,0.6-0.6,1.4,0.1,1.9c0.5,0.3,1,0.3,1.5-0.2c1.5-1.4,3-2.8,4.5-4.2c0.9-0.8,1.7-1.6,2.6-2.4
	c0.9-0.8,1.9-0.6,2.3,0.5c0.6,1.6,1.3,3.1,1.5,4.8c0.3,2.4-0.1,4.6-1.2,6.7c-1.9,3.9-5.1,6.3-9.3,7.1c-1.8,0.4-3.7,0.3-5.5-0.3
	c-0.3-0.1-0.5-0.1-0.8,0.2c-0.5,0.5-1.1,1-1.7,1.6c0.4,0.4,0.8,0.7,1.1,1c1.3,1.3,2.5,2.6,3.7,4c1.3,1.4,1.4,3.3,0.5,4.9
	c-0.9,1.5-2.6,2.3-4.4,2.1c-0.1,0-0.3,0-0.4-0.1c-0.7,2.5-3,3.8-5.3,3.3c-0.3,1.2-0.9,2.1-1.9,2.7c-1,0.6-2.1,0.8-3.2,0.7
	c-0.4,0.7-0.8,1.4-1.3,2c-1.4,1.6-4.5,2.1-6.1,0.2c-0.7-0.8-1.5-1.6-2.3-2.4c-0.7,0.7-1.4,1.4-2.1,2c-2,1.7-4.2,2.1-6.6,1
	c-2.4-1.1-3.6-3-3.7-5.7c0-1.8,0.7-3.3,2.1-4.5C177.1,196.3,177.7,195.8,178.4,195.1"/>
</g>
<g class="anim8">		
	<line class="st8" x1="174.8" y1="94.8" x2="211.8" y2="94.8"/>

	<text transform="matrix(1.0052 0 0 1 174.2083 90.4359)" class="st4 st15 st16">17</text>
	<text transform="matrix(1.0052 0 0 1 206.1971 80.2553)" class="st4 st11 st17">%</text>
	<text transform="matrix(1.0052 0 0 1 174.5379 106.393)"><tspan x="0" y="0" class="st10 st11 st12">Workplace</tspan></text>
</g>
<g class="anim9">
	<path class="st4" d="M112.6,316.9c36.3-20.4,49-66.2,28.5-102.3c-20.5-36.1-66.6-48.8-102.8-28.4C2,206.7-10.7,252.5,9.8,288.5
		C30.3,324.6,76.4,337.3,112.6,316.9"/>
	<path class="st1" d="M38.3,186.2C2,206.7-10.7,252.5,9.8,288.6c20.5,36.1,66.6,48.8,102.8,28.4c36.3-20.4,49-66.2,28.5-102.3
		c-13.9-24.4-39.4-38.1-65.8-38.1C62.8,176.5,50.1,179.6,38.3,186.2"/>		

	<path id="SVG_T1G2_XMLID_41_" class="st1" d="M54.9,268.1c10.3,0.3,20.5,0.5,30.7,0.8c0.2-9,0.5-18.1,0.7-27.1c-10.3-0.3-20.5-0.5-30.7-0.8
		C55.3,250.1,55.1,259.1,54.9,268.1z"/>
	<path id="SVG_T1G2_XMLID_60_" class="st1" d="M95.8,254.6c0.8,0,1.4-0.5,1.5-1.3c0-0.8-0.5-1.4-1.3-1.5c-0.8,0-1.5,0.6-1.5,1.3
		C94.4,253.9,95,254.5,95.8,254.6z"/>
	<path id="SVG_T1G2_XMLID_61_" class="st1" d="M93.1,277.5c1.4,0,2.8,0.1,4.1,0.1c0-0.5,0-0.9,0-1.3c-1.4,0-2.7-0.1-4.1-0.1
		C93.2,276.6,93.1,277,93.1,277.5z"/>
	<path id="SVG_T1G2_XMLID_62_" class="st1" d="M96,244.8c0.8,0,1.5-0.5,1.5-1.3c0-0.8-0.6-1.4-1.3-1.4c-0.8,0-1.4,0.5-1.5,1.3
		C94.7,244.2,95.2,244.8,96,244.8z"/>
	<path id="SVG_T1G2_XMLID_63_" class="st1" d="M56.8,276.5c1.4,0,2.8,0.1,4.1,0.1c0-0.5,0-0.9,0-1.3c-1.4,0-2.8-0.1-4.1-0.1
		C56.8,275.6,56.8,276.1,56.8,276.5z"/>
	<path id="SVG_T1G2_XMLID_71_" class="st1" d="M102.7,238c-16.9-0.4-33.8-0.9-50.6-1.3c-0.2,0-0.4,0-0.5,0c-0.3,11.8-0.6,23.6-0.9,35.4
		c17.3,0.4,34.5,0.9,51.7,1.3c0-0.2,0-0.4,0-0.5c0.3-11.4,0.6-22.9,0.9-34.3C103.3,238.2,103.1,238.1,102.7,238z M96.2,239.3
		c2.3,0.1,4.1,2,4.1,4.3c-0.1,2.3-2.1,4.1-4.3,4c-2.3-0.1-4.1-2-4-4.3C92,241,93.9,239.2,96.2,239.3z M96,249c2.3,0.1,4.1,2,4.1,4.3
		c-0.1,2.3-2,4.1-4.3,4c-2.3-0.1-4.1-2-4-4.4C91.7,250.8,93.7,249,96,249z M88.4,270.3c0,0.9-0.6,1.5-1.5,1.5c-0.1,0-0.3,0-0.4,0
		c-10.9-0.3-21.8-0.6-32.6-0.9c-0.3,0-0.6,0-0.9-0.1c-0.5-0.2-0.8-0.6-0.9-1.2c0-0.2,0-0.4,0-0.6c0.3-9.7,0.5-19.4,0.8-29.1
		c0-0.3,0-0.7,0.2-1c0.3-0.6,0.9-0.8,1.5-0.8c4.6,0.1,9.3,0.2,13.9,0.4c0.9,0,1.8,0,2.7,0.1c5.5,0.1,11,0.3,16.5,0.4
		c0.6,0,1.1,0.1,1.4,0.6c0.2,0.3,0.3,0.6,0.3,0.9C88.9,250.5,88.7,260.4,88.4,270.3z M99.5,272.1c-1.4,0-2.8-0.1-4.2-0.1
		c-1.4,0-2.8-0.1-4.2-0.1c-1.1,0-1.7-0.9-1.3-1.8c0.2-0.6,0.7-0.9,1.4-0.9c2.8,0.1,5.6,0.1,8.4,0.2c0.8,0,1.4,0.6,1.4,1.4
		C101,271.5,100.4,272.1,99.5,272.1z M99.8,267.2c-1.4,0-3-0.1-4-0.1c0,0,0,0,0,0c0,0-2.9-0.1-4.3-0.1c-0.8,0-1.5-0.6-1.5-1.4
		c0-0.8,0.6-1.4,1.4-1.4c2.8,0.1,5.6,0.1,8.5,0.2c0.8,0,1.4,0.7,1.3,1.5C101.1,266.7,100.6,267.2,99.8,267.2z M100.6,262.1
		c-0.2,0.1-0.6,0.2-0.9,0.2c-1.4,0-2.8-0.1-4.2-0.1c-1.4,0-2.8-0.1-4.2-0.1c-0.9,0-1.5-0.6-1.5-1.4c0-0.8,0.7-1.4,1.5-1.4
		c2.8,0.1,5.6,0.1,8.4,0.2c0.7,0,1.2,0.4,1.4,1C101.4,261.1,101.2,261.8,100.6,262.1z"/>
	<path id="SVG_T1G2_XMLID_87_" class="st9" d="M104.3,235.3c-7.2-0.2-14.5-0.4-21.7-0.6c-0.2,0-0.4,0-0.6,0c0.2-0.2,0.3-0.2,0.3-0.3
		c1.9-1.5,3.9-3.1,5.8-4.6c1.8-1.4,3.6-2.9,5.3-4.3c0.5-0.4,0.7-1,0.4-1.5c-0.3-0.6-0.8-1-1.4-0.9c-0.4,0.1-0.7,0.3-1.1,0.5
		c-3.3,2.6-6.6,5.3-9.9,7.9c-1.1,0.9-2.2,1.7-3.3,2.6c-0.9-0.8-1.7-1.6-2.6-2.3c-3.3-3-6.7-6-10-8.9c-0.2-0.2-0.5-0.4-0.8-0.5
		c-0.7-0.2-1.2,0.1-1.5,0.7c-0.3,0.6-0.2,1.2,0.4,1.7c2.8,2.5,5.5,4.9,8.3,7.4c0.8,0.7,1.6,1.4,2.5,2.2c-0.3,0-0.5,0-0.7,0
		c-7.8-0.2-15.5-0.4-23.3-0.6c-1.1,0-1.6,0.5-1.7,1.5c-0.3,12.6-0.7,25.3-1,37.9c0,1,0.5,1.5,1.5,1.6c0.7,0,1.4,0,2,0.1
		c0.9,0,1.8,0,2.7,0.1c0,0.1,0.1,0.1,0.1,0.1c0,0.8,0,1.6-0.1,2.4c0,1.1,0.5,1.7,1.6,1.7c2.2,0.1,4.3,0.1,6.5,0.2
		c1.2,0,1.7-0.5,1.7-1.7c0-0.8,0-1.6,0.1-2.4c8.9,0.2,17.7,0.5,26.6,0.7c0,0.9,0,1.7-0.1,2.6c0,1.1,0.5,1.6,1.6,1.6
		c2.2,0.1,4.3,0.1,6.5,0.2c1.2,0,1.7-0.5,1.7-1.6c0-0.8,0-1.6,0.1-2.5c1.1,0,2.1,0.1,3.1,0.1c1.3,0,1.8-0.4,1.8-1.7
		c0.3-12.5,0.7-25,1-37.5C106.1,235.8,105.6,235.3,104.3,235.3z M60.9,276.6c-1.4,0-2.7-0.1-4.1-0.1c0-0.4,0-0.9,0-1.3
		c1.4,0,2.7,0.1,4.1,0.1C60.9,275.7,60.9,276.2,60.9,276.6z M97.3,277.6c-1.4,0-2.8-0.1-4.1-0.1c0-0.4,0-0.8,0-1.3
		c1.4,0,2.8,0.1,4.1,0.1C97.3,276.7,97.3,277.1,97.3,277.6z M102.3,273c0,0.2,0,0.3,0,0.5c-17.3-0.4-34.5-0.9-51.7-1.3
		c0.3-11.8,0.6-23.6,0.9-35.4c0.2,0,0.4,0,0.5,0c16.9,0.4,33.8,0.9,50.6,1.3c0.5,0,0.6,0.1,0.6,0.6
		C102.9,250.1,102.6,261.5,102.3,273z"/>
	<path id="SVG_T1G2_XMLID_92_" class="st9" d="M87.5,239c-5.5-0.1-11-0.3-16.5-0.4c-0.9,0-1.8,0-2.7-0.1c-4.6-0.1-9.3-0.2-13.9-0.4
		c-0.7,0-1.2,0.1-1.5,0.8c-0.1,0.3-0.2,0.7-0.2,1c-0.3,9.7-0.5,19.4-0.8,29.1c0,0.2,0,0.4,0,0.6c0.1,0.6,0.4,1,0.9,1.2
		c0.3,0.1,0.6,0.1,0.9,0.1c10.9,0.3,21.8,0.6,32.6,0.9c0.1,0,0.3,0,0.4,0c0.9,0,1.5-0.5,1.5-1.5c0.3-9.9,0.5-19.8,0.8-29.7
		c0-0.3-0.1-0.7-0.3-0.9C88.6,239.2,88.1,239.1,87.5,239z M85.6,268.9c-10.2-0.3-20.4-0.5-30.7-0.8c0.2-9,0.5-18,0.7-27.1
		c10.2,0.3,20.5,0.5,30.7,0.8C86.1,250.9,85.8,259.9,85.6,268.9z"/>
	<path id="SVG_T1G2_XMLID_95_" class="st9" d="M96,247.6c2.3,0.1,4.3-1.7,4.3-4c0.1-2.3-1.8-4.3-4.1-4.3c-2.3-0.1-4.2,1.8-4.3,4
		C91.8,245.6,93.6,247.5,96,247.6z M96.2,242.1c0.8,0,1.4,0.7,1.3,1.4c0,0.8-0.7,1.4-1.5,1.3c-0.8,0-1.3-0.7-1.3-1.4
		C94.7,242.6,95.4,242,96.2,242.1z"/>
	<path id="SVG_T1G2_XMLID_98_" class="st9" d="M95.7,257.4c2.3,0.1,4.3-1.8,4.3-4c0.1-2.3-1.8-4.2-4.1-4.3c-2.3-0.1-4.2,1.7-4.3,4
		C91.6,255.4,93.4,257.3,95.7,257.4z M95.9,251.8c0.8,0,1.3,0.7,1.3,1.5c0,0.8-0.7,1.3-1.5,1.3c-0.8,0-1.4-0.6-1.3-1.4
		C94.5,252.4,95.1,251.8,95.9,251.8z"/>
	<path id="SVG_T1G2_XMLID_99_" class="st9" d="M99.6,269.3c-2.8-0.1-5.6-0.2-8.4-0.2c-0.7,0-1.2,0.4-1.4,0.9c-0.3,0.9,0.3,1.8,1.3,1.8
		c1.4,0.1,2.8,0.1,4.2,0.1c1.4,0,2.8,0.1,4.2,0.1c0.9,0,1.5-0.5,1.5-1.3C101,270,100.5,269.3,99.6,269.3z"/>
	<path id="SVG_T1G2_XMLID_100_" class="st9" d="M99.9,259.6c-2.8-0.1-5.6-0.2-8.4-0.2c-0.9,0-1.5,0.6-1.5,1.4c0,0.8,0.6,1.4,1.5,1.4
		c1.4,0,2.8,0.1,4.2,0.1c1.4,0,2.8,0.1,4.2,0.1c0.3,0,0.6-0.1,0.9-0.2c0.5-0.3,0.8-1,0.6-1.5C101,260,100.6,259.6,99.9,259.6z"/>
	<path id="SVG_T1G2_XMLID_101_" class="st9" d="M99.8,264.4c-2.8-0.1-5.6-0.2-8.5-0.2c-0.8,0-1.4,0.6-1.4,1.4c0,0.8,0.7,1.4,1.5,1.4
		c1.4,0,4.3,0.1,4.3,0.1c0,0,0,0,0,0c1,0,2.7,0.1,4,0.1c0.8,0,1.3-0.5,1.3-1.3C101.2,265.1,100.6,264.5,99.8,264.4z"/>
</g>
<g class="anim10">
	<line class="st8" x1="49.8" y1="144.8" x2="86.8" y2="144.8"/>
	<text transform="matrix(1.0052 0 0 1 48.2318 138.9213)"><tspan x="0" y="0" class="st4 st15 st16 st18">2</tspan><tspan x="15.4" y="0" class="st4 st15 st16">0</tspan></text>
	<text transform="matrix(1.0052 0 0 1 87.9647 128.7396)" class="st4 st11 st17">%</text>
	<text transform="matrix(1.0052 0 0 1 49.3387 156.8685)"><tspan x="0" y="0" class="st13 st11 st12">Public </tspan><tspan x="0" y="10.8" class="st13 st11 st12">television</tspan></text>
</g>

<g class="anim1">
	<path class="st0" d="M430.8,234.8c-41.2,0-74.6,33.6-74.6,74.6h38c0-20,16.4-36.6,36.6-36.6c6.3,0,12.3,1.6,17.5,4.4l18.1-33.4
		C455.7,238,443.6,234.8,430.8,234.8"/>
	<path class="st2" d="M466.3,243.8l-18.1,33.4c11.4,6.2,19.2,18.2,19.2,32.2h38C505.3,281.3,489.6,256.4,466.3,243.8"/>
	<path class="st3" d="M430.8,364.8c30.6,0,55.4-24.8,55.4-55.4c0-30.6-24.8-55.4-55.4-55.4s-55.4,24.8-55.4,55.4
		C375.3,340,400.2,364.8,430.8,364.8"/>
	<text transform="matrix(1 0 0 1 383.5941 336.2006)"><tspan x="0" y="0" class="st19 st20 st21">aware of the term </tspan><tspan x="-12.8" y="13.2" class="st19 st20 st21">'responsible business'</tspan></text>
	<text transform="matrix(1 0 0 1 394.971 313.1761)" class="st0 st15 st23">77</text>
	<text transform="matrix(1 0 0 1 447.6576 297.5394)" class="st0 st24 st25">%</text>
</g>

</svg>
