<svg version="1.1" id="SVG_T1G4" xmlns="http://www.w3.org/2000/svg" xmlns:xlink="http://www.w3.org/1999/xlink" x="0px" y="0px"
	 viewBox="0 0 578 454.3" style="enable-background:new 0 0 578 454.3;" xml:space="preserve">
<style type="text/css">
	#SVG_T1G4 .st0{fill:#7DCDA5;}
	#SVG_T1G4 .st1{fill:#DE3849;}
	#SVG_T1G4 .st2{fill:#E5E5E5;}
	#SVG_T1G4 .st3{fill:#3D3F41;}
	#SVG_T1G4 .st4{font-family:'Raleway'; font-weight:600;}
	#SVG_T1G4 .st5{font-size:16px;}
	#SVG_T1G4 .st7{fill:#73818A;}
</style>
<text transform="matrix(1 0 0 1 663.502 -162.0073)" class="st3" style="font-family:'Raleway-Regular'; font-size:50px;"> </text>
<rect x="202.4" y="49.7" class="st0" width="173.1" height="404.7"/>
<rect y="211.7" class="st1" width="172.9" height="242.5"/>
<path class="st2" d="M123.6,341.7c-0.3-0.2-0.5-0.3-0.6-0.4c-12.8-7.7-25.6-15.3-38.3-23c-0.6-0.4-1-0.2-1.6,0.1
	c-12.6,7.6-25.3,15.1-37.9,22.7c-0.3,0.2-0.5,0.4-1,0.7H123.6z M83.9,346c-15.7,0-31.4,0-47,0c-1.5,0-2.2-0.4-2.5-1.5
	c-0.3-1.2,0.1-2,1.3-2.7c5.3-3.2,10.7-6.4,16.1-9.6c10.2-6.1,20.4-12.1,30.6-18.3c1.2-0.7,2.2-0.8,3.5,0c15.5,9.3,31,18.5,46.5,27.7
	c1.3,0.8,1.8,1.6,1.5,2.6c-0.3,1.1-1.2,1.7-2.8,1.7c-12.9,0-25.8,0-38.8,0C89.5,346,86.7,346,83.9,346"/>
<path class="st2" d="M84,424.2c20.4,0,40.8,0,61.2,0c1.8,0,2.8,0.8,2.8,2.1c0,1.3-1.1,2.2-2.8,2.2c-11.6,0-23.2,0-34.8,0
	c-28.8,0-57.5,0-86.3,0c-0.7,0-1.4,0-2.1,0c-1.2-0.1-2.1-1.1-2-2.2c0.1-1.1,1-2,2.2-2c0.3,0,0.6,0,0.9,0
	C43.4,424.2,63.7,424.2,84,424.2"/>
<path class="st2" d="M78.1,378.8c1.1,0.8,1.3,1.6,0.9,2.9c-0.3,1.1-0.7,2.2-1.1,3.2 M81.8,384.6c2.2-1.6,2.4-1.6,4.6,0 M90.7,386.9
	c-0.6-1.7-1.1-3.4-1.7-5.1c-0.5-1.6-0.3-2.3,1-3.3 M84.1,366.9c-0.1,0-0.2,0-0.2,0c-0.7,2-1.3,4-2,5.9c-0.5,1.4-1.2,1.9-2.7,1.9
	c-1.4,0-2.8,0-4.2,0 M71.7,370.5c1.8,0,3.7,0,5.5,0c0.7,0,1-0.2,1.2-0.9c1-3.4,2.2-6.7,3.2-10.1c0.4-1.3,1.2-2,2.2-2
	c1,0,1.7,0.7,2.2,2c1.1,3.3,2.2,6.7,3.2,10c0.2,0.7,0.5,1,1.3,1c3.5,0,7.1,0,10.6,0c1.4,0,2.1,0.5,2.5,1.5c0.3,1,0,1.9-1.1,2.6
	c-2.9,2.1-5.8,4.2-8.7,6.3c-0.6,0.4-0.7,0.8-0.4,1.4c1.1,3.3,2.2,6.7,3.2,10c0.1,0.5,0.2,0.9,0.2,1.4c0,1.7-1.5,2.6-2.9,1.6
	c-1.5-1-2.9-2.1-4.4-3.1c-1.6-1.1-3.1-2.2-4.7-3.4c-0.6-0.5-1-0.5-1.7,0c-2.9,2.2-5.9,4.3-8.9,6.4c-1,0.7-1.9,0.7-2.7,0.1
	c-0.8-0.7-1-1.5-0.7-2.5c0.1-0.2,0.1-0.3,0.2-0.5c1.1-3.3,2.1-6.6,3.2-9.9c0.2-0.7,0.2-1.2-0.5-1.6c-2.8-2-5.6-4-8.4-6
	c-0.3-0.2-0.6-0.4-0.9-0.7c-0.6-0.7-0.8-1.5-0.4-2.3c0.4-0.8,1-1.2,1.9-1.2C67.9,370.5,69.8,370.5,71.7,370.5L71.7,370.5z"/>
<path class="st2" d="M84,421.4H30.7c-0.3,0-0.6,0-0.8,0c-1.7,0-2.7-0.8-2.7-2.1c0-1.4,1-2.1,2.7-2.1c36.1,0,72.2,0,108.3,0
	c0.4,0,0.9,0,1.3,0.1c0.9,0.3,1.5,1.2,1.4,2.2c-0.1,0.9-0.8,1.8-1.8,1.9c-0.4,0.1-0.8,0-1.2,0C119.9,421.4,101.9,421.4,84,421.4"/>
<path class="st2" d="M84,410c15.5,0,31.1,0,46.6,0c0.4,0,0.8,0,1.1,0c1.1,0.1,2,1.1,2,2.1c0,1.1-0.9,2-2,2.1c-0.8,0.1-1.6,0-2.4,0
	c-30.3,0-60.5,0-90.8,0c-0.7,0-1.3,0-2,0c-1.4,0-2.4-0.9-2.5-2.1c0-1.2,1-2.1,2.5-2.2c0.7,0,1.4,0,2.2,0C53.9,410,69,410,84,410
	L84,410z"/>
<path class="st2" d="M43.5,378c0,8.8,0,17.5,0,26.2c0,0.3,0,0.7,0,1c-0.2,1-1,1.8-2,1.8c-1,0.1-1.9-0.6-2.2-1.6
	c-0.1-0.3-0.1-0.7-0.1-1c0-17.6,0-35.3,0-52.9c0-0.3,0-0.6,0.1-0.9c0.2-1.1,1.2-1.9,2.2-1.8c1,0.1,1.9,0.9,2,2c0.1,0.7,0,1.4,0,2.1
	C43.5,361.3,43.5,369.7,43.5,378L43.5,378z"/>
<path class="st2" d="M53.4,377.9c0-8.8,0-17.5,0-26.2c0-0.3,0-0.6,0-0.9c0.1-1,1-1.9,2-1.9c1-0.1,1.9,0.7,2.2,1.7
	c0.1,0.3,0.1,0.7,0.1,1c0,17.6,0,35.3,0,52.9c0,1.4-0.6,2.3-1.6,2.6c-0.9,0.2-2-0.1-2.4-1c-0.2-0.5-0.3-1.2-0.3-1.8
	C53.4,395.5,53.4,386.7,53.4,377.9"/>
<path class="st2" d="M110.3,378c0-8.8,0-17.6,0-26.5c0-1.4,0.5-2.3,1.6-2.6c0.9-0.3,1.9,0.1,2.4,1c0.2,0.5,0.3,1,0.3,1.6
	c0,2.4,0,4.8,0,7.2c0,15.2,0,30.4,0,45.6c0,0.3,0,0.7,0,1c-0.2,1-1,1.8-2,1.8c-1.1,0.1-1.9-0.6-2.2-1.7c-0.1-0.3-0.1-0.7-0.1-1
	C110.3,395.6,110.3,386.8,110.3,378"/>
<path class="st2" d="M124.5,377.9c0-8.8,0-17.5,0-26.2c0-0.3,0-0.6,0-0.9c0.1-1,1-1.9,2-1.9c1-0.1,1.9,0.7,2.2,1.7
	c0.1,0.3,0.1,0.7,0.1,1c0,17.6,0,35.3,0,52.9c0,1.4-0.6,2.3-1.6,2.6c-0.9,0.2-2-0.1-2.4-1c-0.2-0.5-0.3-1.2-0.3-1.8
	C124.5,395.5,124.5,386.7,124.5,377.9"/>
<path class="st2" d="M323.7,370.1c0.9-4.2,0.3-4.7-3.8-3.6C321.4,367.8,322.5,369,323.7,370.1 M320.2,426.3c0.2,0.2,0.3,0.4,0.5,0.5
	c3.7,0.4,4.3-0.3,3.2-4.1C322.5,424,321.4,425.1,320.2,426.3 M218.8,369.8c2.3-0.7,3.3-1.7,3.5-3.5
	C218.7,365.5,218.3,365.9,218.8,369.8 M219.2,422.8c-0.2,0.2-0.3,0.3-0.5,0.5c-0.5,3.8,0.2,4.4,4.1,3.2
	C221.5,425.1,220.4,423.9,219.2,422.8 M303.5,350.1c-7.7,7.3-16.9,9.3-26.7,9.3c-9.8,0-19-2.1-26.9-9.6c0.2,2.7,0,5,0.5,7.2
	c0.8,3.8,3.2,5.4,6.8,5.4c11-0.1,22.1-0.1,33.1-0.2c2.7,0,5.5,0.1,8.2-0.1c0.8,0,1.7-0.4,2.3-1C304.1,358.1,303.8,354.2,303.5,350.1
	 M328.2,421.9c3.3,0,6.5,0.2,9.7,0c6.6-0.4,12.8-1.9,18.5-5.7c4.6-3.1,6.2-7.4,5.2-13c-9.7,8.7-21.3,9.8-33.4,8.9V421.9z
	 M328.2,408.9c4.4,0,8.6,0.3,12.8-0.1c5.5-0.5,10.8-2.2,15.5-5.4c4.5-3.1,6.1-7.4,5.1-12.8c-9.7,8.7-21.3,9.7-33.4,8.9V408.9z
	 M361.6,364.7c-9.7,8.9-21.3,9.8-33.3,9c-0.1,0.3-0.1,0.4-0.1,0.5c0,1.8,0,3.6,0,5.4c0,3.6,0,3.7,3.4,4c8.4,0.6,16.4-0.5,23.9-5
	C360.5,375.5,362.8,371.1,361.6,364.7 M328.1,386.4c0,3-0.1,5.8,0.1,8.6c0,0.4,0.9,1.1,1.3,1.1c4.6,0,9.2,0.1,13.7-0.4
	c5.2-0.6,10-2.5,14.3-5.8c4.1-3.2,4.9-7.5,4.1-12.4C351.9,386.3,340.4,387.3,328.1,386.4 M308.2,352.6c-0.1,3.1-0.4,5.9,1.3,8.3
	c0.4,0.6,1.3,1.2,2.1,1.2c3.1,0.1,6.3,0,9.4,0c6.2,0,6.9,0.7,7.1,7.1c0,1.1,0.4,1.5,1.4,1.5c4.6-0.1,9.2,0.1,13.7-0.5
	c5.4-0.7,10.5-2.6,14.8-6.3c3.3-2.9,4.4-6.5,3.5-11.1c-3.7,4-8.2,5.8-13.1,7c-6.7,1.6-13.5,1.8-20.3,1.1
	C320.8,360.2,313.8,358.6,308.2,352.6 M303.4,338.7c-1.7,1.2-3.4,2.7-5.2,3.7c-1.9,1.1-4,1.9-6.1,2.5c-8.7,2.4-17.5,2.4-26.3,1
	c-4.4-0.7-8.7-2.1-12.4-4.8c-1.1-0.8-2-1.7-3-2.6c-1,5.3,0.8,9.3,5,12.1c1.3,0.9,2.7,1.7,4.1,2.4c7.8,3.6,16,4.3,24.4,3.1
	c5.6-0.8,10.9-2.4,15.5-6C303,347,304.3,343.3,303.4,338.7 M277.9,343.8c2.2-0.2,5.5-0.4,8.8-0.9c4.6-0.7,9-1.9,12.8-4.9
	c5.7-4.5,5.8-12.7,0-17.1c-2.3-1.8-5.1-3.1-7.9-4c-7.8-2.5-15.8-2.5-23.8-1.3c-4.9,0.7-9.7,2.1-13.7,5.4c-5.2,4.3-5.4,12.2-0.2,16.5
	c1.7,1.4,3.7,2.5,5.7,3.4C265.1,343.3,270.9,343.6,277.9,343.8 M336.5,358.4c2.4-0.3,6.3-0.5,10.1-1.2c4.2-0.8,8.4-2.1,11.7-5.3
	c4.6-4.3,4.8-11.5,0-15.7c-2.2-1.9-5-3.4-7.7-4.4c-8.1-2.8-16.5-2.9-24.8-1.7c-5,0.7-9.9,2.2-13.9,5.6c-3.7,3.2-4.8,8.1-2.8,12.6
	c1.5,3.5,4.3,5.3,7.5,6.7C322.5,357.7,328.7,358.1,336.5,358.4 M324.1,419c0.1-0.3,0.1-0.5,0.1-0.7c0-14.4,0-28.7,0-43.1
	c0-1-0.3-1.4-1.2-1.6c-3-1-5.2-3-6.2-6.1c-0.3-0.9-0.7-1.2-1.6-1.2c-2.8,0.1-5.6,0-8.4,0c-26.2,0-52.3,0-78.5,0
	c-1.3,0-2.1,0.2-2.6,1.6c-1,2.9-3.1,4.7-5.8,5.6c-1.1,0.4-1.4,1-1.4,2.1c0,13.9,0,27.9,0,41.8c0,1.2,0.3,1.7,1.4,2
	c2.7,0.9,4.9,2.7,5.8,5.6c0.5,1.5,1.2,1.8,2.6,1.8c28.7,0,57.3,0,86,0c0.4,0,0.8,0.1,1.2,0c0.3-0.1,0.8-0.3,0.9-0.6
	C317.8,422.2,320.4,420,324.1,419 M306.7,337.1c4.5-6.3,10.5-8.6,17-9.8c9.9-1.8,19.8-1.7,29.4,2.1c2.7,1,5.1,2.8,7.4,4.7
	c2.9,2.5,4.3,6,4.3,10c0,17.7,0,35.4,0,53.1c0,2.8-0.1,5.6,0.1,8.4c0.5,6.2-2.4,10.4-7,13.6c-5.2,3.5-11,5.3-17.1,5.8
	c-4.1,0.3-8.2,0.1-12.3,0.1c-0.1,0.1-0.3,0.2-0.3,0.3c-0.5,4.6-1.5,5.6-6,5.6c-33.8,0-67.7,0-101.5,0c-0.6,0-1.2,0-1.7,0
	c-2.4-0.2-3.9-1.7-4-4.2c-0.1-1,0-2.1,0-3.1c0-18.5,0-37,0-55.4c0-4.5,1.4-5.9,5.6-5.9c8.1,0,16.2,0,24.2,0c0.7,0,1.4,0,2.3,0
	c0-0.8,0-1.5,0-2.1c0-10,0.1-20,0-30c0-5.4,2.2-9.4,6.3-12.4c4.4-3.2,9.5-4.6,14.7-5.3c8.4-1.1,16.7-0.9,24.9,1.6
	c3.7,1.2,7.2,2.9,9.9,5.8c2.6,2.7,3.9,6,3.9,9.8C306.7,331.9,306.7,334.3,306.7,337.1"/>
<path class="st2" d="M293,396.6c0.1-12.3-9.4-22.4-21.2-22.5c-11.9-0.1-21.7,9.8-21.7,22.2c-0.1,12.4,9.5,22.6,21.5,22.6
	C283.2,418.9,292.9,408.8,293,396.6 M271.5,370.2c13.9,0,25.2,11.9,25.2,26.4c0,14.5-11.4,26.3-25.4,26.2
	c-13.9-0.1-25.1-11.8-25.1-26.3C246.3,381.9,257.5,370.1,271.5,370.2"/>
<path class="st2" d="M263.7,383c1,1,1.8,1.7,2.5,2.4c1.2,1.1,0.1,2.2-0.1,3.3c-0.1,0.9-0.4,1.8-0.4,2.7c0.3,3.2,0.7,6.5,1.1,9.7
	c0.4,2.9-1,4.8-3.3,6.2c-2,1.2-4.2,1.4-6.4,1c-2.1-0.4-3.4-2.1-3.6-4.3c-0.3-3.1,0.8-5.8,2.4-8.3c0.2-0.3,0.8-0.4,1.3-0.7
	c-0.7,2.2-1.3,4-1.8,5.9c-0.4,1.6,0.3,2.7,1.8,2.9c1.5,0.2,3,0.3,4.4-0.1c2.7-0.7,3.4-1.9,2.9-4.8c-0.5-3.4-0.7-6.9-1.8-10.1
	C262.2,386.5,263.2,385,263.7,383"/>
<path class="st2" d="M280.5,391.9c2.5,3.4,1.5,7.3,1.9,11.1c-3.3,0-6.5,0-9.6,0c-1.5,0-2.5-1-2.7-2.6c-0.3-2.7-0.3-5.4-0.6-8.1
	c-0.1-1.3-0.6-2.5-0.8-3.8c-0.1-0.4-0.2-0.9,0-1.3c0.3-1,0.8-2,1.2-2.9c0.2,0,0.3,0,0.5-0.1c0.4,1.5,1,2.9,1.1,4.4
	c0.3,2.5,0.2,5.1,0.3,7.6c0.1,1.7,0.8,2.5,2.5,2.4c2-0.1,3.9,0,6.3,0C279.3,396.4,278.6,394.2,280.5,391.9"/>
<path class="st2" d="M287.7,393c0.5,1.2,1.2,2.3,1.4,3.6c0.6,4.3,1.1,8.7-3,11.8c-1.9,1.4-3.7,1.9-5.7,0.5c-1-0.7-2.1-1.2-3.2-1.9
	c-0.9-0.6-0.9-0.6-0.2-1.7c0.7,0.4,1.3,0.8,2,1.1c1.6,0.7,3.1,0.6,4.4-0.6c1.2-1.1,2.5-2.2,3.7-3.3c1.1-1,1.4-2.4,0.5-3.6
	c-1.5-1.9-0.9-3.8-0.4-5.7C287.3,393.1,287.5,393.1,287.7,393"/>
<path class="st2" d="M268.2,408.4c0.6-1.1,1.1-2.1,1.7-3.2c0.7,0.4,1.4,0.7,2.1,1c0.4-0.7,0.8-1.4,1.2-2.2c0.9,0.5,1.8,1,2.9,1.6
	c-0.5,1-1,1.9-1.6,3c-0.7-0.3-1.4-0.6-2.2-0.9c-0.4,0.7-0.8,1.4-1.3,2.3C270.1,409.5,269.2,409,268.2,408.4"/>
<text transform="matrix(1 0 0 1 21.4346 172.8164)"><tspan x="20" y="0" class="st3 st4 st5">Reputation</tspan> <tspan x="0" y="1.2em" class="st3 st4 st5">of the company</tspan></text>
<text transform="matrix(1 0 0 1 228.7871 13.6802)"><tspan x="25" y="0" class="st3 st4 st5">Wage &amp;</tspan> <tspan x="0" y="1.2em" class="st3 st4 st5">Liking the job</tspan></text>
<text transform="matrix(1 0 0 1 405.0742 234.3359)"><tspan x="17" y="0" class="st3 st4 st5">Harrasment-free</tspan> <tspan x="0" y="1.2em" class="st3 st4 st5">working atmosphere</tspan></text>
<rect x="405.1" y="270.8" class="st7" width="172.9" height="183.5"/>
<path class="st2" d="M448.6,365.2c4.5,0,8.1-3.6,8.1-8c0-4.6-3.6-8.2-8.1-8.2c-4.5,0-8.2,3.6-8.1,8
	C440.6,361.6,444.1,365.2,448.6,365.2 M450.2,371c-4.9,0-9.7-0.1-14.5,0.1c-1.6,0.1-3.3,0.7-4.6,1.6c-3.9,2.4-5.5,6.1-5.5,10.6
	c0,10,0,19.9,0,29.9c0,0.3,0,0.6,0,0.9h4.7v-32h6.3v32.1h12.7v-1.2c0-11.2,0-22.5,0-33.7C449.3,376.4,449.4,373.7,450.2,371
	 M461.4,417.7h-39.3v-1c0-11.4-0.1-22.9,0-34.3c0.1-8.3,6.7-15,14.9-14.9c1.9,0,3.8,0,6.1,0c-3.2-2-5.2-4.7-5.9-8.2
	c-0.6-3.6,0.2-6.8,2.5-9.6c3.4-4.1,9-5.4,13.8-3.2c5.3,2.4,7.6,7.3,6.5,14.2c0.9-0.3,1.8-0.6,2.7-0.7c1.8-0.2,3.7-0.5,5.5-0.5
	c9.9-0.1,19.7-0.1,29.6,0c4,0,7.9,1.1,11.5,2.8c0.5,0.3,0.5,0.7,0.5,1.1c-0.1,4.4,0.8,8.6,2.8,12.5c0.9,1.6,1.9,3.2,2.9,4.8
	c-4.8-1.8-9.6-3.7-14.6-5.5v42.7h-35.1v-40h-4.4V417.7z"/>
<path class="st2" d="M520.1,362.3h2.3v-1.1c0-11,0-21.9,0-32.9c0-1.9,0.9-3.1,2.5-3.5c2-0.5,3.9,0.9,4,2.9c0,0.4,0,0.8,0,1.1
	c0,7.1,0,14.2,0,21.2v1.1h2.4v-1c0-8.6,0-17.3,0-25.9c0-2.3,1.7-3.8,3.8-3.4c1.4,0.2,2.6,1.4,2.7,2.9c0,0.4,0,0.8,0,1.2
	c0,8.4,0,16.8,0,25.2v1.1h2.3v-1.1c0-7.2,0-14.4,0-21.6c0-2.1,0.9-3.3,2.6-3.7c1.7-0.4,3.5,0.6,3.9,2.3c0.1,0.5,0.2,1.1,0.2,1.6
	c0,8.1,0,16.1,0,24.2v1.1h2.3v-1c0-4.5,0-8.9,0-13.4c0-1.9,1.1-3.2,2.9-3.4c1.4-0.2,2.6,0.5,3.1,1.8c0.3,0.8,0.5,1.6,0.5,2.5
	c0,8.9,0.1,17.8,0,26.7c0,3.9-1.7,7.2-4,10.2c-3.4,4.3-7.6,7.3-13.1,8.5c-6.2,1.3-11.6-0.3-16.5-4c-4.7-3.6-7.7-8.4-8.6-14.3
	c-0.2-1-0.2-2-0.2-3c0-4.8,0-9.6,0-14.4c0-0.7,0.1-1.4,0.3-2c0.5-1.5,1.5-2.3,3-2.4c1.3,0,2.4,0.8,2.9,2.2c0.2,0.7,0.3,1.4,0.4,2.2
	c0,3.7,0,7.5,0,11.2V362.3z"/>
<path class="st2" d="M495.9,342.7c0,7.1-5.8,12.9-12.9,12.9c-7.1,0-12.8-5.8-12.8-12.9c0-7.1,5.8-12.9,12.9-12.9
	C490.2,329.8,495.9,335.6,495.9,342.7"/>
</svg>
