<svg version="1.1" id="SVG_T5-2" xmlns="http://www.w3.org/2000/svg" xmlns:xlink="http://www.w3.org/1999/xlink" x="0px" y="0px"
	 viewBox="0 0 303.8 297.4" data-viewBox="0 0 303.8 297.4" style="enable-background:new 0 0 303.8 297.4;" xml:space="preserve">
<style type="text/css">
	#SVG_T5-2 .st0{fill:#3D3F41;}
	#SVG_T5-2 .st1{font-family:'Raleway'; font-weight:600;}
	#SVG_T5-2 .st2{font-size:10px; letter-spacing:-0.1px;}
	#SVG_T5-2 .st3{fill:#3B454A;}
	#SVG_T5-2 .st4{font-size:25px;}
	#SVG_T5-2 .st5{fill:#DE3849;}
	#SVG_T5-2 .st6{font-size:19px;}
	#SVG_T5-2 .st7{font-family:'Raleway'; font-weight:400;}
	#SVG_T5-2 .st8{font-size:11.077px;}
	#SVG_T5-2 .st9{fill:#ED8090;}
	#SVG_T5-2 .st10{fill:#7DCDA5;}
	#SVG_T5-2 .st11{fill:#AAE2C5;}
	#SVG_T5-2 .st12{fill:#73818A;}
</style>
<g class="anim0">
	<text transform="matrix(1 0 0 1 87.0815 21.3749)" class="st0 st1 st4">Ethnicity</text>
</g>
<g class="anim2">
	<text transform="matrix(1 0 0 1 60.5806 62.4544)" class="st5 st1 st6">6</text>
	<text transform="matrix(1 0 0 1 73.1523 56.1288)" class="st5 st7 st8">%</text>
	<text transform="matrix(1 0 0 1 60.5693 75.7865)" class="st3 st1 st2">Gilak/Maza</text>
	<text transform="matrix(1 0 0 1 60.5693 87.7865)" class="st3 st1 st2">/Shomali</text>
	<text transform="matrix(1 0 0 1 127.8296 54.8905)" class="st5 st1 st6">6</text>
	<text transform="matrix(1 0 0 1 140.4072 48.5633)" class="st5 st7 st8">%</text>
	<text transform="matrix(1 0 0 1 127.8296 66.5365)" class="st0 st1 st2">Other</text>
	<text transform="matrix(1 0 0 1 17.9268 115.0672)" class="st5 st1 st6">6</text>
	<text transform="matrix(1 0 0 1 30.5088 108.7489)" class="st5 st7 st8">%</text>
	<text transform="matrix(1 0 0 1 18.5396 127.5765)" class="st0 st1 st2">Lor</text>
	<text transform="matrix(1 0 0 1 12.9741 179.0052)" class="st5 st1 st6">9</text>
	<text transform="matrix(1 0 0 1 25.5547 172.6869)" class="st5 st7 st8">%</text>
	<text transform="matrix(1 0 0 1 12.9595 190.9764)" class="st0 st1 st2">Kurd</text>
	<text transform="matrix(1 0 0 1 259.2192 176.1796)" class="st5 st1 st6">53</text>
	<text transform="matrix(1 0 0 1 282.8813 169.8475)" class="st5 st7 st8">%</text>
	<text transform="matrix(1 0 0 1 258.6997 188.5765)" class="st0 st1 st2">Fars</text>
	<text transform="matrix(1 0 0 1 49.73 266.9266)" class="st5 st1 st6">17</text>
	<text transform="matrix(1 0 0 1 69.5063 260.6073)" class="st5 st7 st8">%</text>
	<text transform="matrix(1 0 0 1 49.7095 279.6561)" class="st0 st1 st2">Turk</text>
</g>
<g class="anim1">
	<path class="st5" d="M145.6,81.4c50.1,0,90.7,40.6,90.7,90.7s-40.6,90.7-90.7,90.7c-6.3,0-12.5-0.7-18.7-1.9
		l18.7-88.8V81.4z"/>
	<path class="st9" d="M126.9,260.9c-31.6-6.6-57.3-29.6-67.4-60.2l86.1-28.6L126.9,260.9z"/>
	<path class="st10" d="M59.5,200.7c-5.5-16.5-6.1-34.3-1.8-51.1l87.9,22.6L59.5,200.7z"/>
	<path class="st11" d="M57.8,149.5c3.8-14.8,11.3-28.4,21.7-39.5l66.1,62.1L57.8,149.5z"/>
	<path class="st3" d="M79.5,110c9.1-9.7,20.3-17.3,32.7-22.2l33.4,84.4L79.5,110z"/>
	<path class="st12" d="M112.2,87.7c10.6-4.2,22-6.4,33.4-6.4v90.7L112.2,87.7z"/>
</g>
</svg>
