<svg version="1.1" xmlns="http://www.w3.org/2000/svg" xmlns:xlink="http://www.w3.org/1999/xlink" x="0px" y="0px"
	 viewBox="0 0 803.3 603.7" style="enable-background:new 0 0 803.3 603.7;" xml:space="preserve">
<style type="text/css">
	.t1-g3-st0{fill:#DE3849;}
	.t1-g3-st1{fill:none;stroke:#7DCDA5;stroke-width:10;stroke-linecap:round;stroke-linejoin:round;stroke-dasharray:0,32.351;}
	.t1-g3-st2{fill:none;stroke:#7DCDA5;stroke-width:10;stroke-linecap:round;stroke-linejoin:round;}
	.t1-g3-st3{fill:none;stroke:#7DCDA5;stroke-width:10;stroke-linecap:round;stroke-linejoin:round;stroke-dasharray:0,30.709;}
	.t1-g3-st4{fill:#7DCDA5;}
	.t1-g3-st5{fill:#E5E5E5;}
	.t1-g3-st6{font-family:'Raleway'; font-weight:600;}
	.t1-g3-st7{font-size:43.3967px;}
	.t1-g3-st8{font-family:'Raleway'; font-weight:600;}
	.t1-g3-st9{font-size:22px;}
</style>
<path class="t1-g3-st0" d="M426.1,603.7h-29.5v-49.5h-11.1c0-0.5-0.1-0.8-0.1-1.2c0-12.9,0-25.7,0-38.6c0-6.3,3.7-11.1,9.8-12.6
	c1.1-0.3,2.4-0.4,3.6-0.4c8.3,0,16.6,0,24.9,0c8,0,13.4,5.3,13.4,13.4c0,10.6,0,21.2,0,31.8c0,2.5,0,4.9,0,7.5h-11V603.7z"/>
<path class="t1-g3-st0" d="M377.2,554.2h-10.9v49.5h-29.5v-49.4h-11.2c0-0.5-0.1-0.8-0.1-1.2c0-12.9,0-25.7,0-38.6c0-6.2,3.7-11,9.7-12.6
	c1.1-0.3,2.3-0.4,3.4-0.4c8.5,0,16.9,0,25.4,0c7.5,0,13,5.3,13.1,12.8c0.1,13,0,26.1,0.1,39.1C377.3,553.5,377.2,553.8,377.2,554.2"
	/>
<path class="t1-g3-st0" d="M485.4,554.1v49.5h-29.5v-49.4h-11.1c0-0.5-0.1-0.9-0.1-1.3c0-12.8,0-25.7,0-38.5c0-6.3,3.7-11.1,9.8-12.6
	c1.1-0.3,2.2-0.4,3.3-0.4c8.5,0,17.1,0,25.6,0c7.4,0,12.9,5.3,12.9,12.7c0.1,13.1,0,26.1,0,39.2c0,0.2,0,0.5-0.1,0.8H485.4z"/>
<path class="t1-g3-st0" d="M481.9,486.1c0,6.2-5.1,11.3-11.3,11.4c-6.3,0-11.4-5.1-11.4-11.4c0-6.2,5.1-11.3,11.3-11.4
	C476.7,474.6,481.9,479.8,481.9,486.1"/>
<path class="t1-g3-st0" d="M392.8,486c0,6.3-5.1,11.4-11.4,11.4c-6.2,0-11.3-5.1-11.3-11.3c0-6.3,5.1-11.4,11.4-11.4
	C387.7,474.7,392.8,479.8,392.8,486"/>
<path class="t1-g3-st0" d="M440.7,497.4c-6.3,0-11.4-5.1-11.4-11.4c0-6.2,5.2-11.3,11.4-11.3c6.3,0,11.4,5.2,11.4,11.4
	C452,492.4,446.9,497.4,440.7,497.4"/>
<path class="t1-g3-st0" d="M422.6,486.1c0,6.3-5.1,11.3-11.3,11.4c-6.3,0-11.4-5.1-11.4-11.4c0-6.3,5.1-11.4,11.4-11.4
	C417.5,474.7,422.6,479.8,422.6,486.1"/>
<path class="t1-g3-st0" d="M366,448.2c6.3,0,11.3,5.1,11.3,11.3c0,6.3-5.1,11.4-11.4,11.4c-6.3,0-11.4-5.1-11.4-11.4
	C354.7,453.3,359.8,448.2,366,448.2"/>
<path class="t1-g3-st0" d="M454.6,470.9c-6.2,0-11.3-5.2-11.3-11.4c0-6.3,5.2-11.4,11.5-11.3c6.3,0.1,11.3,5.1,11.3,11.4
	C466,465.9,460.9,471,454.6,470.9"/>
<path class="t1-g3-st0" d="M362.8,486.1c0,6.3-5,11.3-11.3,11.4c-6.3,0-11.4-5-11.4-11.4c0-6.3,5.1-11.4,11.4-11.4
	C357.8,474.8,362.8,479.8,362.8,486.1"/>
<path class="t1-g3-st0" d="M396.6,470.9c-6.3,0-11.3-5.1-11.3-11.4c0-6.2,5.1-11.3,11.4-11.2c6.3,0,11.3,5.1,11.3,11.3
	C408.1,465.8,403,470.9,396.6,470.9"/>
<path class="t1-g3-st0" d="M425.9,448.3c6.3,0.1,11.3,5.2,11.2,11.4c-0.1,6.4-5.2,11.3-11.6,11.2c-6.2-0.1-11.2-5.3-11.1-11.7
	C414.5,453.1,419.7,448.2,425.9,448.3"/>
<line class="t1-g3-st1" x1="205.1" y1="372.9" x2="295.4" y2="441.2"/>
<line class="t1-g3-st2" x1="308.3" y1="451" x2="308.3" y2="451"/>
<line class="t1-g3-st2" x1="179.3" y1="353.4" x2="179.3" y2="353.4"/>
<line class="t1-g3-st1" x1="596.2" y1="372.9" x2="505.9" y2="441.2"/>
<line class="t1-g3-st2" x1="493" y1="451" x2="493" y2="451"/>
<line class="t1-g3-st2" x1="622" y1="353.4" x2="622" y2="353.4"/>
<line class="t1-g3-st3" x1="321.6" y1="220.7" x2="375.2" y2="413"/>
<line class="t1-g3-st2" x1="379.3" y1="427.8" x2="379.3" y2="427.8"/>
<line class="t1-g3-st2" x1="313.3" y1="191.2" x2="313.3" y2="191.2"/>
<line class="t1-g3-st3" x1="496.7" y1="220.7" x2="443.1" y2="413"/>
<line class="t1-g3-st2" x1="439" y1="427.8" x2="439" y2="427.8"/>
<line class="t1-g3-st2" x1="505" y1="191.2" x2="505" y2="191.2"/>
<path class="t1-g3-st4" d="M742.7,401.9c57.3-32.4,77.5-105.2,45.1-162.6c-32.4-57.3-105.2-77.5-162.6-45.1
	c-57.3,32.4-77.5,105.2-45.1,162.6C612.6,414.1,685.4,434.3,742.7,401.9"/>
<path class="t1-g3-st4" d="M338.7,223.2c57.3-32.4,77.5-105.2,45.1-162.6C351.4,3.2,278.6-17,221.2,15.5c-57.4,32.4-77.5,105.2-45.1,162.6
	C208.6,235.4,281.4,255.6,338.7,223.2"/>
<path class="t1-g3-st4" d="M580.1,223.2c57.3-32.4,77.5-105.2,45.1-162.6C592.7,3.2,519.9-17,462.6,15.5c-57.3,32.4-77.5,105.2-45.1,162.6
	C449.9,235.4,522.7,255.6,580.1,223.2"/>
<path class="t1-g3-st4" d="M178.1,402.4c57.3-32.4,77.5-105.2,45.1-162.6c-32.4-57.3-105.2-77.5-162.6-45.1S-17,299.9,15.5,357.3
	C47.9,414.6,120.7,434.8,178.1,402.4"/>
<text transform="matrix(1 0 0 1 110.1735 242.659)" class="t1-g3-st5 t1-g3-st6 t1-g3-st7">1</text>
<text transform="matrix(1 0 0 1 70.9269 289.9973)"><tspan x="0" y="0" class="t1-g3-st5 t1-g3-st8 t1-g3-st9">Observe</tspan> <tspan x="0" y="1.2em" class="t1-g3-st5 t1-g3-st8 t1-g3-st9"> ethical</tspan> <tspan x="0" y="2.4em" class="t1-g3-st5 t1-g3-st8 t1-g3-st9">standards</tspan> <tspan x="0" y="3.6em" class="t1-g3-st5 t1-g3-st8 t1-g3-st9">at work</tspan></text>
<text transform="matrix(1 0 0 1 270.82 63.4602)" class="t1-g3-st5 t1-g3-st6 t1-g3-st7">2</text>
<text transform="matrix(1 0 0 1 216.0519 117.9978)" class="t1-g3-st5 t1-g3-st8 t1-g3-st9"><tspan x="0" y="0">Be diligent</tspan> <tspan x="0" y="1.2em">and efficient</tspan></text>
<text transform="matrix(1 0 0 1 512.1491 63.4602)" class="t1-g3-st5 t1-g3-st6 t1-g3-st7">3</text>
<text transform="matrix(1 0 0 1 463.652 107.4475)"><tspan x="0" y="0" class="t1-g3-st5 t1-g3-st8 t1-g3-st9"><tspan x="0" y="0">Offer good</tspan> <tspan x="0" y="1.2em">quality of</tspan> <tspan x="0" y="2.4em">products/</tspan><tspan x="0" y="3.6em">services</tspan></text>
<text transform="matrix(1 0 0 1 674.8327 242.1438)" class="t1-g3-st5 t1-g3-st6 t1-g3-st7">4</text>
<text transform="matrix(1 0 0 1 635.652 289.9231)"><tspan x="0" y="0" class="t1-g3-st5 t1-g3-st8 t1-g3-st9"><tspan x="0" y="0">Respect</tspan> <tspan x="0" y="1.2em">workers'</tspan> <tspan x="0" y="2.4em">rights</tspan></text>

</svg>
