<svg version="1.1" id="SVG_T2G2" xmlns="http://www.w3.org/2000/svg" xmlns:xlink="http://www.w3.org/1999/xlink" x="0px" y="0px"
	 viewBox="0 0 756.8 564.5" style="enable-background:new 0 0 756.8 564.5;" xml:space="preserve">
<style type="text/css">
	#SVG_T2G2 .st0{fill:#DE3849;}
	#SVG_T2G2 .st1{fill:#3B454A;}
	#SVG_T2G2 .st2{font-family:'Raleway'; font-weight:600;}
	#SVG_T2G2 .st3{font-size:12px; letter-spacing:-0.1px; }
	#SVG_T2G2 .st4{fill:none;stroke:#3B454A;}
	#SVG_T2G2 .st5{font-family:'Raleway'; font-weight:400;}
	#SVG_T2G2 .st6{fill:none;stroke:#E5E5E5;stroke-width:0.248;stroke-miterlimit:10;}
	#SVG_T2G2 .st7{fill:#E5E5E5;}
	#SVG_T2G2 .st8{font-size:16px;}
	#SVG_T2G2 .st9{letter-spacing:-1;}
	#SVG_T2G2 .st10{font-size:40px;}
	#SVG_T2G2 .st11{font-size:10px; letter-spacing:-0.1px; }
	#SVG_T2G2 .st12{font-size:20px;}
	#SVG_T2G2 .st13{font-size:30px;}
	#SVG_T2G2 .st14{fill:#7DCDA5;}
</style>
<polygon class="st0" points="465.8,34.5 447.7,21.2 84.8,21.2 84.8,74.5 447.7,74.5 465.8,61.2 483.9,47.9 "/>
<line class="st4" x1="2" y1="502.5" x2="703.9" y2="502.5"/>
<line class="st4" x1="713.8" y1="490" x2="713.8" y2="6.8"/>
<path class="st0" d="M26.9,211.1C26.9,211.1,26.9,211.1,26.9,211.1C26.9,211.1,26.9,211.1,26.9,211.1 M28.6,210.2
	c1.2,1.2,1.8,2.8,1.9,4.7c0.1,1.3-0.1,2.6-0.6,4c-0.6,1.8-1.1,3.5-1.3,5.2c-0.3,2.4,0,4.5,0.7,6.4c0.9,2.4,2.5,4.4,4.8,6.4
	c2.6,2.2,5.7,3.9,9.6,5.5c2.6-1.1,4.7-2.1,6.6-3.3c2.9-1.8,4.9-3.6,6.3-5.8c1.9-2.7,2.6-5.7,2.3-9.1c-0.2-1.6-0.6-3.2-1.3-5.2
	c-0.6-1.6-0.8-3.2-0.6-4.7c0.2-1.6,0.9-2.9,1.9-4l-3.8-4.3c-4,2.6-7.8,2.6-11.4-0.1c-3.6,2.6-7.5,2.7-11.5,0.1L28.6,210.2z
	 M43.8,244.1c-0.2,0-0.3,0-0.5-0.1c-4.2-1.7-7.5-3.5-10.3-5.8c-2.5-2.1-4.3-4.4-5.3-7.1c-0.9-2.3-1.2-4.6-0.8-7.3
	c0.2-1.9,0.8-3.6,1.4-5.5c0.4-1.2,0.6-2.3,0.5-3.3c-0.1-1.6-0.7-2.9-1.8-3.9c0,0,0,0-0.1,0l-0.9-0.5l6.1-6.9l0.6,0.5
	c3.7,2.7,7.2,2.7,10.5,0l0.5-0.4l0.5,0.4c3.4,2.7,6.7,2.7,10.5,0l0.6-0.5l5.9,6.7l-0.7,0.6c-1.1,0.9-1.8,2.1-2,3.6
	c-0.2,1.2,0,2.5,0.5,3.9c0.8,2.2,1.2,3.9,1.4,5.6c0.4,3.7-0.5,7.2-2.6,10.2c-1.6,2.3-3.8,4.3-6.8,6.2c-2,1.3-4.2,2.4-7,3.5
	C44.1,244.1,44,244.1,43.8,244.1"/>
<path class="st0" d="M50.7,216.6c1,1,2,2,3,3c-1.7,1.7-3.4,3.4-5,5c-2,2-4,4-6.1,6.1c-0.8,0.8-1.6,1-2.6,0.5
	c-0.2-0.1-0.4-0.3-0.6-0.4c-1.8-1.8-3.7-3.7-5.5-5.5c0,0-0.1-0.1-0.1-0.1c1-1,2-2,3-3c1.3,1.3,2.7,2.7,4,4.1"/>
<path class="st0" d="M27.5,136.3h34.4v-2.5c-0.1,0-0.2,0-0.4,0c-0.6,0-1.3,0-1.9,0c-0.5,0-0.7-0.2-0.9-0.6c-0.1-0.3-0.2-0.5-0.3-0.8
	c-1.1-3.3-3.1-6-6.2-7.8c-1.1-0.6-2.4-1.1-3.7-1.3c0,0.2,0,0.3,0,0.4c0,0.9,0,1.8,0,2.7c0,0.3,0,0.6-0.3,0.8
	c-0.3,0.2-0.6,0.3-0.9,0.1c-0.3-0.2-0.5-0.4-0.5-0.8c0-1,0-2,0-3c0-0.8-0.1-1.6-0.5-2.3c0-0.1-0.2-0.2-0.3-0.2c-0.9,0-1.8,0-2.7,0
	c-0.1,0-0.2,0-0.2,0.1c-0.2,0.5-0.5,1.1-0.5,1.6c-0.1,1.3,0,2.5,0,3.8c0,0.3-0.1,0.6-0.3,0.7c-0.3,0.2-0.6,0.3-0.9,0.1
	c-0.4-0.2-0.5-0.5-0.5-0.8c0-0.9,0-1.9,0-2.8v-0.4c-1.2,0.2-2.2,0.6-3.3,1.1c-3.6,1.8-5.7,4.8-6.8,8.6c-0.2,0.7-0.4,0.9-1.2,0.9
	c-0.7,0-1.3,0-2,0V136.3z M44.7,138c-6,0-11.9,0-17.9,0c-0.7,0-1-0.3-1-1c0-1.3,0-2.7,0-4c0-0.6,0.3-1,1-1c0.7,0,1.5,0,2.2,0
	c0.2,0,0.3-0.1,0.4-0.3c1.2-3.6,3.3-6.5,6.6-8.5c1.5-0.9,3.1-1.5,4.9-1.8c0.2,0,0.3-0.1,0.4-0.3c0.2-0.5,0.4-0.9,0.5-1.4
	c0.2-0.4,0.5-0.6,0.9-0.6c1.3,0,2.7,0,4,0c0.6,0,0.8,0.2,1,0.7c0.2,0.4,0.4,0.9,0.5,1.3c0.1,0.2,0.2,0.3,0.4,0.3
	c4,0.8,7.1,2.8,9.4,6.1c0.9,1.3,1.5,2.7,2,4.1c0.1,0.3,0.2,0.3,0.5,0.3c0.7,0,1.4,0,2.1,0c0.7,0,1,0.3,1,1c0,1.3,0,2.6,0,4
	c0,0.7-0.3,1-1,1C56.7,138,50.7,138,44.7,138"/>
<path class="st0" d="M61.9,143.2c-0.1,0-0.3,0-0.4,0c-0.7,0-1.4,0-2.1,0c-0.6,0-0.9-0.3-0.9-0.9c0-0.3,0-0.5,0-0.8H31
	c0,0.1,0,0.2,0,0.3c0.1,1-0.3,1.4-1.4,1.3c-0.1,0-0.1,0-0.2,0h-1.9v2.6c0.8,0,1.7,0,2.5,0c0.6,0,0.9,0.3,0.9,0.9c0,0.5,0,1,0,1.5
	c0,0.1,0.1,0.3,0.2,0.4c0.4,0.4,0.8,0.9,1.3,1.3c0.1,0.1,0.3,0.2,0.5,0.2c2.7,0,5.3,0,8,0c0.3,0,0.4-0.1,0.5-0.3
	c0.8-1.7,1.7-3.4,2.5-5.1c0.2-0.4,0.4-0.6,0.9-0.6c0.4,0,0.7,0.3,0.9,0.6c0.8,1.7,1.7,3.4,2.5,5.1c0.1,0.2,0.2,0.3,0.5,0.3
	c2.4,0,4.8,0,7.2,0c0.8,0,1.3-0.1,1.8-0.7c0.2-0.3,0.5-0.5,0.7-0.7c0.1-0.1,0.2-0.3,0.2-0.5c0-0.5,0-1,0-1.4c0-0.6,0.3-0.9,0.9-0.9
	c0.3,0,0.6,0,0.9,0h1.6V143.2z M29.2,141.5c0-0.3,0-0.5,0-0.8c0-0.6,0.3-0.9,0.9-0.9c1.8,0,3.7,0,5.5,0c7.8,0,15.5,0,23.3,0
	c1,0,1.2,0.2,1.2,1.2c0,0.1,0,0.3,0,0.5c0.2,0,0.3,0,0.4,0c0.7,0,1.4,0,2.1,0c0.7,0,1,0.3,1,1c0,1.3,0,2.7,0,4c0,0.7-0.3,1-1,1
	c-0.8,0-1.6,0-2.4,0c0,0.4,0,0.8,0,1.1c0,0.3-0.1,0.6-0.4,0.9c-0.7,0.7-1.3,1.3-2,2c-0.2,0.2-0.5,0.3-0.8,0.3c-3,0-6.1,0-9.1,0
	c-0.6,0-0.9-0.2-1.1-0.7c-0.7-1.4-1.4-2.8-2.1-4.3c-0.1,0.1-0.1,0.3-0.2,0.4c-0.7,1.3-1.3,2.6-1.9,3.9c-0.2,0.5-0.6,0.7-1.1,0.7
	c-3,0-6,0-9,0c-0.4,0-0.6-0.1-0.9-0.3c-0.7-0.7-1.3-1.3-2-2c-0.2-0.2-0.4-0.5-0.3-0.8c0-0.4,0-0.7,0-1.2h-2c-0.2,0-0.4,0-0.6,0
	c-0.5,0-0.9-0.3-0.9-0.8c0-1.5,0-2.9,0-4.4c0-0.5,0.4-0.8,0.9-0.8c0.7,0,1.4,0,2.1,0H29.2z"/>
<path class="st0" d="M23.5,312.2c0,12.1,9.5,21.8,21.3,21.8c11.6,0,21.3-9.7,21.3-21.6c0-12-9.5-21.7-21.2-21.8
	C33.1,290.7,23.5,300.3,23.5,312.2 M44.7,335.5c-12.6,0-22.8-10.5-22.8-23.4c0-12.7,10.3-23.1,22.8-23.1c12.5,0,22.8,10.3,22.8,23.4
	C67.5,325.2,57.2,335.6,44.7,335.5"/>
<path class="st0" d="M57.6,305.4h-1.5v6.1h1.5V305.4z M41.7,303.8c0,0.3,0,0.6,0,0.9c0,0.5,0.2,0.6,0.6,0.6c1.7,0,3.4,0,5.1,0
	c0.1,0,0.2,0,0.3,0v-1.5H41.7z M47.7,299.1c0.2-1.5,0.2-1.5-1.2-1.5h-0.2c-1.4,0-2.9,0-4.3,0c-0.1,0-0.3,0.1-0.4,0.2
	c0,0.4,0,0.9,0,1.4H47.7z M43.7,306.9c1.4,1.4,2.8,2.8,4.2,4.3c0.3-0.3,0.6-0.7,0.8-1c0.4,0.4,0.7,0.7,1.2,1.2
	c-0.4,0.3-0.7,0.6-1,0.8c0.9,1,1.8,1.9,2.6,2.7c0-1.4,0-2.8,0-4.2c-0.1-2.1-1.6-3.6-3.7-3.7c-1.1,0-2.1,0-3.2,0
	C44.3,306.9,44,306.9,43.7,306.9 M56.1,313.1c-0.2,0-0.4,0-0.6,0c-0.7,0-0.9-0.3-0.9-0.9c0-2.5,0-5,0-7.5c0-0.6,0.3-0.9,0.9-0.9
	c0.9,0,1.9,0,2.8,0c0.6,0,0.9,0.3,0.9,0.9c0,2.5,0,5,0,7.6c0,0.6-0.3,0.8-0.9,0.9c-0.2,0-0.4,0-0.6,0c0,0.1,0,0.2,0,0.2
	c0,2.6,0,5.2,0,7.7c0,0.1,0,0.3,0.1,0.3c0.6,0.6,1.2,1.2,1.7,1.8c5-6.7,4.9-17.5-2.4-24.4c-7.1-6.7-17.2-6.1-23-1.5
	c2,2.1,4.1,4.1,6.1,6.1c0.2-0.7,0.7-1.1,1.4-1.1c0.3,0,0.6,0,0.9,0c0.5,0,1,0,1.4,0v-1.6c-0.8,0-1.5,0-2.3,0c-0.9,0-1.5-0.7-1.5-1.5
	c0-0.5,0-1,0-1.4c0-1,0.6-1.7,1.6-1.7c2,0,3.9,0,5.9,0c1,0,1.6,0.6,1.6,1.7c0,0.4,0,0.9,0,1.3c0,1.1-0.6,1.7-1.7,1.7
	c-0.6,0-1.2,0-1.8,0c-0.1,0-0.2,0-0.3,0v1.5c0.7,0,1.4,0,2.1,0c1,0,1.6,0.6,1.6,1.7c0,0.5,0,0.9,0,1.4c0,0.2,0,0.3,0.2,0.4
	c2.3,0.9,3.5,2.8,3.5,5.3c0,1.8,0,3.6,0,5.3c0,0.2,0.1,0.4,0.2,0.6c0.8,0.8,1.6,1.6,2.4,2.4c0.1,0.1,0.2,0.3,0.3,0.4
	c0,0,0.1-0.1,0.1-0.1V313.1z M64.5,312.2c-0.1,4.8-1.5,8.8-4.2,12.4c-0.5,0.6-0.9,0.7-1.4,0.1c-6.8-6.9-13.6-13.8-20.4-20.7
	c-2-2-4-4-6-6.1c-0.6-0.6-0.6-1,0.1-1.6c2.5-2,5.4-3.3,8.5-3.8c5.8-1,11.1,0.3,15.8,4.1c4.2,3.4,6.7,8,7.3,13.5
	C64.4,310.9,64.5,311.7,64.5,312.2"/>
<path class="st0" d="M43.6,315.5c-0.4-0.4-0.7-0.7-1.1-1.1c-0.1,0.6,0.1,1.2,0.5,1.7C43.2,315.9,43.4,315.6,43.6,315.5 M44.7,316.5
	c-0.5,0.5-0.8,0.9-1.2,1.3c-0.3,0.3-0.2,0.4,0.1,0.6c0.1,0.1,0.3,0.1,0.4,0.1c0.5,0,1,0,1.5,0c0.2,0,0.4-0.1,0.6-0.3
	c0.1,0,0.1-0.3,0-0.4C45.6,317.4,45.2,317,44.7,316.5 M36.4,321.6v-0.5c0-3.4,0-6.8,0-10.2c0-0.7,0.2-1.5,0.4-2.2
	c0-0.2,0.1-0.3-0.1-0.5c-0.9-0.9-1.8-1.8-2.6-2.7c-0.2-0.2-0.3-0.2-0.6-0.1c-0.7,0.3-0.9,0.9-0.9,1.6c0,4,0,8,0,12.1
	c0,0.2,0,0.3,0,0.5c0.1,1,1,1.9,2,2C35.2,321.6,35.8,321.6,36.4,321.6 M40.4,318.7c0.3-0.3,0.7-0.7,1-1c0.3-0.3,0.4-0.6,0.1-1
	c-0.5-0.8-0.8-1.8-0.5-2.7c0.3-0.9,0-1.3-0.6-1.9c-0.8-0.7-1.6-1.6-2.4-2.5c0,0.5-0.1,0.9-0.1,1.2c0,4,0,8,0,12.1
	c0,1.4,1,2.6,2.5,2.5c1.5-0.1,3,0,4.5,0c1.5,0,3,0,4.5,0c1,0,1.8-0.7,2.1-1.6c0.1-0.2,0-0.4-0.1-0.6c-0.7-0.6-1.3-1.3-1.9-2
	c-0.7-0.7-1.4-1.4-2.1-2.2c-0.6,0.8-1.4,1-2.3,0.9c-0.3,0-0.6,0-0.9,0c-0.8,0-1.5-0.2-2.1-1c-0.2,0.3-0.4,0.5-0.6,0.8
	C41.1,319.4,40.8,319.1,40.4,318.7 M30,301.5c-5,6.7-4.9,17.6,2.5,24.6c7.3,6.8,17.5,5.7,22.8,1.3c-0.9-0.9-1.7-1.7-2.6-2.6
	c0,0-0.1,0.1-0.1,0.1c-0.8,1.5-2,2.2-3.6,2.2c-1.3,0-2.5,0-3.8,0c-1.8,0-3.6,0-5.4,0c-1.6-0.1-2.7-1-3.3-2.5
	c-0.2-0.4-0.2-0.8-0.3-1.3c-0.4,0-0.9,0-1.3,0c-2.3,0-3.9-1.7-3.9-4c0-4,0-8.1,0-12.1c0-1.1,0.4-2,1.3-2.6c0.1-0.1,0.2-0.1,0.3-0.2
	C31.7,303.3,30.8,302.4,30,301.5 M25,312.3c0-4.6,1.4-8.7,4.2-12.3c0.5-0.6,0.8-0.6,1.4,0c7.3,7.4,14.5,14.8,21.8,22.1
	c1.5,1.5,3,3.1,4.5,4.6c0.6,0.6,0.6,1-0.1,1.6c-3.9,3-8.2,4.4-13,4.1c-5.6-0.3-10.2-2.6-13.9-6.9C26.6,321.7,25,317.3,25,312.3"/>
<path class="st0" d="M65.8,44.4c0.1,0,0.1,0,0.2,0V40h-0.9C65.4,41.5,65.6,43,65.8,44.4 M71.6,44.3c1-0.3,1.7-1,1.8-2
	c0.1-0.8-0.4-1.7-1.2-2.1C72,41.6,71.8,43,71.6,44.3 M68.5,40v4.4c0.7,0.1,0.7,0.1,0.8-0.6c0-0.1,0-0.2,0-0.3
	c0.2-1.2,0.3-2.3,0.5-3.5H68.5z M68.5,37.3c1.3,0.5,4.4-2.6,3.9-3.9C71,33.2,68.4,35.8,68.5,37.3 M66,37.3c0.2-1.7-2.9-4.4-4-3.8
	C62.1,35.2,64.4,37.4,66,37.3 M60,44.4h3.4c-0.2-1.5-0.5-3-0.7-4.4c-0.5,0-0.9,0-1.3,0c-0.1,0-0.3,0.2-0.4,0.3
	C60.7,41.6,60.4,43,60,44.4 M54.1,37.6l0.1-0.1c-0.9-0.8-1.9-1.7-3.3-1.7c-2.6,0-5.1,0-7.7,0c-1,0-1.9,0.1-2.9,0.2
	c-8,1.2-13.6,9.1-12,17c1.4,6.9,6.9,11.7,13.9,11.9c3.5,0.1,7.1,0,10.6,0c1.4,0,2.4-1,2.4-2.2c0-1.3-1-2.3-2.4-2.3
	c-0.4,0-0.8,0-1.2,0v-2.4h0.6c1.3,0,2.6,0,3.9,0c1,0,1.8-0.4,2.2-1.4c0.6-1.5-0.5-3.1-2.1-3.1c-0.8,0-1.6,0-2.4,0v-2.4
	c1.5,0,3,0,4.6,0c1.3,0,2.3-1,2.3-2.2c0-1.3-1-2.3-2.3-2.3c-1.1,0-2.2,0-3.2,0h-1.3v-2.3c0.1,0,0.1,0,0.2-0.1c0.7,0,1.4,0,2.2,0
	c0.5,0,1.1,0.1,1.4-0.1c0.3-0.2,0.3-0.9,0.4-1.3c0,0,0,0,0,0c0.2-1,0.5-2,0.7-3H47.4v-2.3H54.1z M61.6,37.6
	c-0.3-0.3-0.5-0.5-0.6-0.8c-0.4-0.8-0.9-1.5-1.2-2.4c-0.6-2.3,1.1-3.9,3.4-3.3c1.5,0.4,2.7,1.4,3.7,2.5c0.1,0.1,0.2,0.3,0.4,0.4
	c0.3-0.3,0.5-0.6,0.8-0.9c1.1-1.1,2.3-2,3.9-2.1c1.9-0.2,3.2,1.3,2.8,3.2c-0.2,1.2-0.8,2.2-1.6,3.1c-0.1,0.2-0.3,0.3-0.5,0.5
	c0.1,0.1,0.2,0.1,0.4,0.2c2,1,3.1,3.1,2.6,5.2c-0.5,2.1-2.3,3.6-4.5,3.6c-2.7,0-5.3,0-8,0h-0.7c0.6,1.3,0.8,2.6,0.3,3.8
	c-0.5,1.3-1.4,2.1-2.6,2.7c0.8,1.4,1,2.9,0.4,4.4c-0.7,1.5-1.9,2.4-3.5,2.7c0.5,1,0.7,2,0.5,3c-0.3,2.1-2.2,3.8-4.3,3.9
	c-3.7,0-7.4,0.1-11.1,0c-8-0.2-14.9-6.4-16.1-14.4c-1.4-9,4.5-17.3,13.4-19.2c1.1-0.2,2.3-0.3,3.5-0.3c2.9,0,5.7,0,8.6,0
	c1,0,1.8,0.4,2.6,0.9c1.2,0.7,2.2,1.7,2.9,2.9c0.2,0.3,0.4,0.4,0.7,0.4C58.9,37.6,60.2,37.6,61.6,37.6"/>
<path class="st6" d="M65.8,44.4c0.1,0,0.1,0,0.2,0V40h-0.9C65.4,41.5,65.6,43,65.8,44.4z M71.6,44.3c1-0.3,1.7-1,1.8-2
	c0.1-0.8-0.4-1.7-1.2-2.1C72,41.6,71.8,43,71.6,44.3z M68.5,40v4.4c0.7,0.1,0.7,0.1,0.8-0.6c0-0.1,0-0.2,0-0.3
	c0.2-1.2,0.3-2.3,0.5-3.5H68.5z M68.5,37.3c1.3,0.5,4.4-2.6,3.9-3.9C71,33.2,68.4,35.8,68.5,37.3z M66,37.3c0.2-1.7-2.9-4.4-4-3.8
	C62.1,35.2,64.4,37.4,66,37.3z M60,44.4h3.4c-0.2-1.5-0.5-3-0.7-4.4c-0.5,0-0.9,0-1.3,0c-0.1,0-0.3,0.2-0.4,0.3
	C60.7,41.6,60.4,43,60,44.4z M54.1,37.6l0.1-0.1c-0.9-0.8-1.9-1.7-3.3-1.7c-2.6,0-5.1,0-7.7,0c-1,0-1.9,0.1-2.9,0.2
	c-8,1.2-13.6,9.1-12,17c1.4,6.9,6.9,11.7,13.9,11.9c3.5,0.1,7.1,0,10.6,0c1.4,0,2.4-1,2.4-2.2c0-1.3-1-2.3-2.4-2.3
	c-0.4,0-0.8,0-1.2,0v-2.4h0.6c1.3,0,2.6,0,3.9,0c1,0,1.8-0.4,2.2-1.4c0.6-1.5-0.5-3.1-2.1-3.1c-0.8,0-1.6,0-2.4,0v-2.4
	c1.5,0,3,0,4.6,0c1.3,0,2.3-1,2.3-2.2c0-1.3-1-2.3-2.3-2.3c-1.1,0-2.2,0-3.2,0h-1.3v-2.3c0.1,0,0.1,0,0.2-0.1c0.7,0,1.4,0,2.2,0
	c0.5,0,1.1,0.1,1.4-0.1c0.3-0.2,0.3-0.9,0.4-1.3c0,0,0,0,0,0c0.2-1,0.5-2,0.7-3H47.4v-2.3H54.1z M61.6,37.6
	c-0.3-0.3-0.5-0.5-0.6-0.8c-0.4-0.8-0.9-1.5-1.2-2.4c-0.6-2.3,1.1-3.9,3.4-3.3c1.5,0.4,2.7,1.4,3.7,2.5c0.1,0.1,0.2,0.3,0.4,0.4
	c0.3-0.3,0.5-0.6,0.8-0.9c1.1-1.1,2.3-2,3.9-2.1c1.9-0.2,3.2,1.3,2.8,3.2c-0.2,1.2-0.8,2.2-1.6,3.1c-0.1,0.2-0.3,0.3-0.5,0.5
	c0.1,0.1,0.2,0.1,0.4,0.2c2,1,3.1,3.1,2.6,5.2c-0.5,2.1-2.3,3.6-4.5,3.6c-2.7,0-5.3,0-8,0h-0.7c0.6,1.3,0.8,2.6,0.3,3.8
	c-0.5,1.3-1.4,2.1-2.6,2.7c0.8,1.4,1,2.9,0.4,4.4c-0.7,1.5-1.9,2.4-3.5,2.7c0.5,1,0.7,2,0.5,3c-0.3,2.1-2.2,3.8-4.3,3.9
	c-3.7,0-7.4,0.1-11.1,0c-8-0.2-14.9-6.4-16.1-14.4c-1.4-9,4.5-17.3,13.4-19.2c1.1-0.2,2.3-0.3,3.5-0.3c2.9,0,5.7,0,8.6,0
	c1,0,1.8,0.4,2.6,0.9c1.2,0.7,2.2,1.7,2.9,2.9c0.2,0.3,0.4,0.4,0.7,0.4C58.9,37.6,60.2,37.6,61.6,37.6z"/>
<polygon class="st0" points="465.8,303.5 447.7,290.2 84.8,290.2 84.8,343.4 447.7,343.4 465.8,330.1 483.9,316.8 "/>
<polygon class="st0" points="465.8,213.8 447.7,200.5 84.8,200.5 84.8,253.8 447.7,253.8 465.8,240.5 483.9,227.1 "/>
<polygon class="st0" points="485.8,124.2 467.7,110.9 84.8,110.9 84.8,164.1 467.7,164.1 485.8,150.8 503.9,137.5 "/>
<path class="st14" d="M703.4,494.5c0.9-1.1,0.8-321.2-0.3-322.1c-1.1-0.9-2.7-0.8-3.6,0.3c-19.4,23.3-39.1,49.2-58.2,74.2
	c-38,49.9-77.4,101.5-115.9,134.6c-63,53.9-125.8,76-173.5,89.2c-37.3,10.3-75.4,8.8-112.2,7.3c-20.2-0.8-41.1-1.6-61.7-0.5
	c-38.8,2.1-78.2,5-116.4,7.8c-19,1.4-36.8,2.8-56.1,4.2c-1.4,0.1-2.5,1.3-2.4,2.7c0.1,1.3,1.2,2.4,2.5,2.4c0.1,0,0.1,0,0.2,0H703.4z
	"/>
<text transform="matrix(1 0 0 1 101.6582 53.1377)"><tspan x="0" y="0" class="st7 st2 st8">Insurance coverage for work injuries</tspan></text>
<text transform="matrix(1 0 0 1 501.8662 57.8979)"><tspan x="0" y="0" class="st0 st2 st13">9.3</tspan></text>
<text transform="matrix(1 0 0 1 101.6582 143.0576)"><tspan x="0" y="0" class="st7 st2 st8">Provide adequate safety equipment</tspan></text>
<text transform="matrix(1 0 0 1 513.8662 147.2378)"><tspan x="0" y="0" class="st0 st2 st13">9.4</tspan></text>
<text transform="matrix(1 0 0 1 101.6582 232.002)"><tspan x="0" y="0" class="st7 st2 st8 st9">Training on safety protocols</tspan></text>
<text transform="matrix(1 0 0 1 493.8564 232.6177)"><tspan x="0" y="0" class="st0 st2 st13">9.2</tspan></text>
<text transform="matrix(1 0 0 1 101.6582 321.1133)"><tspan x="0" y="0" class="st7 st2 st8 st9">Avoid exposure to harmful conditions</tspan></text>
<text transform="matrix(1 0 0 1 501.8662 323.9678)"><tspan x="0" y="0" class="st0 st2 st13">9.3</tspan></text>
<text transform="matrix(1 0 0 1 8.7598 403.1875)"><tspan x="0" y="0" class="st0 st2 st10">9.2</tspan></text>
<text transform="matrix(1 0 0 1 10.0352 423.2871)"><tspan x="0" y="0" class="st1 st2 st11">*</tspan><tspan x="5.3" y="0" class="st1 st2 st11">average score for workplace safety</tspan></text>
<text transform="matrix(1 0 0 1 725.5996 10.2598)" class="st1 st2 st3">100%</text>
<text transform="matrix(1 0 0 1 725.5996 494.0635)" class="st1 st2 st3">0%</text>
<text transform="matrix(1 0 0 1 0 525.5352)" class="st1 st2 st3">0</text>
<text transform="matrix(1 0 0 1 350.8076 525.5352)" class="st1 st2 st3">5</text>
<text transform="matrix(1 0 0 1 697.8838 525.5352)" class="st1 st2 st3">10</text>
<text transform="matrix(1 0 0 1 366.5801 559.9307)"><tspan x="0" y="0" class="st1 st2 st12">Priority given to workplace safety</tspan></text>
</svg>
