<svg version="1.1" id="SVG_T3G3" xmlns="http://www.w3.org/2000/svg" xmlns:xlink="http://www.w3.org/1999/xlink" x="0px" y="0px"
	 viewBox="0 0 714.4 501.6" data-viewBox="0 0 714.4 501.6" style="enable-background:new 0 0 714.4 501.6;" xml:space="preserve">
<style type="text/css">
	#SVG_T3G3 .st0{fill:#DE3849;}
	#SVG_T3G3 .st1{fill:#7DCDA5;}
	#SVG_T3G3 .st2{fill:#73818A;}
	#SVG_T3G3 .st3{fill:#3D3F41;}
	#SVG_T3G3 .st4{font-family:'Raleway'; font-weight:600;}
	#SVG_T3G3 .st5{font-size:15px;}
	#SVG_T3G3 .st6{font-size:43.3967px;}
	#SVG_T3G3 .st7{font-family:'Raleway'; font-weight:400;}
	#SVG_T3G3 .st8{font-size:25.3003px;}
	#SVG_T3G3 .st9{font-size:70px;}
	#SVG_T3G3 .st10{font-size:40.81px;}
	#SVG_T3G3 .st11{fill:none;stroke:#DE3849;stroke-width:3;stroke-dasharray:8.929,5.929;}
	#SVG_T3G3 .st12{fill:none;stroke:#DE3849;}
	#SVG_T3G3 .st13{fill:#E5E5E5;}
</style>
<g class="anim1-1"><rect y="132.1" class="st0" width="171.6" height="319.2"/></g>
<g class="anim2-1"><rect x="203.2" y="277.4" class="st1" width="171.6" height="174.4"/></g>
<g class="anim3-1"><rect x="406.4" y="334.1" class="st2" width="171.6" height="117.8"/></g>
<g class="anim4-0">
<path class="st0" d="M617.1,210.3c0.3,0.2,0.5,0.3,0.6,0.4c3.9,2.3,7.9,4.5,11.8,6.8c0.5,0.3,0.8,0.3,1.2,0
	c9-5.2,18.1-10.4,27.1-15.7c0.2-0.1,0.4-0.3,0.6-0.4c-0.2-0.2-0.4-0.3-0.6-0.4c-3.9-2.3-7.8-4.5-11.7-6.8c-0.5-0.3-0.9-0.3-1.4,0
	c-6.2,3.6-12.4,7.1-18.5,10.7C623.3,206.8,620.3,208.5,617.1,210.3 M665.8,201.5c0.2,0.2,0.4,0.2,0.5,0.3
	c9.1,5.3,18.3,10.5,27.4,15.8c0.3,0.2,0.6,0.2,0.9,0c4-2.3,8.1-4.7,12.1-7c0.1-0.1,0.3-0.2,0.5-0.3c-0.2-0.1-0.5-0.3-0.7-0.4
	c-8.6-5-17.2-9.9-25.7-14.9c-1.4-0.9-2.5-0.9-3.9,0C673.3,197.3,669.6,199.3,665.8,201.5 M658.5,238.5c-0.1-0.1-0.2-0.2-0.3-0.2
	c-9.2-5.3-18.4-10.6-27.6-16c-0.4-0.2-0.7-0.1-1,0.1c-3,1.7-6,3.5-9,5.2c-1.1,0.7-2.3,1.3-3.5,2c0.2,0.2,0.4,0.3,0.6,0.4
	c9.1,5.3,18.2,10.5,27.3,15.8c0.4,0.2,0.7,0.2,1,0c4-2.3,7.9-4.6,11.9-6.9C658.2,238.7,658.3,238.6,658.5,238.5 M707.2,229.6
	c-4.3-2.5-8.5-4.9-12.7-7.3c-0.2-0.1-0.6,0-0.8,0.1c-9.1,5.2-18.2,10.5-27.2,15.7c-0.2,0.1-0.4,0.2-0.6,0.4c0.1,0.1,0.2,0.1,0.2,0.2
	c4.1,2.4,8.3,4.8,12.4,7.1c0.2,0.1,0.7,0.1,0.9-0.1c9-5.2,18.1-10.4,27.1-15.7C706.7,229.9,706.9,229.8,707.2,229.6 M660.4,272.4
	v-30.8c-0.3,0.2-0.5,0.3-0.8,0.4c-4.5,2.6-9,5.1-13.4,7.8c-0.5,0.3-0.8,0.3-1.3,0c-4.1-2.4-8.2-4.8-12.3-7.1
	c-0.2-0.1-0.4-0.2-0.7-0.4v0.8c0,4,0,8.1,0,12.2c0,0.6,0.2,0.9,0.7,1.1c9,5.2,18.1,10.4,27.1,15.6
	C659.8,272.1,660.1,272.2,660.4,272.4 M692.5,242.3c-0.3,0.2-0.6,0.3-0.8,0.4c-4.1,2.4-8.2,4.7-12.3,7.1c-0.4,0.3-0.8,0.2-1.2,0
	c-4.5-2.6-9-5.2-13.5-7.8c-0.2-0.1-0.5-0.3-0.7-0.4v30.8c0.2-0.1,0.4-0.2,0.5-0.3c9.2-5.3,18.3-10.6,27.5-15.9
	c0.4-0.2,0.5-0.5,0.5-0.9c0-3.1,0-6.3,0-9.4V242.3z M690.6,220c-0.2-0.1-0.3-0.2-0.4-0.3c-9.2-5.3-18.4-10.6-27.5-15.9
	c-0.4-0.2-0.7-0.1-1,0.1c-9,5.2-18.1,10.5-27.2,15.7c-0.2,0.1-0.4,0.3-0.6,0.4c0.2,0.2,0.4,0.3,0.6,0.4c9.1,5.2,18.1,10.4,27.2,15.7
	c0.4,0.2,0.7,0.3,1.2,0c5.7-3.3,11.4-6.6,17-9.8C683.4,224.2,686.9,222.1,690.6,220 M610,229.6c5.6-3.2,11-6.4,16.6-9.6
	c-5.6-3.2-11.1-6.4-16.6-9.6c0.3-0.2,0.5-0.3,0.7-0.4c11.4-6.6,22.8-13.2,34.2-19.8c0.5-0.3,0.9-0.3,1.4,0c5.1,3,10.2,5.9,15.3,8.9
	c0.5,0.3,0.8,0.3,1.3,0c5.1-3,10.3-5.9,15.4-8.9c0.4-0.2,0.7-0.3,1.1-0.1c11.5,6.7,23,13.3,34.6,20c0.1,0.1,0.2,0.2,0.5,0.3
	c-5.5,3.2-11,6.4-16.6,9.6c5.6,3.2,11,6.4,16.6,9.6c-0.3,0.2-0.5,0.3-0.7,0.5c-5.6,3.2-11.2,6.5-16.8,9.7c-0.5,0.3-0.7,0.6-0.7,1.3
	c0,5.4,0,10.7,0,16.1c0,0.6-0.2,1-0.7,1.3c-10.9,6.2-21.7,12.5-32.6,18.8c-0.5,0.3-0.8,0.3-1.3,0c-10.9-6.3-21.7-12.6-32.6-18.8
	c-0.5-0.3-0.7-0.6-0.7-1.2c0-5.4,0-10.8,0-16.3c0-0.6-0.2-0.9-0.7-1.2c-5.6-3.2-11.2-6.5-16.8-9.7
	C610.5,229.9,610.3,229.8,610,229.6"/>
</g>
<g class="anim4-1"><line class="st11" x1="661.6" y1="173.4" x2="661.6" y2="119.9"/></g>
<g class="anim4-3"><line class="st12" x1="609.7" y1="45.3" x2="705.2" y2="45.3"/></g>
<path class="st13" d="M86.2,378.6c0.7,0.8,1.3,1.7,2.1,2.3c0.9,0.6,1.2,1.2,1.2,2.3c-0.3,11.5-0.5,23.1-0.8,34.6c0,0.5,0,1.1,0,2
	c6.1-4.8,9.7-10.8,11-18.1c1.3-7.4-0.4-14.3-4.5-20.7c2.8,0.7,7.6,7.9,8.8,13.4c2.7,12.8-1.9,22.5-13.1,30.1
	c3.9,0.6,7.2,1.1,10.8,1.6c-4.4,1.7-8.7,1.7-13,1c-1,1.4-1.9,2.7-2.9,4.1c-1-1.4-1.9-2.7-2.9-4.1c-4.3,0.7-8.6,0.6-13.2-1
	c3.7-0.5,7.1-1,10.5-1.5c-18.9-11.9-15.5-35.6-3.6-43.9c-5.3,8.5-6.5,17.1-3.3,26.2c1.8,5.1,5.8,10.4,9.3,12.5c0-3.3,0-6.7,0-10.1
	c-0.1-8.6-0.2-17.1-0.4-25.7c0-1.3,0.3-2.2,1.5-2.9c0.8-0.4,1.2-1.4,1.8-2.1H86.2z"/>
<path class="st13" d="M73.6,380.3c-12.9,12-14.8,25.5-5.7,40.6c-6.1-2.6-12.9-11.8-11-23.2C58.5,388.1,66.8,381.1,73.6,380.3"/>
<path class="st13" d="M98.1,380.3c5.6,0.5,14.6,6.8,16.7,17.6c1.7,8.9-3.5,19.9-11.1,23C112.8,405.8,111,392.2,98.1,380.3"/>
<path class="st13" d="M86.2,378.6h-0.7c-2.4,1.4-4.2,1.4-5.9,0c-1.6-1.3-1.9-2.9-1.3-4.8c1.1,0.9,2.1,2.1,3.4,2.7
	c1.6,0.7,3.1-0.3,4.1-1.7c3.2,3,5.5,2.5,7.4-1.3c0.9,1.9,0.7,3.4-0.6,4.8c-1.3,1.4-3.3,1.8-5.1,1C87,379.1,86.6,378.8,86.2,378.6"/>
<path class="st13" d="M492.6,378.6c0.7,0.8,1.3,1.7,2.1,2.3c0.9,0.6,1.2,1.2,1.2,2.3c-0.3,11.5-0.5,23.1-0.8,34.6c0,0.5,0,1.1,0,2
	c6.1-4.8,9.7-10.8,11-18.1c1.3-7.4-0.4-14.3-4.5-20.7c2.8,0.7,7.6,7.9,8.8,13.4c2.7,12.8-1.9,22.5-13.1,30.1
	c3.9,0.6,7.2,1.1,10.8,1.6c-4.4,1.7-8.7,1.7-13,1c-1,1.4-1.9,2.7-2.9,4.1c-1-1.4-1.9-2.7-2.9-4.1c-4.3,0.7-8.6,0.6-13.2-1
	c3.7-0.5,7.1-1,10.5-1.5c-18.9-11.9-15.5-35.6-3.6-43.9c-5.3,8.5-6.5,17.1-3.3,26.2c1.8,5.1,5.8,10.4,9.3,12.5c0-3.3,0-6.7,0-10.1
	c-0.1-8.6-0.2-17.1-0.4-25.7c0-1.3,0.3-2.2,1.5-2.9c0.8-0.4,1.2-1.4,1.8-2.1H492.6z"/>
<path class="st13" d="M480,380.3c-12.9,12-14.8,25.5-5.7,40.6c-6.1-2.6-12.9-11.8-11-23.2C464.9,388.1,473.2,381.1,480,380.3"/>
<path class="st13" d="M504.5,380.3c5.6,0.5,14.6,6.8,16.7,17.6c1.7,8.9-3.5,19.9-11.1,23C519.2,405.8,517.4,392.2,504.5,380.3"/>
<path class="st13" d="M492.6,378.6h-0.7c-2.4,1.4-4.2,1.4-5.9,0c-1.6-1.3-1.9-2.9-1.3-4.8c1.1,0.9,2.1,2.1,3.4,2.7
	c1.6,0.7,3.1-0.3,4.1-1.7c3.2,3,5.5,2.5,7.4-1.3c0.9,1.9,0.7,3.4-0.6,4.8c-1.3,1.4-3.3,1.8-5.1,1C493.4,379.1,493,378.8,492.6,378.6
	"/>
<path class="st13" d="M316.1,399.1c0.2,0.4,0.2,0.6,0.3,0.8c0.7,2.2,0.7,2.2,3.1,2.3c0.2,0,0.4,0,0.6,0.2c-0.6,0.4-1.2,0.9-1.8,1.3
	c-0.5,0.3-0.6,0.7-0.4,1.2c0.3,0.6,0.4,1.3,0.7,2.3c-0.8-0.6-1.4-1-2-1.5c-0.4-0.4-0.8-0.4-1.2,0c-0.6,0.5-1.2,0.9-2,1.5
	c0.3-1,0.5-1.7,0.8-2.4c0.2-0.5,0.1-0.8-0.4-1.1c-0.6-0.4-1.2-0.9-1.8-1.5c0.6,0,1.1-0.1,1.7,0c1,0.1,1.5-0.3,1.7-1.2
	C315.6,400.3,315.8,399.8,316.1,399.1"/>
<path class="st13" d="M314.9,420.8c-0.4-0.2-0.6-0.3-0.7-0.4c-1.8-1.3-1.8-1.3-3.6,0c-0.2,0.1-0.3,0.2-0.7,0.5
	c0.3-0.9,0.4-1.6,0.7-2.2c0.3-0.6,0.1-1-0.4-1.3c-0.6-0.4-1.2-0.8-2-1.4c1,0,1.8,0,2.5,0c0.6,0,1-0.2,1.1-0.8
	c0.2-0.7,0.4-1.3,0.7-2.3c0.3,1,0.6,1.6,0.7,2.3c0.2,0.6,0.5,0.8,1.1,0.8c0.7,0,1.4,0,2.2,0.2c-0.5,0.4-1,0.8-1.5,1.1
	c-0.7,0.4-0.9,0.9-0.5,1.6C314.6,419.5,314.7,420.1,314.9,420.8"/>
<path class="st13" d="M288.6,371.4c0,2.7,1.4,3.5,3.9,2.8c0,0.1-0.1,0.2-0.1,0.3c-0.5,0.3-0.9,0.7-1.4,1c-0.8,0.4-1.1,1-0.6,1.9
	c0.3,0.5,0.4,1.1,0.6,1.9c-0.8-0.6-1.4-0.9-1.9-1.4c-0.5-0.4-0.9-0.5-1.4,0c-0.5,0.5-1.1,0.8-1.7,1.3c0-0.1-0.1-0.2-0.1-0.2
	c0.2-0.9,0.9-1.9,0.6-2.7c-0.2-0.7-1.4-1.2-2.3-2c0.9,0,1.6,0,2.3,0c0.6,0,1-0.2,1.1-0.8c0.2-0.7,0.4-1.3,0.6-2
	C288.4,371.5,288.5,371.5,288.6,371.4"/>
<path class="st13" d="M260.6,416c0.6,0,1.3,0,1.9,0c0.8,0.1,1.2-0.2,1.3-1c0.1-0.6,0.4-1.2,0.7-2.1c0.3,0.9,0.6,1.6,0.7,2.3
	c0.2,0.6,0.5,0.9,1.1,0.8c0.7,0,1.4,0,2.2,0c-0.9,0.7-2,1.2-2.2,2c-0.3,0.7,0.3,1.8,0.6,2.9c-0.9-0.6-1.7-1.2-2.5-1.7
	c-0.8,0.6-1.6,1.1-2.4,1.7c-0.1,0-0.2,0-0.3,0c1.4-2.1,1-3.7-1.5-4.6C260.4,416.2,260.5,416.1,260.6,416"/>
<path class="st13" d="M264.5,391.4c-0.9,0.6-1.6,1.2-2.4,1.7c-0.1-0.1-0.1-0.2-0.1-0.2c0.2-0.9,0.9-1.9,0.6-2.7
	c-0.2-0.7-1.4-1.2-2.1-1.8c0.1-0.1,0.2-0.2,0.2-0.2c2.3,0.4,3.5-0.5,3.6-3c0.1,0.1,0.2,0.1,0.3,0.2c0.2,0.6,0.5,1.2,0.6,1.9
	c0.2,0.8,0.6,1,1.3,1c0.6-0.1,1.2,0,2,0.2c-0.6,0.4-1.1,0.9-1.7,1.2c-0.5,0.3-0.6,0.7-0.4,1.2c0.3,0.7,0.5,1.4,0.7,2.3
	C266.1,392.6,265.3,392,264.5,391.4"/>
<path class="st13" d="M288.4,426.9c0.5,1.1,0.6,2.3,1.3,2.8c0.6,0.5,1.8,0.2,3,0.2c-0.8,0.5-1.3,1-1.9,1.4c-0.5,0.3-0.6,0.7-0.4,1.2
	c0.3,0.6,0.4,1.3,0.7,2.3c-0.8-0.6-1.4-0.9-1.9-1.4c-0.5-0.5-0.9-0.4-1.5,0c-0.5,0.4-1.1,0.8-1.8,1.3c0.1-0.4,0.1-0.6,0.2-0.7
	c0.7-2.2,0.7-2.2-1.2-3.6c-0.1-0.1-0.3-0.2-0.6-0.5c0.9,0,1.5,0,2.2,0c0.8,0.1,1.2-0.2,1.3-1C287.9,428.3,288.1,427.7,288.4,426.9"
	/>
<path class="st13" d="M298.3,377.9c2.6,1,3.5-0.4,3.9-2.5c0,0,0,0,0.2-0.2c0.2,0.7,0.5,1.3,0.6,1.9c0.2,0.8,0.6,1,1.3,1
	c0.6-0.1,1.2,0,1.9,0.2c-0.6,0.4-1.2,0.8-1.7,1.3c-0.3,0.2-0.4,0.8-0.4,1.1c0.1,0.7,0.4,1.4,0.6,2.1c-0.1,0-0.2,0-0.2,0
	c-1.6-1.6-3.1-1.9-4.7,0.3c0-0.1-0.1-0.2-0.1-0.3c0.2-0.7,0.4-1.3,0.6-2c0.3-0.6,0.1-1-0.5-1.4c-0.6-0.3-1.1-0.8-1.6-1.1
	C298.3,378.2,298.3,378.1,298.3,377.9"/>
<path class="st13" d="M310,393.1c-0.1-0.2-0.1-0.2-0.1-0.2c0.9-1.9,1-3.6-1.8-4.3c0.1-0.1,0.2-0.2,0.3-0.3c0.4,0,0.7,0,1.1,0
	c2.2,0,1.7,0.3,2.4-1.8c0.1-0.3,0.2-0.7,0.4-1.3c0.3,0.9,0.5,1.5,0.7,2.2c0.2,0.7,0.5,0.9,1.2,0.9c0.7,0,1.3,0,2.1,0.2
	c-0.5,0.4-1.1,0.8-1.7,1.2c-0.5,0.3-0.7,0.7-0.4,1.3c0.3,0.6,0.4,1.3,0.8,2.3c-0.8-0.6-1.4-1-2-1.4c-0.5-0.4-0.8-0.4-1.3,0
	C311.2,392.2,310.6,392.6,310,393.1"/>
<path class="st13" d="M265,402.2c-0.8,0.5-1.3,1-1.8,1.3c-0.7,0.4-0.8,0.9-0.5,1.6c0.2,0.6,0.4,1.2,0.7,2.1
	c-0.7-0.5-1.2-0.8-1.7-1.2c-0.7-0.6-1.2-0.6-1.9,0c-0.4,0.4-1,0.7-1.6,1.2c0.2-0.7,0.4-1.1,0.5-1.5c0.6-1.9,0.8-1.3-0.9-2.6
	c-0.3-0.3-0.7-0.5-1.2-0.9c1,0,1.6,0,2.3,0c0.7,0.1,1-0.2,1.2-0.9c0.2-0.7,0.4-1.3,0.7-2.3c0.3,0.9,0.5,1.6,0.7,2.2
	c0.2,0.7,0.5,1,1.3,0.9C263.4,402.1,264,402.2,265,402.2"/>
<path class="st13" d="M278.5,378.3c-0.1,0.1-0.2,0.1-0.2,0.2c-0.7,0.5-1.7,0.9-1.9,1.6c-0.2,0.7,0.4,1.6,0.6,2.4
	c0,0.1,0,0.2,0.1,0.5c-0.9-0.6-1.7-1.2-2.5-1.8c-0.8,0.6-1.6,1.1-2.6,1.8c0.2-0.6,0.3-1,0.4-1.3c0.6-2.1,0.8-1.4-0.9-2.7
	c-0.3-0.2-0.6-0.4-0.8-0.9c0.4,0,0.7,0,1.1,0c2.1,0,1.7,0.3,2.4-1.8c0.1-0.3,0.2-0.6,0.5-1.2c0.3,0.9,0.5,1.6,0.7,2.3
	c0.2,0.6,0.5,0.8,1.1,0.8c0.7,0,1.4,0,2.1,0C278.5,378.2,278.5,378.3,278.5,378.3"/>
<path class="st13" d="M302.3,423.1c0.2,0.5,0.2,0.7,0.3,0.9c0.7,2.1,0.7,2.1,2.9,2.1c0.2,0,0.5,0,1,0c-0.8,0.6-1.4,1-2,1.4
	c-0.5,0.3-0.6,0.7-0.4,1.2c0.3,0.7,0.5,1.4,0.7,2.2c-1-0.6-1.8-1.6-2.6-1.6c-0.8,0-1.6,0.9-2.5,1.6c0.2-0.6,0.3-0.9,0.4-1.3
	c0.5-1.7,0.5-1.7-0.9-2.7c-0.3-0.2-0.6-0.4-1.1-0.8c0.6,0,1,0,1.3,0c2.2,0,1.8,0.3,2.5-1.8C302,424,302.1,423.7,302.3,423.1"/>
<path class="st13" d="M278.8,426.2c-1,0.8-2,1.2-2.3,2c-0.3,0.7,0.3,1.7,0.6,2.8c-0.7-0.5-1.2-0.8-1.6-1.1c-0.6-0.5-1-0.6-1.6,0
	c-0.4,0.4-1,0.7-1.6,0.9c0.2-0.6,0.3-1.3,0.6-1.9c0.2-0.5,0.1-0.9-0.4-1.2c-0.6-0.4-1.1-0.8-1.7-1.4c0.6,0,1.3,0,1.9,0
	c0.8,0.1,1.2-0.2,1.4-1c0.1-0.6,0.4-1.2,0.7-2c0.3,0.8,0.5,1.4,0.7,2c0.2,0.9,0.7,1.1,1.5,1.1C277.3,426.2,277.9,426.2,278.8,426.2"
	/>
<g class="anim1-2">
	<text transform="matrix(1 0 0 1 25.3031 110.7031)" class="st0 st4 st9">50</text>
	<text transform="matrix(1 0 0 1 120.5043 87.4199)" class="st0 st7 st10">%</text>
</g>
<g class="anim1-0"><text transform="matrix(1 0 0 1 4.7406 477.9888)"><tspan x="0" y="0" class="st3 st4 st5">Iranian state-owned</tspan> <tspan x="0" y="1.3em" class="st3 st4 st5">companies</tspan></text></g>
<g class="anim2-2">
	<text transform="matrix(1 0 0 1 240.1825 260.0728)"><tspan x="0" y="0" class="st1 st4 st9">27</tspan></text>
	<text transform="matrix(1 0 0 1 326.7665 236.7437)" class="st1 st7 st10">%</text>
</g>
<g class="anim2-0"><text transform="matrix(1 0 0 1 203.2045 477.8442)"><tspan x="0" y="0" class="st3 st4 st5">European companies</tspan> <tspan x="0" y="1.3em" class="st3 st4 st5">operating in Iran</tspan></text>
<g class="anim3-2">
	<text transform="matrix(1 0 0 1 450.1561 320.3628)" class="st2 st4 st9">18</text>
	<text transform="matrix(1 0 0 1 523.7958 297.0532)" class="st2 st7 st10">%</text>
</g>
<g class="anim3-0"><text transform="matrix(1 0 0 1 434.4384 477.2769)"><tspan x="0" y="0" class="st3 st4 st5">Iranian private</tspan> <tspan x="0" y="1.3em" class="st3 st4 st5">companies</tspan></text>
<g class="anim4-2">
	<text transform="matrix(1 0 0 1 608.743 33.104)" class="st0 st4 st6">50</text>
	<text transform="matrix(1 0 0 1 667.7616 18.6528)" class="st0 st7 st8">%</text>
	<text transform="matrix(1 0 0 1 608.743 66.7925)"><tspan x="0" y="0" class="st3 st4 st5">prefer the</tspan> <tspan x="0" y="1.3em" class="st3 st4 st5">producer</tspan> <tspan x="0" y="2.6em" class="st3 st4 st5">to be Iranian</tspan></text>
</g>
</svg>
