<svg version="1.1" id="SVG_T2G5" xmlns="http://www.w3.org/2000/svg" xmlns:xlink="http://www.w3.org/1999/xlink" x="0px" y="0px"
	 viewBox="0 0 756.8 564.5" style="enable-background:new 0 0 756.8 564.5;" xml:space="preserve">
<style type="text/css">
	#SVG_T2G5 .st0{fill:#3B454A;}
	#SVG_T2G5 .st1{font-family:'Raleway'; font-weight:600;}
	#SVG_T2G5 .st2{font-size:12px; letter-spacing:-0.1px;}
	#SVG_T2G5 .st3{fill:none;stroke:#3B454A;}
	#SVG_T2G5 .st4{font-family:'Raleway'; font-weight:400;}
	#SVG_T2G5 .st5{fill:#DE3849;}
	#SVG_T2G5 .st6{font-size:30px;}
	#SVG_T2G5 .st7{letter-spacing:-1;}
	#SVG_T2G5 .st8{font-size:20px;}
	#SVG_T2G5 .st9{fill:#E5E5E5;}
	#SVG_T2G5 .st10{font-size:16px;}
	#SVG_T2G5 .st11{font-size:40px;}
	#SVG_T2G5 .st12{fill:#3D3F41;}
	#SVG_T2G5 .st13{font-size:10px;}
	#SVG_T2G5 .st14{fill:#7DCDA5;}
</style>
<line class="st3" x1="2" y1="502.5" x2="703.9" y2="502.5"/>
<line class="st3" x1="713.8" y1="490" x2="713.8" y2="6.8"/>
<polygon class="st5" points="455.8,123.1 437.7,109.8 84.8,109.8 84.8,163.1 437.7,163.1 455.8,149.8 473.9,136.4 "/>
<polygon class="st5" points="435.8,255.8 417.7,242.5 84.8,242.5 84.8,295.8 417.7,295.8 435.8,282.4 453.9,269.1 "/>
<path class="st5" d="M45.9,289.7v3.1h5.8c0-0.6,0-1.2,0-1.9c0-0.2-0.1-0.3-0.3-0.3c-1.3-0.2-2.5-0.4-3.8-0.6
	C47.1,289.9,46.5,289.8,45.9,289.7 M45.8,269.4c0,0.9,0,1.8,0,2.7c0,0.5,0.1,0.7,0.6,0.9c0.2,0.1,0.3,0.1,0.4-0.1
	c0.4-0.4,0.8-0.8,1.2-1.2c0.5-0.5,1-0.5,1.5,0c0.3,0.3,0.7,0.7,1,1c0.4,0.4,0.4,0.4,0.8,0.1c0.1-0.1,0.3-0.2,0.3-0.3
	c0-1,0-2.1,0-3.1H45.8z M51.7,238.1h-5.8v4.9h5.8V238.1z M22.4,242.9h5.8v-4.8h-5.8V242.9z M22.4,285.8v7h5.8c0,0,0-0.1,0-0.1
	c0-1.9,0-3.8,0-5.7c0-0.2-0.1-0.2-0.3-0.3c-1.3-0.2-2.5-0.4-3.8-0.6C23.6,286,23,285.9,22.4,285.8 M51.7,252.8h-5.8v6.8h5.8V252.8z
	 M22.4,259.5h5.8v-6.8h-5.8V259.5z M28.2,276.8c0-0.1,0-0.2,0-0.3c0-2.3,0-4.5,0-6.8c0-0.3-0.1-0.4-0.4-0.4c-1.7,0-3.4,0-5.1,0
	c-0.1,0-0.2,0-0.4,0v6.5C24.3,276.2,26.3,276.5,28.2,276.8 M43.9,252.7H30.2v6.8h13.6V252.7z M18.2,283.1c12.2,2,24.4,4.1,36.6,6.1
	c0.3-1.9,0.6-3.8,1-5.7c-12.2-2.1-24.4-4.1-36.6-6.2C18.9,279.3,18.6,281.2,18.2,283.1 M55.6,261.6H18.5v5.8h37.1V261.6z
	 M55.6,244.9H18.5v5.8h37.1V244.9z M30.2,269.4c0,0.1,0,0.2,0,0.3c0,2.4,0,4.8,0,7.2c0,0.3,0.1,0.3,0.3,0.4
	c5.2,0.9,10.3,1.7,15.5,2.6c3.7,0.6,7.3,1.2,11,1.9c0.8,0.1,1.1,0.5,0.9,1.3c-0.3,2-0.7,4-1,6c-0.1,0.4-0.1,0.9-0.2,1.3
	c-0.1,0.7-0.6,1-1.3,0.9c-0.6-0.1-1.1-0.2-1.8-0.3c0,0.6,0,1.1,0,1.7c0,0.4,0,0.7,0,1.1c0,0.6-0.4,1-1,1c-0.1,0-0.2,0-0.3,0
	c-2.4,0-4.8,0-7.3,0c-0.8,0-1.2-0.4-1.2-1.2c0-1.3,0-2.6,0-3.8v-0.4c-4.6-0.8-9.1-1.5-13.7-2.3v0.4c0,2,0,4,0,6.1
	c0,0.9-0.4,1.2-1.2,1.2c-2.4,0-4.9,0-7.4,0c-0.8,0-1.2-0.4-1.2-1.2c0-2.6,0-5.2,0-7.7c0-0.3-0.1-0.4-0.4-0.5c-1-0.1-2-0.3-3-0.5
	c-0.7-0.1-1-0.6-0.9-1.2c0.4-2.5,0.8-5.1,1.3-7.6c0.1-0.6,0.6-0.9,1.2-0.8c0.6,0.1,1.2,0.2,1.8,0.3v-6.2c-0.1,0-0.2,0-0.3,0
	c-0.8,0-1.6,0-2.5,0c-0.7,0-1.1-0.4-1.1-1.1c0-2.5,0-5.1,0-7.6c0-0.7,0.4-1,1-1.1c0.8,0,1.7,0,2.5,0h0.3v-6.8c-0.5,0-0.9,0-1.3,0
	c-0.5,0-1,0-1.5,0c-0.6,0-1-0.4-1-1c0-1.5,0-3,0-4.5c0-1,0-2.1,0-3.1c0-0.8,0.4-1.1,1.1-1.1c0.9,0,1.8,0,2.8,0v-0.4
	c0-1.7,0-3.5,0-5.2c0-0.9,0.4-1.2,1.2-1.2c2.4,0,4.9,0,7.3,0c0.9,0,1.2,0.4,1.2,1.2c0,1.7,0,3.5,0,5.2c0,0.1,0,0.3,0,0.4h13.7v-0.4
	c0-1.8,0-3.5,0-5.3c0-0.8,0.4-1.2,1.1-1.2c2.5,0,5,0,7.5,0c0.8,0,1.1,0.4,1.1,1.1c0,1.8,0,3.5,0,5.3v0.4c0.1,0,0.2,0,0.3,0
	c0.8,0,1.5,0,2.3,0c1,0,1.3,0.5,1.3,1.3c0,2,0,4,0,6c0,0.4,0,0.9,0,1.3c0,0.8-0.4,1.2-1.1,1.2c-0.9,0-1.8,0-2.7,0v6.8
	c0.7,0,1.4,0,2.2,0c0.2,0,0.5,0,0.7,0c0.6,0,0.9,0.3,1,0.9c0,0.1,0,0.2,0,0.4c0,2.4,0,4.9,0,7.3c0,0.9-0.3,1.2-1.2,1.2
	c-0.9,0-1.8,0-2.7,0c0,0.1,0,0.3,0,0.4c0,1.1,0,2.2,0,3.4c0,0.5-0.2,0.9-0.7,1.1c-0.5,0.2-1.1,0.5-1.6,0.8c-0.6,0.3-1,0.2-1.4-0.2
	c-0.4-0.4-0.7-0.7-1.1-1.1c-0.4,0.4-0.8,0.8-1.1,1.1c-0.5,0.5-0.8,0.5-1.4,0.2c-0.6-0.3-1.1-0.6-1.7-0.8c-0.4-0.2-0.6-0.6-0.6-1.1
	c0-1.1,0-2.3,0-3.4c0-0.1,0-0.2,0-0.4H30.2z"/>
<path class="st5" d="M62.9,277.2c-0.5,0-0.9,0-1.4,0c-0.6,0-1-0.4-1-1c0-0.6,0.4-1,1-1c0.9,0,1.9,0,2.8,0c0.6,0,1,0.4,1,1
	c0,0.6-0.4,1-1,1c0,0,0,0,0,0H62.9z"/>
<path class="st5" d="M62.5,270.4c-0.1,0.2-0.2,0.5-0.4,0.7c-0.6,0.7-1.3,1.3-1.9,1.9c-0.4,0.4-1,0.4-1.4,0c-0.4-0.4-0.4-1,0-1.4
	c0.6-0.6,1.3-1.3,1.9-1.9c0.3-0.3,0.7-0.4,1.1-0.2C62.2,269.6,62.5,269.9,62.5,270.4"/>
<path class="st5" d="M59.6,279.1c0.2,0.1,0.5,0.2,0.6,0.4c0.7,0.6,1.3,1.3,2,1.9c0.4,0.4,0.4,1,0,1.4c-0.4,0.4-1,0.4-1.4,0
	c-0.7-0.7-1.3-1.3-2-2c-0.3-0.3-0.3-0.7-0.2-1C58.8,279.3,59.1,279.1,59.6,279.1"/>
<path class="st5" d="M49.7,247.9c0,0.5-0.4,1-1,1c-0.5,0-1-0.4-1-1c0-0.5,0.4-1,1-1C49.3,246.9,49.7,247.3,49.7,247.9"/>
<path class="st5" d="M26.3,247.8c0,0.6-0.4,1-1,1s-1-0.4-1-1c0-0.5,0.4-1,1-1C25.8,246.9,26.3,247.3,26.3,247.8"/>
<path class="st5" d="M49.7,264.5c0,0.5-0.4,1-1,1c-0.5,0-1-0.4-1-1c0-0.5,0.4-1,1-1C49.3,263.5,49.7,263.9,49.7,264.5"/>
<path class="st5" d="M26.3,264.5c0,0.6-0.4,1-1,1c-0.5,0-1-0.4-1-1c0-0.5,0.4-1,1-1C25.8,263.5,26.3,263.9,26.3,264.5"/>
<path class="st5" d="M49.7,285.2c0,0.5-0.4,1-1,1c-0.5,0-1-0.4-1-1c0-0.5,0.4-1,1-1C49.3,284.3,49.7,284.7,49.7,285.2"/>
<path class="st5" d="M26.3,281.1c0,0.5-0.4,1-1,1c-0.5,0-1-0.4-1-1c0-0.5,0.4-1,1-1C25.9,280.1,26.3,280.5,26.3,281.1"/>
<path class="st5" d="M18.3,154.3c1.7,3.1,4.3,4.6,7.9,4.7c0.4,0,0.8,0,1.2,0c-2.1-1.2-4-2.7-5.7-4.4c-1.6-1.6-3.1-3.5-4.4-5.6
	C17.3,150.9,17.4,152.7,18.3,154.3 M54,159.1c5.2,0.3,8.9-2.3,10-7c0.2-0.9,0.2-1.8,0.2-2.7c0-0.2,0-0.3,0-0.5
	C61.7,153.2,58.3,156.6,54,159.1 M17.3,122.1c2.5-4.3,5.9-7.6,10.1-10.1c-2.8-0.2-5.5,0.6-7.3,2.4C18.2,116.2,17.2,118.9,17.3,122.1
	 M25.8,141.5c-1.5-4-1.5-8,0.1-12l-7.9-4.4c-1.4,3-2.1,6.2-2.3,9.5c-0.2,3.9,0.6,7.7,2.2,11.4L25.8,141.5z M26.6,143.2l-7.9,4.4
	c2.4,4.3,5.6,7.6,9.9,10l4.4-7.9C30.2,148.1,28.1,146,26.6,143.2 M18.8,123.4l7.9,4.4c1.6-2.8,3.7-4.9,6.5-6.4l-4.4-7.9
	C24.4,115.8,21.2,119.1,18.8,123.4 M26.5,135.6c0,3.8,1.5,7.3,4.2,10c2.7,2.7,6.3,4.2,10,4.2h0c3.8,0,7.4-1.5,10.1-4.2
	c2.7-2.7,4.2-6.3,4.1-10.1c0-7.8-6.4-14.2-14.2-14.2c0,0,0,0,0,0c-3.8,0-7.4,1.5-10.1,4.2C28,128.2,26.5,131.8,26.5,135.6
	 M34.8,120.6c2-0.7,4-1.1,5.9-1.1s4,0.4,6,1.1l4.4-7.9c-7-3-13.8-3-20.7,0L34.8,120.6z M62.8,147.6l-7.9-4.4c-1.5,2.8-3.7,5-6.5,6.5
	l4.4,7.9C57.1,155.2,60.4,151.9,62.8,147.6 M55.7,129.4c0.8,2,1.2,4,1.2,6c0,2.1-0.4,4.1-1.1,6l7.9,4.4c3-7.1,3-13.9-0.1-20.9
	L55.7,129.4z M54.9,127.8l7.9-4.4c-2.4-4.2-5.6-7.5-9.9-9.9l-4.4,7.9C51.2,122.9,53.3,125,54.9,127.8 M46.8,150.5
	c-4,1.6-8.1,1.6-12.1,0l-4.4,7.9c2.9,1.3,6,2.1,9.1,2.3c4.1,0.2,8.1-0.6,11.8-2.3L46.8,150.5z M63.3,116.9c-1.7-3.2-4.4-4.8-8-4.9
	c-0.2,0-0.5,0-0.7,0c-0.2,0-0.3,0-0.5,0c4.2,2.4,7.6,5.8,10.1,10C64.2,120.3,64.1,118.6,63.3,116.9 M15.2,126.9
	c0.2-0.6,0.3-1.2,0.3-1.9c0-0.5,0-1,0-1.5c0-1.5,0-3,0.2-4.5c0.3-2.3,1.4-4.5,3.2-6.1c1.8-1.7,4.1-2.7,6.4-2.8
	c1.3-0.1,2.7-0.1,4-0.1c0.6,0,1.3,0,2,0c0.2,0,0.3,0,0.5-0.1c2-0.7,4-1.2,6-1.4c3.5-0.4,6.5-0.2,9.4,0.6c2,0.6,4.1,1.1,6.4,0.9l0,0
	h2h0c2.2,0,4.2,0.6,5.9,1.8c3.1,2.1,4.7,5.1,4.8,8.8c0,0.9,0,1.9,0,2.8c0,0.7,0,1.4,0,2.1c0,0.2,0,0.5,0.1,0.7
	c2.1,6.1,2.1,12.3,0,18.4c-0.1,0.2-0.1,0.4-0.1,0.6c0,0.6,0,1.1,0,1.7c0,1,0,2.1,0,3.1c0,1.1-0.1,2-0.3,2.7c-1.2,4.7-5.3,8-10.2,8
	c-0.9,0-1.9,0-2.8,0c-0.8,0-1.5,0-2.3,0c-0.3,0-0.5,0-0.8,0.1c-3,1-6,1.5-8.9,1.5c-2.3,0-4.5-0.3-6.6-0.9c-2-0.6-4.2-0.8-6.7-0.8
	c-1.2,0-2.2,0-3.2-0.2c-4.6-0.6-8.5-4.8-8.7-9.5c-0.1-1.3-0.1-2.6-0.1-3.9c0-0.7,0-1.3,0-2c0-0.3,0-0.5-0.1-0.6
	c-0.7-2-1.2-4.1-1.4-6.1C13.5,134.6,13.9,130.7,15.2,126.9"/>
<path class="st14" d="M704.9,494.1c1.3-1.1,0.5-255.6-0.7-256.9c-1.1-1.3-3.1-1.5-4.4-0.3c-19.3,16.5-38.8,34.3-57.7,51.6
	c-37.7,34.4-76.7,70-114.9,96.1c-67.1,45.8-121.8,73.6-172,87.5c-38,10.5-76.8,9.3-114.3,8.2c-18.9-0.6-38.5-1.2-57.9-0.3l-172.9,8
	c-1.7,0.1-3,1.5-3,3.2c0.1,1.7,1.4,3,3.1,3c0,0,0.1,0,0.1,0L704.9,494.1z"/>
<text transform="matrix(1 0 0 1 101.6582 141.3232)"><tspan x="0" y="0" class="st9 st1 st10">Respect safety of communities</tspan></text>
<text transform="matrix(1 0 0 1 496.7988 146.8979)"><tspan x="0" y="0" class="st5 st1 st6">9.3</tspan></text>
<text transform="matrix(1 0 0 1 101.6582 264.1309)"><tspan x="0" y="0" class="st9 st1 st10 st7">Take all measures to avoid exposing</tspan> <tspan x="0" y="1.3em" class="st9 st1 st10 st7">communities to harmful conditions</tspan></text>
<text transform="matrix(1 0 0 1 473.8789 277.8174)"><tspan x="0" y="0" class="st5 st1 st6">9.1</tspan></text>
<text transform="matrix(1 0 0 1 8.7183 402.4893)" class="st5 st1 st11">8.8</text>
<text transform="matrix(1 0 0 1 10.9932 420.5889)"><tspan x="0" y="0" class="st12 st1 st13">* average score for impact on communities</tspan></text>
<text transform="matrix(1 0 0 1 0 525.5352)" class="st0 st1 st2">0</text>
<text transform="matrix(1 0 0 1 350.8076 525.5352)" class="st0 st1 st2">5</text>
<text transform="matrix(1 0 0 1 697.8838 525.5352)" class="st0 st1 st2">10</text>
<text transform="matrix(1 0 0 1 725.5996 494.0635)" class="st0 st1 st2">0%</text>
<text transform="matrix(1 0 0 1 725.5996 10.2598)" class="st0 st1 st2">100%</text>
<text transform="matrix(1 0 0 1 291.8232 559.9307)"><tspan x="0" y="0" class="st0 st1 st8">Priority given to impacts on communities</tspan></text>
</svg>
