<svg version="1.1" id="SVG_T3G4" xmlns="http://www.w3.org/2000/svg" xmlns:xlink="http://www.w3.org/1999/xlink" x="0px" y="0px"
	 viewBox="0 0 706.9 573.6" data-viewBox="0 0 706.9 573.6" style="enable-background:new 0 0 706.9 573.6;" xml:space="preserve">
<style type="text/css">
	#SVG_T3G4 .st0{fill:#73818A;}
	#SVG_T3G4 .st1{font-family:'Raleway'; font-weight:600;}
	#SVG_T3G4 .st2{font-size:43.3967px;}
	#SVG_T3G4 .st3{font-family:'Raleway'; font-weight:400;}
	#SVG_T3G4 .st4{font-size:25.3003px;}
	#SVG_T3G4 .st5{fill:#DE3849;}
	#SVG_T3G4 .st7{fill:#7DCDA5;}
	#SVG_T3G4 .st8{fill:#D0D1D1;}
	#SVG_T3G4 .st9{fill:#3D3F41;}
	#SVG_T3G4 .st10{font-size:16px;}
</style>
<g class="anim4-3-1"><rect x="606.5" y="479" class="st0" width="100.4" height="66.9"/></g>
<g class="anim4-2-1"><rect x="491" y="430.6" class="st7" width="100.4" height="115.2"/></g>
<g class="anim4-1-1"><rect x="375.5" y="386" class="st5" width="100.4" height="159.8"/></g>
<g class="anim3-3-1"><rect x="232.3" y="494.3" class="st0" width="100.4" height="52"/></g>
<g class="anim3-2-1"><rect x="115.5" y="453.4" class="st7" width="100.4" height="92.9"/></g>
<g class="anim3-1-1"><rect y="371.7" class="st5" width="100.4" height="174.7"/></g>
<g class="anim2-3-1"><rect x="606.5" y="192.6" class="st0" width="100.4" height="63.2"/></g>
<g class="anim2-2-1"><rect x="493.4" y="181.4" class="st7" width="100.4" height="74.3"/></g>
<g class="anim1-3-1"><rect x="232.2" y="196.3" class="st0" width="100.4" height="59.5"/></g>
<g class="anim1-2-1"><rect x="116.1" y="188.8" class="st7" width="100.4" height="66.9"/></g>
<g class="anim1-1-1"><rect y="51.8" class="st5" width="100.4" height="204.5"/></g>
<g class="anim2-1-1"><rect x="375.5" y="58.7" class="st5" width="100.4" height="197"/></g>
<path class="st8" d="M50.4,216.5c0.4,0.5,0.8,1,1.2,1.3c0.6,0.4,0.7,0.7,0.7,1.4c-0.2,6.8-0.3,13.6-0.5,20.4c0,0.3,0,0.6,0,1.2
	c3.6-2.8,5.7-6.4,6.5-10.7c0.7-4.4-0.2-8.4-2.6-12.2c1.7,0.4,4.5,4.6,5.2,7.9c1.6,7.5-1.1,13.3-7.7,17.7c2.3,0.3,4.3,0.6,6.4,0.9
	c-2.6,1-5.2,1-7.7,0.6c-0.6,0.8-1.1,1.6-1.7,2.4c-0.6-0.8-1.1-1.6-1.7-2.4c-2.5,0.4-5.1,0.4-7.8-0.6c2.2-0.3,4.2-0.6,6.2-0.9
	c-11.1-7-9.1-21-2.1-25.9c-3.1,5-3.8,10.1-1.9,15.5c1.1,3,3.4,6.1,5.5,7.4c0-2,0-4,0-6c-0.1-5.1-0.1-10.1-0.3-15.2
	c0-0.8,0.2-1.3,0.9-1.7c0.4-0.3,0.7-0.8,1.1-1.2H50.4z"/>
<path class="st8" d="M43,217.5c-7.6,7.1-8.8,15-3.4,23.9c-3.6-1.5-7.6-6.9-6.5-13.7C34.1,222.2,39,218,43,217.5"/>
<path class="st8" d="M57.4,217.5c3.3,0.3,8.6,4,9.8,10.4c1,5.2-2.1,11.8-6.5,13.6C66.1,232.6,65,224.6,57.4,217.5"/>
<path class="st8" d="M50.4,216.5H50c-1.4,0.8-2.5,0.8-3.5,0c-0.9-0.8-1.1-1.7-0.8-2.8c0.6,0.5,1.2,1.3,2,1.6c1,0.4,1.8-0.2,2.4-1
	c1.9,1.8,3.2,1.5,4.4-0.7c0.5,1.1,0.4,2-0.4,2.8c-0.8,0.8-2,1.1-3,0.6C50.9,216.8,50.7,216.6,50.4,216.5"/>
<path class="st8" d="M50.4,505.8c0.4,0.5,0.8,1,1.2,1.3c0.6,0.4,0.7,0.7,0.7,1.4c-0.2,6.8-0.3,13.6-0.5,20.4c0,0.3,0,0.6,0,1.2
	c3.6-2.8,5.7-6.4,6.5-10.7c0.7-4.4-0.2-8.4-2.6-12.2c1.7,0.4,4.5,4.6,5.2,7.9c1.6,7.5-1.1,13.3-7.7,17.7c2.3,0.3,4.3,0.6,6.4,0.9
	c-2.6,1-5.2,1-7.7,0.6c-0.6,0.8-1.1,1.6-1.7,2.4c-0.6-0.8-1.1-1.6-1.7-2.4c-2.5,0.4-5.1,0.4-7.8-0.6c2.2-0.3,4.2-0.6,6.2-0.9
	c-11.1-7-9.1-21-2.1-25.9c-3.1,5-3.8,10.1-1.9,15.5c1.1,3,3.4,6.1,5.5,7.4c0-2,0-4,0-6c-0.1-5.1-0.1-10.1-0.3-15.2
	c0-0.8,0.2-1.3,0.9-1.7c0.4-0.3,0.7-0.8,1.1-1.2H50.4z"/>
<path class="st8" d="M43,506.8c-7.6,7.1-8.8,15-3.4,23.9c-3.6-1.5-7.6-6.9-6.5-13.7C34.1,511.5,39,507.3,43,506.8"/>
<path class="st8" d="M57.4,506.9c3.3,0.3,8.6,4,9.8,10.4c1,5.2-2.1,11.8-6.5,13.6C66.1,521.9,65,513.9,57.4,506.9"/>
<path class="st8" d="M50.4,505.8H50c-1.4,0.8-2.5,0.8-3.5,0c-0.9-0.8-1.1-1.7-0.8-2.8c0.6,0.5,1.2,1.3,2,1.6c1,0.4,1.8-0.2,2.4-1
	c1.9,1.8,3.2,1.5,4.4-0.7c0.5,1.1,0.4,2-0.4,2.8c-0.8,0.8-2,1.1-3,0.6C50.9,506.1,50.7,506,50.4,505.8"/>
<path class="st8" d="M427.9,216.5c0.4,0.5,0.8,1,1.2,1.3c0.6,0.4,0.7,0.7,0.7,1.4c-0.2,6.8-0.3,13.6-0.5,20.4c0,0.3,0,0.6,0,1.2
	c3.6-2.8,5.7-6.4,6.5-10.7c0.7-4.4-0.2-8.4-2.6-12.2c1.7,0.4,4.5,4.6,5.2,7.9c1.6,7.5-1.1,13.3-7.7,17.7c2.3,0.3,4.3,0.6,6.4,0.9
	c-2.6,1-5.2,1-7.7,0.6c-0.6,0.8-1.1,1.6-1.7,2.4c-0.6-0.8-1.1-1.6-1.7-2.4c-2.5,0.4-5.1,0.4-7.8-0.6c2.2-0.3,4.2-0.6,6.2-0.9
	c-11.1-7-9.1-21-2.1-25.9c-3.1,5-3.8,10.1-1.9,15.5c1.1,3,3.4,6.1,5.5,7.4c0-2,0-4,0-6c-0.1-5.1-0.1-10.1-0.3-15.2
	c0-0.8,0.2-1.3,0.9-1.7c0.4-0.3,0.7-0.8,1.1-1.2H427.9z"/>
<path class="st8" d="M420.4,217.5c-7.6,7.1-8.8,15-3.4,23.9c-3.6-1.5-7.6-6.9-6.5-13.7C411.6,222.2,416.5,218,420.4,217.5"/>
<path class="st8" d="M434.9,217.5c3.3,0.3,8.6,4,9.8,10.4c1,5.2-2.1,11.8-6.5,13.6C443.6,232.6,442.5,224.6,434.9,217.5"/>
<path class="st8" d="M427.9,216.5h-0.4c-1.4,0.8-2.5,0.8-3.5,0c-0.9-0.8-1.1-1.7-0.8-2.8c0.6,0.5,1.2,1.3,2,1.6c1,0.4,1.8-0.2,2.4-1
	c1.9,1.8,3.2,1.5,4.4-0.7c0.5,1.1,0.4,2-0.4,2.8c-0.8,0.8-2,1.1-3,0.6C428.4,216.8,428.1,216.6,427.9,216.5"/>
<path class="st8" d="M427.9,505.8c0.4,0.5,0.8,1,1.2,1.3c0.6,0.4,0.7,0.7,0.7,1.4c-0.2,6.8-0.3,13.6-0.5,20.4c0,0.3,0,0.6,0,1.2
	c3.6-2.8,5.7-6.4,6.5-10.7c0.7-4.4-0.2-8.4-2.6-12.2c1.7,0.4,4.5,4.6,5.2,7.9c1.6,7.5-1.1,13.3-7.7,17.7c2.3,0.3,4.3,0.6,6.4,0.9
	c-2.6,1-5.2,1-7.7,0.6c-0.6,0.8-1.1,1.6-1.7,2.4c-0.6-0.8-1.1-1.6-1.7-2.4c-2.5,0.4-5.1,0.4-7.8-0.6c2.2-0.3,4.2-0.6,6.2-0.9
	c-11.1-7-9.1-21-2.1-25.9c-3.1,5-3.8,10.1-1.9,15.5c1.1,3,3.4,6.1,5.5,7.4c0-2,0-4,0-6c-0.1-5.1-0.1-10.1-0.3-15.2
	c0-0.8,0.2-1.3,0.9-1.7c0.4-0.3,0.7-0.8,1.1-1.2H427.9z"/>
<path class="st8" d="M420.4,506.8c-7.6,7.1-8.8,15-3.4,23.9c-3.6-1.5-7.6-6.9-6.5-13.7C411.6,511.5,416.5,507.3,420.4,506.8"/>
<path class="st8" d="M434.9,506.9c3.3,0.3,8.6,4,9.8,10.4c1,5.2-2.1,11.8-6.5,13.6C443.6,521.9,442.5,513.9,434.9,506.9"/>
<path class="st8" d="M427.9,505.8h-0.4c-1.4,0.8-2.5,0.8-3.5,0c-0.9-0.8-1.1-1.7-0.8-2.8c0.6,0.5,1.2,1.3,2,1.6c1,0.4,1.8-0.2,2.4-1
	c1.9,1.8,3.2,1.5,4.4-0.7c0.5,1.1,0.4,2-0.4,2.8c-0.8,0.8-2,1.1-3,0.6C428.4,506.1,428.1,506,427.9,505.8"/>
<path class="st8" d="M282.4,216.5c0.4,0.5,0.8,1,1.3,1.3c0.5,0.4,0.7,0.7,0.7,1.4c-0.2,6.8-0.3,13.6-0.5,20.4c0,0.3,0,0.6,0,1.2
	c3.6-2.8,5.7-6.4,6.5-10.7c0.7-4.4-0.2-8.4-2.6-12.2c1.7,0.4,4.5,4.6,5.2,7.9c1.6,7.5-1.1,13.3-7.7,17.7c2.3,0.3,4.3,0.6,6.4,0.9
	c-2.6,1-5.2,1-7.7,0.6c-0.6,0.8-1.1,1.6-1.7,2.4c-0.6-0.8-1.1-1.6-1.7-2.4c-2.5,0.4-5.1,0.4-7.8-0.6c2.2-0.3,4.2-0.6,6.2-0.9
	c-11.1-7-9.1-21-2.1-25.9c-3.1,5-3.8,10.1-1.9,15.5c1.1,3,3.4,6.1,5.5,7.4c0-2,0-4,0-6c-0.1-5.1-0.1-10.1-0.3-15.2
	c0-0.8,0.2-1.3,0.9-1.7c0.4-0.3,0.7-0.8,1.1-1.2H282.4z"/>
<path class="st8" d="M274.9,217.5c-7.6,7.1-8.8,15-3.4,23.9c-3.6-1.5-7.6-6.9-6.5-13.7C266.1,222.2,271,218,274.9,217.5"/>
<path class="st8" d="M289.4,217.5c3.3,0.3,8.6,4,9.8,10.4c1,5.2-2.1,11.8-6.5,13.6C298.1,232.6,297,224.6,289.4,217.5"/>
<path class="st8" d="M282.4,216.5H282c-1.4,0.8-2.5,0.8-3.5,0c-0.9-0.8-1.1-1.7-0.8-2.8c0.6,0.5,1.2,1.3,2,1.6c1,0.4,1.8-0.2,2.4-1
	c1.9,1.8,3.2,1.5,4.4-0.7c0.5,1.1,0.4,2-0.4,2.8c-0.8,0.8-2,1.1-3,0.6C282.8,216.8,282.6,216.6,282.4,216.5"/>
<path class="st8" d="M282.4,505.8c0.4,0.5,0.8,1,1.3,1.3c0.5,0.4,0.7,0.7,0.7,1.4c-0.2,6.8-0.3,13.6-0.5,20.4c0,0.3,0,0.6,0,1.2
	c3.6-2.8,5.7-6.4,6.5-10.7c0.7-4.4-0.2-8.4-2.6-12.2c1.7,0.4,4.5,4.6,5.2,7.9c1.6,7.5-1.1,13.3-7.7,17.7c2.3,0.3,4.3,0.6,6.4,0.9
	c-2.6,1-5.2,1-7.7,0.6c-0.6,0.8-1.1,1.6-1.7,2.4c-0.6-0.8-1.1-1.6-1.7-2.4c-2.5,0.4-5.1,0.4-7.8-0.6c2.2-0.3,4.2-0.6,6.2-0.9
	c-11.1-7-9.1-21-2.1-25.9c-3.1,5-3.8,10.1-1.9,15.5c1.1,3,3.4,6.1,5.5,7.4c0-2,0-4,0-6c-0.1-5.1-0.1-10.1-0.3-15.2
	c0-0.8,0.2-1.3,0.9-1.7c0.4-0.3,0.7-0.8,1.1-1.2H282.4z"/>
<path class="st8" d="M274.9,506.8c-7.6,7.1-8.8,15-3.4,23.9c-3.6-1.5-7.6-6.9-6.5-13.7C266.1,511.5,271,507.3,274.9,506.8"/>
<path class="st8" d="M289.4,506.9c3.3,0.3,8.6,4,9.8,10.4c1,5.2-2.1,11.8-6.5,13.6C298.1,521.9,297,513.9,289.4,506.9"/>
<path class="st8" d="M282.4,505.8H282c-1.4,0.8-2.5,0.8-3.5,0c-0.9-0.8-1.1-1.7-0.8-2.8c0.6,0.5,1.2,1.3,2,1.6c1,0.4,1.8-0.2,2.4-1
	c1.9,1.8,3.2,1.5,4.4-0.7c0.5,1.1,0.4,2-0.4,2.8c-0.8,0.8-2,1.1-3,0.6C282.8,506.1,282.6,506,282.4,505.8"/>
<path class="st8" d="M659.8,216.5c0.4,0.5,0.8,1,1.3,1.3c0.5,0.4,0.7,0.7,0.7,1.4c-0.2,6.8-0.3,13.6-0.5,20.4c0,0.3,0,0.6,0,1.2
	c3.6-2.8,5.7-6.4,6.5-10.7c0.7-4.4-0.2-8.4-2.6-12.2c1.7,0.4,4.5,4.6,5.2,7.9c1.6,7.5-1.1,13.3-7.7,17.7c2.3,0.3,4.3,0.6,6.4,0.9
	c-2.6,1-5.2,1-7.7,0.6c-0.6,0.8-1.1,1.6-1.7,2.4c-0.6-0.8-1.1-1.6-1.7-2.4c-2.5,0.4-5.1,0.4-7.8-0.6c2.2-0.3,4.2-0.6,6.2-0.9
	c-11.1-7-9.1-21-2.1-25.9c-3.1,5-3.8,10.1-1.9,15.5c1.1,3,3.4,6.1,5.5,7.4c0-2,0-4,0-6c-0.1-5.1-0.1-10.1-0.3-15.2
	c0-0.8,0.2-1.3,0.9-1.7c0.4-0.3,0.7-0.8,1.1-1.2H659.8z"/>
<path class="st8" d="M652.4,217.5c-7.6,7.1-8.8,15-3.4,23.9c-3.6-1.5-7.6-6.9-6.5-13.7C643.5,222.2,648.4,218,652.4,217.5"/>
<path class="st8" d="M666.9,217.5c3.3,0.3,8.6,4,9.8,10.4c1,5.2-2.1,11.8-6.5,13.6C675.6,232.6,674.5,224.6,666.9,217.5"/>
<path class="st8" d="M659.8,216.5h-0.4c-1.4,0.8-2.5,0.8-3.5,0c-0.9-0.8-1.1-1.7-0.8-2.8c0.6,0.5,1.2,1.3,2,1.6c1,0.4,1.8-0.2,2.4-1
	c1.9,1.8,3.2,1.5,4.4-0.7c0.5,1.1,0.4,2-0.4,2.8c-0.8,0.8-2,1.1-3,0.6C660.3,216.8,660.1,216.6,659.8,216.5"/>
<path class="st8" d="M659.8,505.8c0.4,0.5,0.8,1,1.3,1.3c0.5,0.4,0.7,0.7,0.7,1.4c-0.2,6.8-0.3,13.6-0.5,20.4c0,0.3,0,0.6,0,1.2
	c3.6-2.8,5.7-6.4,6.5-10.7c0.7-4.4-0.2-8.4-2.6-12.2c1.7,0.4,4.5,4.6,5.2,7.9c1.6,7.5-1.1,13.3-7.7,17.7c2.3,0.3,4.3,0.6,6.4,0.9
	c-2.6,1-5.2,1-7.7,0.6c-0.6,0.8-1.1,1.6-1.7,2.4c-0.6-0.8-1.1-1.6-1.7-2.4c-2.5,0.4-5.1,0.4-7.8-0.6c2.2-0.3,4.2-0.6,6.2-0.9
	c-11.1-7-9.1-21-2.1-25.9c-3.1,5-3.8,10.1-1.9,15.5c1.1,3,3.4,6.1,5.5,7.4c0-2,0-4,0-6c-0.1-5.1-0.1-10.1-0.3-15.2
	c0-0.8,0.2-1.3,0.9-1.7c0.4-0.3,0.7-0.8,1.1-1.2H659.8z"/>
<path class="st8" d="M652.4,506.8c-7.6,7.1-8.8,15-3.4,23.9c-3.6-1.5-7.6-6.9-6.5-13.7C643.5,511.5,648.4,507.3,652.4,506.8"/>
<path class="st8" d="M666.9,506.9c3.3,0.3,8.6,4,9.8,10.4c1,5.2-2.1,11.8-6.5,13.6C675.6,521.9,674.5,513.9,666.9,506.9"/>
<path class="st8" d="M659.8,505.8h-0.4c-1.4,0.8-2.5,0.8-3.5,0c-0.9-0.8-1.1-1.7-0.8-2.8c0.6,0.5,1.2,1.3,2,1.6c1,0.4,1.8-0.2,2.4-1
	c1.9,1.8,3.2,1.5,4.4-0.7c0.5,1.1,0.4,2-0.4,2.8c-0.8,0.8-2,1.1-3,0.6C660.3,506.1,660.1,506,659.8,505.8"/>
<path class="st8" d="M183.5,228.6c0.1,0.2,0.1,0.3,0.2,0.5c0.4,1.3,0.4,1.3,1.9,1.3c0.1,0,0.2,0,0.4,0.1c-0.4,0.3-0.7,0.5-1.1,0.8
	c-0.3,0.2-0.4,0.4-0.2,0.7c0.2,0.4,0.3,0.8,0.4,1.4c-0.5-0.4-0.8-0.6-1.2-0.9c-0.3-0.2-0.5-0.2-0.7,0c-0.3,0.3-0.7,0.5-1.2,0.9
	c0.2-0.6,0.3-1,0.4-1.4c0.1-0.3,0.1-0.5-0.2-0.7c-0.4-0.2-0.7-0.5-1-0.9c0.3,0,0.7,0,1,0c0.6,0.1,0.9-0.2,1-0.7
	C183.2,229.3,183.4,229,183.5,228.6"/>
<path class="st8" d="M182.8,241.5c-0.2-0.1-0.3-0.2-0.4-0.2c-1.1-0.7-1.1-0.7-2.1,0c-0.1,0.1-0.2,0.1-0.4,0.3
	c0.2-0.5,0.3-0.9,0.4-1.3c0.1-0.4,0.1-0.6-0.2-0.8c-0.4-0.2-0.7-0.5-1.2-0.9c0.6,0,1,0,1.5,0c0.4,0,0.6-0.1,0.7-0.5
	c0.1-0.4,0.2-0.8,0.4-1.3c0.2,0.6,0.3,1,0.4,1.4c0.1,0.3,0.3,0.5,0.6,0.5c0.4,0,0.8,0,1.3,0.1c-0.3,0.2-0.6,0.5-0.9,0.7
	c-0.4,0.2-0.5,0.5-0.3,1C182.6,240.7,182.7,241,182.8,241.5"/>
<path class="st8" d="M167.3,212.3c0,1.6,0.8,2.1,2.3,1.7c0,0.1,0,0.1,0,0.2c-0.3,0.2-0.5,0.4-0.8,0.6c-0.5,0.3-0.6,0.6-0.4,1.1
	c0.1,0.3,0.2,0.7,0.4,1.1c-0.5-0.3-0.8-0.6-1.1-0.8c-0.3-0.3-0.5-0.3-0.9,0c-0.3,0.3-0.7,0.5-1,0.7c0-0.1-0.1-0.1-0.1-0.1
	c0.1-0.5,0.5-1.1,0.4-1.6c-0.1-0.4-0.8-0.7-1.4-1.2c0.6,0,1,0,1.4,0c0.4,0,0.6-0.1,0.7-0.5c0.1-0.4,0.2-0.8,0.4-1.2
	C167.2,212.4,167.3,212.3,167.3,212.3"/>
<path class="st8" d="M150.8,238.6c0.4,0,0.7,0,1.1,0c0.5,0,0.7-0.1,0.8-0.6c0.1-0.4,0.2-0.7,0.4-1.2c0.2,0.5,0.3,0.9,0.4,1.3
	c0.1,0.4,0.3,0.5,0.7,0.5c0.4,0,0.8,0,1.3,0c-0.5,0.4-1.2,0.7-1.3,1.2c-0.1,0.4,0.2,1,0.4,1.7c-0.5-0.4-1-0.7-1.5-1
	c-0.5,0.3-0.9,0.7-1.4,1l-0.2,0c0.8-1.3,0.6-2.2-0.9-2.7C150.6,238.7,150.7,238.7,150.8,238.6"/>
<path class="st8" d="M153.1,224.1c-0.5,0.4-1,0.7-1.4,1c0-0.1-0.1-0.1-0.1-0.1c0.1-0.5,0.5-1.1,0.4-1.6c-0.1-0.4-0.8-0.7-1.2-1
	c0.1-0.1,0.1-0.1,0.1-0.1c1.3,0.3,2.1-0.3,2.1-1.8c0.1,0,0.1,0.1,0.2,0.1c0.1,0.4,0.3,0.7,0.4,1.1c0.1,0.4,0.3,0.6,0.8,0.6
	c0.4,0,0.7,0,1.2,0.1c-0.3,0.2-0.7,0.5-1,0.7c-0.3,0.2-0.4,0.4-0.2,0.7c0.2,0.4,0.3,0.8,0.4,1.4C154,224.8,153.6,224.4,153.1,224.1"
	/>
<path class="st8" d="M167.2,245c0.3,0.6,0.3,1.4,0.7,1.6c0.4,0.3,1.1,0.1,1.8,0.1c-0.4,0.3-0.8,0.6-1.1,0.8
	c-0.3,0.2-0.4,0.4-0.2,0.7c0.2,0.4,0.3,0.8,0.4,1.4c-0.5-0.3-0.8-0.6-1.1-0.8c-0.3-0.3-0.6-0.3-0.9,0c-0.3,0.3-0.6,0.5-1,0.8
	c0-0.2,0.1-0.3,0.1-0.4c0.4-1.3,0.4-1.3-0.7-2.1c-0.1-0.1-0.2-0.1-0.4-0.3c0.5,0,0.9,0,1.3,0c0.5,0,0.7-0.1,0.8-0.6
	C166.9,245.9,167,245.5,167.2,245"/>
<path class="st8" d="M173,216.1c1.5,0.6,2.1-0.3,2.3-1.5c0,0,0,0,0.1-0.1c0.1,0.4,0.3,0.8,0.4,1.1c0.1,0.4,0.3,0.6,0.8,0.6
	c0.4,0,0.7,0,1.1,0.1c-0.3,0.3-0.7,0.5-1,0.8c-0.1,0.1-0.2,0.4-0.2,0.7c0.1,0.4,0.2,0.8,0.4,1.2c-0.1,0-0.1,0-0.1,0
	c-0.9-1-1.9-1.1-2.8,0.2c0-0.1,0-0.1-0.1-0.2c0.1-0.4,0.2-0.8,0.4-1.2c0.2-0.4,0.1-0.6-0.3-0.8c-0.3-0.2-0.6-0.4-0.9-0.7
	C173,216.3,173,216.2,173,216.1"/>
<path class="st8" d="M179.9,225.1c0-0.1,0-0.1,0-0.1c0.5-1.1,0.6-2.1-1.1-2.5c0.1-0.1,0.1-0.1,0.2-0.2c0.2,0,0.4,0,0.6,0
	c1.3,0,1,0.2,1.4-1.1c0.1-0.2,0.1-0.4,0.3-0.7c0.2,0.5,0.3,0.9,0.4,1.3c0.1,0.4,0.3,0.6,0.7,0.5c0.4,0,0.8,0,1.2,0.1
	c-0.3,0.2-0.6,0.5-1,0.7c-0.3,0.2-0.4,0.4-0.3,0.8c0.2,0.4,0.3,0.8,0.4,1.4c-0.5-0.4-0.8-0.6-1.2-0.9c-0.3-0.2-0.5-0.2-0.8,0
	C180.7,224.6,180.3,224.8,179.9,225.1"/>
<path class="st8" d="M153.4,230.4c-0.5,0.3-0.8,0.6-1.1,0.8c-0.4,0.2-0.5,0.5-0.3,0.9c0.1,0.3,0.2,0.7,0.4,1.2
	c-0.4-0.3-0.7-0.5-1-0.7c-0.4-0.4-0.7-0.3-1.1,0c-0.3,0.2-0.6,0.4-1,0.7c0.1-0.4,0.2-0.6,0.3-0.9c0.3-1.1,0.5-0.8-0.5-1.5
	c-0.2-0.1-0.4-0.3-0.7-0.5c0.6,0,1,0,1.4,0c0.4,0,0.6-0.1,0.7-0.5c0.1-0.4,0.2-0.8,0.4-1.4c0.2,0.5,0.3,0.9,0.4,1.3
	c0.1,0.4,0.3,0.6,0.7,0.6C152.4,230.4,152.8,230.4,153.4,230.4"/>
<path class="st8" d="M161.4,216.4c0,0-0.1,0.1-0.1,0.1c-0.4,0.3-1,0.5-1.1,0.9c-0.1,0.4,0.2,0.9,0.4,1.4c0,0.1,0,0.1,0,0.3
	c-0.5-0.4-1-0.7-1.5-1.1c-0.5,0.3-0.9,0.7-1.5,1.1c0.1-0.4,0.2-0.6,0.2-0.8c0.4-1.2,0.5-0.8-0.5-1.6c-0.2-0.1-0.3-0.2-0.5-0.5
	c0.2,0,0.4,0,0.6,0c1.3,0,1,0.2,1.4-1.1c0.1-0.2,0.1-0.4,0.3-0.7c0.2,0.5,0.3,0.9,0.4,1.3c0.1,0.3,0.3,0.5,0.6,0.5
	c0.4,0,0.8,0,1.2,0C161.3,216.3,161.3,216.3,161.4,216.4"/>
<path class="st8" d="M175.4,242.8c0.1,0.3,0.1,0.4,0.2,0.6c0.4,1.3,0.4,1.3,1.7,1.3c0.1,0,0.3,0,0.6,0c-0.5,0.4-0.8,0.6-1.2,0.8
	c-0.3,0.2-0.4,0.4-0.2,0.7c0.2,0.4,0.3,0.8,0.4,1.3c-0.6-0.4-1.1-0.9-1.5-0.9c-0.5,0-0.9,0.6-1.5,0.9c0.1-0.3,0.2-0.5,0.2-0.8
	c0.3-1,0.3-1-0.5-1.6c-0.2-0.1-0.3-0.2-0.7-0.5c0.4,0,0.6,0,0.8,0c1.3,0,1,0.2,1.5-1.1C175.2,243.3,175.2,243.2,175.4,242.8"/>
<path class="st8" d="M161.5,244.6c-0.6,0.4-1.2,0.7-1.4,1.2c-0.2,0.4,0.2,1,0.4,1.7c-0.4-0.3-0.7-0.4-1-0.7c-0.3-0.3-0.6-0.3-1,0
	c-0.3,0.2-0.6,0.4-1,0.6c0.1-0.4,0.2-0.8,0.3-1.1c0.1-0.3,0.1-0.5-0.2-0.7c-0.4-0.2-0.7-0.5-1-0.9c0.4,0,0.7,0,1.1,0
	c0.5,0,0.7-0.1,0.8-0.6c0.1-0.4,0.2-0.7,0.4-1.2c0.2,0.5,0.3,0.8,0.4,1.2c0.1,0.5,0.4,0.7,0.9,0.6
	C160.7,244.6,161,244.6,161.5,244.6"/>
<path class="st8" d="M183.5,517.9c0.1,0.2,0.1,0.3,0.2,0.5c0.4,1.3,0.4,1.3,1.9,1.3c0.1,0,0.2,0,0.4,0.1c-0.4,0.3-0.7,0.5-1.1,0.8
	c-0.3,0.2-0.4,0.4-0.2,0.7c0.2,0.4,0.3,0.8,0.4,1.4c-0.5-0.4-0.8-0.6-1.2-0.9c-0.3-0.2-0.5-0.2-0.7,0c-0.3,0.3-0.7,0.5-1.2,0.9
	c0.2-0.6,0.3-1,0.4-1.4c0.1-0.3,0.1-0.5-0.2-0.7c-0.4-0.2-0.7-0.5-1-0.9c0.3,0,0.7,0,1,0c0.6,0.1,0.9-0.2,1-0.7
	C183.2,518.7,183.4,518.4,183.5,517.9"/>
<path class="st8" d="M182.8,530.8c-0.2-0.1-0.3-0.2-0.4-0.2c-1.1-0.7-1.1-0.7-2.1,0c-0.1,0.1-0.2,0.1-0.4,0.3
	c0.2-0.5,0.3-0.9,0.4-1.3c0.1-0.4,0.1-0.6-0.2-0.8c-0.4-0.2-0.7-0.5-1.2-0.9c0.6,0,1,0,1.5,0c0.4,0,0.6-0.1,0.7-0.5
	c0.1-0.4,0.2-0.8,0.4-1.3c0.2,0.6,0.3,1,0.4,1.4c0.1,0.3,0.3,0.5,0.6,0.5c0.4,0,0.8,0,1.3,0.1c-0.3,0.2-0.6,0.5-0.9,0.7
	c-0.4,0.2-0.5,0.5-0.3,1C182.6,530,182.7,530.4,182.8,530.8"/>
<path class="st8" d="M167.3,501.6c0,1.6,0.8,2.1,2.3,1.7c0,0.1,0,0.1,0,0.2c-0.3,0.2-0.5,0.4-0.8,0.6c-0.5,0.3-0.6,0.6-0.4,1.1
	c0.1,0.3,0.2,0.7,0.4,1.1c-0.5-0.3-0.8-0.5-1.1-0.8c-0.3-0.3-0.5-0.3-0.9,0c-0.3,0.3-0.7,0.5-1,0.7c0-0.1-0.1-0.1-0.1-0.1
	c0.1-0.5,0.5-1.1,0.4-1.6c-0.1-0.4-0.8-0.7-1.4-1.2c0.6,0,1,0,1.4,0c0.4,0,0.6-0.1,0.7-0.5c0.1-0.4,0.2-0.8,0.4-1.2
	C167.2,501.7,167.3,501.7,167.3,501.6"/>
<path class="st8" d="M150.8,527.9c0.4,0,0.7,0,1.1,0c0.5,0,0.7-0.1,0.8-0.6c0.1-0.4,0.2-0.7,0.4-1.2c0.2,0.5,0.3,0.9,0.4,1.3
	c0.1,0.4,0.3,0.5,0.7,0.5c0.4,0,0.8,0,1.3,0c-0.5,0.4-1.2,0.7-1.3,1.2c-0.1,0.4,0.2,1,0.4,1.7c-0.5-0.4-1-0.7-1.5-1
	c-0.5,0.3-0.9,0.7-1.4,1l-0.2,0c0.8-1.3,0.6-2.2-0.9-2.7C150.6,528,150.7,528,150.8,527.9"/>
<path class="st8" d="M153.1,513.4c-0.5,0.4-1,0.7-1.4,1c0-0.1-0.1-0.1-0.1-0.1c0.1-0.5,0.5-1.1,0.4-1.6c-0.1-0.4-0.8-0.7-1.2-1
	c0.1-0.1,0.1-0.1,0.1-0.1c1.3,0.3,2.1-0.3,2.1-1.8c0.1,0,0.1,0.1,0.2,0.1c0.1,0.4,0.3,0.7,0.4,1.1c0.1,0.4,0.3,0.6,0.8,0.6
	c0.4,0,0.7,0,1.2,0.1c-0.3,0.2-0.7,0.5-1,0.7c-0.3,0.2-0.4,0.4-0.2,0.7c0.2,0.4,0.3,0.8,0.4,1.4C154,514.1,153.6,513.8,153.1,513.4"
	/>
<path class="st8" d="M167.2,534.4c0.3,0.6,0.3,1.4,0.7,1.6c0.4,0.3,1.1,0.1,1.8,0.1c-0.4,0.3-0.8,0.6-1.1,0.8
	c-0.3,0.2-0.4,0.4-0.2,0.7c0.2,0.4,0.3,0.8,0.4,1.4c-0.5-0.3-0.8-0.6-1.1-0.8c-0.3-0.3-0.6-0.3-0.9,0c-0.3,0.3-0.6,0.5-1,0.8
	c0-0.2,0.1-0.3,0.1-0.4c0.4-1.3,0.4-1.3-0.7-2.1c-0.1-0.1-0.2-0.1-0.4-0.3c0.5,0,0.9,0,1.3,0c0.5,0,0.7-0.1,0.8-0.6
	C166.9,535.2,167,534.9,167.2,534.4"/>
<path class="st8" d="M173,505.5c1.5,0.6,2.1-0.3,2.3-1.5c0,0,0,0,0.1-0.1c0.1,0.4,0.3,0.8,0.4,1.1c0.1,0.4,0.3,0.6,0.8,0.6
	c0.4,0,0.7,0,1.1,0.1c-0.3,0.3-0.7,0.5-1,0.8c-0.1,0.1-0.2,0.4-0.2,0.7c0.1,0.4,0.2,0.8,0.4,1.2c-0.1,0-0.1,0-0.1,0
	c-0.9-1-1.9-1.1-2.8,0.2c0-0.1,0-0.1-0.1-0.2c0.1-0.4,0.2-0.8,0.4-1.2c0.2-0.4,0.1-0.6-0.3-0.8c-0.3-0.2-0.6-0.4-0.9-0.7
	C173,505.6,173,505.6,173,505.5"/>
<path class="st8" d="M179.9,514.4c0-0.1,0-0.1,0-0.1c0.5-1.1,0.6-2.1-1.1-2.5c0.1-0.1,0.1-0.1,0.2-0.2c0.2,0,0.4,0,0.6,0
	c1.3,0,1,0.2,1.4-1.1c0.1-0.2,0.1-0.4,0.3-0.7c0.2,0.5,0.3,0.9,0.4,1.3c0.1,0.4,0.3,0.6,0.7,0.5c0.4,0,0.8,0,1.2,0.1
	c-0.3,0.2-0.6,0.5-1,0.7c-0.3,0.2-0.4,0.4-0.3,0.8c0.2,0.4,0.3,0.8,0.4,1.4c-0.5-0.4-0.8-0.6-1.2-0.9c-0.3-0.2-0.5-0.2-0.8,0
	C180.7,513.9,180.3,514.1,179.9,514.4"/>
<path class="st8" d="M153.4,519.8c-0.5,0.3-0.8,0.6-1.1,0.8c-0.4,0.2-0.5,0.5-0.3,0.9c0.1,0.3,0.2,0.7,0.4,1.2
	c-0.4-0.3-0.7-0.5-1-0.7c-0.4-0.4-0.7-0.3-1.1,0c-0.3,0.2-0.6,0.4-1,0.7c0.1-0.4,0.2-0.6,0.3-0.9c0.3-1.1,0.5-0.8-0.5-1.5
	c-0.2-0.1-0.4-0.3-0.7-0.5c0.6,0,1,0,1.4,0c0.4,0,0.6-0.1,0.7-0.5c0.1-0.4,0.2-0.8,0.4-1.4c0.2,0.5,0.3,0.9,0.4,1.3
	c0.1,0.4,0.3,0.6,0.7,0.6C152.4,519.7,152.8,519.8,153.4,519.8"/>
<path class="st8" d="M161.4,505.7c0,0-0.1,0.1-0.1,0.1c-0.4,0.3-1,0.5-1.1,0.9c-0.1,0.4,0.2,0.9,0.4,1.4c0,0.1,0,0.1,0,0.3
	c-0.5-0.4-1-0.7-1.5-1.1c-0.5,0.3-0.9,0.7-1.5,1.1c0.1-0.4,0.2-0.6,0.2-0.8c0.4-1.2,0.5-0.8-0.5-1.6c-0.2-0.1-0.3-0.2-0.5-0.5
	c0.2,0,0.4,0,0.6,0c1.3,0,1,0.2,1.4-1.1c0.1-0.2,0.1-0.4,0.3-0.7c0.2,0.5,0.3,0.9,0.4,1.3c0.1,0.3,0.3,0.5,0.6,0.5
	c0.4,0,0.8,0,1.2,0C161.3,505.6,161.3,505.7,161.4,505.7"/>
<path class="st8" d="M175.4,532.1c0.1,0.3,0.1,0.4,0.2,0.6c0.4,1.3,0.4,1.3,1.7,1.3c0.1,0,0.3,0,0.6,0c-0.5,0.4-0.8,0.6-1.2,0.8
	c-0.3,0.2-0.4,0.4-0.2,0.7c0.2,0.4,0.3,0.8,0.4,1.3c-0.6-0.4-1.1-0.9-1.5-0.9c-0.5,0-0.9,0.6-1.5,0.9c0.1-0.3,0.2-0.6,0.2-0.8
	c0.3-1,0.3-1-0.5-1.6c-0.2-0.1-0.3-0.2-0.7-0.5c0.4,0,0.6,0,0.8,0c1.3,0,1,0.2,1.5-1.1C175.2,532.7,175.2,532.5,175.4,532.1"/>
<path class="st8" d="M161.5,534c-0.6,0.4-1.2,0.7-1.4,1.2c-0.2,0.4,0.2,1,0.4,1.7c-0.4-0.3-0.7-0.4-1-0.7c-0.3-0.3-0.6-0.3-1,0
	c-0.3,0.2-0.6,0.4-1,0.6c0.1-0.4,0.2-0.8,0.3-1.1c0.1-0.3,0.1-0.5-0.2-0.7c-0.4-0.2-0.7-0.5-1-0.9c0.4,0,0.7,0,1.1,0
	c0.5,0,0.7-0.1,0.8-0.6c0.1-0.4,0.2-0.7,0.4-1.2c0.2,0.5,0.3,0.8,0.4,1.2c0.1,0.5,0.4,0.7,0.9,0.6C160.7,533.9,161,534,161.5,534"/>
<path class="st8" d="M561,228.6c0.1,0.2,0.1,0.3,0.2,0.5c0.4,1.3,0.4,1.3,1.9,1.3c0.1,0,0.2,0,0.4,0.1c-0.4,0.3-0.7,0.5-1.1,0.8
	c-0.3,0.2-0.4,0.4-0.2,0.7c0.2,0.4,0.3,0.8,0.4,1.4c-0.5-0.4-0.8-0.6-1.2-0.9c-0.3-0.2-0.5-0.2-0.7,0c-0.3,0.3-0.7,0.5-1.2,0.9
	c0.2-0.6,0.3-1,0.4-1.4c0.1-0.3,0.1-0.5-0.2-0.7c-0.4-0.2-0.7-0.5-1-0.9c0.3,0,0.7,0,1,0c0.6,0.1,0.9-0.2,1-0.7
	C560.7,229.3,560.8,229,561,228.6"/>
<path class="st8" d="M560.3,241.5c-0.2-0.1-0.3-0.2-0.4-0.2c-1.1-0.7-1.1-0.7-2.1,0c-0.1,0.1-0.2,0.1-0.4,0.3
	c0.2-0.5,0.3-0.9,0.4-1.3c0.1-0.4,0.1-0.6-0.2-0.8c-0.4-0.2-0.7-0.5-1.2-0.9c0.6,0,1,0,1.5,0c0.4,0,0.6-0.1,0.7-0.5
	c0.1-0.4,0.2-0.8,0.4-1.3c0.2,0.6,0.3,1,0.4,1.4c0.1,0.3,0.3,0.5,0.6,0.5c0.4,0,0.8,0,1.3,0.1c-0.3,0.2-0.6,0.5-0.9,0.7
	c-0.4,0.2-0.5,0.5-0.3,1C560.1,240.7,560.2,241,560.3,241.5"/>
<path class="st8" d="M544.8,212.3c0,1.6,0.8,2.1,2.3,1.7c0,0.1,0,0.1,0,0.2c-0.3,0.2-0.5,0.4-0.8,0.6c-0.5,0.3-0.6,0.6-0.4,1.1
	c0.1,0.3,0.2,0.7,0.4,1.1c-0.5-0.3-0.8-0.6-1.1-0.8c-0.3-0.3-0.5-0.3-0.9,0c-0.3,0.3-0.7,0.5-1,0.7c0-0.1-0.1-0.1-0.1-0.1
	c0.1-0.5,0.5-1.1,0.4-1.6c-0.1-0.4-0.8-0.7-1.4-1.2c0.6,0,1,0,1.4,0c0.4,0,0.6-0.1,0.7-0.5c0.1-0.4,0.2-0.8,0.4-1.2
	C544.7,212.4,544.7,212.3,544.8,212.3"/>
<path class="st8" d="M528.2,238.6c0.4,0,0.7,0,1.1,0c0.5,0,0.7-0.1,0.8-0.6c0.1-0.4,0.2-0.7,0.4-1.2c0.2,0.5,0.3,0.9,0.4,1.3
	c0.1,0.4,0.3,0.5,0.7,0.5c0.4,0,0.8,0,1.3,0c-0.5,0.4-1.2,0.7-1.3,1.2c-0.1,0.4,0.2,1,0.4,1.7c-0.5-0.4-1-0.7-1.5-1
	c-0.5,0.3-0.9,0.7-1.4,1l-0.2,0c0.8-1.3,0.6-2.2-0.9-2.7C528.1,238.7,528.2,238.7,528.2,238.6"/>
<path class="st8" d="M530.5,224.1c-0.5,0.4-1,0.7-1.4,1c0-0.1-0.1-0.1-0.1-0.1c0.1-0.5,0.5-1.1,0.4-1.6c-0.1-0.4-0.8-0.7-1.2-1
	c0.1-0.1,0.1-0.1,0.1-0.1c1.3,0.3,2.1-0.3,2.1-1.8c0.1,0,0.1,0.1,0.2,0.1c0.1,0.4,0.3,0.7,0.4,1.1c0.1,0.4,0.3,0.6,0.8,0.6
	c0.4,0,0.7,0,1.2,0.1c-0.3,0.2-0.7,0.5-1,0.7c-0.3,0.2-0.4,0.4-0.2,0.7c0.2,0.4,0.3,0.8,0.4,1.4C531.5,224.8,531,224.4,530.5,224.1"
	/>
<path class="st8" d="M544.6,245c0.3,0.6,0.3,1.4,0.7,1.6c0.4,0.3,1.1,0.1,1.8,0.1c-0.4,0.3-0.8,0.6-1.1,0.8
	c-0.3,0.2-0.4,0.4-0.2,0.7c0.2,0.4,0.3,0.8,0.4,1.4c-0.5-0.3-0.8-0.6-1.1-0.8c-0.3-0.3-0.6-0.3-0.9,0c-0.3,0.3-0.6,0.5-1,0.8
	c0-0.2,0.1-0.3,0.1-0.4c0.4-1.3,0.4-1.3-0.7-2.1c-0.1-0.1-0.2-0.1-0.4-0.3c0.5,0,0.9,0,1.3,0c0.5,0,0.7-0.1,0.8-0.6
	C544.3,245.9,544.5,245.5,544.6,245"/>
<path class="st8" d="M550.5,216.1c1.5,0.6,2.1-0.3,2.3-1.5c0,0,0,0,0.1-0.1c0.1,0.4,0.3,0.8,0.4,1.1c0.1,0.4,0.3,0.6,0.8,0.6
	c0.4,0,0.7,0,1.1,0.1c-0.3,0.3-0.7,0.5-1,0.8c-0.1,0.1-0.2,0.4-0.2,0.7c0.1,0.4,0.2,0.8,0.4,1.2c-0.1,0-0.1,0-0.1,0
	c-0.9-1-1.9-1.1-2.8,0.2c0-0.1,0-0.1-0.1-0.2c0.1-0.4,0.2-0.8,0.4-1.2c0.2-0.4,0.1-0.6-0.3-0.8c-0.3-0.2-0.6-0.4-0.9-0.7
	C550.5,216.3,550.5,216.2,550.5,216.1"/>
<path class="st8" d="M557.4,225.1c0-0.1,0-0.1,0-0.1c0.5-1.1,0.6-2.1-1.1-2.5c0.1-0.1,0.1-0.1,0.2-0.2c0.2,0,0.4,0,0.6,0
	c1.3,0,1,0.2,1.4-1.1c0.1-0.2,0.1-0.4,0.3-0.7c0.2,0.5,0.3,0.9,0.4,1.3c0.1,0.4,0.3,0.6,0.7,0.5c0.4,0,0.8,0,1.2,0.1
	c-0.3,0.2-0.6,0.5-1,0.7c-0.3,0.2-0.4,0.4-0.3,0.8c0.2,0.4,0.3,0.8,0.4,1.4c-0.5-0.4-0.8-0.6-1.2-0.9c-0.3-0.2-0.5-0.2-0.8,0
	C558.1,224.6,557.8,224.8,557.4,225.1"/>
<path class="st8" d="M530.8,230.4c-0.5,0.3-0.8,0.6-1.1,0.8c-0.4,0.2-0.5,0.5-0.3,0.9c0.1,0.3,0.2,0.7,0.4,1.2
	c-0.4-0.3-0.7-0.5-1-0.7c-0.4-0.4-0.7-0.3-1.1,0c-0.3,0.2-0.6,0.4-1,0.7c0.1-0.4,0.2-0.6,0.3-0.9c0.3-1.1,0.5-0.8-0.5-1.5
	c-0.2-0.1-0.4-0.3-0.7-0.5c0.6,0,1,0,1.4,0c0.4,0,0.6-0.1,0.7-0.5c0.1-0.4,0.2-0.8,0.4-1.4c0.2,0.5,0.3,0.9,0.4,1.3
	c0.1,0.4,0.3,0.6,0.7,0.6C529.9,230.4,530.3,230.4,530.8,230.4"/>
<path class="st8" d="M538.8,216.4c0,0-0.1,0.1-0.1,0.1c-0.4,0.3-1,0.5-1.1,0.9c-0.1,0.4,0.2,0.9,0.4,1.4c0,0.1,0,0.1,0,0.3
	c-0.5-0.4-1-0.7-1.5-1.1c-0.5,0.3-0.9,0.7-1.5,1.1c0.1-0.4,0.2-0.6,0.2-0.8c0.4-1.2,0.5-0.8-0.5-1.6c-0.2-0.1-0.3-0.2-0.5-0.5
	c0.2,0,0.4,0,0.6,0c1.3,0,1,0.2,1.4-1.1c0.1-0.2,0.1-0.4,0.3-0.7c0.2,0.5,0.3,0.9,0.4,1.3c0.1,0.3,0.3,0.5,0.6,0.5
	c0.4,0,0.8,0,1.2,0C538.8,216.3,538.8,216.3,538.8,216.4"/>
<path class="st8" d="M552.8,242.8c0.1,0.3,0.1,0.4,0.2,0.6c0.4,1.3,0.4,1.3,1.7,1.3c0.1,0,0.3,0,0.6,0c-0.5,0.4-0.8,0.6-1.2,0.8
	c-0.3,0.2-0.4,0.4-0.2,0.7c0.2,0.4,0.3,0.8,0.4,1.3c-0.6-0.4-1.1-0.9-1.5-0.9c-0.5,0-0.9,0.6-1.5,0.9c0.1-0.3,0.2-0.5,0.2-0.8
	c0.3-1,0.3-1-0.5-1.6c-0.2-0.1-0.3-0.2-0.7-0.5c0.4,0,0.6,0,0.8,0c1.3,0,1,0.2,1.5-1.1C552.6,243.3,552.7,243.2,552.8,242.8"/>
<path class="st8" d="M539,244.6c-0.6,0.4-1.2,0.7-1.4,1.2c-0.2,0.4,0.2,1,0.4,1.7c-0.4-0.3-0.7-0.4-1-0.7c-0.3-0.3-0.6-0.3-1,0
	c-0.3,0.2-0.6,0.4-1,0.6c0.1-0.4,0.2-0.8,0.3-1.1c0.1-0.3,0.1-0.5-0.2-0.7c-0.4-0.2-0.7-0.5-1-0.9c0.4,0,0.7,0,1.1,0
	c0.5,0,0.7-0.1,0.8-0.6c0.1-0.4,0.2-0.7,0.4-1.2c0.2,0.5,0.3,0.8,0.4,1.2c0.1,0.5,0.4,0.7,0.9,0.6
	C538.1,244.6,538.5,244.6,539,244.6"/>
<path class="st8" d="M561,517.9c0.1,0.2,0.1,0.3,0.2,0.5c0.4,1.3,0.4,1.3,1.9,1.3c0.1,0,0.2,0,0.4,0.1c-0.4,0.3-0.7,0.5-1.1,0.8
	c-0.3,0.2-0.4,0.4-0.2,0.7c0.2,0.4,0.3,0.8,0.4,1.4c-0.5-0.4-0.8-0.6-1.2-0.9c-0.3-0.2-0.5-0.2-0.7,0c-0.3,0.3-0.7,0.5-1.2,0.9
	c0.2-0.6,0.3-1,0.4-1.4c0.1-0.3,0.1-0.5-0.2-0.7c-0.4-0.2-0.7-0.5-1-0.9c0.3,0,0.7,0,1,0c0.6,0.1,0.9-0.2,1-0.7
	C560.7,518.7,560.8,518.4,561,517.9"/>
<path class="st8" d="M560.3,530.8c-0.2-0.1-0.3-0.2-0.4-0.2c-1.1-0.7-1.1-0.7-2.1,0c-0.1,0.1-0.2,0.1-0.4,0.3
	c0.2-0.5,0.3-0.9,0.4-1.3c0.1-0.4,0.1-0.6-0.2-0.8c-0.4-0.2-0.7-0.5-1.2-0.9c0.6,0,1,0,1.5,0c0.4,0,0.6-0.1,0.7-0.5
	c0.1-0.4,0.2-0.8,0.4-1.3c0.2,0.6,0.3,1,0.4,1.4c0.1,0.3,0.3,0.5,0.6,0.5c0.4,0,0.8,0,1.3,0.1c-0.3,0.2-0.6,0.5-0.9,0.7
	c-0.4,0.2-0.5,0.5-0.3,1C560.1,530,560.2,530.4,560.3,530.8"/>
<path class="st8" d="M544.8,501.6c0,1.6,0.8,2.1,2.3,1.7c0,0.1,0,0.1,0,0.2c-0.3,0.2-0.5,0.4-0.8,0.6c-0.5,0.3-0.6,0.6-0.4,1.1
	c0.1,0.3,0.2,0.7,0.4,1.1c-0.5-0.3-0.8-0.5-1.1-0.8c-0.3-0.3-0.5-0.3-0.9,0c-0.3,0.3-0.7,0.5-1,0.7c0-0.1-0.1-0.1-0.1-0.1
	c0.1-0.5,0.5-1.1,0.4-1.6c-0.1-0.4-0.8-0.7-1.4-1.2c0.6,0,1,0,1.4,0c0.4,0,0.6-0.1,0.7-0.5c0.1-0.4,0.2-0.8,0.4-1.2
	C544.7,501.7,544.7,501.7,544.8,501.6"/>
<path class="st8" d="M528.2,527.9c0.4,0,0.7,0,1.1,0c0.5,0,0.7-0.1,0.8-0.6c0.1-0.4,0.2-0.7,0.4-1.2c0.2,0.5,0.3,0.9,0.4,1.3
	c0.1,0.4,0.3,0.5,0.7,0.5c0.4,0,0.8,0,1.3,0c-0.5,0.4-1.2,0.7-1.3,1.2c-0.1,0.4,0.2,1,0.4,1.7c-0.5-0.4-1-0.7-1.5-1
	c-0.5,0.3-0.9,0.7-1.4,1l-0.2,0c0.8-1.3,0.6-2.2-0.9-2.7C528.1,528,528.2,528,528.2,527.9"/>
<path class="st8" d="M530.5,513.4c-0.5,0.4-1,0.7-1.4,1c0-0.1-0.1-0.1-0.1-0.1c0.1-0.5,0.5-1.1,0.4-1.6c-0.1-0.4-0.8-0.7-1.2-1
	c0.1-0.1,0.1-0.1,0.1-0.1c1.3,0.3,2.1-0.3,2.1-1.8c0.1,0,0.1,0.1,0.2,0.1c0.1,0.4,0.3,0.7,0.4,1.1c0.1,0.4,0.3,0.6,0.8,0.6
	c0.4,0,0.7,0,1.2,0.1c-0.3,0.2-0.7,0.5-1,0.7c-0.3,0.2-0.4,0.4-0.2,0.7c0.2,0.4,0.3,0.8,0.4,1.4C531.5,514.1,531,513.8,530.5,513.4"
	/>
<path class="st8" d="M544.6,534.4c0.3,0.6,0.3,1.4,0.7,1.6c0.4,0.3,1.1,0.1,1.8,0.1c-0.4,0.3-0.8,0.6-1.1,0.8
	c-0.3,0.2-0.4,0.4-0.2,0.7c0.2,0.4,0.3,0.8,0.4,1.4c-0.5-0.3-0.8-0.6-1.1-0.8c-0.3-0.3-0.6-0.3-0.9,0c-0.3,0.3-0.6,0.5-1,0.8
	c0-0.2,0.1-0.3,0.1-0.4c0.4-1.3,0.4-1.3-0.7-2.1c-0.1-0.1-0.2-0.1-0.4-0.3c0.5,0,0.9,0,1.3,0c0.5,0,0.7-0.1,0.8-0.6
	C544.3,535.2,544.5,534.9,544.6,534.4"/>
<path class="st8" d="M550.5,505.5c1.5,0.6,2.1-0.3,2.3-1.5c0,0,0,0,0.1-0.1c0.1,0.4,0.3,0.8,0.4,1.1c0.1,0.4,0.3,0.6,0.8,0.6
	c0.4,0,0.7,0,1.1,0.1c-0.3,0.3-0.7,0.5-1,0.8c-0.1,0.1-0.2,0.4-0.2,0.7c0.1,0.4,0.2,0.8,0.4,1.2c-0.1,0-0.1,0-0.1,0
	c-0.9-1-1.9-1.1-2.8,0.2c0-0.1,0-0.1-0.1-0.2c0.1-0.4,0.2-0.8,0.4-1.2c0.2-0.4,0.1-0.6-0.3-0.8c-0.3-0.2-0.6-0.4-0.9-0.7
	C550.5,505.6,550.5,505.6,550.5,505.5"/>
<path class="st8" d="M557.4,514.4c0-0.1,0-0.1,0-0.1c0.5-1.1,0.6-2.1-1.1-2.5c0.1-0.1,0.1-0.1,0.2-0.2c0.2,0,0.4,0,0.6,0
	c1.3,0,1,0.2,1.4-1.1c0.1-0.2,0.1-0.4,0.3-0.7c0.2,0.5,0.3,0.9,0.4,1.3c0.1,0.4,0.3,0.6,0.7,0.5c0.4,0,0.8,0,1.2,0.1
	c-0.3,0.2-0.6,0.5-1,0.7c-0.3,0.2-0.4,0.4-0.3,0.8c0.2,0.4,0.3,0.8,0.4,1.4c-0.5-0.4-0.8-0.6-1.2-0.9c-0.3-0.2-0.5-0.2-0.8,0
	C558.1,513.9,557.8,514.1,557.4,514.4"/>
<path class="st8" d="M530.8,519.8c-0.5,0.3-0.8,0.6-1.1,0.8c-0.4,0.2-0.5,0.5-0.3,0.9c0.1,0.3,0.2,0.7,0.4,1.2
	c-0.4-0.3-0.7-0.5-1-0.7c-0.4-0.4-0.7-0.3-1.1,0c-0.3,0.2-0.6,0.4-1,0.7c0.1-0.4,0.2-0.6,0.3-0.9c0.3-1.1,0.5-0.8-0.5-1.5
	c-0.2-0.1-0.4-0.3-0.7-0.5c0.6,0,1,0,1.4,0c0.4,0,0.6-0.1,0.7-0.5c0.1-0.4,0.2-0.8,0.4-1.4c0.2,0.5,0.3,0.9,0.4,1.3
	c0.1,0.4,0.3,0.6,0.7,0.6C529.9,519.7,530.3,519.8,530.8,519.8"/>
<path class="st8" d="M538.8,505.7c0,0-0.1,0.1-0.1,0.1c-0.4,0.3-1,0.5-1.1,0.9c-0.1,0.4,0.2,0.9,0.4,1.4c0,0.1,0,0.1,0,0.3
	c-0.5-0.4-1-0.7-1.5-1.1c-0.5,0.3-0.9,0.7-1.5,1.1c0.1-0.4,0.2-0.6,0.2-0.8c0.4-1.2,0.5-0.8-0.5-1.6c-0.2-0.1-0.3-0.2-0.5-0.5
	c0.2,0,0.4,0,0.6,0c1.3,0,1,0.2,1.4-1.1c0.1-0.2,0.1-0.4,0.3-0.7c0.2,0.5,0.3,0.9,0.4,1.3c0.1,0.3,0.3,0.5,0.6,0.5
	c0.4,0,0.8,0,1.2,0C538.8,505.6,538.8,505.7,538.8,505.7"/>
<path class="st8" d="M552.8,532.1c0.1,0.3,0.1,0.4,0.2,0.6c0.4,1.3,0.4,1.3,1.7,1.3c0.1,0,0.3,0,0.6,0c-0.5,0.4-0.8,0.6-1.2,0.8
	c-0.3,0.2-0.4,0.4-0.2,0.7c0.2,0.4,0.3,0.8,0.4,1.3c-0.6-0.4-1.1-0.9-1.5-0.9c-0.5,0-0.9,0.6-1.5,0.9c0.1-0.3,0.2-0.6,0.2-0.8
	c0.3-1,0.3-1-0.5-1.6c-0.2-0.1-0.3-0.2-0.7-0.5c0.4,0,0.6,0,0.8,0c1.3,0,1,0.2,1.5-1.1C552.6,532.7,552.7,532.5,552.8,532.1"/>
<path class="st8" d="M539,534c-0.6,0.4-1.2,0.7-1.4,1.2c-0.2,0.4,0.2,1,0.4,1.7c-0.4-0.3-0.7-0.4-1-0.7c-0.3-0.3-0.6-0.3-1,0
	c-0.3,0.2-0.6,0.4-1,0.6c0.1-0.4,0.2-0.8,0.3-1.1c0.1-0.3,0.1-0.5-0.2-0.7c-0.4-0.2-0.7-0.5-1-0.9c0.4,0,0.7,0,1.1,0
	c0.5,0,0.7-0.1,0.8-0.6c0.1-0.4,0.2-0.7,0.4-1.2c0.2,0.5,0.3,0.8,0.4,1.2c0.1,0.5,0.4,0.7,0.9,0.6C538.1,533.9,538.5,534,539,534"/>
<g class="anim1-1-2">
	<text transform="matrix(1 0 0 1 13.6311 37.104)" class="st5 st1 st2">55</text>
	<text transform="matrix(1 0 0 1 68.3278 22.6724)" class="st5 st3 st4">%</text>
</g>
<g class="anim1-2-2">
	<text transform="matrix(1 0 0 1 134.3034 179.2998)" class="st7 st1 st2">18</text>
	<text transform="matrix(1 0 0 1 179.9475 164.8394)" class="st7 st3 st4">%</text>
</g>
<g class="anim1-3-2">
	<text transform="matrix(1 0 0 1 254.7487 185.2065)" class="st0 st1 st2">16</text>
	<text transform="matrix(1 0 0 1 301.7927 170.7715)" class="st0 st3 st4">%</text>
</g>
<g class="anim1-0"><text transform="matrix(1 0 0 1 30.198 280.6255)"><tspan x="0" y="0" class="st9 st1 st10">Take public interest into account</tspan><tspan x="35" y="1.3em" class="st9 st1 st10">when making decisions</tspan></text></g>
<g class="anim2-1-2">
	<text transform="matrix(1 0 0 1 388.2849 43.0718)" class="st5 st1 st2">53</text>
	<text transform="matrix(1 0 0 1 442.3347 28.6191)" class="st5 st3 st4">%</text>
</g>
<g class="anim2-2-2">
	<text transform="matrix(1 0 0 1 508.6931 169.9521)" class="st7 st1 st2">20</text>
	<text transform="matrix(1 0 0 1 567.4108 155.498)" class="st7 st3 st4">%</text>
</g>
<g class="anim2-3-2">
	<text transform="matrix(1 0 0 1 623.6862 181.3882)" class="st0 st1 st2">17</text>
	<text transform="matrix(1 0 0 1 668.86 166.9541)" class="st0 st3 st4">%</text>
</g>
<g class="anim2-0"><text transform="matrix(1 0 0 1 456.4382 280.6255)"><tspan x="0" y="0" class="st9 st1 st10">Ensure non-harassment</tspan></text></g>
<g class="anim3-1-2">
	<text transform="matrix(1 0 0 1 18.0617 361.0376)" class="st5 st1 st2 st6">47</text>
	<text transform="matrix(1 0 0 1 73.5017 346.5659)" class="st5 st3 st4">%</text>
</g>
<g class="anim3-2-2">
	<text transform="matrix(1 0 0 1 133.0266 441.8296)" class="st7 st1 st2">25</text>
	<text transform="matrix(1 0 0 1 187.4045 427.3989)" class="st7 st3 st4">%</text>
</g>
<g class="anim3-3-2">
	<text transform="matrix(1 0 0 1 252.7893 483.5327)" class="st0 st1 st2">14</text>
	<text transform="matrix(1 0 0 1 300.9929 469.064)" class="st0 st3 st4">%</text>
</g>
<g class="anim3-0"><text transform="matrix(1 0 0 1 68.1179 570.0171)"><tspan x="0" y="0" class="st9 st1 st10">Protect the environment</tspan></text></g>
<g class="anim4-1-2">
	<text transform="matrix(1 0 0 1 388.2565 374.6929)" class="st5 st1 st2">43</text>
	<text transform="matrix(1 0 0 1 445.1179 360.2583)" class="st5 st3 st4">%</text>
</g>
<g class="anim4-2-2">
	<text transform="matrix(1 0 0 1 508.1706 419.6655)" class="st7 st1 st2">31</text>
	<text transform="matrix(1 0 0 1 553.4186 405.2056)" class="st7 st3 st4">%</text>
</g>
<g class="anim4-3-2">
	<text transform="matrix(1 0 0 1 625.363 467.8501)" class="st0 st1 st2">18</text>
	<text transform="matrix(1 0 0 1 671.0153 453.3989)" class="st0 st3 st4">%</text>
</g>
<g class="anim4-0"><text transform="matrix(1 0 0 1 383.0456 570.0171)"><tspan x="0" y="0" class="st9 st1 st10">Respect health and safety of workers</tspan></text></g>
</svg>
