<svg version="1.1" id="SVG_T5-3" xmlns="http://www.w3.org/2000/svg" xmlns:xlink="http://www.w3.org/1999/xlink" x="0px" y="0px"
	 viewBox="0 0 303.8 297.4" data-viewBox="0 0 303.8 297.4" style="enable-background:new 0 0 303.8 297.4;" xml:space="preserve">
<style type="text/css">
	#SVG_T5-3 .st0{fill:#3D3F41;}
	#SVG_T5-3 .st1{font-family:'Raleway'; font-weight:600;}
	#SVG_T5-3 .st2{font-size:25px;}
	#SVG_T5-3 .st3{fill:#DE3849;}
	#SVG_T5-3 .st4{font-size:19px;}
	#SVG_T5-3 .st5{font-family:'Raleway'; font-weight:400;}
	#SVG_T5-3 .st6{font-size:11.077px;}
	#SVG_T5-3 .st7{font-size:10px; letter-spacing:-0.1px;}
</style>
<g class="anim0"><text transform="matrix(1 0 0 1 91.3647 21.3749)" class="st0 st1 st2">Education</text></g>
<g class="anim1-1">
	<text transform="matrix(1 0 0 1 42 55.5794)" class="st1 st7">Master/PhD</text>
</g>
<g class="anim1-3">
	<text transform="matrix(1 0 0 1 135.5454 58.0067)" class="st3 st1 st4">6</text>
	<text transform="matrix(1 0 0 1 148.1187 51.6839)" class="st3 st5 st6">%</text>
</g>
<g class="anim2-1">
	<text transform="matrix(1 0 0 1 13.8691 95.7391)" class="st1 st7">Bachelor’s degree</text>
</g>
<g class="anim2-3">
	<text transform="matrix(1 0 0 1 221.9292 99.432)" class="st3 st1 st4">24</text>
	<text transform="matrix(1 0 0 1 243.564 93.1024)" class="st3 st5 st6">%</text>
</g>
<g class="anim3-1">
	<text transform="matrix(1 0 0 1 28.0684 131.0594)" class="st1 st7">Student/Some </text>
	<text transform="matrix(1 0 0 1 13.7891 143.0594)" class="st1 st7">College/A degree</tspan></text>
</g>
<g class="anim3-3">
	<text transform="matrix(1 0 0 1 180.4888 139.4242)" class="st3 st1 st4">15</text>
	<text transform="matrix(1 0 0 1 200.4702 133.1024)" class="st3 st5 st6">%</text>
</g>
<g class="anim4-1">
	<text transform="matrix(1 0 0 1 2 176.5091)" class="st1 st7">High School diploma</text>
</g>
<g class="anim4-3">
	<text transform="matrix(1 0 0 1 273.1909 180.4505)" class="st3 st1 st4">35</text>
	<text transform="matrix(1 0 0 1 294.853 174.1302)" class="st3 st5 st6">%</text>
</g>
<g class="anim5-1">
	<text transform="matrix(1 0 0 1 53.9795 212.5091)" class="st1 st7">Less than </text>
	<text transform="matrix(1 0 0 1 2 224.5091)" class="st1 st7">High School diploma</text>
</g>
<g class="anim5-3">
	<text transform="matrix(1 0 0 1 191.5054 221.4588)" class="st3 st1 st4">17</text>
	<text transform="matrix(1 0 0 1 212.2769 215.1288)" class="st3 st5 st6">%</text>
</g>
<g class="anim6-1">
	<text transform="matrix(1 0 0 1 60.3691 259.2791)" class="st1 st7">Illiterate</text>
</g>
<g class="anim6-3">
	<text transform="matrix(1 0 0 1 121.4897 262.4198)" class="st3 st1 st4">3</text>
	<text transform="matrix(1 0 0 1 133.2817 256.1024)" class="st3 st5 st6">%</text>
</g>
<g class="anim1-2"><rect x="107.1" y="125.5" class="st3" width="67.5" height="14.7"/></g>
<g class="anim2-2"><rect x="107.1" y="84.7" class="st3" width="110.7" height="14.7"/></g>
<g class="anim3-2"><rect x="107.1" y="43.9" class="st3" width="25.1" height="14.7"/></g>
<g class="anim4-2"><rect x="107.1" y="207.2" class="st3" width="78.5" height="14.7"/></g>
<g class="anim5-2"><rect x="107.1" y="248" class="st3" width="8.3" height="14.7"/></g>
<g class="anim6-2"><rect x="107.1" y="166.3" class="st3" width="161.8" height="14.7"/></g>
</svg>
