<svg version="1.1" id="SVG_T2G6" xmlns="http://www.w3.org/2000/svg" xmlns:xlink="http://www.w3.org/1999/xlink" x="0px" y="0px"
	 viewBox="0 0 756.8 563" style="enable-background:new 0 0 756.8 563;" xml:space="preserve">
<style type="text/css">
	#SVG_T2G6 .st0{fill:#3B454A;}
	#SVG_T2G6 .st1{font-family:'Raleway'; font-weight:600;}
	#SVG_T2G6 .st2{font-size:12px; letter-spacing:-0.1px;}
	#SVG_T2G6 .st3{fill:none;stroke:#3B454A;}
	#SVG_T2G6 .st4{font-family:'Raleway'; font-weight:400;}
	#SVG_T2G6 .st5{fill:#DE3849;}
	#SVG_T2G6 .st6{fill:none;}
	#SVG_T2G6 .st7{fill:#7DCDA5;}
	#SVG_T2G6 .st8{fill:none;stroke:#DE3849;stroke-width:1.323;}
	#SVG_T2G6 .st9{fill:#3D3F41;}
	#SVG_T2G6 .st10{font-size:16px;}
	#SVG_T2G6 .st11{font-size:91.0681px;}
	#SVG_T2G6 .st12{font-size:53.0927px;}
	#SVG_T2G6 .st13{font-size:20px;}
	#SVG_T2G6 .st14{font-size:40px;}
	#SVG_T2G6 .st15{font-size:10px;}
</style>
<line class="st3" x1="2" y1="502.5" x2="703.9" y2="502.5"/>
<line class="st3" x1="713.8" y1="490" x2="713.8" y2="6.8"/>
<path class="st5" d="M264.7,129.4L239,145.9c10.4,16.4,16.4,35.7,16.4,56.5c0,58.4-47.3,105.7-105.7,105.7
	c-58.4,0-105.7-47.3-105.7-105.7S91.2,96.6,149.6,96.6c0.2,0,0.5,0,0.7,0V66.3c0,0-0.4,0-0.5,0c-75.2,0-136.2,60.9-136.2,136.1
	s60.9,136.1,136.1,136.1c75.2,0,136.1-60.9,136.1-136.1C285.7,175.5,278.1,150.5,264.7,129.4"/>
<path class="st6" d="M13.5,202.4c0,75.2,60.9,136.1,136.1,136.1s136.1-60.9,136.1-136.1c0-26.9-7.6-51.9-21-73L239,145.9
	c10.4,16.4,16.4,35.7,16.4,56.5c0,58.4-47.3,105.7-105.7,105.7S43.8,260.8,43.8,202.4S91.2,96.6,149.6,96.6c0.2,0,0.5,0,0.7,0V66.3
	c0,0-0.4,0-0.5,0C74.6,66.3,13.5,127.2,13.5,202.4"/>
<path class="st7" d="M238.9,145.8l25.7-16.5c0,0,0,0.1,0,0.1l0.1-0.1c-24.1-37.8-65.9-62.9-114.5-63v30.4
	C187.6,96.9,220.3,116.4,238.9,145.8"/>
<path class="st6" d="M150.3,96.7c37.3,0.2,70,19.8,88.6,49.1l25.7-16.5c0,0,0,0.1,0,0.1l0.1-0.1c-24.1-37.8-65.9-62.9-114.5-63V96.7
	z"/>
<path class="st5" d="M198.6,249.5c3.1-0.9,6-1.5,8.6-2.6c8.2-3.4,14.9-10.5,14.4-21.6c-0.2-4.6-0.8-9.2-1.5-13.7
	c-1.4-9.3-3.2-18.5-6.7-27.2c-3.1-7.8-7.5-14.7-14.1-20c-2.5-2-3-2-5.5,0c-5.6,4.5-9.6,10.1-12.6,16.6c-0.2,0.4-0.3,1.1-0.1,1.5
	c1.6,5,1.2,10-0.6,14.9c-0.4,1.2-0.4,2.1,0.2,3.2c3.4,6.2,2.8,12.8-2,17.3c-2.7,2.6-5.1,5.2-6.5,8.6c-0.4,0.9-0.7,1.9-0.6,2.9
	c0.7,5.9,3.7,10.6,8.4,14.2c4.2,3.2,9,5.1,14.4,5.6c0-0.5,0.1-1,0.1-1.4c0-3.7,0-7.5,0-11.2c0-0.7-0.4-1.5-0.9-2
	c-3.4-3.5-6.8-6.8-10.2-10.2c-1-1.1-1.1-2.3-0.2-3.1c0.9-0.9,2-0.8,3.1,0.3c2.4,2.4,4.7,4.7,7.1,7.1c0.3,0.3,0.6,0.5,1.1,0.9
	c0-6.8,0-13.4,0-20c0-3.1,0-6.2,0-9.3c0-1.5,0.8-2.3,2.1-2.3c1.2,0,2,0.9,2,2.4c0,4,0,8.1,0,12.1c0,0.5,0.1,0.9,0.1,1.8
	c1.6-1.6,2.9-3,4.2-4.3c1.2-1.2,2.3-1.3,3.2-0.5c1,0.9,0.9,2.1-0.3,3.3c-2,2.1-4.1,4.1-6.2,6.1c-0.7,0.7-1,1.4-1,2.4
	c0,8.7,0,17.5,0,26.2V249.5z M129.7,197.9c0.6-0.6,1-0.9,1.3-1.2c2.8-2.8,5.6-5.6,8.4-8.4c1-1,2.1-1.1,3-0.2c0.8,0.8,0.8,2-0.1,3
	c-0.3,0.3-0.5,0.6-0.8,0.8c-3.6,3.6-7.3,7.3-10.9,11c-0.5,0.5-0.9,1.2-0.9,1.9c-0.1,11.1,0,22.2-0.1,33.3c0,0.9,0.3,1.3,1.1,1.4
	c1.6,0.4,3.1,0.9,4.7,1.2c7.2,1.2,12.9-1,15.9-7.3c1-2,2.7-2.7,4.9-2.6c6.8,0.1,11.5-3,13.9-9.2c0.7-1.9,1.9-3.3,3.5-4.5
	c5.3-3.8,6.4-9.2,3.2-14.9c-1.1-1.9-1.1-3.6-0.4-5.6c0.7-2.2,1.3-4.5,1.5-6.7c0.4-4.8-1.2-9-4.8-12.3c-1.9-1.8-2.4-3.8-1.4-6.3
	c0.2-0.5,0.3-0.9,0.4-1.4c2-7.9-0.6-13.4-7.9-16.6c-4.4-1.9-8.9-1.6-13.4-0.2c-3.1,0.9-5.1,0.1-6.6-2.6
	c-5.4-9.7-13.9-14.2-24.8-13.8c-10.1,0.4-17.8,5.1-22.4,14.2c-2.2,4.3-2.9,8.9-2.7,13.7c0.1,3.2-1.6,5.1-4.8,5.6
	c-2.7,0.4-5.4,0.9-8,1.7c-6.9,2.2-13.3,8.6-13.2,17.4c0,7.2,3.3,12.8,8.9,17.1c2.2,1.6,3.2,3.5,3,6.2c-0.3,5.2,1.7,9.7,5.6,13.2
	c3.8,3.4,8.1,5.5,13.4,4.3c1.6-0.4,3.2-1.1,4.7-1.7c3.3-1.5,6.6,0.2,7.2,3.8c0.2,1.3,0.5,2.5,0.9,3.7c0.9,2.5,2.7,4.1,5.4,4.7
	c2.6,0.5,4.8,0,7.1-1.2c0.9-0.4,1.2-0.9,1.2-1.9c0-4.9,0-9.8,0-14.7c0-1-0.3-1.7-1-2.4c-3.8-3.8-7.6-7.5-11.3-11.4
	c-0.5-0.5-0.9-1.5-0.9-2.2c0-0.5,0.8-1.4,1.4-1.5c0.7-0.1,1.7,0.2,2.2,0.7c2.8,2.7,5.6,5.5,8.4,8.3c0.3,0.3,0.7,0.6,1.3,1.2v-2.1
	c0-10.4,0-20.7,0-31.1c0-1.6,0.8-2.5,2-2.5c1.2,0,2,0.9,2,2.6c0,4.6,0,9.2,0,13.8C129.7,196.6,129.7,197.1,129.7,197.9 M194.5,253.3
	c-13.4-2-22.9-8.3-26.8-21.8c0,0-0.2,0-0.4,0.1c-3.3,2.3-6.9,3.1-10.8,3.1c-0.8,0-1.3,0.2-1.8,0.9c-4.2,7.3-11,10.4-19.4,9
	c-1.8-0.3-3.6-0.8-5.6-1.2v1.6c0,8.1,0,16.1,0,24.2c0,0.4,0,0.9,0,1.3c-0.1,1.2-0.8,1.8-1.9,1.8c-1.1,0-1.8-0.6-2-1.7
	c-0.1-0.5-0.1-1-0.1-1.5c0-8,0-16,0-24v-1.4c-2.6,0.3-5.2,1-7.6,0.7c-6.4-0.7-9.8-4.3-10.8-10.9c-0.3-2.1-0.5-2.2-2.4-1.3
	c-12.8,6.6-26.2-4.1-28.2-14.6c-0.3-1.9-0.5-3.8-0.5-5.7c0-1.1-0.3-1.8-1.2-2.4c-5.3-4-8.9-9.1-10.2-15.6
	c-2.6-12.5,5.1-23.1,16.2-26.4c2.5-0.8,5.2-1.1,7.8-1.6c1.2-0.2,1.6-0.7,1.5-1.9c-0.3-16.3,9.6-29,25.6-31.5
	c12.7-2,25.7,4,31.7,15.3c0.6,1.1,1.2,1.3,2.4,0.9c4.6-1.4,9.2-1.7,13.8-0.3c11.1,3.5,15.4,12.5,12,23.2c-0.4,1.4-0.4,2.3,0.7,3.2
	c0.7,0.6,1.3,1.4,2,2.2c0.5-0.8,0.9-1.6,1.3-2.3c3.3-5.8,7.5-10.9,13-14.8c2.6-1.8,4.9-1.8,7.5,0c6.1,4.2,10.5,9.9,14,16.5
	c4.9,9.3,7.4,19.4,9.1,29.7c1,6.2,2,12.4,2.3,18.7c0.7,13.8-8.3,22.3-17.7,26c-2.9,1.1-6,1.7-9.3,2.6c0,0.1-0.1,0.6-0.1,1.2
	c0,5,0,10,0,15c0,1.7-0.7,2.7-2,2.7c-1.3,0-2.1-1-2.1-2.8C194.5,264.2,194.5,258.8,194.5,253.3"/>
<path class="st7" d="M5.7,494.1c0,0-0.1,0-0.1,0c-1.4,0-2.5-1.1-2.5-2.4c-0.1-1.4,1-2.6,2.4-2.7c19.4-0.9,37.1-2.1,56.1-3.2
	c38.2-2.3,77.6-4.6,116.5-5c22.9-0.2,46.1,1.7,68.5,3.6c34.7,2.9,70.5,5.9,105.6,0.8c14.5-2.1,29.2-2.5,43.5-2.8
	c44.4-1.1,86.4-2.1,129.4-51.5c38.5-44.2,77.9-133,115.9-218.8c19.1-43,38.8-87.5,58.2-126c0.6-1.3,2.2-1.8,3.4-1.1
	c1.3,0.6,1.8,407.9,1.1,409.1H5.7z"/>
<path class="st6" d="M699.2,86.1C679.8,124.5,660,169,641,212c-38,85.8-77.4,174.6-115.9,218.8c-43,49.4-85,50.4-129.4,51.5
	c-14.2,0.3-28.9,0.7-43.5,2.8c-35.1,5.1-70.9,2.1-105.6-0.8c-22.4-1.9-45.6-3.8-68.5-3.6c-38.8,0.4-78.3,2.8-116.5,5
	c-19,1.1-36.7,2.3-56.1,3.2C4.1,489,3,490.2,3,491.6c0.1,1.4,1.2,2.4,2.5,2.4c0,0,0.1,0,0.1,0h698c0.6-1.3,0.1-408.5-1.1-409.1
	c-0.4-0.2-0.8-0.3-1.2-0.3C700.5,84.6,699.6,85.2,699.2,86.1"/>
<line class="st8" x1="308.7" y1="177.6" x2="472.5" y2="177.6"/>
<text transform="matrix(1 0 0 1 0 525.5352)" class="st0 st1 st2">0</text>
<text transform="matrix(1 0 0 1 697.8838 525.5352)" class="st0 st1 st2">10</text>
<text transform="matrix(1 0 0 1 350.8076 525.5352)" class="st0 st1 st2">5</text>
<text transform="matrix(1 0 0 1 725.5996 494.0635)" class="st0 st1 st2">0%</text>
<text transform="matrix(1 0 0 1 725.5996 10.2598)" class="st0 st1 st2">100%</text>
<text transform="matrix(1 0 0 1 308.5859 200.7441)"><tspan x="0" y="0" class="st9 st1 st10">think companies</tspan> <tspan x="0" y="1.3em" class="st9 st1 st10">should give environment</tspan> <tspan x="0" y="2.6em" class="st9 st1 st10">the highest priority</tspan></text>
<text transform="matrix(1 0 0 1 308.5859 168.2764)" class="st5 st1 st11">84</text>
<text transform="matrix(1 0 0 1 428.7041 137.9512)" class="st5 st4 st12">%</text>
<text transform="matrix(1 0 0 1 261.4043 558.5078)"><tspan x="0" y="0" class="st0 st1 st13">Priority given to protecting the environment</tspan></text>
<text transform="matrix(1 0 0 1 8.7598 402.9775)"><tspan x="0" y="0" class="st5 st1 st14">9.4</tspan></text>
<text transform="matrix(1 0 0 1 10.0352 425.0781)"><tspan x="0" y="0" class="st0 st1 st15">* average score for protecting the environment</tspan></text>
</svg>
