<?xml version="1.0" encoding="utf-8"?>
<svg version="1.1" id="Layer_1" xmlns="http://www.w3.org/2000/svg" xmlns:xlink="http://www.w3.org/1999/xlink" x="0px" y="0px"
	 viewBox="0 0 155.5 264.7" style="enable-background:new 0 0 155.5 264.7;" xml:space="preserve">
<style type="text/css">
	.st0{fill:#8A8C8E;}
	.st1{fill:#808285;}
	.st2{fill:#777;}
</style>
<g id="XMLID_1_">
	<polygon id="XMLID_55_" class="st0" points="13.9,134.2 13.6,133.8 45.7,99.1 46.1,99.5 	"/>
	<polygon id="XMLID_54_" class="st0" points="102.2,39 101.9,38.6 137.7,0 138,0.4 	"/>
	<rect id="XMLID_53_" x="13.8" y="0.2" class="st1" width="5.4" height="31.9"/>
	<path id="XMLID_50_" class="st1" d="M137.8,133.5h-6.6l-5.7-12.4h-4.1v12.4H116v-31.9h11.1c2.8,0,5.1,0.9,6.7,2.8
		c1.7,1.9,2.5,4.2,2.5,6.9c0,2.2-0.5,4-1.4,5.5c-0.9,1.5-2.1,2.5-3.6,3.2L137.8,133.5z M129.7,114.4c0.8-0.8,1.2-1.8,1.2-3
		c0-1.3-0.4-2.3-1.2-3c-0.8-0.8-1.8-1.2-3-1.2h-5.4v8.4h5.4C128,115.6,129,115.2,129.7,114.4"/>
	<path id="XMLID_46_" class="st1" d="M84.3,75.4c0,2.9-0.8,5.2-2.4,6.8c-1.6,1.6-3.7,2.4-6.3,2.4H63.7V52.7h11.4
		c2.7,0,4.9,0.8,6.4,2.4c1.6,1.6,2.3,3.8,2.3,6.6c0,1.6-0.4,3-1.1,4.1c-0.7,1.2-1.5,2-2.3,2.4C83,69.7,84.3,72.1,84.3,75.4
		 M77.5,64.7c0.7-0.7,1-1.6,1-2.7s-0.3-2-1-2.7c-0.7-0.7-1.6-1-2.8-1h-5.6v7.4h5.6C75.9,65.7,76.8,65.3,77.5,64.7 M77.9,78
		c0.7-0.7,1-1.7,1-2.8c0-1.1-0.3-2.1-1-2.8c-0.7-0.7-1.6-1.1-2.9-1.1h-6v7.8h6C76.3,79.1,77.2,78.7,77.9,78"/>
	<rect id="XMLID_45_" y="217.7" class="st2" width="1.2" height="17.8"/>
	<path id="XMLID_42_" class="st2" d="M15.3,235.4l-3.9-8.2H6.9v8.2H5.7v-17.8h6.1c1.4,0,2.5,0.4,3.3,1.3c0.9,0.8,1.3,2,1.3,3.5
		c0,1.3-0.3,2.4-1,3.2c-0.7,0.8-1.6,1.4-2.7,1.6l3.9,8.2H15.3z M14.3,225.1c0.7-0.6,1-1.5,1-2.7c0-1.2-0.3-2.1-1-2.7
		c-0.7-0.6-1.5-0.9-2.6-0.9H6.9v7.2h4.8C12.8,226,13.7,225.7,14.3,225.1"/>
	<path id="XMLID_39_" class="st2" d="M29.8,235.4l-1.4-4.3h-7.6l-1.4,4.3H18l6-17.8h1.1l6,17.8H29.8z M24.6,219.5l-3.4,10.4H28
		L24.6,219.5z"/>
	<polygon id="XMLID_38_" class="st2" points="44.1,235.4 34.6,219.9 34.6,235.4 33.4,235.4 33.4,217.7 34.6,217.7 44,233 44,217.7 
		45.2,217.7 45.2,235.4 	"/>
	<path id="XMLID_34_" class="st2" d="M65.9,230.6c0,1.5-0.4,2.7-1.3,3.6c-0.9,0.8-2,1.3-3.5,1.3h-6.1v-17.8H61
		c1.4,0,2.5,0.4,3.4,1.2c0.9,0.8,1.3,2,1.3,3.4c0,0.9-0.2,1.8-0.7,2.5s-1,1.2-1.8,1.5c0.9,0.3,1.5,0.9,2,1.6S65.9,229.5,65.9,230.6
		 M63.5,224.9c0.7-0.6,1-1.4,1-2.6c0-1.2-0.3-2-1-2.6c-0.7-0.6-1.5-0.8-2.6-0.8h-4.6v6.9h4.6C61.9,225.7,62.8,225.5,63.5,224.9
		 M63.7,233.2c0.7-0.6,1-1.5,1-2.7c0-1.1-0.3-2-1-2.7c-0.7-0.6-1.6-1-2.7-1h-4.8v7.3H61C62.2,234.2,63.1,233.9,63.7,233.2"/>
	<path id="XMLID_33_" class="st2" d="M80.7,229.7c0,1.7-0.5,3.1-1.5,4.3c-1,1.1-2.4,1.7-4,1.7c-1.6,0-3-0.6-4-1.7
		c-1-1.1-1.5-2.5-1.5-4.3v-12h1.2v11.8c0,1.5,0.4,2.7,1.2,3.6c0.8,0.9,1.9,1.3,3.2,1.3c1.3,0,2.4-0.4,3.2-1.3
		c0.8-0.9,1.2-2.1,1.2-3.6v-11.8h1.2V229.7z"/>
	<path id="XMLID_32_" class="st2" d="M94.5,230.7c0,1.5-0.5,2.7-1.5,3.6c-1,0.9-2.3,1.3-4,1.3c-1.2,0-2.2-0.2-3-0.5
		c-0.8-0.4-1.6-1-2.4-1.8l0.9-0.9c0.7,0.8,1.4,1.3,2.1,1.6c0.7,0.3,1.5,0.5,2.5,0.5c1.3,0,2.3-0.3,3.1-1c0.8-0.6,1.1-1.5,1.1-2.7
		c0-1.1-0.3-1.9-0.9-2.5c-0.3-0.3-0.6-0.5-0.9-0.6c-0.3-0.1-0.8-0.2-1.4-0.3l-1.9-0.3c-1.2-0.2-2.2-0.6-2.9-1.3
		c-0.9-0.8-1.3-1.9-1.3-3.2c0-1.5,0.4-2.7,1.3-3.6c0.9-0.9,2.1-1.3,3.7-1.3c1,0,1.8,0.2,2.5,0.5c0.7,0.3,1.4,0.8,2.1,1.5l-0.8,0.9
		c-1.1-1.1-2.4-1.6-4-1.6c-1.2,0-2.1,0.3-2.8,1c-0.7,0.6-1,1.5-1,2.7c0,1,0.3,1.8,0.9,2.3c0.6,0.5,1.4,0.9,2.5,1.1l1.8,0.3
		c1.3,0.2,2.2,0.6,2.9,1.2C94.1,228.1,94.5,229.2,94.5,230.7"/>
	<rect id="XMLID_31_" x="97.9" y="217.7" class="st2" width="1.2" height="17.8"/>
	<polygon id="XMLID_30_" class="st2" points="114.3,235.4 104.8,219.9 104.8,235.4 103.6,235.4 103.6,217.7 104.8,217.7 114.2,233 
		114.2,217.7 115.4,217.7 115.4,235.4 	"/>
	<polygon id="XMLID_29_" class="st2" points="120,235.4 120,217.7 129.9,217.7 129.9,218.9 121.2,218.9 121.2,225.9 128.6,225.9 
		128.6,227.1 121.2,227.1 121.2,234.2 129.9,234.2 129.9,235.4 	"/>
	<path id="XMLID_28_" class="st2" d="M142.6,230.7c0,1.5-0.5,2.7-1.5,3.6c-1,0.9-2.3,1.3-4,1.3c-1.2,0-2.2-0.2-3-0.5
		c-0.8-0.4-1.6-1-2.4-1.8l0.9-0.9c0.7,0.8,1.4,1.3,2.1,1.6c0.7,0.3,1.5,0.5,2.5,0.5c1.3,0,2.3-0.3,3.1-1c0.8-0.6,1.1-1.5,1.1-2.7
		c0-1.1-0.3-1.9-0.9-2.5c-0.3-0.3-0.6-0.5-0.9-0.6c-0.3-0.1-0.8-0.2-1.4-0.3l-1.9-0.3c-1.2-0.2-2.2-0.6-2.9-1.3
		c-0.9-0.8-1.3-1.9-1.3-3.2c0-1.5,0.4-2.7,1.3-3.6c0.9-0.9,2.1-1.3,3.7-1.3c1,0,1.8,0.2,2.5,0.5c0.7,0.3,1.4,0.8,2.1,1.5l-0.8,0.9
		c-1.1-1.1-2.4-1.6-4-1.6c-1.2,0-2.1,0.3-2.8,1c-0.7,0.6-1,1.5-1,2.7c0,1,0.3,1.8,0.9,2.3c0.6,0.5,1.4,0.9,2.5,1.1l1.8,0.3
		c1.3,0.2,2.2,0.6,2.9,1.2C142.2,228.1,142.6,229.2,142.6,230.7"/>
	<path id="XMLID_27_" class="st2" d="M155.5,230.7c0,1.5-0.5,2.7-1.5,3.6c-1,0.9-2.3,1.3-4,1.3c-1.2,0-2.2-0.2-3-0.5
		c-0.8-0.4-1.6-1-2.4-1.8l0.9-0.9c0.7,0.8,1.4,1.3,2.1,1.6c0.7,0.3,1.5,0.5,2.5,0.5c1.3,0,2.3-0.3,3.1-1c0.8-0.6,1.1-1.5,1.1-2.7
		c0-1.1-0.3-1.9-0.9-2.5c-0.3-0.3-0.6-0.5-0.9-0.6c-0.3-0.1-0.8-0.2-1.4-0.3l-1.9-0.3c-1.2-0.2-2.2-0.6-2.9-1.3
		c-0.9-0.8-1.3-1.9-1.3-3.2c0-1.5,0.4-2.7,1.3-3.6c0.9-0.9,2.1-1.3,3.7-1.3c1,0,1.8,0.2,2.5,0.5c0.7,0.3,1.4,0.8,2.1,1.5l-0.8,0.9
		c-1.1-1.1-2.4-1.6-4-1.6c-1.2,0-2.1,0.3-2.8,1c-0.7,0.6-1,1.5-1,2.7c0,1,0.3,1.8,0.9,2.3c0.6,0.5,1.4,0.9,2.5,1.1l1.8,0.3
		c1.3,0.2,2.2,0.6,2.9,1.2C155,228.1,155.5,229.2,155.5,230.7"/>
	<path id="XMLID_24_" class="st2" d="M9.6,264.5l-3.9-8.2H1.2v8.2H0v-17.8h6.1c1.4,0,2.5,0.4,3.3,1.3c0.9,0.8,1.3,2,1.3,3.5
		c0,1.3-0.3,2.4-1,3.2c-0.7,0.8-1.6,1.4-2.7,1.6l3.9,8.2H9.6z M8.6,254.2c0.7-0.6,1-1.5,1-2.7c0-1.2-0.3-2.1-1-2.7
		C8,248.3,7.1,248,6,248H1.2v7.2H6C7.1,255.1,8,254.8,8.6,254.2"/>
	<polygon id="XMLID_23_" class="st2" points="13.9,264.5 13.9,246.8 23.8,246.8 23.8,248 15.1,248 15.1,255 22.5,255 22.5,256.2 
		15.1,256.2 15.1,263.3 23.8,263.3 23.8,264.5 	"/>
	<path id="XMLID_22_" class="st2" d="M36,259.8c0,1.5-0.5,2.7-1.5,3.6c-1,0.9-2.3,1.3-4,1.3c-1.2,0-2.2-0.2-3-0.5
		c-0.8-0.4-1.6-1-2.4-1.8l0.9-0.9c0.7,0.8,1.4,1.3,2.1,1.6c0.7,0.3,1.5,0.5,2.5,0.5c1.3,0,2.3-0.3,3.1-1c0.8-0.6,1.1-1.5,1.1-2.7
		c0-1.1-0.3-1.9-0.9-2.5c-0.3-0.3-0.6-0.5-0.9-0.6c-0.3-0.1-0.8-0.2-1.4-0.3l-1.9-0.3c-1.2-0.2-2.2-0.6-2.9-1.3
		c-0.9-0.8-1.3-1.9-1.3-3.2c0-1.5,0.4-2.7,1.3-3.6c0.9-0.9,2.1-1.3,3.7-1.3c1,0,1.8,0.2,2.5,0.5c0.7,0.3,1.4,0.8,2.1,1.5l-0.8,0.9
		c-1.1-1.1-2.4-1.6-4-1.6c-1.2,0-2.1,0.3-2.8,1c-0.7,0.6-1,1.5-1,2.7c0,1,0.3,1.8,0.9,2.3c0.6,0.5,1.4,0.9,2.5,1.1l1.8,0.3
		c1.3,0.2,2.2,0.6,2.9,1.2C35.5,257.2,36,258.3,36,259.8"/>
	<path id="XMLID_19_" class="st2" d="M49.6,251.9c0,1.6-0.5,2.8-1.4,3.7c-0.9,0.9-2.1,1.4-3.5,1.4h-4.7v7.5h-1.2v-17.8h5.9
		c1.4,0,2.6,0.5,3.5,1.4C49.1,249,49.6,250.3,49.6,251.9 M47.4,254.8c0.7-0.7,1-1.6,1-2.9c0-1.3-0.3-2.3-1-2.9c-0.7-0.7-1.6-1-2.8-1
		h-4.6v7.8h4.6C45.7,255.8,46.7,255.5,47.4,254.8"/>
	<path id="XMLID_16_" class="st2" d="M62.3,250.9c0.2,0.9,0.2,2.5,0.2,4.7c0,2.2-0.1,3.8-0.2,4.7c-0.2,0.9-0.6,1.7-1.2,2.5
		c-1.1,1.2-2.4,1.8-4.1,1.8c-1.6,0-3-0.6-4.1-1.8c-0.7-0.7-1.1-1.6-1.2-2.5c-0.2-0.9-0.2-2.5-0.2-4.7c0-2.2,0.1-3.8,0.2-4.7
		c0.2-0.9,0.6-1.7,1.2-2.5c1.1-1.2,2.4-1.8,4.1-1.8c1.6,0,3,0.6,4.1,1.8C61.7,249.2,62.1,250,62.3,250.9 M61.1,259.9
		c0.1-0.8,0.2-2.3,0.2-4.3c0-2-0.1-3.5-0.2-4.3c-0.1-0.8-0.5-1.5-1-2.1c-0.8-0.9-1.9-1.4-3.1-1.4c-1.2,0-2.3,0.5-3.1,1.4
		c-0.6,0.6-0.9,1.3-1,2.1c-0.1,0.8-0.2,2.3-0.2,4.3c0,2,0.1,3.5,0.2,4.3c0.1,0.8,0.5,1.5,1,2.1c0.8,0.9,1.9,1.4,3.1,1.4
		c1.2,0,2.3-0.5,3.1-1.4C60.6,261.5,61,260.8,61.1,259.9"/>
	<polygon id="XMLID_15_" class="st2" points="76.5,264.5 67.1,249 67.1,264.5 65.9,264.5 65.9,246.8 67.1,246.8 76.5,262.1 
		76.5,246.8 77.7,246.8 77.7,264.5 	"/>
	<path id="XMLID_14_" class="st2" d="M91.2,259.8c0,1.5-0.5,2.7-1.5,3.6c-1,0.9-2.3,1.3-4,1.3c-1.2,0-2.2-0.2-3-0.5
		c-0.8-0.4-1.6-1-2.4-1.8l0.9-0.9c0.7,0.8,1.4,1.3,2.1,1.6c0.7,0.3,1.5,0.5,2.5,0.5c1.3,0,2.3-0.3,3.1-1c0.8-0.6,1.1-1.5,1.1-2.7
		c0-1.1-0.3-1.9-0.9-2.5c-0.3-0.3-0.6-0.5-0.9-0.6s-0.8-0.2-1.4-0.3l-1.9-0.3c-1.2-0.2-2.2-0.6-2.9-1.3c-0.9-0.8-1.3-1.9-1.3-3.2
		c0-1.5,0.4-2.7,1.3-3.6c0.9-0.9,2.1-1.3,3.7-1.3c1,0,1.8,0.2,2.5,0.5c0.7,0.3,1.4,0.8,2.1,1.5l-0.8,0.9c-1.1-1.1-2.4-1.6-4-1.6
		c-1.2,0-2.1,0.3-2.8,1c-0.7,0.6-1,1.5-1,2.7c0,1,0.3,1.8,0.9,2.3c0.6,0.5,1.4,0.9,2.5,1.1l1.8,0.3c1.3,0.2,2.2,0.6,2.9,1.2
		C90.7,257.2,91.2,258.3,91.2,259.8"/>
	<rect id="XMLID_13_" x="94" y="246.8" class="st2" width="1.2" height="17.8"/>
	<path id="XMLID_9_" class="st2" d="M110,259.7c0,1.5-0.4,2.7-1.3,3.6c-0.9,0.8-2,1.3-3.5,1.3h-6.1v-17.8h5.9c1.4,0,2.5,0.4,3.4,1.2
		c0.9,0.8,1.3,2,1.3,3.4c0,0.9-0.2,1.8-0.7,2.5c-0.4,0.7-1,1.2-1.8,1.5c0.9,0.3,1.5,0.9,2,1.6C109.7,257.8,110,258.6,110,259.7
		 M107.6,254c0.7-0.6,1-1.4,1-2.6c0-1.2-0.3-2-1-2.6c-0.7-0.6-1.5-0.8-2.6-0.8h-4.6v6.9h4.6C106,254.8,106.9,254.6,107.6,254
		 M107.8,262.3c0.7-0.6,1-1.5,1-2.7c0-1.1-0.3-2-1-2.7c-0.7-0.6-1.6-1-2.7-1h-4.8v7.3h4.8C106.3,263.3,107.2,263,107.8,262.3"/>
	<rect id="XMLID_8_" x="113.4" y="246.8" class="st2" width="1.2" height="17.8"/>
	<polygon id="XMLID_7_" class="st2" points="118.5,264.5 118.5,246.8 119.7,246.8 119.7,263.3 128.4,263.3 128.4,264.5 	"/>
	<rect id="XMLID_6_" x="130.5" y="246.8" class="st2" width="1.2" height="17.8"/>
	<polygon id="XMLID_5_" class="st2" points="139.8,248 139.8,264.5 138.6,264.5 138.6,248 133.7,248 133.7,246.8 144.7,246.8 
		144.7,248 	"/>
	<polygon id="XMLID_4_" class="st2" points="150.5,257.2 150.5,264.5 149.3,264.5 149.3,257.2 144.5,246.8 145.8,246.8 150,255.7 
		154,246.8 155.3,246.8 	"/>
</g>
</svg>
