<svg version="1.1" id="SVG_T5-1" xmlns="http://www.w3.org/2000/svg" xmlns:xlink="http://www.w3.org/1999/xlink" x="0px" y="0px"
	 viewBox="0 0 303.8 297.4" data-viewBox="0 0 303.8 297.4" style="enable-background:new 0 0 303.8 297.4;" xml:space="preserve">
<style type="text/css">
	#SVG_T5-1 .st0{fill:#3D3F41;}
	#SVG_T5-1 .st1{font-family:'Raleway'; font-weight:600;}
	#SVG_T5-1 .st2{font-size:10px; letter-spacing:-0.1px;}
	#SVG_T5-1 .st3{font-size:25px;}
	#SVG_T5-1 .st4{fill:#DE3849;}
</style>
<g class="anim0"><text transform="matrix(1 0 0 1 115.6218 21.3749)" class="st0 st1 st3">Age</text></g>
<g class="anim1-1">
	<text transform="matrix(1 0 0 1 24.51 225.9066)" class="st0 st1 st2">under</text>
	<text transform="matrix(1 0 0 1 24.51 237.9066)" class="st0 st1 st2">20</text>
</g>
<g class="anim2-1">
	<text transform="matrix(1 0 0 1 67.3699 225.7162)" class="st0 st1 st2">20-</text>
	<text transform="matrix(1 0 0 1 67.3699 237.7162)" class="st0 st1 st2">29</text>
</g>
<g class="anim3-1">
	<text transform="matrix(1 0 0 1 106.2498 225.7162)" class="st0 st1 st2">30-</text>
	<text transform="matrix(1 0 0 1 106.2498 237.7162)" class="st0 st1 st2">39</text>
</g>
<g class="anim4-1">
	<text transform="matrix(1 0 0 1 144.3699 225.7162)" class="st0 st1 st2">40-</text>
	<text transform="matrix(1 0 0 1 144.3699 237.7162)" class="st0 st1 st2">49</text>
</g>
<g class="anim5-1">
	<text transform="matrix(1 0 0 1 183.5999 225.7162)" class="st0 st1 st2">50-</text>
	<text transform="matrix(1 0 0 1 183.5999 237.7162)" class="st0 st1 st2">59</text>
</g>
<g class="anim6-1">
	<text transform="matrix(1 0 0 1 214.1799 225.9066)" class="st0 st1 st2">60 and </text>
	<text transform="matrix(1 0 0 1 214.1799 237.9066)" class="st0 st1 st2">over</text>
</g>
<g class="anim7-1">
	<text transform="matrix(1 0 0 1 261.6301 225.7162)" class="st0 st1 st2">n/a</text>
</g>
<g class="anim1-2"><rect x="31.1" y="182.7" class="st4" width="12.9" height="25.5"/></g>
<g class="anim2-2"><rect x="69.9" y="103.3" class="st4" width="12.9" height="104.9"/></g>
<g class="anim7-2"><rect x="263.9" y="199.3" class="st4" width="12.9" height="9"/></g>
<g class="anim6-2"><rect x="225.1" y="166.8" class="st4" width="12.9" height="41.4"/></g>
<g class="anim5-2"><rect x="186.3" y="148.2" class="st4" width="12.9" height="60"/></g>
<g class="anim4-2"><rect x="147.5" y="97.2" class="st4" width="12.9" height="111.1"/></g>
<g class="anim3-2"><rect x="108.7" y="81.7" class="st4" width="12.9" height="126.6"/></g>
</g>
</svg>
