<svg version="1.1" id="SVG_T2G4" xmlns="http://www.w3.org/2000/svg" xmlns:xlink="http://www.w3.org/1999/xlink" x="0px" y="0px"
	 viewBox="0 0 756.8 564.5" data-viewBox="0 0 756.8 564.5" style="enable-background:new 0 0 756.8 564.5;" xml:space="preserve">
<style type="text/css">
	#SVG_T2G4 .st0{fill:#DE3849;}
	#SVG_T2G4 .st1{fill:#3B454A; letter-spacing:-0.1px; }
	#SVG_T2G4 .st2{font-family:'Raleway'; font-weight:600;}
	#SVG_T2G4 .st3{font-size:12px;}
	#SVG_T2G4 .st4{fill:none;stroke:#3B454A;}
	#SVG_T2G4 .st5{font-family:'Raleway'; font-weight:400;}
	#SVG_T2G4 .st6{font-size:30px;}
	#SVG_T2G4 .st7{fill:#DE384A;}
	#SVG_T2G4 .st8{font-size:40px;}
	#SVG_T2G4 .st9{fill:#3D3F41;}
	#SVG_T2G4 .st10{font-size:10px;}
	#SVG_T2G4 .st11{font-size:20px;}
	#SVG_T2G4 .st12{fill:#E5E5E5;}
	#SVG_T2G4 .st13{font-size:16px;}
	#SVG_T2G4 .st14{fill:none;stroke:#E5E5E5;stroke-width:0.75;stroke-miterlimit:10;}
	#SVG_T2G4 .st15{fill:#7DCDA5;}
</style>
<g class="anim8-1">
	<polygon class="st0" points="435.8,263.1 417.7,249.8 84.8,249.8 84.8,303.1 417.7,303.1 417.7,303.1 435.8,289.8 453.9,276.4 "/>
</g>
<g class="anim7-1">
	<polygon class="st0" points="455.8,178.5 437.7,164.8 437.7,164.8 84.8,164.8 84.8,219.5 437.7,219.5 437.7,219.5 455.8,205.8 
		473.9,192.1 "/>
</g>
<g class="anim6-1">
	<polygon class="st0" points="440.1,94 422,80.4 422,80.3 84.8,80.3 84.8,135.1 422,135.1 422,135.1 440.1,121.4 458.1,107.7 "/>
</g>
<g class="anim8">
	<polygon class="st7" points="34.6,261.2 34.6,256.7 31.4,256.7 31.4,261.2 27.1,261.2 27.1,264.4 31.4,264.4 31.4,268.9 34.6,268.9 
		34.6,264.4 39,264.4 39,261.2 "/>
	<path class="st7" d="M54.4,299C54.4,299,54.4,299,54.4,299c0.6-0.6,1.1-1.1,1.7-1.6c0.7-0.7,1.5-1.5,2.1-2.3
		c0.7-0.8,1.3-1.7,1.7-2.6c0.3-0.6,0.5-1.3,0.5-2c0-0.9-0.3-1.6-1-2.1c-0.5-0.5-1.2-0.7-1.9-0.7c-0.5,0-0.9,0.1-1.3,0.3
		c-0.4,0.2-0.7,0.6-1,0.9c-0.3,0.4-0.5,0.9-0.8,1.4c0,0,0,0.1-0.1,0.1c0-0.1-0.1-0.2-0.1-0.2c-0.3-0.5-0.5-1-0.9-1.5
		c-0.4-0.5-0.8-0.8-1.3-1c-0.4-0.1-0.9-0.1-1.4-0.1c-1,0.2-1.7,0.7-2.1,1.7c-0.2,0.6-0.2,1.2-0.1,1.8c0.1,0.8,0.5,1.5,0.9,2.2
		c0.6,0.9,1.2,1.8,1.9,2.6c0.7,0.8,1.5,1.5,2.3,2.3C53.8,298.5,54.1,298.7,54.4,299"/>
	<path class="st7" d="M54.4,299c-0.3-0.3-0.6-0.6-0.9-0.8c-0.8-0.8-1.5-1.5-2.3-2.3c-0.7-0.8-1.4-1.6-1.9-2.6
		c-0.4-0.7-0.7-1.4-0.9-2.2c-0.1-0.6-0.1-1.2,0.1-1.8c0.4-0.9,1.1-1.5,2.1-1.7c0.5-0.1,0.9-0.1,1.4,0.1c0.6,0.2,1,0.5,1.3,1
		c0.4,0.5,0.6,1,0.9,1.5c0,0.1,0.1,0.1,0.1,0.2c0,0,0-0.1,0.1-0.1c0.3-0.5,0.5-1,0.8-1.4c0.3-0.4,0.6-0.7,1-0.9
		c0.4-0.2,0.9-0.3,1.3-0.3c0.7,0,1.3,0.2,1.9,0.7c0.7,0.6,1,1.3,1,2.1c0,0.7-0.2,1.4-0.5,2c-0.4,1-1,1.8-1.7,2.6
		c-0.7,0.8-1.4,1.6-2.1,2.3C55.5,297.9,55,298.4,54.4,299C54.4,299,54.4,299,54.4,299"/>
	<path class="st7" d="M57.4,279.5c1.8,0.5,3.5,1.3,5,2.5c7,5.6,7.2,15.9,0.3,21.6c-6.4,5.4-16.3,3.7-20.6-3.4c-0.3-0.4-0.5-0.6-1-0.6
		c-5.7,0-11.4,0-17.1,0c-0.2,0-0.4,0-0.6,0c-0.6-0.1-0.9-0.4-0.9-0.9c0-0.2,0-0.4,0-0.5c0-14.9,0-29.8,0-44.7c0-1.2,0.3-1.5,1.5-1.5
		c7.6,0,15.2,0,22.8,0c0.6,0,1,0.2,1.4,0.6c2.9,3,5.8,5.9,8.8,8.9c0.4,0.4,0.6,0.8,0.6,1.4c0,5.3,0,10.7,0,16V279.5z M55.4,279.1
		c0-0.2,0-0.2,0-0.3c0-4.9,0-9.9,0-14.8c0-0.4-0.2-0.5-0.5-0.5c-2.5,0-5,0-7.5,0c-1.1,0-1.4-0.3-1.4-1.4c0-2.5,0-4.9,0-7.4v-0.6H24.3
		v43.6h16.4c-1.5-4.8-1-9.3,2.2-13.3C46.1,280.4,50.3,278.8,55.4,279.1 M53.9,281.1c-6.4,0-11.7,5-11.9,11.4
		c-0.2,6.9,5.1,12.4,11.9,12.4c6.5,0,11.9-5.4,11.9-11.8C65.8,286.4,60.5,281.1,53.9,281.1 M48.1,261.5h5.9c-2-1.9-4-3.8-5.9-5.7
		V261.5z"/>
	<path class="st7" d="M45.6,265.9c1.9,0,3.8,0,5.7,0c0.1,0,0.2,0,0.3,0c0.2,0.1,0.4,0.5,0.4,0.9c0,0.5-0.2,0.9-0.4,1
		c-0.1,0-0.1,0-0.2,0c-3.9,0-7.8,0-11.6,0c-0.2,0-0.4-0.2-0.5-0.4c-0.3-0.6,0-1.4,0.4-1.5c0.1,0,0.2,0,0.3,0
		C41.9,265.9,43.7,265.9,45.6,265.9"/>
	<path class="st7" d="M39.9,273.5c-3.7,0-7.3,0-11,0c-0.5,0-0.9-0.1-1.1-0.6c-0.3-0.6,0.1-1.3,0.8-1.4c0.2,0,0.4,0,0.6,0
		c7.2,0,14.3,0,21.5,0c0.2,0,0.4,0,0.6,0c0.5,0.1,0.9,0.5,0.9,1c0,0.5-0.4,0.9-0.9,0.9c-0.2,0-0.4,0-0.6,0
		C47,273.5,43.4,273.5,39.9,273.5"/>
	<path class="st7" d="M37.8,278.5c-3,0-5.9,0-8.9,0c-0.2,0-0.5,0-0.7-0.1c-0.4-0.2-0.6-0.5-0.6-0.9c0-0.4,0.3-0.8,0.7-0.9
		c0.2-0.1,0.5-0.1,0.7-0.1c5.9,0,11.7,0,17.6,0c1,0,1.4,0.3,1.4,1c0,0.7-0.5,1-1.4,1H37.8"/>
	<path class="st7" d="M34.5,283.6c-1.8,0-3.7,0-5.5,0c-0.2,0-0.5,0-0.7-0.1c-0.4-0.2-0.6-0.5-0.6-1c0-0.4,0.2-0.7,0.7-0.9
		c0.2-0.1,0.4-0.1,0.6-0.1c3.7,0,7.5,0,11.2,0c0.2,0,0.4,0,0.6,0.1c0.5,0.1,0.7,0.5,0.7,0.9c0,0.4-0.2,0.8-0.6,0.9
		c-0.2,0.1-0.5,0.1-0.7,0.1C38.2,283.6,36.4,283.6,34.5,283.6"/>
	<path class="st7" d="M33,286.6c1.3,0,2.6,0,4,0c0.8,0,1.2,0.4,1.2,1c0,0.6-0.5,1-1.2,1c-2.7,0-5.4,0-8.1,0c-0.7,0-1.2-0.4-1.2-1
		c0-0.6,0.5-1,1.2-1C30.3,286.6,31.6,286.6,33,286.6"/>
</g>
<g class="anim7">
	<path class="st0" d="M49.5,175.1h5.9c-2-2-4-3.8-5.9-5.7V175.1z M55.3,194.7c-6.4,0-11.7,5-11.9,11.4c-0.2,6.9,5.1,12.4,11.9,12.4
		c6.5,0,11.9-5.4,11.9-11.8C67.2,200.1,61.9,194.7,55.3,194.7 M56.8,192.8c0-0.2,0-0.2,0-0.3c0-4.9,0-9.9,0-14.8
		c0-0.4-0.2-0.5-0.5-0.5c-2.5,0-5,0-7.5,0c-1.1,0-1.4-0.3-1.4-1.4c0-2.5,0-4.9,0-7.4c0-0.2,0-0.4,0-0.6H25.8v43.6h16.4
		c-1.5-4.8-1-9.3,2.2-13.3C47.5,194.1,51.7,192.4,56.8,192.8 M58.8,193.2c1.8,0.5,3.5,1.3,5,2.5c7,5.6,7.2,15.9,0.3,21.6
		c-6.4,5.4-16.3,3.7-20.6-3.4c-0.3-0.4-0.5-0.6-1-0.6c-5.7,0-11.4,0-17.1,0c-0.2,0-0.4,0-0.6,0c-0.6-0.1-0.9-0.4-0.9-0.9
		c0-0.2,0-0.4,0-0.5c0-14.9,0-29.8,0-44.7c0-1.2,0.3-1.5,1.5-1.5c7.6,0,15.2,0,22.8,0c0.6,0,1,0.2,1.4,0.6c2.9,3,5.8,5.9,8.8,8.9
		c0.4,0.4,0.6,0.8,0.6,1.4c0,5.3,0,10.7,0,16V193.2z"/>
	<path class="st0" d="M41.3,179.6c3.6,0,7.2,0,10.7,0c0.2,0,0.4,0,0.6,0c0.5,0.1,0.8,0.5,0.8,0.9c0,0.5-0.3,0.9-0.8,1
		c-0.1,0-0.2,0-0.4,0c-7.4,0-14.7,0-22.1,0c-0.3,0-0.8-0.2-1-0.4c-0.5-0.6-0.1-1.4,0.7-1.5c0.2,0,0.4,0,0.6,0
		C34.1,179.6,37.7,179.6,41.3,179.6"/>
	<path class="st0" d="M41.3,187.1c-3.7,0-7.3,0-11,0c-0.5,0-0.9-0.1-1.1-0.6c-0.3-0.6,0.1-1.3,0.8-1.4c0.2,0,0.4,0,0.6,0
		c7.2,0,14.3,0,21.5,0c0.2,0,0.4,0,0.6,0c0.5,0.1,0.9,0.5,0.9,1c0,0.5-0.4,0.9-0.9,0.9c-0.2,0-0.4,0-0.6,0
		C48.4,187.1,44.9,187.1,41.3,187.1"/>
	<path class="st0" d="M39.3,192.2c-3,0-5.9,0-8.9,0c-0.2,0-0.5,0-0.7-0.1c-0.4-0.2-0.6-0.5-0.6-0.9c0-0.4,0.3-0.8,0.7-0.9
		c0.2-0.1,0.5-0.1,0.7-0.1c5.9,0,11.7,0,17.6,0c1,0,1.4,0.3,1.4,1c0,0.7-0.5,1-1.4,1C45.1,192.2,42.2,192.2,39.3,192.2"/>
	<path class="st0" d="M35.9,197.2c-1.8,0-3.7,0-5.5,0c-0.2,0-0.5,0-0.7-0.1c-0.4-0.2-0.6-0.5-0.6-1c0-0.4,0.2-0.7,0.7-0.9
		c0.2-0.1,0.4-0.1,0.6-0.1c3.7,0,7.5,0,11.2,0c0.2,0,0.4,0,0.6,0.1c0.5,0.1,0.7,0.5,0.7,0.9c0,0.4-0.2,0.8-0.6,0.9
		c-0.2,0.1-0.5,0.1-0.7,0.1C39.6,197.2,37.8,197.2,35.9,197.2"/>
	<path class="st0" d="M34.4,200.2c1.3,0,2.6,0,4,0c0.8,0,1.2,0.4,1.2,1c0,0.6-0.5,1-1.2,1c-2.7,0-5.4,0-8.1,0c-0.7,0-1.2-0.4-1.2-1
		c0-0.6,0.5-1,1.2-1C31.7,200.2,33,200.2,34.4,200.2"/>
	<path class="st0" d="M53.9,209.7c1-1.1,1.9-2.2,2.9-3.4c1.3-1.6,2.7-3.1,4-4.7c0.3-0.4,0.8-0.5,1.2-0.3c0.4,0.2,0.6,0.6,0.5,1.1
		c0,0.2-0.2,0.4-0.3,0.6c-2.4,2.9-4.8,5.7-7.3,8.6c-0.6,0.7-1,0.7-1.7,0.2c-1.6-1.3-3.3-2.6-4.9-3.9c-0.4-0.3-0.6-0.7-0.4-1.1
		c0.1-0.3,0.5-0.6,0.8-0.7c0.3-0.1,0.7,0.1,0.9,0.3C51.1,207.4,52.5,208.5,53.9,209.7"/>
</g>
<g class="anim6">
	<path class="st0" d="M40.3,133.3l25.6-25.6L40.3,82.2l-25.6,25.6L40.3,133.3z M68.7,108.7l-27.5,27.5c-0.5,0.5-1.4,0.5-1.9,0
		l-27.5-27.5c-0.5-0.5-0.5-1.4,0-1.9l27.5-27.5c0.5-0.5,1.4-0.5,1.9,0l27.5,27.5C69.2,107.3,69.2,108.1,68.7,108.7"/>
	<path class="st14" d="M40.3,133.3l25.6-25.6L40.3,82.2l-25.6,25.6L40.3,133.3z M68.7,108.7l-27.5,27.5c-0.5,0.5-1.4,0.5-1.9,0
		l-27.5-27.5c-0.5-0.5-0.5-1.4,0-1.9l27.5-27.5c0.5-0.5,1.4-0.5,1.9,0l27.5,27.5C69.2,107.3,69.2,108.1,68.7,108.7z"/>
	<path class="st0" d="M47.4,99.6c0.1,0.1,0.2,0.2,0.3,0.3c0.7,0.8,1.3,1.6,1.8,2.5c0.9,1.8,1.5,3.6,1.3,5.7c-0.1,1.9-0.9,3.5-2.2,4.7
		s-2.9,2.2-4.7,2.6c-0.5,0.1-1,0.2-1.6,0.1c0-0.2-0.1-0.4-0.1-0.6c0,0,0.1-0.1,0.1-0.2c0.7-0.3,1.3-0.7,1.9-1.2
		c1.3-1.1,2.1-2.4,2.3-4.1c0-0.4,0-0.7,0-1.1c0,0-0.1-0.1-0.1-0.1c0,0-0.1,0.1-0.1,0.1c-0.3,0.6-0.7,1.1-1.2,1.5
		c-0.6,0.5-1.3,0.7-2.1,0.7c0.1-0.3,0.1-0.5,0.2-0.8c0.4-2.4-0.2-4.6-1.8-6.5c-0.5-0.5-1-1-1.5-1.5c0,0-0.1,0-0.2-0.1
		c0,0.1,0,0.1,0,0.2c0.2,0.8,0.3,1.6,0.2,2.5c0,0.8-0.3,1.5-0.8,2.2c-0.3,0.4-0.6,0.8-0.8,1.3c-0.3,0.5-0.3,1.2-0.2,1.8
		c0,0.4,0.1,0.8,0.1,1.3c-0.2-0.1-0.3-0.3-0.4-0.4c-0.9-0.8-1.7-1.7-2.2-2.8c-0.2-0.4-0.3-0.9-0.4-1.3c0-0.1-0.1-0.1-0.1-0.2
		c0,0-0.1,0.1-0.1,0.1c-0.7,1.1-1.2,2.2-1.2,3.5c0,1.2,0.5,2.2,1.4,3.1c0.9,0.9,2,1.5,3.1,1.9c0.1,0.1,0.2,0.1,0.2,0.3
		c0,0.1,0,0.3-0.1,0.4c0,0,0,0,0,0.1c-0.3,0-0.7,0-1-0.1c-1.7-0.2-3.2-0.8-4.5-1.8c-1.6-1.2-2.6-2.9-2.8-4.9c-0.1-1,0-2,0.3-3
		c0.2-0.7,0.5-1.5,0.7-2.2c0.3-0.9,0.3-1.9-0.1-2.8c-0.2-0.3-0.3-0.6-0.5-0.9c0-0.1-0.1-0.1-0.1-0.2c1.4,0,2.3,0,3.2,1.2
		c0.1,0.1,0.1,0.2,0.2,0.3c0,0,0.1,0.1,0.1,0.1c0-0.1,0.1-0.1,0.1-0.2c0-0.3,0-0.7,0.1-1c0.2-2.2,0.9-4.2,2.4-5.9
		c0.5-0.6,1.1-1.2,1.7-1.7c1.1-0.8,2.2-1.5,3.4-2.2c0,0.1-0.1,0.2-0.1,0.2c-0.3,0.6-0.6,1.2-0.7,1.8c-0.4,1.2-0.2,2.4,0.4,3.6
		c0.4,0.7,0.8,1.3,1.4,1.9c0.8,0.8,1.7,1.7,2.5,2.5c0.5,0.6,1,1.2,1.4,1.9c0.5,1.1,0.6,2.2,0.3,3.3c0,0.1,0,0.2,0,0.3
		c0.1,0,0.2-0.1,0.2-0.1c0.9-1,1.3-2.1,1.3-3.4c0-0.7-0.2-1.4-0.4-2.1C47.5,100.1,47.5,99.9,47.4,99.6C47.4,99.6,47.4,99.6,47.4,99.6
		"/>
</g>
<g class="anim5">
	<path class="st15" d="M14.4,494.5c-0.1,0-3.2-1.3-3.3-2.9c-0.1-1.7,1.2-3.2,2.9-3.3l171.7-10.1c19.2-1.1,38.6-1.1,57.4-1
		c37.3,0.1,75.9,0.2,113.7-9c41.4-10.2,83.7-31.1,124.5-51.4c15.3-7.6,31-15.4,46.6-22.6c38.1-17.6,76.9-37,114.4-55.8
		c18.8-9.4,38.2-19.1,57.2-28.5c1.5-0.7,3.4-0.1,4.1,1.4c0.7,1.5,1.8,182.3,0.3,183.1H14.4z"/>
</g>
<g class="anim2">
	<line class="st4" x1="2" y1="502.5" x2="703.9" y2="502.5"/>
</g>
<g class="anim3">
	<line class="st4" x1="713.8" y1="490" x2="713.8" y2="6.8"/>
</g>
<g class="anim6-2">
	<text transform="matrix(1 0 0 1 101.6582 113.0576)"><tspan x="0" y="0" class="st12 st2 st13">Not harm their safety</tspan></text>
	<text transform="matrix(1 0 0 1 473.8662 119.3848)"><tspan x="0" y="0" class="st0 st2 st6">9.4</tspan></text>
</g>
<g class="anim7-2">
	<text transform="matrix(1 0 0 1 101.6582 198.7378)"><tspan x="0" y="0" class="st12 st2 st13">Meet industry standards</tspan></text>
	<text transform="matrix(1 0 0 1 483.8564 204.4951)"><tspan x="7.4" y="0" class="st0 st2 st6">9.5</tspan></text>
</g>
<g class="anim8-2">
	<text transform="matrix(1 0 0 1 101.6582 281.7617)"><tspan x="0" y="0" class="st12 st2 st13">Meet health and safety standards</tspan></text>
	<text transform="matrix(1 0 0 1 473.8662 284.6846)"><tspan x="0" y="0" class="st0 st2 st6">9.4</tspan></text>
</g>
<g class="anim10">
	<text transform="matrix(1 0 0 1 8.7598 403.1875)" class="st0 st2 st8">8.4</text>
	<text transform="matrix(1 0 0 1 10.0352 423.2871)"><tspan x="0" y="0" class="st9 st2 st10">* average score for consumer rights</text>
</g>
<g class="anim4">
	<text transform="matrix(1 0 0 1 725.5996 10.2598)" class="st1 st2 st3">100%</text>
	<text transform="matrix(1 0 0 1 725.5996 494.0635)" class="st1 st2 st3">0%</text>
	<text transform="matrix(1 0 0 1 0 525.5352)" class="st1 st2 st3">0</text>
	<text transform="matrix(1 0 0 1 350.8076 525.5352)" class="st1 st2 st3">5</text>
	<text transform="matrix(1 0 0 1 697.8838 525.5352)" class="st1 st2 st3">10</text>
</g>
<g class="anim1">
	<text transform="matrix(1 0 0 1 374.7822 559.9307)"><tspan x="0" y="0" class="st1 st2 st11">Priority given to consumer rights</tspan></text>
</g>
</svg>
