<svg version="1.1" id="SVG_T5-5" xmlns="http://www.w3.org/2000/svg" xmlns:xlink="http://www.w3.org/1999/xlink" x="0px" y="0px"
	 viewBox="0 0 303.8 297.4" data-viewBox="0 0 303.8 297.4" style="enable-background:new 0 0 303.8 297.4;" xml:space="preserve">
<style type="text/css">
	#SVG_T5-5 .st0{fill:#3B454A;}
	#SVG_T5-5 .st1{font-family:'Raleway'; font-weight:600;}
	#SVG_T5-5 .st2{font-size:10px; letter-spacing:-0.1px;}
	#SVG_T5-5 .st3{fill:#DE3849;}
	#SVG_T5-5 .st4{font-size:19px;}
	#SVG_T5-5 .st5{font-family:'Raleway'; font-weight:400;}
	#SVG_T5-5 .st6{font-size:11.077px;}
	#SVG_T5-5 .st7{font-size:19.2719px;}
	#SVG_T5-5 .st8{font-size:11.2355px;}
	#SVG_T5-5 .st9{fill:#ED8090;}
	#SVG_T5-5 .st10{fill:#7DCDA5;}
	#SVG_T5-5 .st11{fill:#AAE2C5;}
	#SVG_T5-5 .st12{fill:#3D3F41;}
	#SVG_T5-5 .st13{font-size:25px;}
	#SVG_T5-5 .st14{fill:#747f89;}
	#SVG_T5-5 .st15{fill:#9cb3c7;}
</style>
<g class="anim0">
	<text transform="matrix(1 0 0 1 21.4231 21.3749)" class="st12 st1 st13">Occupational status</text>
</g>
<g class="anim2">
	<text transform="matrix(1 0 0 1 76.8015 61.1561)" class="st3 st1 st4">9</text>
	<text transform="matrix(1 0 0 1 89.3752 54.8378)" class="st3 st5 st6">%</text>
	<text transform="matrix(1 0 0 1 76.7825 75.0849)" class="st0 st1 st2">Student</text>
	<text transform="matrix(1 0 0 1 143.4187 56.7948)" class="st3 st1 st4">1</text>
	<text transform="matrix(1 0 0 1 151.4333 50.4686)" class="st3 st5 st6">%</text>
	<text transform="matrix(1 0 0 1 143.4026 69.7352)" class="st0 st1 st2">Other</text>
	<text transform="matrix(1 0 0 1 16.0129 103.0702)" class="st3 st1 st4">10</text>
	<text transform="matrix(1 0 0 1 37.9011 96.7431)" class="st3 st5 st6">%</text>
	<text transform="matrix(1 0 0 1 16.0022 118.0849)" class="st0 st1 st2">Retired</text>
	<text transform="matrix(1 0 0 1 238.9646 112.9452)" class="st3 st1 st4">28</text>
	<text transform="matrix(1 0 0 1 262.7761 106.622)" class="st3 st5 st6">%</text>
	<text transform="matrix(1 0 0 1 238.9519 125.9052)" class="st0 st1 st2">Homemaker</text>
	<text transform="matrix(1 0 0 1 6.1487 165.5536)" class="st3 st1 st7">11</text>
	<text transform="matrix(1 0 0 1 22.4138 159.1366)" class="st3 st5 st8">%</text>
	<text transform="matrix(1 0 0 1 6.1487 178.6884)" class="st0 st1 st2">Employed</text>
	<text transform="matrix(1 0 0 1 6.1487 190.6884)" class="st0 st1 st2">Part-time</text>
	<text transform="matrix(1 0 0 1 34.1877 249.1884)" class="st3 st1 st4">15</text>
	<text transform="matrix(1 0 0 1 54.177 242.8661)" class="st3 st5 st6">%</text>
	<text transform="matrix(1 0 0 1 34.1824 263.035)" class="st0 st1 st2">Employed</text>
	<text transform="matrix(1 0 0 1 212.6619 258.3944)" class="st3 st1 st4">26</text>
	<text transform="matrix(1 0 0 1 237.0818 252.0761)" class="st3 st5 st6">%</text>
	<text transform="matrix(1 0 0 1 212.6628 271.4344)" class="st0 st1 st2">Employed </text>
	<text transform="matrix(1 0 0 1 212.6628 283.4344)" class="st0 st1 st2">Full-time</text>
</g>
<g class="anim1">
	<path class="st3" d="M147.9,87.2c47,0,85.1,38.1,85.1,85.1c0,5.6-0.5,11.2-1.6,16.6l-20.9-4.2
		c6.9-34.6-15.6-68.2-50.2-75.1c-4.1-0.8-8.3-1.2-12.5-1.2V87.2z"/>
	<path class="st9" d="M231.4,189c-9.2,46.1-54,76.1-100.1,66.9c-2.3-0.5-4.6-1-6.9-1.7l5.9-20.5
		c33.9,9.7,69.3-9.8,79-43.7c0.5-1.7,0.9-3.4,1.3-5.2L231.4,189z"/>
	<path class="st10" d="M124.4,254.2c-26.4-7.6-47.5-27.4-56.7-53.3l20.1-7.1c6.9,19.4,22.7,34.3,42.5,40L124.4,254.2
		z"/>
	<path class="st11" d="M67.7,200.8c-6.4-18-6.5-37.6-0.4-55.7l20.2,6.8c-4.6,13.6-4.5,28.3,0.3,41.8L67.7,200.8z"/>
	<path class="st0" d="M67.2,145.1c5.4-16,15.5-30.1,28.9-40.3l13,16.9c-10.1,7.7-17.6,18.2-21.6,30.3L67.2,145.1z"/>
	<path class="st14" d="M96.1,104.8c13-10,28.5-16,44.8-17.3l1.7,21.2c-12.2,1-23.9,5.5-33.6,13L96.1,104.8z"/>
	<path class="st15" d="M140.9,87.5c2.3-0.2,4.6-0.3,7-0.3v21.3c-1.7,0-3.5,0.1-5.2,0.2L140.9,87.5z"/>
</g>
</svg>
