<svg version="1.1" id="SVG_T5-4" xmlns="http://www.w3.org/2000/svg" xmlns:xlink="http://www.w3.org/1999/xlink" x="0px" y="0px"
	 viewBox="0 0 303.8 297.4" data-viewBox="0 0 303.8 297.4" style="enable-background:new 0 0 303.8 297.4;" xml:space="preserve">
<style type="text/css">
	#SVG_T5-4 .st0{fill:#3D3F41;}
	#SVG_T5-4 .st1{font-family:'Raleway'; font-weight:600;}
	#SVG_T5-4 .st2{font-size:25px;}
	#SVG_T5-4 .st3{fill:#DE3849;}
	#SVG_T5-4 .st4{fill:#7DCDA5;}
</style>
<g class="anim0">
	<text transform="matrix(1 0 0 1 102.6873 21.3749)" class="st0 st1 st2">Gender</text>
</g>
<g class="anim1">
	<path class="st3" d="M61.6,91.6c0-1.6,0-3.2,0-4.8c0-0.6,0.3-0.9,1-0.9c3.3,0,6.7,0,10,0c0.6,0,1,0.3,1,0.9c0,3.2,0,6.5,0,9.7
		c0,0.6-0.3,0.9-1,0.9c-0.4,0-0.8,0-1.2,0c-0.3,0-0.4,0.1-0.4,0.3c-0.1,1.4-0.2,2.8-0.4,4.3c-0.1,1.3-0.2,2.7-0.3,4
		c0,0.4-0.4,0.7-0.9,0.7c-1.2,0-2.4,0-3.6,0c-0.5,0-0.8-0.3-0.9-0.7c-0.2-2.2-0.4-4.4-0.6-6.6c0-0.6-0.1-1.1-0.2-1.7
		c0-0.3-0.1-0.4-0.4-0.4c-0.4,0-0.8,0-1.1,0c-0.7,0-1-0.3-1-0.9C61.6,94.8,61.6,93.2,61.6,91.6 M63.3,91.6c0,1.3,0,2.5,0,3.8
		c0,0.4,0.1,0.4,0.5,0.4c0.4,0,0.7,0,1.1,0c0.6,0,0.9,0.3,1,0.8c0.1,0.7,0.1,1.5,0.2,2.2c0.2,2,0.3,4,0.5,6c0,0.2,0.1,0.3,0.4,0.3
		c0.5,0,0.9,0,1.4,0c0.3,0,0.4-0.1,0.4-0.3c0.1-1.8,0.3-3.6,0.4-5.3c0.1-1,0.2-2,0.3-3c0-0.4,0.4-0.7,0.9-0.7c0.4,0,0.8,0,1.2,0
		c0.4,0,0.5-0.1,0.5-0.4c0-2.5,0-5,0-7.5c0-0.4-0.1-0.4-0.5-0.4c-2.6,0-5.1,0-7.7,0c-0.4,0-0.5,0.1-0.5,0.4V91.6"/>
	<path class="st3" d="M67.5,85c-2.3,0-4.1-1.7-4-3.9c0-2,1.9-3.6,4.1-3.6c2.3,0,4.1,1.7,4,3.8C71.6,83.4,69.7,85.1,67.5,85
		 M65.2,81.3c0,1.2,1.1,2.2,2.4,2.2c1.3,0,2.4-1,2.4-2.2c0-1.2-1.1-2.2-2.4-2.2C66.3,79.1,65.2,80.1,65.2,81.3"/>
	<path class="st3" d="M79.8,91.6c0-1.6,0-3.2,0-4.8c0-0.6,0.3-0.9,1-0.9c3.3,0,6.7,0,10,0c0.6,0,1,0.3,1,0.9c0,3.2,0,6.5,0,9.7
		c0,0.6-0.3,0.9-1,0.9c-0.4,0-0.8,0-1.2,0c-0.3,0-0.4,0.1-0.4,0.3c-0.1,1.4-0.2,2.8-0.4,4.3c-0.1,1.3-0.2,2.7-0.3,4
		c0,0.4-0.4,0.7-0.9,0.7c-1.2,0-2.4,0-3.6,0c-0.5,0-0.8-0.3-0.9-0.7c-0.2-2.2-0.4-4.4-0.6-6.6c0-0.6-0.1-1.1-0.2-1.7
		c0-0.3-0.1-0.4-0.4-0.4c-0.4,0-0.8,0-1.1,0c-0.7,0-1-0.3-1-0.9C79.8,94.8,79.8,93.2,79.8,91.6 M81.5,91.6c0,1.3,0,2.5,0,3.8
		c0,0.4,0.1,0.4,0.5,0.4c0.4,0,0.7,0,1.1,0c0.6,0,0.9,0.3,1,0.8c0.1,0.7,0.1,1.5,0.2,2.2c0.2,2,0.3,4,0.5,6c0,0.2,0.1,0.3,0.4,0.3
		c0.5,0,0.9,0,1.4,0c0.3,0,0.4-0.1,0.4-0.3c0.1-1.8,0.3-3.6,0.4-5.3c0.1-1,0.2-2,0.3-3c0-0.4,0.4-0.7,0.9-0.7c0.4,0,0.8,0,1.2,0
		c0.4,0,0.5-0.1,0.5-0.4c0-2.5,0-5,0-7.5c0-0.4-0.1-0.4-0.5-0.4c-2.6,0-5.1,0-7.7,0c-0.4,0-0.5,0.1-0.5,0.4V91.6"/>
	<path class="st3" d="M85.8,85c-2.3,0-4.1-1.7-4-3.9c0-2,1.9-3.6,4.1-3.6c2.3,0,4.1,1.7,4,3.8C89.8,83.4,88,85.1,85.8,85 M83.4,81.3
		c0,1.2,1.1,2.2,2.4,2.2c1.3,0,2.4-1,2.4-2.2c0-1.2-1.1-2.2-2.4-2.2C84.5,79.1,83.4,80.1,83.4,81.3"/>
	<path class="st3" d="M98,91.6c0-1.6,0-3.2,0-4.8c0-0.6,0.3-0.9,1-0.9c3.3,0,6.7,0,10,0c0.6,0,1,0.3,1,0.9c0,3.2,0,6.5,0,9.7
		c0,0.6-0.3,0.9-1,0.9c-0.4,0-0.8,0-1.2,0c-0.3,0-0.4,0.1-0.4,0.3c-0.1,1.4-0.2,2.8-0.4,4.3c-0.1,1.3-0.2,2.7-0.3,4
		c0,0.4-0.4,0.7-0.9,0.7c-1.2,0-2.4,0-3.6,0c-0.5,0-0.8-0.3-0.9-0.7c-0.2-2.2-0.4-4.4-0.6-6.6c0-0.6-0.1-1.1-0.2-1.7
		c0-0.3-0.1-0.4-0.4-0.4c-0.4,0-0.8,0-1.1,0c-0.7,0-1-0.3-1-0.9C98,94.8,98,93.2,98,91.6 M99.7,91.6c0,1.3,0,2.5,0,3.8
		c0,0.4,0.1,0.4,0.5,0.4c0.4,0,0.7,0,1.1,0c0.6,0,0.9,0.3,1,0.8c0.1,0.7,0.1,1.5,0.2,2.2c0.2,2,0.3,4,0.5,6c0,0.2,0.1,0.3,0.4,0.3
		c0.5,0,0.9,0,1.4,0c0.3,0,0.4-0.1,0.4-0.3c0.1-1.8,0.3-3.6,0.4-5.3c0.1-1,0.2-2,0.3-3c0-0.4,0.4-0.7,0.9-0.7c0.4,0,0.8,0,1.2,0
		c0.4,0,0.5-0.1,0.5-0.4c0-2.5,0-5,0-7.5c0-0.4-0.1-0.4-0.5-0.4c-2.6,0-5.1,0-7.7,0c-0.4,0-0.5,0.1-0.5,0.4V91.6"/>
	<path class="st3" d="M104,85c-2.3,0-4.1-1.7-4-3.9c0-2,1.9-3.6,4.1-3.6c2.3,0,4.1,1.7,4,3.8C108,83.4,106.2,85.1,104,85
		 M101.7,81.3c0,1.2,1.1,2.2,2.4,2.2c1.3,0,2.4-1,2.4-2.2c0-1.2-1.1-2.2-2.4-2.2C102.7,79.1,101.7,80.1,101.7,81.3"/>
	<path class="st3" d="M116.3,91.6c0-1.6,0-3.2,0-4.8c0-0.6,0.3-0.9,1-0.9c3.3,0,6.7,0,10,0c0.6,0,1,0.3,1,0.9c0,3.2,0,6.5,0,9.7
		c0,0.6-0.3,0.9-1,0.9c-0.4,0-0.8,0-1.2,0c-0.3,0-0.4,0.1-0.4,0.3c-0.1,1.4-0.2,2.8-0.4,4.3c-0.1,1.3-0.2,2.7-0.3,4
		c0,0.4-0.4,0.7-0.9,0.7c-1.2,0-2.4,0-3.6,0c-0.5,0-0.8-0.3-0.9-0.7c-0.2-2.2-0.4-4.4-0.6-6.6c0-0.6-0.1-1.1-0.2-1.7
		c0-0.3-0.1-0.4-0.4-0.4c-0.4,0-0.8,0-1.1,0c-0.7,0-1-0.3-1-0.9C116.3,94.8,116.3,93.2,116.3,91.6 M118,91.6c0,1.3,0,2.5,0,3.8
		c0,0.4,0.1,0.4,0.5,0.4c0.4,0,0.7,0,1.1,0c0.6,0,0.9,0.3,1,0.8c0.1,0.7,0.1,1.5,0.2,2.2c0.2,2,0.3,4,0.5,6c0,0.2,0.1,0.3,0.4,0.3
		c0.5,0,0.9,0,1.4,0c0.3,0,0.4-0.1,0.4-0.3c0.1-1.8,0.3-3.6,0.4-5.3c0.1-1,0.2-2,0.3-3c0-0.4,0.4-0.7,0.9-0.7c0.4,0,0.8,0,1.2,0
		c0.4,0,0.5-0.1,0.5-0.4c0-2.5,0-5,0-7.5c0-0.4-0.1-0.4-0.5-0.4c-2.6,0-5.1,0-7.7,0c-0.4,0-0.5,0.1-0.5,0.4V91.6"/>
	<path class="st3" d="M122.2,85c-2.3,0-4.1-1.7-4-3.9c0-2,1.9-3.6,4.1-3.6c2.3,0,4.1,1.7,4,3.8C126.3,83.4,124.4,85.1,122.2,85
		 M119.9,81.3c0,1.2,1.1,2.2,2.4,2.2c1.3,0,2.4-1,2.4-2.2c0-1.2-1.1-2.2-2.4-2.2C121,79.1,119.9,80.1,119.9,81.3"/>
	<path class="st3" d="M134.5,91.6c0-1.6,0-3.2,0-4.8c0-0.6,0.3-0.9,1-0.9c3.3,0,6.7,0,10,0c0.6,0,1,0.3,1,0.9c0,3.2,0,6.5,0,9.7
		c0,0.6-0.3,0.9-1,0.9c-0.4,0-0.8,0-1.2,0c-0.3,0-0.4,0.1-0.4,0.3c-0.1,1.4-0.2,2.8-0.4,4.3c-0.1,1.3-0.2,2.7-0.3,4
		c0,0.4-0.4,0.7-0.9,0.7c-1.2,0-2.4,0-3.6,0c-0.5,0-0.8-0.3-0.9-0.7c-0.2-2.2-0.4-4.4-0.6-6.6c0-0.6-0.1-1.1-0.2-1.7
		c0-0.3-0.1-0.4-0.4-0.4c-0.4,0-0.8,0-1.1,0c-0.7,0-1-0.3-1-0.9C134.5,94.8,134.5,93.2,134.5,91.6 M136.2,91.6c0,1.3,0,2.5,0,3.8
		c0,0.4,0.1,0.4,0.5,0.4c0.4,0,0.7,0,1.1,0c0.6,0,0.9,0.3,1,0.8c0.1,0.7,0.1,1.5,0.2,2.2c0.2,2,0.3,4,0.5,6c0,0.2,0.1,0.3,0.4,0.3
		c0.5,0,0.9,0,1.4,0c0.3,0,0.4-0.1,0.4-0.3c0.1-1.8,0.3-3.6,0.4-5.3c0.1-1,0.2-2,0.3-3c0-0.4,0.4-0.7,0.9-0.7c0.4,0,0.8,0,1.2,0
		c0.4,0,0.5-0.1,0.5-0.4c0-2.5,0-5,0-7.5c0-0.4-0.1-0.4-0.5-0.4c-2.6,0-5.1,0-7.7,0c-0.4,0-0.5,0.1-0.5,0.4V91.6"/>
	<path class="st3" d="M140.4,85c-2.3,0-4.1-1.7-4-3.9c0-2,1.9-3.6,4.1-3.6c2.3,0,4.1,1.7,4,3.8C144.5,83.4,142.6,85.1,140.4,85
		 M138.1,81.3c0,1.2,1.1,2.2,2.4,2.2c1.3,0,2.4-1,2.4-2.2c0-1.2-1.1-2.2-2.4-2.2C139.2,79.1,138.1,80.1,138.1,81.3"/>
	<path class="st3" d="M61.6,125.4c0-1.6,0-3.2,0-4.8c0-0.6,0.3-0.9,1-0.9c3.3,0,6.7,0,10,0c0.6,0,1,0.3,1,0.9c0,3.2,0,6.5,0,9.7
		c0,0.6-0.3,0.9-1,0.9c-0.4,0-0.8,0-1.2,0c-0.3,0-0.4,0.1-0.4,0.3c-0.1,1.4-0.2,2.8-0.4,4.3c-0.1,1.3-0.2,2.7-0.3,4
		c0,0.4-0.4,0.7-0.9,0.7c-1.2,0-2.4,0-3.6,0c-0.5,0-0.8-0.3-0.9-0.7c-0.2-2.2-0.4-4.4-0.6-6.6c0-0.6-0.1-1.1-0.2-1.7
		c0-0.3-0.1-0.4-0.4-0.4c-0.4,0-0.8,0-1.1,0c-0.7,0-1-0.3-1-0.9C61.6,128.6,61.6,127,61.6,125.4 M63.3,125.4c0,1.3,0,2.5,0,3.8
		c0,0.4,0.1,0.4,0.5,0.4c0.4,0,0.7,0,1.1,0c0.6,0,0.9,0.3,1,0.8c0.1,0.7,0.1,1.5,0.2,2.2c0.2,2,0.3,4,0.5,6c0,0.2,0.1,0.3,0.4,0.3
		c0.5,0,0.9,0,1.4,0c0.3,0,0.4-0.1,0.4-0.3c0.1-1.8,0.3-3.6,0.4-5.3c0.1-1,0.2-2,0.3-3c0-0.4,0.4-0.7,0.9-0.7c0.4,0,0.8,0,1.2,0
		c0.4,0,0.5-0.1,0.5-0.4c0-2.5,0-5,0-7.5c0-0.3-0.1-0.4-0.5-0.4c-2.6,0-5.1,0-7.7,0c-0.4,0-0.5,0.1-0.5,0.4V125.4"/>
	<path class="st3" d="M67.5,118.9c-2.3,0-4.1-1.7-4-3.9c0-2,1.9-3.6,4.1-3.6c2.3,0,4.1,1.7,4,3.8C71.6,117.3,69.7,118.9,67.5,118.9
		 M65.2,115.2c0,1.2,1.1,2.2,2.4,2.2c1.3,0,2.4-1,2.4-2.2c0-1.2-1.1-2.2-2.4-2.2C66.3,113,65.2,114,65.2,115.2"/>
	<path class="st3" d="M79.8,125.4c0-1.6,0-3.2,0-4.8c0-0.6,0.3-0.9,1-0.9c3.3,0,6.7,0,10,0c0.6,0,1,0.3,1,0.9c0,3.2,0,6.5,0,9.7
		c0,0.6-0.3,0.9-1,0.9c-0.4,0-0.8,0-1.2,0c-0.3,0-0.4,0.1-0.4,0.3c-0.1,1.4-0.2,2.8-0.4,4.3c-0.1,1.3-0.2,2.7-0.3,4
		c0,0.4-0.4,0.7-0.9,0.7c-1.2,0-2.4,0-3.6,0c-0.5,0-0.8-0.3-0.9-0.7c-0.2-2.2-0.4-4.4-0.6-6.6c0-0.6-0.1-1.1-0.2-1.7
		c0-0.3-0.1-0.4-0.4-0.4c-0.4,0-0.8,0-1.1,0c-0.7,0-1-0.3-1-0.9C79.8,128.6,79.8,127,79.8,125.4 M81.5,125.4c0,1.3,0,2.5,0,3.8
		c0,0.4,0.1,0.4,0.5,0.4c0.4,0,0.7,0,1.1,0c0.6,0,0.9,0.3,1,0.8c0.1,0.7,0.1,1.5,0.2,2.2c0.2,2,0.3,4,0.5,6c0,0.2,0.1,0.3,0.4,0.3
		c0.5,0,0.9,0,1.4,0c0.3,0,0.4-0.1,0.4-0.3c0.1-1.8,0.3-3.6,0.4-5.3c0.1-1,0.2-2,0.3-3c0-0.4,0.4-0.7,0.9-0.7c0.4,0,0.8,0,1.2,0
		c0.4,0,0.5-0.1,0.5-0.4c0-2.5,0-5,0-7.5c0-0.3-0.1-0.4-0.5-0.4c-2.6,0-5.1,0-7.7,0c-0.4,0-0.5,0.1-0.5,0.4V125.4"/>
	<path class="st3" d="M85.8,118.9c-2.3,0-4.1-1.7-4-3.9c0-2,1.9-3.6,4.1-3.6c2.3,0,4.1,1.7,4,3.8C89.8,117.3,88,118.9,85.8,118.9
		 M83.4,115.2c0,1.2,1.1,2.2,2.4,2.2c1.3,0,2.4-1,2.4-2.2c0-1.2-1.1-2.2-2.4-2.2C84.5,113,83.4,114,83.4,115.2"/>
	<path class="st3" d="M98,125.4c0-1.6,0-3.2,0-4.8c0-0.6,0.3-0.9,1-0.9c3.3,0,6.7,0,10,0c0.6,0,1,0.3,1,0.9c0,3.2,0,6.5,0,9.7
		c0,0.6-0.3,0.9-1,0.9c-0.4,0-0.8,0-1.2,0c-0.3,0-0.4,0.1-0.4,0.3c-0.1,1.4-0.2,2.8-0.4,4.3c-0.1,1.3-0.2,2.7-0.3,4
		c0,0.4-0.4,0.7-0.9,0.7c-1.2,0-2.4,0-3.6,0c-0.5,0-0.8-0.3-0.9-0.7c-0.2-2.2-0.4-4.4-0.6-6.6c0-0.6-0.1-1.1-0.2-1.7
		c0-0.3-0.1-0.4-0.4-0.4c-0.4,0-0.8,0-1.1,0c-0.7,0-1-0.3-1-0.9C98,128.6,98,127,98,125.4 M99.7,125.4c0,1.3,0,2.5,0,3.8
		c0,0.4,0.1,0.4,0.5,0.4c0.4,0,0.7,0,1.1,0c0.6,0,0.9,0.3,1,0.8c0.1,0.7,0.1,1.5,0.2,2.2c0.2,2,0.3,4,0.5,6c0,0.2,0.1,0.3,0.4,0.3
		c0.5,0,0.9,0,1.4,0c0.3,0,0.4-0.1,0.4-0.3c0.1-1.8,0.3-3.6,0.4-5.3c0.1-1,0.2-2,0.3-3c0-0.4,0.4-0.7,0.9-0.7c0.4,0,0.8,0,1.2,0
		c0.4,0,0.5-0.1,0.5-0.4c0-2.5,0-5,0-7.5c0-0.3-0.1-0.4-0.5-0.4c-2.6,0-5.1,0-7.7,0c-0.4,0-0.5,0.1-0.5,0.4V125.4"/>
	<path class="st3" d="M104,118.9c-2.3,0-4.1-1.7-4-3.9c0-2,1.9-3.6,4.1-3.6c2.3,0,4.1,1.7,4,3.8C108,117.3,106.2,118.9,104,118.9
		 M101.7,115.2c0,1.2,1.1,2.2,2.4,2.2c1.3,0,2.4-1,2.4-2.2c0-1.2-1.1-2.2-2.4-2.2C102.7,113,101.7,114,101.7,115.2"/>
	<path class="st3" d="M116.3,125.4c0-1.6,0-3.2,0-4.8c0-0.6,0.3-0.9,1-0.9c3.3,0,6.7,0,10,0c0.6,0,1,0.3,1,0.9c0,3.2,0,6.5,0,9.7
		c0,0.6-0.3,0.9-1,0.9c-0.4,0-0.8,0-1.2,0c-0.3,0-0.4,0.1-0.4,0.3c-0.1,1.4-0.2,2.8-0.4,4.3c-0.1,1.3-0.2,2.7-0.3,4
		c0,0.4-0.4,0.7-0.9,0.7c-1.2,0-2.4,0-3.6,0c-0.5,0-0.8-0.3-0.9-0.7c-0.2-2.2-0.4-4.4-0.6-6.6c0-0.6-0.1-1.1-0.2-1.7
		c0-0.3-0.1-0.4-0.4-0.4c-0.4,0-0.8,0-1.1,0c-0.7,0-1-0.3-1-0.9C116.3,128.6,116.3,127,116.3,125.4 M118,125.4c0,1.3,0,2.5,0,3.8
		c0,0.4,0.1,0.4,0.5,0.4c0.4,0,0.7,0,1.1,0c0.6,0,0.9,0.3,1,0.8c0.1,0.7,0.1,1.5,0.2,2.2c0.2,2,0.3,4,0.5,6c0,0.2,0.1,0.3,0.4,0.3
		c0.5,0,0.9,0,1.4,0c0.3,0,0.4-0.1,0.4-0.3c0.1-1.8,0.3-3.6,0.4-5.3c0.1-1,0.2-2,0.3-3c0-0.4,0.4-0.7,0.9-0.7c0.4,0,0.8,0,1.2,0
		c0.4,0,0.5-0.1,0.5-0.4c0-2.5,0-5,0-7.5c0-0.3-0.1-0.4-0.5-0.4c-2.6,0-5.1,0-7.7,0c-0.4,0-0.5,0.1-0.5,0.4V125.4"/>
	<path class="st3" d="M122.2,118.9c-2.3,0-4.1-1.7-4-3.9c0-2,1.9-3.6,4.1-3.6c2.3,0,4.1,1.7,4,3.8
		C126.3,117.3,124.4,118.9,122.2,118.9 M119.9,115.2c0,1.2,1.1,2.2,2.4,2.2c1.3,0,2.4-1,2.4-2.2c0-1.2-1.1-2.2-2.4-2.2
		C121,113,119.9,114,119.9,115.2"/>
	<path class="st3" d="M134.5,125.4c0-1.6,0-3.2,0-4.8c0-0.6,0.3-0.9,1-0.9c3.3,0,6.7,0,10,0c0.6,0,1,0.3,1,0.9c0,3.2,0,6.5,0,9.7
		c0,0.6-0.3,0.9-1,0.9c-0.4,0-0.8,0-1.2,0c-0.3,0-0.4,0.1-0.4,0.3c-0.1,1.4-0.2,2.8-0.4,4.3c-0.1,1.3-0.2,2.7-0.3,4
		c0,0.4-0.4,0.7-0.9,0.7c-1.2,0-2.4,0-3.6,0c-0.5,0-0.8-0.3-0.9-0.7c-0.2-2.2-0.4-4.4-0.6-6.6c0-0.6-0.1-1.1-0.2-1.7
		c0-0.3-0.1-0.4-0.4-0.4c-0.4,0-0.8,0-1.1,0c-0.7,0-1-0.3-1-0.9C134.5,128.6,134.5,127,134.5,125.4 M136.2,125.4c0,1.3,0,2.5,0,3.8
		c0,0.4,0.1,0.4,0.5,0.4c0.4,0,0.7,0,1.1,0c0.6,0,0.9,0.3,1,0.8c0.1,0.7,0.1,1.5,0.2,2.2c0.2,2,0.3,4,0.5,6c0,0.2,0.1,0.3,0.4,0.3
		c0.5,0,0.9,0,1.4,0c0.3,0,0.4-0.1,0.4-0.3c0.1-1.8,0.3-3.6,0.4-5.3c0.1-1,0.2-2,0.3-3c0-0.4,0.4-0.7,0.9-0.7c0.4,0,0.8,0,1.2,0
		c0.4,0,0.5-0.1,0.5-0.4c0-2.5,0-5,0-7.5c0-0.3-0.1-0.4-0.5-0.4c-2.6,0-5.1,0-7.7,0c-0.4,0-0.5,0.1-0.5,0.4V125.4"/>
	<path class="st3" d="M140.4,118.9c-2.3,0-4.1-1.7-4-3.9c0-2,1.9-3.6,4.1-3.6c2.3,0,4.1,1.7,4,3.8
		C144.5,117.3,142.6,118.9,140.4,118.9 M138.1,115.2c0,1.2,1.1,2.2,2.4,2.2c1.3,0,2.4-1,2.4-2.2c0-1.2-1.1-2.2-2.4-2.2
		C139.2,113,138.1,114,138.1,115.2"/>
	<path class="st3" d="M61.6,159.3c0-1.6,0-3.2,0-4.8c0-0.6,0.3-0.9,1-0.9c3.3,0,6.7,0,10,0c0.6,0,1,0.3,1,0.9c0,3.2,0,6.5,0,9.7
		c0,0.6-0.3,0.9-1,0.9c-0.4,0-0.8,0-1.2,0c-0.3,0-0.4,0.1-0.4,0.3c-0.1,1.4-0.2,2.8-0.4,4.3c-0.1,1.3-0.2,2.7-0.3,4
		c0,0.4-0.4,0.7-0.9,0.7c-1.2,0-2.4,0-3.6,0c-0.5,0-0.8-0.3-0.9-0.7c-0.2-2.2-0.4-4.4-0.6-6.6c0-0.6-0.1-1.1-0.2-1.7
		c0-0.3-0.1-0.4-0.4-0.4c-0.4,0-0.8,0-1.1,0c-0.7,0-1-0.3-1-0.9C61.6,162.5,61.6,160.9,61.6,159.3 M63.3,159.3c0,1.3,0,2.5,0,3.8
		c0,0.4,0.1,0.4,0.5,0.4c0.4,0,0.7,0,1.1,0c0.6,0,0.9,0.3,1,0.8c0.1,0.7,0.1,1.5,0.2,2.2c0.2,2,0.3,4,0.5,6c0,0.2,0.1,0.3,0.4,0.3
		c0.5,0,0.9,0,1.4,0c0.3,0,0.4-0.1,0.4-0.3c0.1-1.8,0.3-3.6,0.4-5.3c0.1-1,0.2-2,0.3-3c0-0.4,0.4-0.7,0.9-0.7c0.4,0,0.8,0,1.2,0
		c0.4,0,0.5-0.1,0.5-0.4c0-2.5,0-5,0-7.5c0-0.4-0.1-0.4-0.5-0.4c-2.6,0-5.1,0-7.7,0c-0.4,0-0.5,0.1-0.5,0.4V159.3"/>
	<path class="st3" d="M67.5,152.7c-2.3,0-4.1-1.7-4-3.9c0-2,1.9-3.6,4.1-3.6c2.3,0,4.1,1.7,4,3.8C71.6,151.1,69.7,152.8,67.5,152.7
		 M65.2,149c0,1.2,1.1,2.2,2.4,2.2c1.3,0,2.4-1,2.4-2.2c0-1.2-1.1-2.2-2.4-2.2C66.3,146.8,65.2,147.8,65.2,149"/>
	<path class="st3" d="M79.8,159.3c0-1.6,0-3.2,0-4.8c0-0.6,0.3-0.9,1-0.9c3.3,0,6.7,0,10,0c0.6,0,1,0.3,1,0.9c0,3.2,0,6.5,0,9.7
		c0,0.6-0.3,0.9-1,0.9c-0.4,0-0.8,0-1.2,0c-0.3,0-0.4,0.1-0.4,0.3c-0.1,1.4-0.2,2.8-0.4,4.3c-0.1,1.3-0.2,2.7-0.3,4
		c0,0.4-0.4,0.7-0.9,0.7c-1.2,0-2.4,0-3.6,0c-0.5,0-0.8-0.3-0.9-0.7c-0.2-2.2-0.4-4.4-0.6-6.6c0-0.6-0.1-1.1-0.2-1.7
		c0-0.3-0.1-0.4-0.4-0.4c-0.4,0-0.8,0-1.1,0c-0.7,0-1-0.3-1-0.9C79.8,162.5,79.8,160.9,79.8,159.3 M81.5,159.3c0,1.3,0,2.5,0,3.8
		c0,0.4,0.1,0.4,0.5,0.4c0.4,0,0.7,0,1.1,0c0.6,0,0.9,0.3,1,0.8c0.1,0.7,0.1,1.5,0.2,2.2c0.2,2,0.3,4,0.5,6c0,0.2,0.1,0.3,0.4,0.3
		c0.5,0,0.9,0,1.4,0c0.3,0,0.4-0.1,0.4-0.3c0.1-1.8,0.3-3.6,0.4-5.3c0.1-1,0.2-2,0.3-3c0-0.4,0.4-0.7,0.9-0.7c0.4,0,0.8,0,1.2,0
		c0.4,0,0.5-0.1,0.5-0.4c0-2.5,0-5,0-7.5c0-0.4-0.1-0.4-0.5-0.4c-2.6,0-5.1,0-7.7,0c-0.4,0-0.5,0.1-0.5,0.4V159.3"/>
	<path class="st3" d="M85.8,152.7c-2.3,0-4.1-1.7-4-3.9c0-2,1.9-3.6,4.1-3.6c2.3,0,4.1,1.7,4,3.8C89.8,151.1,88,152.8,85.8,152.7
		 M83.4,149c0,1.2,1.1,2.2,2.4,2.2c1.3,0,2.4-1,2.4-2.2c0-1.2-1.1-2.2-2.4-2.2C84.5,146.8,83.4,147.8,83.4,149"/>
	<path class="st3" d="M98,159.3c0-1.6,0-3.2,0-4.8c0-0.6,0.3-0.9,1-0.9c3.3,0,6.7,0,10,0c0.6,0,1,0.3,1,0.9c0,3.2,0,6.5,0,9.7
		c0,0.6-0.3,0.9-1,0.9c-0.4,0-0.8,0-1.2,0c-0.3,0-0.4,0.1-0.4,0.3c-0.1,1.4-0.2,2.8-0.4,4.3c-0.1,1.3-0.2,2.7-0.3,4
		c0,0.4-0.4,0.7-0.9,0.7c-1.2,0-2.4,0-3.6,0c-0.5,0-0.8-0.3-0.9-0.7c-0.2-2.2-0.4-4.4-0.6-6.6c0-0.6-0.1-1.1-0.2-1.7
		c0-0.3-0.1-0.4-0.4-0.4c-0.4,0-0.8,0-1.1,0c-0.7,0-1-0.3-1-0.9C98,162.5,98,160.9,98,159.3 M99.7,159.3c0,1.3,0,2.5,0,3.8
		c0,0.4,0.1,0.4,0.5,0.4c0.4,0,0.7,0,1.1,0c0.6,0,0.9,0.3,1,0.8c0.1,0.7,0.1,1.5,0.2,2.2c0.2,2,0.3,4,0.5,6c0,0.2,0.1,0.3,0.4,0.3
		c0.5,0,0.9,0,1.4,0c0.3,0,0.4-0.1,0.4-0.3c0.1-1.8,0.3-3.6,0.4-5.3c0.1-1,0.2-2,0.3-3c0-0.4,0.4-0.7,0.9-0.7c0.4,0,0.8,0,1.2,0
		c0.4,0,0.5-0.1,0.5-0.4c0-2.5,0-5,0-7.5c0-0.4-0.1-0.4-0.5-0.4c-2.6,0-5.1,0-7.7,0c-0.4,0-0.5,0.1-0.5,0.4V159.3"/>
	<path class="st3" d="M104,152.7c-2.3,0-4.1-1.7-4-3.9c0-2,1.9-3.6,4.1-3.6c2.3,0,4.1,1.7,4,3.8C108,151.1,106.2,152.8,104,152.7
		 M101.7,149c0,1.2,1.1,2.2,2.4,2.2c1.3,0,2.4-1,2.4-2.2c0-1.2-1.1-2.2-2.4-2.2C102.7,146.8,101.7,147.8,101.7,149"/>
	<path class="st3" d="M116.3,159.3c0-1.6,0-3.2,0-4.8c0-0.6,0.3-0.9,1-0.9c3.3,0,6.7,0,10,0c0.6,0,1,0.3,1,0.9c0,3.2,0,6.5,0,9.7
		c0,0.6-0.3,0.9-1,0.9c-0.4,0-0.8,0-1.2,0c-0.3,0-0.4,0.1-0.4,0.3c-0.1,1.4-0.2,2.8-0.4,4.3c-0.1,1.3-0.2,2.7-0.3,4
		c0,0.4-0.4,0.7-0.9,0.7c-1.2,0-2.4,0-3.6,0c-0.5,0-0.8-0.3-0.9-0.7c-0.2-2.2-0.4-4.4-0.6-6.6c0-0.6-0.1-1.1-0.2-1.7
		c0-0.3-0.1-0.4-0.4-0.4c-0.4,0-0.8,0-1.1,0c-0.7,0-1-0.3-1-0.9C116.3,162.5,116.3,160.9,116.3,159.3 M118,159.3c0,1.3,0,2.5,0,3.8
		c0,0.4,0.1,0.4,0.5,0.4c0.4,0,0.7,0,1.1,0c0.6,0,0.9,0.3,1,0.8c0.1,0.7,0.1,1.5,0.2,2.2c0.2,2,0.3,4,0.5,6c0,0.2,0.1,0.3,0.4,0.3
		c0.5,0,0.9,0,1.4,0c0.3,0,0.4-0.1,0.4-0.3c0.1-1.8,0.3-3.6,0.4-5.3c0.1-1,0.2-2,0.3-3c0-0.4,0.4-0.7,0.9-0.7c0.4,0,0.8,0,1.2,0
		c0.4,0,0.5-0.1,0.5-0.4c0-2.5,0-5,0-7.5c0-0.4-0.1-0.4-0.5-0.4c-2.6,0-5.1,0-7.7,0c-0.4,0-0.5,0.1-0.5,0.4V159.3"/>
	<path class="st3" d="M122.2,152.7c-2.3,0-4.1-1.7-4-3.9c0-2,1.9-3.6,4.1-3.6c2.3,0,4.1,1.7,4,3.8
		C126.3,151.1,124.4,152.8,122.2,152.7 M119.9,149c0,1.2,1.1,2.2,2.4,2.2c1.3,0,2.4-1,2.4-2.2c0-1.2-1.1-2.2-2.4-2.2
		C121,146.8,119.9,147.8,119.9,149"/>
	<path class="st3" d="M134.5,159.3c0-1.6,0-3.2,0-4.8c0-0.6,0.3-0.9,1-0.9c3.3,0,6.7,0,10,0c0.6,0,1,0.3,1,0.9c0,3.2,0,6.5,0,9.7
		c0,0.6-0.3,0.9-1,0.9c-0.4,0-0.8,0-1.2,0c-0.3,0-0.4,0.1-0.4,0.3c-0.1,1.4-0.2,2.8-0.4,4.3c-0.1,1.3-0.2,2.7-0.3,4
		c0,0.4-0.4,0.7-0.9,0.7c-1.2,0-2.4,0-3.6,0c-0.5,0-0.8-0.3-0.9-0.7c-0.2-2.2-0.4-4.4-0.6-6.6c0-0.6-0.1-1.1-0.2-1.7
		c0-0.3-0.1-0.4-0.4-0.4c-0.4,0-0.8,0-1.1,0c-0.7,0-1-0.3-1-0.9C134.5,162.5,134.5,160.9,134.5,159.3 M136.2,159.3
		c0,1.3,0,2.5,0,3.8c0,0.4,0.1,0.4,0.5,0.4c0.4,0,0.7,0,1.1,0c0.6,0,0.9,0.3,1,0.8c0.1,0.7,0.1,1.5,0.2,2.2c0.2,2,0.3,4,0.5,6
		c0,0.2,0.1,0.3,0.4,0.3c0.5,0,0.9,0,1.4,0c0.3,0,0.4-0.1,0.4-0.3c0.1-1.8,0.3-3.6,0.4-5.3c0.1-1,0.2-2,0.3-3c0-0.4,0.4-0.7,0.9-0.7
		c0.4,0,0.8,0,1.2,0c0.4,0,0.5-0.1,0.5-0.4c0-2.5,0-5,0-7.5c0-0.4-0.1-0.4-0.5-0.4c-2.6,0-5.1,0-7.7,0c-0.4,0-0.5,0.1-0.5,0.4V159.3
		"/>
	<path class="st3" d="M140.4,152.7c-2.3,0-4.1-1.7-4-3.9c0-2,1.9-3.6,4.1-3.6c2.3,0,4.1,1.7,4,3.8
		C144.5,151.1,142.6,152.8,140.4,152.7 M138.1,149c0,1.2,1.1,2.2,2.4,2.2c1.3,0,2.4-1,2.4-2.2c0-1.2-1.1-2.2-2.4-2.2
		C139.2,146.8,138.1,147.8,138.1,149"/>
	<path class="st3" d="M61.6,193.1c0-1.6,0-3.2,0-4.8c0-0.6,0.3-0.9,1-0.9c3.3,0,6.7,0,10,0c0.6,0,1,0.3,1,0.9c0,3.2,0,6.5,0,9.7
		c0,0.6-0.3,0.9-1,0.9c-0.4,0-0.8,0-1.2,0c-0.3,0-0.4,0.1-0.4,0.3c-0.1,1.4-0.2,2.8-0.4,4.3c-0.1,1.3-0.2,2.7-0.3,4
		c0,0.4-0.4,0.7-0.9,0.7c-1.2,0-2.4,0-3.6,0c-0.5,0-0.8-0.3-0.9-0.7c-0.2-2.2-0.4-4.4-0.6-6.6c0-0.6-0.1-1.1-0.2-1.7
		c0-0.3-0.1-0.4-0.4-0.4c-0.4,0-0.8,0-1.1,0c-0.7,0-1-0.3-1-0.9C61.6,196.3,61.6,194.7,61.6,193.1 M63.3,193.1c0,1.3,0,2.5,0,3.8
		c0,0.4,0.1,0.4,0.5,0.4c0.4,0,0.7,0,1.1,0c0.6,0,0.9,0.3,1,0.8c0.1,0.7,0.1,1.5,0.2,2.2c0.2,2,0.3,4,0.5,6c0,0.2,0.1,0.3,0.4,0.3
		c0.5,0,0.9,0,1.4,0c0.3,0,0.4-0.1,0.4-0.3c0.1-1.8,0.3-3.6,0.4-5.3c0.1-1,0.2-2,0.3-3c0-0.4,0.4-0.7,0.9-0.7c0.4,0,0.8,0,1.2,0
		c0.4,0,0.5-0.1,0.5-0.4c0-2.5,0-5,0-7.5c0-0.3-0.1-0.4-0.5-0.4c-2.6,0-5.1,0-7.7,0c-0.4,0-0.5,0.1-0.5,0.4V193.1"/>
	<path class="st3" d="M67.5,186.6c-2.3,0-4.1-1.7-4-3.9c0-2,1.9-3.6,4.1-3.6c2.3,0,4.1,1.7,4,3.8C71.6,185,69.7,186.6,67.5,186.6
		 M65.2,182.8c0,1.2,1.1,2.2,2.4,2.2c1.3,0,2.4-1,2.4-2.2c0-1.2-1.1-2.2-2.4-2.2C66.3,180.7,65.2,181.7,65.2,182.8"/>
	<path class="st3" d="M79.8,193.1c0-1.6,0-3.2,0-4.8c0-0.6,0.3-0.9,1-0.9c3.3,0,6.7,0,10,0c0.6,0,1,0.3,1,0.9c0,3.2,0,6.5,0,9.7
		c0,0.6-0.3,0.9-1,0.9c-0.4,0-0.8,0-1.2,0c-0.3,0-0.4,0.1-0.4,0.3c-0.1,1.4-0.2,2.8-0.4,4.3c-0.1,1.3-0.2,2.7-0.3,4
		c0,0.4-0.4,0.7-0.9,0.7c-1.2,0-2.4,0-3.6,0c-0.5,0-0.8-0.3-0.9-0.7c-0.2-2.2-0.4-4.4-0.6-6.6c0-0.6-0.1-1.1-0.2-1.7
		c0-0.3-0.1-0.4-0.4-0.4c-0.4,0-0.8,0-1.1,0c-0.7,0-1-0.3-1-0.9C79.8,196.3,79.8,194.7,79.8,193.1 M81.5,193.1c0,1.3,0,2.5,0,3.8
		c0,0.4,0.1,0.4,0.5,0.4c0.4,0,0.7,0,1.1,0c0.6,0,0.9,0.3,1,0.8c0.1,0.7,0.1,1.5,0.2,2.2c0.2,2,0.3,4,0.5,6c0,0.2,0.1,0.3,0.4,0.3
		c0.5,0,0.9,0,1.4,0c0.3,0,0.4-0.1,0.4-0.3c0.1-1.8,0.3-3.6,0.4-5.3c0.1-1,0.2-2,0.3-3c0-0.4,0.4-0.7,0.9-0.7c0.4,0,0.8,0,1.2,0
		c0.4,0,0.5-0.1,0.5-0.4c0-2.5,0-5,0-7.5c0-0.3-0.1-0.4-0.5-0.4c-2.6,0-5.1,0-7.7,0c-0.4,0-0.5,0.1-0.5,0.4V193.1"/>
	<path class="st3" d="M85.8,186.6c-2.3,0-4.1-1.7-4-3.9c0-2,1.9-3.6,4.1-3.6c2.3,0,4.1,1.7,4,3.8C89.8,185,88,186.6,85.8,186.6
		 M83.4,182.8c0,1.2,1.1,2.2,2.4,2.2c1.3,0,2.4-1,2.4-2.2c0-1.2-1.1-2.2-2.4-2.2C84.5,180.7,83.4,181.7,83.4,182.8"/>
	<path class="st3" d="M98,193.1c0-1.6,0-3.2,0-4.8c0-0.6,0.3-0.9,1-0.9c3.3,0,6.7,0,10,0c0.6,0,1,0.3,1,0.9c0,3.2,0,6.5,0,9.7
		c0,0.6-0.3,0.9-1,0.9c-0.4,0-0.8,0-1.2,0c-0.3,0-0.4,0.1-0.4,0.3c-0.1,1.4-0.2,2.8-0.4,4.3c-0.1,1.3-0.2,2.7-0.3,4
		c0,0.4-0.4,0.7-0.9,0.7c-1.2,0-2.4,0-3.6,0c-0.5,0-0.8-0.3-0.9-0.7c-0.2-2.2-0.4-4.4-0.6-6.6c0-0.6-0.1-1.1-0.2-1.7
		c0-0.3-0.1-0.4-0.4-0.4c-0.4,0-0.8,0-1.1,0c-0.7,0-1-0.3-1-0.9C98,196.3,98,194.7,98,193.1 M99.7,193.1c0,1.3,0,2.5,0,3.8
		c0,0.4,0.1,0.4,0.5,0.4c0.4,0,0.7,0,1.1,0c0.6,0,0.9,0.3,1,0.8c0.1,0.7,0.1,1.5,0.2,2.2c0.2,2,0.3,4,0.5,6c0,0.2,0.1,0.3,0.4,0.3
		c0.5,0,0.9,0,1.4,0c0.3,0,0.4-0.1,0.4-0.3c0.1-1.8,0.3-3.6,0.4-5.3c0.1-1,0.2-2,0.3-3c0-0.4,0.4-0.7,0.9-0.7c0.4,0,0.8,0,1.2,0
		c0.4,0,0.5-0.1,0.5-0.4c0-2.5,0-5,0-7.5c0-0.3-0.1-0.4-0.5-0.4c-2.6,0-5.1,0-7.7,0c-0.4,0-0.5,0.1-0.5,0.4V193.1"/>
	<path class="st3" d="M104,186.6c-2.3,0-4.1-1.7-4-3.9c0-2,1.9-3.6,4.1-3.6c2.3,0,4.1,1.7,4,3.8C108,185,106.2,186.6,104,186.6
		 M101.7,182.8c0,1.2,1.1,2.2,2.4,2.2c1.3,0,2.4-1,2.4-2.2c0-1.2-1.1-2.2-2.4-2.2C102.7,180.7,101.7,181.7,101.7,182.8"/>
	<path class="st3" d="M116.3,193.1c0-1.6,0-3.2,0-4.8c0-0.6,0.3-0.9,1-0.9c3.3,0,6.7,0,10,0c0.6,0,1,0.3,1,0.9c0,3.2,0,6.5,0,9.7
		c0,0.6-0.3,0.9-1,0.9c-0.4,0-0.8,0-1.2,0c-0.3,0-0.4,0.1-0.4,0.3c-0.1,1.4-0.2,2.8-0.4,4.3c-0.1,1.3-0.2,2.7-0.3,4
		c0,0.4-0.4,0.7-0.9,0.7c-1.2,0-2.4,0-3.6,0c-0.5,0-0.8-0.3-0.9-0.7c-0.2-2.2-0.4-4.4-0.6-6.6c0-0.6-0.1-1.1-0.2-1.7
		c0-0.3-0.1-0.4-0.4-0.4c-0.4,0-0.8,0-1.1,0c-0.7,0-1-0.3-1-0.9C116.3,196.3,116.3,194.7,116.3,193.1 M118,193.1c0,1.3,0,2.5,0,3.8
		c0,0.4,0.1,0.4,0.5,0.4c0.4,0,0.7,0,1.1,0c0.6,0,0.9,0.3,1,0.8c0.1,0.7,0.1,1.5,0.2,2.2c0.2,2,0.3,4,0.5,6c0,0.2,0.1,0.3,0.4,0.3
		c0.5,0,0.9,0,1.4,0c0.3,0,0.4-0.1,0.4-0.3c0.1-1.8,0.3-3.6,0.4-5.3c0.1-1,0.2-2,0.3-3c0-0.4,0.4-0.7,0.9-0.7c0.4,0,0.8,0,1.2,0
		c0.4,0,0.5-0.1,0.5-0.4c0-2.5,0-5,0-7.5c0-0.3-0.1-0.4-0.5-0.4c-2.6,0-5.1,0-7.7,0c-0.4,0-0.5,0.1-0.5,0.4V193.1"/>
	<path class="st3" d="M122.2,186.6c-2.3,0-4.1-1.7-4-3.9c0-2,1.9-3.6,4.1-3.6c2.3,0,4.1,1.7,4,3.8
		C126.3,185,124.4,186.6,122.2,186.6 M119.9,182.8c0,1.2,1.1,2.2,2.4,2.2c1.3,0,2.4-1,2.4-2.2c0-1.2-1.1-2.2-2.4-2.2
		C121,180.7,119.9,181.7,119.9,182.8"/>
	<path class="st3" d="M134.5,193.1c0-1.6,0-3.2,0-4.8c0-0.6,0.3-0.9,1-0.9c3.3,0,6.7,0,10,0c0.6,0,1,0.3,1,0.9c0,3.2,0,6.5,0,9.7
		c0,0.6-0.3,0.9-1,0.9c-0.4,0-0.8,0-1.2,0c-0.3,0-0.4,0.1-0.4,0.3c-0.1,1.4-0.2,2.8-0.4,4.3c-0.1,1.3-0.2,2.7-0.3,4
		c0,0.4-0.4,0.7-0.9,0.7c-1.2,0-2.4,0-3.6,0c-0.5,0-0.8-0.3-0.9-0.7c-0.2-2.2-0.4-4.4-0.6-6.6c0-0.6-0.1-1.1-0.2-1.7
		c0-0.3-0.1-0.4-0.4-0.4c-0.4,0-0.8,0-1.1,0c-0.7,0-1-0.3-1-0.9C134.5,196.3,134.5,194.7,134.5,193.1 M136.2,193.1
		c0,1.3,0,2.5,0,3.8c0,0.4,0.1,0.4,0.5,0.4c0.4,0,0.7,0,1.1,0c0.6,0,0.9,0.3,1,0.8c0.1,0.7,0.1,1.5,0.2,2.2c0.2,2,0.3,4,0.5,6
		c0,0.2,0.1,0.3,0.4,0.3c0.5,0,0.9,0,1.4,0c0.3,0,0.4-0.1,0.4-0.3c0.1-1.8,0.3-3.6,0.4-5.3c0.1-1,0.2-2,0.3-3c0-0.4,0.4-0.7,0.9-0.7
		c0.4,0,0.8,0,1.2,0c0.4,0,0.5-0.1,0.5-0.4c0-2.5,0-5,0-7.5c0-0.3-0.1-0.4-0.5-0.4c-2.6,0-5.1,0-7.7,0c-0.4,0-0.5,0.1-0.5,0.4V193.1
		"/>
	<path class="st3" d="M140.4,186.6c-2.3,0-4.1-1.7-4-3.9c0-2,1.9-3.6,4.1-3.6c2.3,0,4.1,1.7,4,3.8
		C144.5,185,142.6,186.6,140.4,186.6 M138.1,182.8c0,1.2,1.1,2.2,2.4,2.2c1.3,0,2.4-1,2.4-2.2c0-1.2-1.1-2.2-2.4-2.2
		C139.2,180.7,138.1,181.7,138.1,182.8"/>
	<path class="st3" d="M61.6,227c0-1.6,0-3.2,0-4.8c0-0.6,0.3-0.9,1-0.9c3.3,0,6.7,0,10,0c0.6,0,1,0.3,1,0.9c0,3.2,0,6.5,0,9.7
		c0,0.6-0.3,0.9-1,0.9c-0.4,0-0.8,0-1.2,0c-0.3,0-0.4,0.1-0.4,0.3c-0.1,1.4-0.2,2.8-0.4,4.3c-0.1,1.3-0.2,2.7-0.3,4
		c0,0.4-0.4,0.7-0.9,0.7c-1.2,0-2.4,0-3.6,0c-0.5,0-0.8-0.3-0.9-0.7c-0.2-2.2-0.4-4.4-0.6-6.6c0-0.6-0.1-1.1-0.2-1.7
		c0-0.3-0.1-0.4-0.4-0.4c-0.4,0-0.8,0-1.1,0c-0.7,0-1-0.3-1-0.9C61.6,230.2,61.6,228.6,61.6,227 M63.3,227c0,1.3,0,2.5,0,3.8
		c0,0.4,0.1,0.4,0.5,0.4c0.4,0,0.7,0,1.1,0c0.6,0,0.9,0.3,1,0.8c0.1,0.7,0.1,1.5,0.2,2.2c0.2,2,0.3,4,0.5,6c0,0.2,0.1,0.3,0.4,0.3
		c0.5,0,0.9,0,1.4,0c0.3,0,0.4-0.1,0.4-0.3c0.1-1.8,0.3-3.6,0.4-5.3c0.1-1,0.2-2,0.3-3c0-0.4,0.4-0.7,0.9-0.7c0.4,0,0.8,0,1.2,0
		c0.4,0,0.5-0.1,0.5-0.4c0-2.5,0-5,0-7.5c0-0.4-0.1-0.4-0.5-0.4c-2.6,0-5.1,0-7.7,0c-0.4,0-0.5,0.1-0.5,0.4V227"/>
	<path class="st3" d="M67.5,220.4c-2.3,0-4.1-1.7-4-3.9c0-2,1.9-3.6,4.1-3.6c2.3,0,4.1,1.7,4,3.8C71.6,218.8,69.7,220.5,67.5,220.4
		 M65.2,216.7c0,1.2,1.1,2.2,2.4,2.2c1.3,0,2.4-1,2.4-2.2c0-1.2-1.1-2.2-2.4-2.2C66.3,214.5,65.2,215.5,65.2,216.7"/>
	<path class="st3" d="M79.8,227c0-1.6,0-3.2,0-4.8c0-0.6,0.3-0.9,1-0.9c3.3,0,6.7,0,10,0c0.6,0,1,0.3,1,0.9c0,3.2,0,6.5,0,9.7
		c0,0.6-0.3,0.9-1,0.9c-0.4,0-0.8,0-1.2,0c-0.3,0-0.4,0.1-0.4,0.3c-0.1,1.4-0.2,2.8-0.4,4.3c-0.1,1.3-0.2,2.7-0.3,4
		c0,0.4-0.4,0.7-0.9,0.7c-1.2,0-2.4,0-3.6,0c-0.5,0-0.8-0.3-0.9-0.7c-0.2-2.2-0.4-4.4-0.6-6.6c0-0.6-0.1-1.1-0.2-1.7
		c0-0.3-0.1-0.4-0.4-0.4c-0.4,0-0.8,0-1.1,0c-0.7,0-1-0.3-1-0.9C79.8,230.2,79.8,228.6,79.8,227 M81.5,227c0,1.3,0,2.5,0,3.8
		c0,0.4,0.1,0.4,0.5,0.4c0.4,0,0.7,0,1.1,0c0.6,0,0.9,0.3,1,0.8c0.1,0.7,0.1,1.5,0.2,2.2c0.2,2,0.3,4,0.5,6c0,0.2,0.1,0.3,0.4,0.3
		c0.5,0,0.9,0,1.4,0c0.3,0,0.4-0.1,0.4-0.3c0.1-1.8,0.3-3.6,0.4-5.3c0.1-1,0.2-2,0.3-3c0-0.4,0.4-0.7,0.9-0.7c0.4,0,0.8,0,1.2,0
		c0.4,0,0.5-0.1,0.5-0.4c0-2.5,0-5,0-7.5c0-0.4-0.1-0.4-0.5-0.4c-2.6,0-5.1,0-7.7,0c-0.4,0-0.5,0.1-0.5,0.4V227"/>
	<path class="st3" d="M85.8,220.4c-2.3,0-4.1-1.7-4-3.9c0-2,1.9-3.6,4.1-3.6c2.3,0,4.1,1.7,4,3.8C89.8,218.8,88,220.5,85.8,220.4
		 M83.4,216.7c0,1.2,1.1,2.2,2.4,2.2c1.3,0,2.4-1,2.4-2.2c0-1.2-1.1-2.2-2.4-2.2C84.5,214.5,83.4,215.5,83.4,216.7"/>
	<path class="st3" d="M98,227c0-1.6,0-3.2,0-4.8c0-0.6,0.3-0.9,1-0.9c3.3,0,6.7,0,10,0c0.6,0,1,0.3,1,0.9c0,3.2,0,6.5,0,9.7
		c0,0.6-0.3,0.9-1,0.9c-0.4,0-0.8,0-1.2,0c-0.3,0-0.4,0.1-0.4,0.3c-0.1,1.4-0.2,2.8-0.4,4.3c-0.1,1.3-0.2,2.7-0.3,4
		c0,0.4-0.4,0.7-0.9,0.7c-1.2,0-2.4,0-3.6,0c-0.5,0-0.8-0.3-0.9-0.7c-0.2-2.2-0.4-4.4-0.6-6.6c0-0.6-0.1-1.1-0.2-1.7
		c0-0.3-0.1-0.4-0.4-0.4c-0.4,0-0.8,0-1.1,0c-0.7,0-1-0.3-1-0.9C98,230.2,98,228.6,98,227 M99.7,227c0,1.3,0,2.5,0,3.8
		c0,0.4,0.1,0.4,0.5,0.4c0.4,0,0.7,0,1.1,0c0.6,0,0.9,0.3,1,0.8c0.1,0.7,0.1,1.5,0.2,2.2c0.2,2,0.3,4,0.5,6c0,0.2,0.1,0.3,0.4,0.3
		c0.5,0,0.9,0,1.4,0c0.3,0,0.4-0.1,0.4-0.3c0.1-1.8,0.3-3.6,0.4-5.3c0.1-1,0.2-2,0.3-3c0-0.4,0.4-0.7,0.9-0.7c0.4,0,0.8,0,1.2,0
		c0.4,0,0.5-0.1,0.5-0.4c0-2.5,0-5,0-7.5c0-0.4-0.1-0.4-0.5-0.4c-2.6,0-5.1,0-7.7,0c-0.4,0-0.5,0.1-0.5,0.4V227"/>
	<path class="st3" d="M104,220.4c-2.3,0-4.1-1.7-4-3.9c0-2,1.9-3.6,4.1-3.6c2.3,0,4.1,1.7,4,3.8C108,218.8,106.2,220.5,104,220.4
		 M101.7,216.7c0,1.2,1.1,2.2,2.4,2.2c1.3,0,2.4-1,2.4-2.2c0-1.2-1.1-2.2-2.4-2.2C102.7,214.5,101.7,215.5,101.7,216.7"/>
	<path class="st3" d="M116.3,227c0-1.6,0-3.2,0-4.8c0-0.6,0.3-0.9,1-0.9c3.3,0,6.7,0,10,0c0.6,0,1,0.3,1,0.9c0,3.2,0,6.5,0,9.7
		c0,0.6-0.3,0.9-1,0.9c-0.4,0-0.8,0-1.2,0c-0.3,0-0.4,0.1-0.4,0.3c-0.1,1.4-0.2,2.8-0.4,4.3c-0.1,1.3-0.2,2.7-0.3,4
		c0,0.4-0.4,0.7-0.9,0.7c-1.2,0-2.4,0-3.6,0c-0.5,0-0.8-0.3-0.9-0.7c-0.2-2.2-0.4-4.4-0.6-6.6c0-0.6-0.1-1.1-0.2-1.7
		c0-0.3-0.1-0.4-0.4-0.4c-0.4,0-0.8,0-1.1,0c-0.7,0-1-0.3-1-0.9C116.3,230.2,116.3,228.6,116.3,227 M118,227c0,1.3,0,2.5,0,3.8
		c0,0.4,0.1,0.4,0.5,0.4c0.4,0,0.7,0,1.1,0c0.6,0,0.9,0.3,1,0.8c0.1,0.7,0.1,1.5,0.2,2.2c0.2,2,0.3,4,0.5,6c0,0.2,0.1,0.3,0.4,0.3
		c0.5,0,0.9,0,1.4,0c0.3,0,0.4-0.1,0.4-0.3c0.1-1.8,0.3-3.6,0.4-5.3c0.1-1,0.2-2,0.3-3c0-0.4,0.4-0.7,0.9-0.7c0.4,0,0.8,0,1.2,0
		c0.4,0,0.5-0.1,0.5-0.4c0-2.5,0-5,0-7.5c0-0.4-0.1-0.4-0.5-0.4c-2.6,0-5.1,0-7.7,0c-0.4,0-0.5,0.1-0.5,0.4V227"/>
	<path class="st3" d="M122.2,220.4c-2.3,0-4.1-1.7-4-3.9c0-2,1.9-3.6,4.1-3.6c2.3,0,4.1,1.7,4,3.8
		C126.3,218.8,124.4,220.5,122.2,220.4 M119.9,216.7c0,1.2,1.1,2.2,2.4,2.2c1.3,0,2.4-1,2.4-2.2c0-1.2-1.1-2.2-2.4-2.2
		C121,214.5,119.9,215.5,119.9,216.7"/>
	<path class="st3" d="M134.5,227c0-1.6,0-3.2,0-4.8c0-0.6,0.3-0.9,1-0.9c3.3,0,6.7,0,10,0c0.6,0,1,0.3,1,0.9c0,3.2,0,6.5,0,9.7
		c0,0.6-0.3,0.9-1,0.9c-0.4,0-0.8,0-1.2,0c-0.3,0-0.4,0.1-0.4,0.3c-0.1,1.4-0.2,2.8-0.4,4.3c-0.1,1.3-0.2,2.7-0.3,4
		c0,0.4-0.4,0.7-0.9,0.7c-1.2,0-2.4,0-3.6,0c-0.5,0-0.8-0.3-0.9-0.7c-0.2-2.2-0.4-4.4-0.6-6.6c0-0.6-0.1-1.1-0.2-1.7
		c0-0.3-0.1-0.4-0.4-0.4c-0.4,0-0.8,0-1.1,0c-0.7,0-1-0.3-1-0.9C134.5,230.2,134.5,228.6,134.5,227 M136.2,227c0,1.3,0,2.5,0,3.8
		c0,0.4,0.1,0.4,0.5,0.4c0.4,0,0.7,0,1.1,0c0.6,0,0.9,0.3,1,0.8c0.1,0.7,0.1,1.5,0.2,2.2c0.2,2,0.3,4,0.5,6c0,0.2,0.1,0.3,0.4,0.3
		c0.5,0,0.9,0,1.4,0c0.3,0,0.4-0.1,0.4-0.3c0.1-1.8,0.3-3.6,0.4-5.3c0.1-1,0.2-2,0.3-3c0-0.4,0.4-0.7,0.9-0.7c0.4,0,0.8,0,1.2,0
		c0.4,0,0.5-0.1,0.5-0.4c0-2.5,0-5,0-7.5c0-0.4-0.1-0.4-0.5-0.4c-2.6,0-5.1,0-7.7,0c-0.4,0-0.5,0.1-0.5,0.4V227"/>
	<path class="st3" d="M140.4,220.4c-2.3,0-4.1-1.7-4-3.9c0-2,1.9-3.6,4.1-3.6c2.3,0,4.1,1.7,4,3.8
		C144.5,218.8,142.6,220.5,140.4,220.4 M138.1,216.7c0,1.2,1.1,2.2,2.4,2.2c1.3,0,2.4-1,2.4-2.2c0-1.2-1.1-2.2-2.4-2.2
		C139.2,214.5,138.1,215.5,138.1,216.7"/>
	<path class="st4" d="M157.2,85.8c1,0,1.9,0,2.9,0c0.6,0,1,0.3,1,0.9c0.2,2.1,0.4,4.2,0.5,6.3c0.2,1.9,0.3,3.7,0.5,5.6
		c0.1,0.8,0.1,1.5,0.2,2.3c0,0.2,0,0.4-0.1,0.6c-0.1,0.3-0.4,0.5-0.8,0.5c-0.3,0-0.5,0-0.8,0c-0.4,0-0.4,0.1-0.5,0.4
		c-0.1,1.2-0.2,2.5-0.3,3.7c0,0.5-0.4,0.8-0.9,0.8c-1.2,0-2.4,0-3.6,0c-0.5,0-0.8-0.3-0.9-0.8c-0.1-1.2-0.2-2.5-0.3-3.7
		c0-0.3-0.1-0.4-0.5-0.4c-0.3,0-0.5,0-0.8,0c-0.5,0-0.9-0.4-0.9-0.9c0.2-2.6,0.4-5.1,0.6-7.7c0.2-2.2,0.4-4.4,0.6-6.6
		c0.1-0.7,0.3-0.9,1.1-0.9H157.2 M157.2,105.3c0.2,0,0.4,0,0.6,0c0.3,0,0.4-0.1,0.4-0.4c0.1-1.3,0.2-2.5,0.3-3.8
		c0-0.4,0.4-0.7,0.8-0.7c0.2,0,0.4,0,0.7,0c0.3,0,0.4-0.1,0.4-0.4c-0.1-0.8-0.1-1.6-0.2-2.4c-0.2-1.9-0.3-3.8-0.5-5.7
		c-0.1-1.4-0.2-2.7-0.3-4.1c0-0.3-0.1-0.4-0.4-0.4c-1.2,0-2.4,0-3.6,0c-0.3,0-0.4,0.1-0.4,0.4c-0.2,1.9-0.3,3.8-0.5,5.6
		c-0.1,1.6-0.3,3.3-0.4,4.9c0,0.6-0.1,1.1-0.1,1.7c0,0.2,0.1,0.3,0.4,0.3c0.1,0,0.2,0,0.3,0c1.1-0.1,1.3,0.4,1.3,1.2
		c0.1,1.1,0.2,2.3,0.3,3.4c0,0.2,0.1,0.4,0.4,0.3C156.7,105.3,157,105.3,157.2,105.3"/>
	<path class="st4" d="M157.2,77.6c2.3,0.1,4.1,1.7,4,3.8c-0.1,2-1.9,3.7-4.1,3.6c-2.3-0.1-4.1-1.7-4-3.8
		C153.2,79.2,155.1,77.5,157.2,77.6 M159.5,81.3c0-1.2-1.1-2.2-2.4-2.2c-1.3,0-2.3,1-2.4,2.1c0,1.2,1,2.2,2.3,2.2
		C158.5,83.5,159.5,82.5,159.5,81.3"/>
	<path class="st4" d="M172.9,85.8c1,0,1.9,0,2.9,0c0.6,0,1,0.3,1,0.9c0.2,2.1,0.4,4.2,0.5,6.3c0.2,1.9,0.3,3.7,0.5,5.6
		c0.1,0.8,0.1,1.5,0.2,2.3c0,0.2,0,0.4-0.1,0.6c-0.1,0.3-0.4,0.5-0.8,0.5c-0.3,0-0.5,0-0.8,0c-0.4,0-0.4,0.1-0.5,0.4
		c-0.1,1.2-0.2,2.5-0.3,3.7c0,0.5-0.4,0.8-0.9,0.8c-1.2,0-2.4,0-3.6,0c-0.5,0-0.8-0.3-0.9-0.8c-0.1-1.2-0.2-2.5-0.3-3.7
		c0-0.3-0.1-0.4-0.5-0.4c-0.3,0-0.5,0-0.8,0c-0.5,0-0.9-0.4-0.9-0.9c0.2-2.6,0.4-5.1,0.6-7.7c0.2-2.2,0.4-4.4,0.6-6.6
		c0.1-0.7,0.3-0.9,1.1-0.9H172.9 M172.9,105.3c0.2,0,0.4,0,0.6,0c0.3,0,0.4-0.1,0.4-0.4c0.1-1.3,0.2-2.5,0.3-3.8
		c0-0.4,0.4-0.7,0.8-0.7c0.2,0,0.4,0,0.7,0c0.3,0,0.4-0.1,0.4-0.4c-0.1-0.8-0.1-1.6-0.2-2.4c-0.2-1.9-0.3-3.8-0.5-5.7
		c-0.1-1.4-0.2-2.7-0.3-4.1c0-0.3-0.1-0.4-0.4-0.4c-1.2,0-2.4,0-3.6,0c-0.3,0-0.4,0.1-0.4,0.4c-0.2,1.9-0.3,3.8-0.5,5.6
		c-0.1,1.6-0.3,3.3-0.4,4.9c0,0.6-0.1,1.1-0.1,1.7c0,0.2,0.1,0.3,0.4,0.3c0.1,0,0.2,0,0.3,0c1.1-0.1,1.3,0.4,1.3,1.2
		c0.1,1.1,0.2,2.3,0.3,3.4c0,0.2,0.1,0.4,0.4,0.3C172.5,105.3,172.7,105.3,172.9,105.3"/>
	<path class="st4" d="M172.9,77.6c2.3,0.1,4.1,1.7,4,3.8c-0.1,2-1.9,3.7-4.1,3.6c-2.3-0.1-4.1-1.7-4-3.8
		C168.9,79.2,170.8,77.5,172.9,77.6 M175.3,81.3c0-1.2-1.1-2.2-2.4-2.2c-1.3,0-2.3,1-2.4,2.1c0,1.2,1,2.2,2.3,2.2
		C174.2,83.5,175.3,82.5,175.3,81.3"/>
	<path class="st4" d="M189,85.8c1,0,1.9,0,2.9,0c0.6,0,1,0.3,1,0.9c0.2,2.1,0.4,4.2,0.5,6.3c0.2,1.9,0.3,3.7,0.5,5.6
		c0.1,0.8,0.1,1.5,0.2,2.3c0,0.2,0,0.4-0.1,0.6c-0.1,0.3-0.4,0.5-0.8,0.5c-0.3,0-0.5,0-0.8,0c-0.4,0-0.4,0.1-0.5,0.4
		c-0.1,1.2-0.2,2.5-0.3,3.7c0,0.5-0.4,0.8-0.9,0.8c-1.2,0-2.4,0-3.6,0c-0.5,0-0.8-0.3-0.9-0.8c-0.1-1.2-0.2-2.5-0.3-3.7
		c0-0.3-0.1-0.4-0.5-0.4c-0.3,0-0.5,0-0.8,0c-0.5,0-0.9-0.4-0.9-0.9c0.2-2.6,0.4-5.1,0.6-7.7c0.2-2.2,0.4-4.4,0.6-6.6
		c0.1-0.7,0.3-0.9,1.1-0.9H189 M188.9,105.3c0.2,0,0.4,0,0.6,0c0.3,0,0.4-0.1,0.4-0.4c0.1-1.3,0.2-2.5,0.3-3.8
		c0-0.4,0.4-0.7,0.8-0.7c0.2,0,0.4,0,0.7,0c0.3,0,0.4-0.1,0.4-0.4c-0.1-0.8-0.1-1.6-0.2-2.4c-0.2-1.9-0.3-3.8-0.5-5.7
		c-0.1-1.4-0.2-2.7-0.3-4.1c0-0.3-0.1-0.4-0.4-0.4c-1.2,0-2.4,0-3.6,0c-0.3,0-0.4,0.1-0.4,0.4c-0.2,1.9-0.3,3.8-0.5,5.6
		c-0.1,1.6-0.3,3.3-0.4,4.9c0,0.6-0.1,1.1-0.1,1.7c0,0.2,0.1,0.3,0.4,0.3c0.1,0,0.2,0,0.3,0c1.1-0.1,1.3,0.4,1.3,1.2
		c0.1,1.1,0.2,2.3,0.3,3.4c0,0.2,0.1,0.4,0.4,0.3C188.5,105.3,188.7,105.3,188.9,105.3"/>
	<path class="st4" d="M189,77.6c2.3,0.1,4.1,1.7,4,3.8c-0.1,2-1.9,3.7-4.1,3.6c-2.3-0.1-4.1-1.7-4-3.8
		C184.9,79.2,186.8,77.5,189,77.6 M191.3,81.3c0-1.2-1.1-2.2-2.4-2.2c-1.3,0-2.3,1-2.4,2.1c0,1.2,1,2.2,2.3,2.2
		C190.2,83.5,191.3,82.5,191.3,81.3"/>
	<path class="st4" d="M205,85.8c1,0,1.9,0,2.9,0c0.6,0,1,0.3,1,0.9c0.2,2.1,0.4,4.2,0.5,6.3c0.2,1.9,0.3,3.7,0.5,5.6
		c0.1,0.8,0.1,1.5,0.2,2.3c0,0.2,0,0.4-0.1,0.6c-0.1,0.3-0.4,0.5-0.8,0.5c-0.3,0-0.5,0-0.8,0c-0.4,0-0.4,0.1-0.5,0.4
		c-0.1,1.2-0.2,2.5-0.3,3.7c0,0.5-0.4,0.8-0.9,0.8c-1.2,0-2.4,0-3.6,0c-0.5,0-0.8-0.3-0.9-0.8c-0.1-1.2-0.2-2.5-0.3-3.7
		c0-0.3-0.1-0.4-0.5-0.4c-0.3,0-0.5,0-0.8,0c-0.5,0-0.9-0.4-0.9-0.9c0.2-2.6,0.4-5.1,0.6-7.7c0.2-2.2,0.4-4.4,0.6-6.6
		c0.1-0.7,0.3-0.9,1.1-0.9H205 M205,105.3c0.2,0,0.4,0,0.6,0c0.3,0,0.4-0.1,0.4-0.4c0.1-1.3,0.2-2.5,0.3-3.8c0-0.4,0.4-0.7,0.8-0.7
		c0.2,0,0.4,0,0.7,0c0.3,0,0.4-0.1,0.4-0.4c-0.1-0.8-0.1-1.6-0.2-2.4c-0.2-1.9-0.3-3.8-0.5-5.7c-0.1-1.4-0.2-2.7-0.3-4.1
		c0-0.3-0.1-0.4-0.4-0.4c-1.2,0-2.4,0-3.6,0c-0.3,0-0.4,0.1-0.4,0.4c-0.2,1.9-0.3,3.8-0.5,5.6c-0.1,1.6-0.3,3.3-0.4,4.9
		c0,0.6-0.1,1.1-0.1,1.7c0,0.2,0.1,0.3,0.4,0.3c0.1,0,0.2,0,0.3,0c1.1-0.1,1.3,0.4,1.3,1.2c0.1,1.1,0.2,2.3,0.3,3.4
		c0,0.2,0.1,0.4,0.4,0.3C204.5,105.3,204.8,105.3,205,105.3"/>
	<path class="st4" d="M205,77.6c2.3,0.1,4.1,1.7,4,3.8c-0.1,2-1.9,3.7-4.1,3.6c-2.3-0.1-4.1-1.7-4-3.8C201,79.2,202.9,77.5,205,77.6
		 M207.3,81.3c0-1.2-1.1-2.2-2.4-2.2c-1.3,0-2.3,1-2.4,2.1c0,1.2,1,2.2,2.3,2.2C206.3,83.5,207.3,82.5,207.3,81.3"/>
	<path class="st4" d="M221,85.8c1,0,1.9,0,2.9,0c0.6,0,1,0.3,1,0.9c0.2,2.1,0.4,4.2,0.5,6.3c0.2,1.9,0.3,3.7,0.5,5.6
		c0.1,0.8,0.1,1.5,0.2,2.3c0,0.2,0,0.4-0.1,0.6c-0.1,0.3-0.4,0.5-0.8,0.5c-0.3,0-0.5,0-0.8,0c-0.4,0-0.4,0.1-0.5,0.4
		c-0.1,1.2-0.2,2.5-0.3,3.7c0,0.5-0.4,0.8-0.9,0.8c-1.2,0-2.4,0-3.6,0c-0.5,0-0.8-0.3-0.9-0.8c-0.1-1.2-0.2-2.5-0.3-3.7
		c0-0.3-0.1-0.4-0.5-0.4c-0.3,0-0.5,0-0.8,0c-0.5,0-0.9-0.4-0.9-0.9c0.2-2.6,0.4-5.1,0.6-7.7c0.2-2.2,0.4-4.4,0.6-6.6
		c0.1-0.7,0.3-0.9,1.1-0.9H221 M221,105.3c0.2,0,0.4,0,0.6,0c0.3,0,0.4-0.1,0.4-0.4c0.1-1.3,0.2-2.5,0.3-3.8c0-0.4,0.4-0.7,0.8-0.7
		c0.2,0,0.4,0,0.7,0c0.3,0,0.4-0.1,0.4-0.4c-0.1-0.8-0.1-1.6-0.2-2.4c-0.2-1.9-0.3-3.8-0.5-5.7c-0.1-1.4-0.2-2.7-0.3-4.1
		c0-0.3-0.1-0.4-0.4-0.4c-1.2,0-2.4,0-3.6,0c-0.3,0-0.4,0.1-0.4,0.4c-0.2,1.9-0.3,3.8-0.5,5.6c-0.1,1.6-0.3,3.3-0.4,4.9
		c0,0.6-0.1,1.1-0.1,1.7c0,0.2,0.1,0.3,0.4,0.3c0.1,0,0.2,0,0.3,0c1.1-0.1,1.3,0.4,1.3,1.2c0.1,1.1,0.2,2.3,0.3,3.4
		c0,0.2,0.1,0.4,0.4,0.3C220.6,105.3,220.8,105.3,221,105.3"/>
	<path class="st4" d="M221.1,77.6c2.3,0.1,4.1,1.7,4,3.8c-0.1,2-1.9,3.7-4.1,3.6c-2.3-0.1-4.1-1.7-4-3.8
		C217,79.2,218.9,77.5,221.1,77.6 M223.4,81.3c0-1.2-1.1-2.2-2.4-2.2c-1.3,0-2.3,1-2.4,2.1c0,1.2,1,2.2,2.3,2.2
		C222.3,83.5,223.4,82.5,223.4,81.3"/>
	<path class="st4" d="M237.1,85.8c1,0,1.9,0,2.9,0c0.6,0,1,0.3,1,0.9c0.2,2.1,0.4,4.2,0.5,6.3c0.2,1.9,0.3,3.7,0.5,5.6
		c0.1,0.8,0.1,1.5,0.2,2.3c0,0.2,0,0.4-0.1,0.6c-0.1,0.3-0.4,0.5-0.8,0.5c-0.3,0-0.5,0-0.8,0c-0.4,0-0.4,0.1-0.5,0.4
		c-0.1,1.2-0.2,2.5-0.3,3.7c0,0.5-0.4,0.8-0.9,0.8c-1.2,0-2.4,0-3.6,0c-0.5,0-0.8-0.3-0.9-0.8c-0.1-1.2-0.2-2.5-0.3-3.7
		c0-0.3-0.1-0.4-0.5-0.4c-0.3,0-0.5,0-0.8,0c-0.5,0-0.9-0.4-0.9-0.9c0.2-2.6,0.4-5.1,0.6-7.7c0.2-2.2,0.4-4.4,0.6-6.6
		c0.1-0.7,0.3-0.9,1.1-0.9H237.1 M237.1,105.3c0.2,0,0.4,0,0.6,0c0.3,0,0.4-0.1,0.4-0.4c0.1-1.3,0.2-2.5,0.3-3.8
		c0-0.4,0.4-0.7,0.8-0.7c0.2,0,0.4,0,0.7,0c0.3,0,0.4-0.1,0.4-0.4c-0.1-0.8-0.1-1.6-0.2-2.4c-0.2-1.9-0.3-3.8-0.5-5.7
		c-0.1-1.4-0.2-2.7-0.3-4.1c0-0.3-0.1-0.4-0.4-0.4c-1.2,0-2.4,0-3.6,0c-0.3,0-0.4,0.1-0.4,0.4c-0.2,1.9-0.3,3.8-0.5,5.6
		c-0.1,1.6-0.3,3.3-0.4,4.9c0,0.6-0.1,1.1-0.1,1.7c0,0.2,0.1,0.3,0.4,0.3c0.1,0,0.2,0,0.3,0c1.1-0.1,1.3,0.4,1.3,1.2
		c0.1,1.1,0.2,2.3,0.3,3.4c0,0.2,0.1,0.4,0.4,0.3C236.6,105.3,236.9,105.3,237.1,105.3"/>
	<path class="st4" d="M237.1,77.6c2.3,0.1,4.1,1.7,4,3.8c-0.1,2-1.9,3.7-4.1,3.6c-2.3-0.1-4.1-1.7-4-3.8
		C233.1,79.2,235,77.5,237.1,77.6 M239.4,81.3c0-1.2-1.1-2.2-2.4-2.2c-1.3,0-2.3,1-2.4,2.1c0,1.2,1,2.2,2.3,2.2
		C238.3,83.5,239.4,82.5,239.4,81.3"/>
	<path class="st4" d="M157.2,119.7c1,0,1.9,0,2.9,0c0.6,0,1,0.3,1,0.9c0.2,2.1,0.4,4.2,0.5,6.3c0.2,1.9,0.3,3.7,0.5,5.6
		c0.1,0.8,0.1,1.5,0.2,2.3c0,0.2,0,0.4-0.1,0.6c-0.1,0.3-0.4,0.5-0.8,0.5c-0.3,0-0.5,0-0.8,0c-0.4,0-0.4,0.1-0.5,0.4
		c-0.1,1.2-0.2,2.5-0.3,3.7c0,0.5-0.4,0.8-0.9,0.8c-1.2,0-2.4,0-3.6,0c-0.5,0-0.8-0.3-0.9-0.8c-0.1-1.2-0.2-2.5-0.3-3.7
		c0-0.3-0.1-0.4-0.5-0.4c-0.3,0-0.5,0-0.8,0c-0.5,0-0.9-0.4-0.9-0.9c0.2-2.6,0.4-5.1,0.6-7.7c0.2-2.2,0.4-4.4,0.6-6.6
		c0.1-0.7,0.3-0.9,1.1-0.9H157.2 M157.2,139.1c0.2,0,0.4,0,0.6,0c0.3,0,0.4-0.1,0.4-0.4c0.1-1.3,0.2-2.5,0.3-3.8
		c0-0.4,0.4-0.7,0.8-0.7c0.2,0,0.4,0,0.7,0c0.3,0,0.4-0.1,0.4-0.4c-0.1-0.8-0.1-1.6-0.2-2.4c-0.2-1.9-0.3-3.8-0.5-5.7
		c-0.1-1.4-0.2-2.7-0.3-4.1c0-0.3-0.1-0.4-0.4-0.4c-1.2,0-2.4,0-3.6,0c-0.3,0-0.4,0.1-0.4,0.4c-0.2,1.9-0.3,3.8-0.5,5.6
		c-0.1,1.6-0.3,3.3-0.4,4.9c0,0.6-0.1,1.1-0.1,1.7c0,0.2,0.1,0.3,0.4,0.3c0.1,0,0.2,0,0.3,0c1.1-0.1,1.3,0.4,1.3,1.2
		c0.1,1.1,0.2,2.3,0.3,3.4c0,0.2,0.1,0.4,0.4,0.4C156.7,139.1,157,139.1,157.2,139.1"/>
	<path class="st4" d="M157.2,111.4c2.3,0.1,4.1,1.7,4,3.8c-0.1,2-1.9,3.7-4.1,3.6c-2.3-0.1-4.1-1.7-4-3.8
		C153.2,113,155.1,111.4,157.2,111.4 M159.5,115.2c0-1.2-1.1-2.2-2.4-2.2c-1.3,0-2.3,1-2.4,2.1c0,1.2,1,2.2,2.3,2.2
		C158.5,117.4,159.5,116.4,159.5,115.2"/>
	<path class="st4" d="M172.9,119.7c1,0,1.9,0,2.9,0c0.6,0,1,0.3,1,0.9c0.2,2.1,0.4,4.2,0.5,6.3c0.2,1.9,0.3,3.7,0.5,5.6
		c0.1,0.8,0.1,1.5,0.2,2.3c0,0.2,0,0.4-0.1,0.6c-0.1,0.3-0.4,0.5-0.8,0.5c-0.3,0-0.5,0-0.8,0c-0.4,0-0.4,0.1-0.5,0.4
		c-0.1,1.2-0.2,2.5-0.3,3.7c0,0.5-0.4,0.8-0.9,0.8c-1.2,0-2.4,0-3.6,0c-0.5,0-0.8-0.3-0.9-0.8c-0.1-1.2-0.2-2.5-0.3-3.7
		c0-0.3-0.1-0.4-0.5-0.4c-0.3,0-0.5,0-0.8,0c-0.5,0-0.9-0.4-0.9-0.9c0.2-2.6,0.4-5.1,0.6-7.7c0.2-2.2,0.4-4.4,0.6-6.6
		c0.1-0.7,0.3-0.9,1.1-0.9H172.9 M172.9,139.1c0.2,0,0.4,0,0.6,0c0.3,0,0.4-0.1,0.4-0.4c0.1-1.3,0.2-2.5,0.3-3.8
		c0-0.4,0.4-0.7,0.8-0.7c0.2,0,0.4,0,0.7,0c0.3,0,0.4-0.1,0.4-0.4c-0.1-0.8-0.1-1.6-0.2-2.4c-0.2-1.9-0.3-3.8-0.5-5.7
		c-0.1-1.4-0.2-2.7-0.3-4.1c0-0.3-0.1-0.4-0.4-0.4c-1.2,0-2.4,0-3.6,0c-0.3,0-0.4,0.1-0.4,0.4c-0.2,1.9-0.3,3.8-0.5,5.6
		c-0.1,1.6-0.3,3.3-0.4,4.9c0,0.6-0.1,1.1-0.1,1.7c0,0.2,0.1,0.3,0.4,0.3c0.1,0,0.2,0,0.3,0c1.1-0.1,1.3,0.4,1.3,1.2
		c0.1,1.1,0.2,2.3,0.3,3.4c0,0.2,0.1,0.4,0.4,0.4C172.5,139.1,172.7,139.1,172.9,139.1"/>
	<path class="st4" d="M172.9,111.4c2.3,0.1,4.1,1.7,4,3.8c-0.1,2-1.9,3.7-4.1,3.6c-2.3-0.1-4.1-1.7-4-3.8
		C168.9,113,170.8,111.4,172.9,111.4 M175.3,115.2c0-1.2-1.1-2.2-2.4-2.2c-1.3,0-2.3,1-2.4,2.1c0,1.2,1,2.2,2.3,2.2
		C174.2,117.4,175.3,116.4,175.3,115.2"/>
	<path class="st4" d="M189,119.7c1,0,1.9,0,2.9,0c0.6,0,1,0.3,1,0.9c0.2,2.1,0.4,4.2,0.5,6.3c0.2,1.9,0.3,3.7,0.5,5.6
		c0.1,0.8,0.1,1.5,0.2,2.3c0,0.2,0,0.4-0.1,0.6c-0.1,0.3-0.4,0.5-0.8,0.5c-0.3,0-0.5,0-0.8,0c-0.4,0-0.4,0.1-0.5,0.4
		c-0.1,1.2-0.2,2.5-0.3,3.7c0,0.5-0.4,0.8-0.9,0.8c-1.2,0-2.4,0-3.6,0c-0.5,0-0.8-0.3-0.9-0.8c-0.1-1.2-0.2-2.5-0.3-3.7
		c0-0.3-0.1-0.4-0.5-0.4c-0.3,0-0.5,0-0.8,0c-0.5,0-0.9-0.4-0.9-0.9c0.2-2.6,0.4-5.1,0.6-7.7c0.2-2.2,0.4-4.4,0.6-6.6
		c0.1-0.7,0.3-0.9,1.1-0.9H189 M188.9,139.1c0.2,0,0.4,0,0.6,0c0.3,0,0.4-0.1,0.4-0.4c0.1-1.3,0.2-2.5,0.3-3.8
		c0-0.4,0.4-0.7,0.8-0.7c0.2,0,0.4,0,0.7,0c0.3,0,0.4-0.1,0.4-0.4c-0.1-0.8-0.1-1.6-0.2-2.4c-0.2-1.9-0.3-3.8-0.5-5.7
		c-0.1-1.4-0.2-2.7-0.3-4.1c0-0.3-0.1-0.4-0.4-0.4c-1.2,0-2.4,0-3.6,0c-0.3,0-0.4,0.1-0.4,0.4c-0.2,1.9-0.3,3.8-0.5,5.6
		c-0.1,1.6-0.3,3.3-0.4,4.9c0,0.6-0.1,1.1-0.1,1.7c0,0.2,0.1,0.3,0.4,0.3c0.1,0,0.2,0,0.3,0c1.1-0.1,1.3,0.4,1.3,1.2
		c0.1,1.1,0.2,2.3,0.3,3.4c0,0.2,0.1,0.4,0.4,0.4C188.5,139.1,188.7,139.1,188.9,139.1"/>
	<path class="st4" d="M189,111.4c2.3,0.1,4.1,1.7,4,3.8c-0.1,2-1.9,3.7-4.1,3.6c-2.3-0.1-4.1-1.7-4-3.8
		C184.9,113,186.8,111.4,189,111.4 M191.3,115.2c0-1.2-1.1-2.2-2.4-2.2c-1.3,0-2.3,1-2.4,2.1c0,1.2,1,2.2,2.3,2.2
		C190.2,117.4,191.3,116.4,191.3,115.2"/>
	<path class="st4" d="M205,119.7c1,0,1.9,0,2.9,0c0.6,0,1,0.3,1,0.9c0.2,2.1,0.4,4.2,0.5,6.3c0.2,1.9,0.3,3.7,0.5,5.6
		c0.1,0.8,0.1,1.5,0.2,2.3c0,0.2,0,0.4-0.1,0.6c-0.1,0.3-0.4,0.5-0.8,0.5c-0.3,0-0.5,0-0.8,0c-0.4,0-0.4,0.1-0.5,0.4
		c-0.1,1.2-0.2,2.5-0.3,3.7c0,0.5-0.4,0.8-0.9,0.8c-1.2,0-2.4,0-3.6,0c-0.5,0-0.8-0.3-0.9-0.8c-0.1-1.2-0.2-2.5-0.3-3.7
		c0-0.3-0.1-0.4-0.5-0.4c-0.3,0-0.5,0-0.8,0c-0.5,0-0.9-0.4-0.9-0.9c0.2-2.6,0.4-5.1,0.6-7.7c0.2-2.2,0.4-4.4,0.6-6.6
		c0.1-0.7,0.3-0.9,1.1-0.9H205 M205,139.1c0.2,0,0.4,0,0.6,0c0.3,0,0.4-0.1,0.4-0.4c0.1-1.3,0.2-2.5,0.3-3.8c0-0.4,0.4-0.7,0.8-0.7
		c0.2,0,0.4,0,0.7,0c0.3,0,0.4-0.1,0.4-0.4c-0.1-0.8-0.1-1.6-0.2-2.4c-0.2-1.9-0.3-3.8-0.5-5.7c-0.1-1.4-0.2-2.7-0.3-4.1
		c0-0.3-0.1-0.4-0.4-0.4c-1.2,0-2.4,0-3.6,0c-0.3,0-0.4,0.1-0.4,0.4c-0.2,1.9-0.3,3.8-0.5,5.6c-0.1,1.6-0.3,3.3-0.4,4.9
		c0,0.6-0.1,1.1-0.1,1.7c0,0.2,0.1,0.3,0.4,0.3c0.1,0,0.2,0,0.3,0c1.1-0.1,1.3,0.4,1.3,1.2c0.1,1.1,0.2,2.3,0.3,3.4
		c0,0.2,0.1,0.4,0.4,0.4C204.5,139.1,204.8,139.1,205,139.1"/>
	<path class="st4" d="M205,111.4c2.3,0.1,4.1,1.7,4,3.8c-0.1,2-1.9,3.7-4.1,3.6c-2.3-0.1-4.1-1.7-4-3.8
		C201,113,202.9,111.4,205,111.4 M207.3,115.2c0-1.2-1.1-2.2-2.4-2.2c-1.3,0-2.3,1-2.4,2.1c0,1.2,1,2.2,2.3,2.2
		C206.3,117.4,207.3,116.4,207.3,115.2"/>
	<path class="st4" d="M221,119.7c1,0,1.9,0,2.9,0c0.6,0,1,0.3,1,0.9c0.2,2.1,0.4,4.2,0.5,6.3c0.2,1.9,0.3,3.7,0.5,5.6
		c0.1,0.8,0.1,1.5,0.2,2.3c0,0.2,0,0.4-0.1,0.6c-0.1,0.3-0.4,0.5-0.8,0.5c-0.3,0-0.5,0-0.8,0c-0.4,0-0.4,0.1-0.5,0.4
		c-0.1,1.2-0.2,2.5-0.3,3.7c0,0.5-0.4,0.8-0.9,0.8c-1.2,0-2.4,0-3.6,0c-0.5,0-0.8-0.3-0.9-0.8c-0.1-1.2-0.2-2.5-0.3-3.7
		c0-0.3-0.1-0.4-0.5-0.4c-0.3,0-0.5,0-0.8,0c-0.5,0-0.9-0.4-0.9-0.9c0.2-2.6,0.4-5.1,0.6-7.7c0.2-2.2,0.4-4.4,0.6-6.6
		c0.1-0.7,0.3-0.9,1.1-0.9H221 M221,139.1c0.2,0,0.4,0,0.6,0c0.3,0,0.4-0.1,0.4-0.4c0.1-1.3,0.2-2.5,0.3-3.8c0-0.4,0.4-0.7,0.8-0.7
		c0.2,0,0.4,0,0.7,0c0.3,0,0.4-0.1,0.4-0.4c-0.1-0.8-0.1-1.6-0.2-2.4c-0.2-1.9-0.3-3.8-0.5-5.7c-0.1-1.4-0.2-2.7-0.3-4.1
		c0-0.3-0.1-0.4-0.4-0.4c-1.2,0-2.4,0-3.6,0c-0.3,0-0.4,0.1-0.4,0.4c-0.2,1.9-0.3,3.8-0.5,5.6c-0.1,1.6-0.3,3.3-0.4,4.9
		c0,0.6-0.1,1.1-0.1,1.7c0,0.2,0.1,0.3,0.4,0.3c0.1,0,0.2,0,0.3,0c1.1-0.1,1.3,0.4,1.3,1.2c0.1,1.1,0.2,2.3,0.3,3.4
		c0,0.2,0.1,0.4,0.4,0.4C220.6,139.1,220.8,139.1,221,139.1"/>
	<path class="st4" d="M221.1,111.4c2.3,0.1,4.1,1.7,4,3.8c-0.1,2-1.9,3.7-4.1,3.6c-2.3-0.1-4.1-1.7-4-3.8
		C217,113,218.9,111.4,221.1,111.4 M223.4,115.2c0-1.2-1.1-2.2-2.4-2.2c-1.3,0-2.3,1-2.4,2.1c0,1.2,1,2.2,2.3,2.2
		C222.3,117.4,223.4,116.4,223.4,115.2"/>
	<path class="st4" d="M237.1,119.7c1,0,1.9,0,2.9,0c0.6,0,1,0.3,1,0.9c0.2,2.1,0.4,4.2,0.5,6.3c0.2,1.9,0.3,3.7,0.5,5.6
		c0.1,0.8,0.1,1.5,0.2,2.3c0,0.2,0,0.4-0.1,0.6c-0.1,0.3-0.4,0.5-0.8,0.5c-0.3,0-0.5,0-0.8,0c-0.4,0-0.4,0.1-0.5,0.4
		c-0.1,1.2-0.2,2.5-0.3,3.7c0,0.5-0.4,0.8-0.9,0.8c-1.2,0-2.4,0-3.6,0c-0.5,0-0.8-0.3-0.9-0.8c-0.1-1.2-0.2-2.5-0.3-3.7
		c0-0.3-0.1-0.4-0.5-0.4c-0.3,0-0.5,0-0.8,0c-0.5,0-0.9-0.4-0.9-0.9c0.2-2.6,0.4-5.1,0.6-7.7c0.2-2.2,0.4-4.4,0.6-6.6
		c0.1-0.7,0.3-0.9,1.1-0.9H237.1 M237.1,139.1c0.2,0,0.4,0,0.6,0c0.3,0,0.4-0.1,0.4-0.4c0.1-1.3,0.2-2.5,0.3-3.8
		c0-0.4,0.4-0.7,0.8-0.7c0.2,0,0.4,0,0.7,0c0.3,0,0.4-0.1,0.4-0.4c-0.1-0.8-0.1-1.6-0.2-2.4c-0.2-1.9-0.3-3.8-0.5-5.7
		c-0.1-1.4-0.2-2.7-0.3-4.1c0-0.3-0.1-0.4-0.4-0.4c-1.2,0-2.4,0-3.6,0c-0.3,0-0.4,0.1-0.4,0.4c-0.2,1.9-0.3,3.8-0.5,5.6
		c-0.1,1.6-0.3,3.3-0.4,4.9c0,0.6-0.1,1.1-0.1,1.7c0,0.2,0.1,0.3,0.4,0.3c0.1,0,0.2,0,0.3,0c1.1-0.1,1.3,0.4,1.3,1.2
		c0.1,1.1,0.2,2.3,0.3,3.4c0,0.2,0.1,0.4,0.4,0.4C236.6,139.1,236.9,139.1,237.1,139.1"/>
	<path class="st4" d="M237.1,111.4c2.3,0.1,4.1,1.7,4,3.8c-0.1,2-1.9,3.7-4.1,3.6c-2.3-0.1-4.1-1.7-4-3.8
		C233.1,113,235,111.4,237.1,111.4 M239.4,115.2c0-1.2-1.1-2.2-2.4-2.2c-1.3,0-2.3,1-2.4,2.1c0,1.2,1,2.2,2.3,2.2
		C238.3,117.4,239.4,116.4,239.4,115.2"/>
	<path class="st4" d="M157.2,153.5c1,0,1.9,0,2.9,0c0.6,0,1,0.3,1,0.9c0.2,2.1,0.4,4.2,0.5,6.3c0.2,1.9,0.3,3.7,0.5,5.6
		c0.1,0.8,0.1,1.5,0.2,2.3c0,0.2,0,0.4-0.1,0.6c-0.1,0.3-0.4,0.5-0.8,0.5c-0.3,0-0.5,0-0.8,0c-0.4,0-0.4,0.1-0.5,0.4
		c-0.1,1.2-0.2,2.5-0.3,3.7c0,0.5-0.4,0.8-0.9,0.8c-1.2,0-2.4,0-3.6,0c-0.5,0-0.8-0.3-0.9-0.8c-0.1-1.2-0.2-2.5-0.3-3.7
		c0-0.3-0.1-0.4-0.5-0.4c-0.3,0-0.5,0-0.8,0c-0.5,0-0.9-0.4-0.9-0.9c0.2-2.6,0.4-5.1,0.6-7.7c0.2-2.2,0.4-4.4,0.6-6.6
		c0.1-0.7,0.3-0.9,1.1-0.9H157.2 M157.2,173c0.2,0,0.4,0,0.6,0c0.3,0,0.4-0.1,0.4-0.4c0.1-1.3,0.2-2.5,0.3-3.8
		c0-0.4,0.4-0.7,0.8-0.7c0.2,0,0.4,0,0.7,0c0.3,0,0.4-0.1,0.4-0.4c-0.1-0.8-0.1-1.6-0.2-2.4c-0.2-1.9-0.3-3.8-0.5-5.7
		c-0.1-1.4-0.2-2.7-0.3-4.1c0-0.3-0.1-0.4-0.4-0.4c-1.2,0-2.4,0-3.6,0c-0.3,0-0.4,0.1-0.4,0.4c-0.2,1.9-0.3,3.8-0.5,5.6
		c-0.1,1.6-0.3,3.3-0.4,4.9c0,0.6-0.1,1.1-0.1,1.7c0,0.2,0.1,0.3,0.4,0.3c0.1,0,0.2,0,0.3,0c1.1-0.1,1.3,0.4,1.3,1.2
		c0.1,1.1,0.2,2.3,0.3,3.4c0,0.2,0.1,0.4,0.4,0.3C156.7,173,157,173,157.2,173"/>
	<path class="st4" d="M157.2,145.3c2.3,0.1,4.1,1.7,4,3.8c-0.1,2-1.9,3.7-4.1,3.6c-2.3-0.1-4.1-1.7-4-3.8
		C153.2,146.9,155.1,145.2,157.2,145.3 M159.5,149c0-1.2-1.1-2.2-2.4-2.2c-1.3,0-2.3,1-2.4,2.1c0,1.2,1,2.2,2.3,2.2
		C158.5,151.2,159.5,150.2,159.5,149"/>
	<path class="st4" d="M172.9,153.5c1,0,1.9,0,2.9,0c0.6,0,1,0.3,1,0.9c0.2,2.1,0.4,4.2,0.5,6.3c0.2,1.9,0.3,3.7,0.5,5.6
		c0.1,0.8,0.1,1.5,0.2,2.3c0,0.2,0,0.4-0.1,0.6c-0.1,0.3-0.4,0.5-0.8,0.5c-0.3,0-0.5,0-0.8,0c-0.4,0-0.4,0.1-0.5,0.4
		c-0.1,1.2-0.2,2.5-0.3,3.7c0,0.5-0.4,0.8-0.9,0.8c-1.2,0-2.4,0-3.6,0c-0.5,0-0.8-0.3-0.9-0.8c-0.1-1.2-0.2-2.5-0.3-3.7
		c0-0.3-0.1-0.4-0.5-0.4c-0.3,0-0.5,0-0.8,0c-0.5,0-0.9-0.4-0.9-0.9c0.2-2.6,0.4-5.1,0.6-7.7c0.2-2.2,0.4-4.4,0.6-6.6
		c0.1-0.7,0.3-0.9,1.1-0.9H172.9 M172.9,173c0.2,0,0.4,0,0.6,0c0.3,0,0.4-0.1,0.4-0.4c0.1-1.3,0.2-2.5,0.3-3.8
		c0-0.4,0.4-0.7,0.8-0.7c0.2,0,0.4,0,0.7,0c0.3,0,0.4-0.1,0.4-0.4c-0.1-0.8-0.1-1.6-0.2-2.4c-0.2-1.9-0.3-3.8-0.5-5.7
		c-0.1-1.4-0.2-2.7-0.3-4.1c0-0.3-0.1-0.4-0.4-0.4c-1.2,0-2.4,0-3.6,0c-0.3,0-0.4,0.1-0.4,0.4c-0.2,1.9-0.3,3.8-0.5,5.6
		c-0.1,1.6-0.3,3.3-0.4,4.9c0,0.6-0.1,1.1-0.1,1.7c0,0.2,0.1,0.3,0.4,0.3c0.1,0,0.2,0,0.3,0c1.1-0.1,1.3,0.4,1.3,1.2
		c0.1,1.1,0.2,2.3,0.3,3.4c0,0.2,0.1,0.4,0.4,0.3C172.5,173,172.7,173,172.9,173"/>
	<path class="st4" d="M172.9,145.3c2.3,0.1,4.1,1.7,4,3.8c-0.1,2-1.9,3.7-4.1,3.6c-2.3-0.1-4.1-1.7-4-3.8
		C168.9,146.9,170.8,145.2,172.9,145.3 M175.3,149c0-1.2-1.1-2.2-2.4-2.2c-1.3,0-2.3,1-2.4,2.1c0,1.2,1,2.2,2.3,2.2
		C174.2,151.2,175.3,150.2,175.3,149"/>
	<path class="st4" d="M189,153.5c1,0,1.9,0,2.9,0c0.6,0,1,0.3,1,0.9c0.2,2.1,0.4,4.2,0.5,6.3c0.2,1.9,0.3,3.7,0.5,5.6
		c0.1,0.8,0.1,1.5,0.2,2.3c0,0.2,0,0.4-0.1,0.6c-0.1,0.3-0.4,0.5-0.8,0.5c-0.3,0-0.5,0-0.8,0c-0.4,0-0.4,0.1-0.5,0.4
		c-0.1,1.2-0.2,2.5-0.3,3.7c0,0.5-0.4,0.8-0.9,0.8c-1.2,0-2.4,0-3.6,0c-0.5,0-0.8-0.3-0.9-0.8c-0.1-1.2-0.2-2.5-0.3-3.7
		c0-0.3-0.1-0.4-0.5-0.4c-0.3,0-0.5,0-0.8,0c-0.5,0-0.9-0.4-0.9-0.9c0.2-2.6,0.4-5.1,0.6-7.7c0.2-2.2,0.4-4.4,0.6-6.6
		c0.1-0.7,0.3-0.9,1.1-0.9H189 M188.9,173c0.2,0,0.4,0,0.6,0c0.3,0,0.4-0.1,0.4-0.4c0.1-1.3,0.2-2.5,0.3-3.8c0-0.4,0.4-0.7,0.8-0.7
		c0.2,0,0.4,0,0.7,0c0.3,0,0.4-0.1,0.4-0.4c-0.1-0.8-0.1-1.6-0.2-2.4c-0.2-1.9-0.3-3.8-0.5-5.7c-0.1-1.4-0.2-2.7-0.3-4.1
		c0-0.3-0.1-0.4-0.4-0.4c-1.2,0-2.4,0-3.6,0c-0.3,0-0.4,0.1-0.4,0.4c-0.2,1.9-0.3,3.8-0.5,5.6c-0.1,1.6-0.3,3.3-0.4,4.9
		c0,0.6-0.1,1.1-0.1,1.7c0,0.2,0.1,0.3,0.4,0.3c0.1,0,0.2,0,0.3,0c1.1-0.1,1.3,0.4,1.3,1.2c0.1,1.1,0.2,2.3,0.3,3.4
		c0,0.2,0.1,0.4,0.4,0.3C188.5,173,188.7,173,188.9,173"/>
	<path class="st4" d="M189,145.3c2.3,0.1,4.1,1.7,4,3.8c-0.1,2-1.9,3.7-4.1,3.6c-2.3-0.1-4.1-1.7-4-3.8
		C184.9,146.9,186.8,145.2,189,145.3 M191.3,149c0-1.2-1.1-2.2-2.4-2.2c-1.3,0-2.3,1-2.4,2.1c0,1.2,1,2.2,2.3,2.2
		C190.2,151.2,191.3,150.2,191.3,149"/>
	<path class="st4" d="M205,153.5c1,0,1.9,0,2.9,0c0.6,0,1,0.3,1,0.9c0.2,2.1,0.4,4.2,0.5,6.3c0.2,1.9,0.3,3.7,0.5,5.6
		c0.1,0.8,0.1,1.5,0.2,2.3c0,0.2,0,0.4-0.1,0.6c-0.1,0.3-0.4,0.5-0.8,0.5c-0.3,0-0.5,0-0.8,0c-0.4,0-0.4,0.1-0.5,0.4
		c-0.1,1.2-0.2,2.5-0.3,3.7c0,0.5-0.4,0.8-0.9,0.8c-1.2,0-2.4,0-3.6,0c-0.5,0-0.8-0.3-0.9-0.8c-0.1-1.2-0.2-2.5-0.3-3.7
		c0-0.3-0.1-0.4-0.5-0.4c-0.3,0-0.5,0-0.8,0c-0.5,0-0.9-0.4-0.9-0.9c0.2-2.6,0.4-5.1,0.6-7.7c0.2-2.2,0.4-4.4,0.6-6.6
		c0.1-0.7,0.3-0.9,1.1-0.9H205 M205,173c0.2,0,0.4,0,0.6,0c0.3,0,0.4-0.1,0.4-0.4c0.1-1.3,0.2-2.5,0.3-3.8c0-0.4,0.4-0.7,0.8-0.7
		c0.2,0,0.4,0,0.7,0c0.3,0,0.4-0.1,0.4-0.4c-0.1-0.8-0.1-1.6-0.2-2.4c-0.2-1.9-0.3-3.8-0.5-5.7c-0.1-1.4-0.2-2.7-0.3-4.1
		c0-0.3-0.1-0.4-0.4-0.4c-1.2,0-2.4,0-3.6,0c-0.3,0-0.4,0.1-0.4,0.4c-0.2,1.9-0.3,3.8-0.5,5.6c-0.1,1.6-0.3,3.3-0.4,4.9
		c0,0.6-0.1,1.1-0.1,1.7c0,0.2,0.1,0.3,0.4,0.3c0.1,0,0.2,0,0.3,0c1.1-0.1,1.3,0.4,1.3,1.2c0.1,1.1,0.2,2.3,0.3,3.4
		c0,0.2,0.1,0.4,0.4,0.3C204.5,173,204.8,173,205,173"/>
	<path class="st4" d="M205,145.3c2.3,0.1,4.1,1.7,4,3.8c-0.1,2-1.9,3.7-4.1,3.6c-2.3-0.1-4.1-1.7-4-3.8
		C201,146.9,202.9,145.2,205,145.3 M207.3,149c0-1.2-1.1-2.2-2.4-2.2c-1.3,0-2.3,1-2.4,2.1c0,1.2,1,2.2,2.3,2.2
		C206.3,151.2,207.3,150.2,207.3,149"/>
	<path class="st4" d="M221,153.5c1,0,1.9,0,2.9,0c0.6,0,1,0.3,1,0.9c0.2,2.1,0.4,4.2,0.5,6.3c0.2,1.9,0.3,3.7,0.5,5.6
		c0.1,0.8,0.1,1.5,0.2,2.3c0,0.2,0,0.4-0.1,0.6c-0.1,0.3-0.4,0.5-0.8,0.5c-0.3,0-0.5,0-0.8,0c-0.4,0-0.4,0.1-0.5,0.4
		c-0.1,1.2-0.2,2.5-0.3,3.7c0,0.5-0.4,0.8-0.9,0.8c-1.2,0-2.4,0-3.6,0c-0.5,0-0.8-0.3-0.9-0.8c-0.1-1.2-0.2-2.5-0.3-3.7
		c0-0.3-0.1-0.4-0.5-0.4c-0.3,0-0.5,0-0.8,0c-0.5,0-0.9-0.4-0.9-0.9c0.2-2.6,0.4-5.1,0.6-7.7c0.2-2.2,0.4-4.4,0.6-6.6
		c0.1-0.7,0.3-0.9,1.1-0.9H221 M221,173c0.2,0,0.4,0,0.6,0c0.3,0,0.4-0.1,0.4-0.4c0.1-1.3,0.2-2.5,0.3-3.8c0-0.4,0.4-0.7,0.8-0.7
		c0.2,0,0.4,0,0.7,0c0.3,0,0.4-0.1,0.4-0.4c-0.1-0.8-0.1-1.6-0.2-2.4c-0.2-1.9-0.3-3.8-0.5-5.7c-0.1-1.4-0.2-2.7-0.3-4.1
		c0-0.3-0.1-0.4-0.4-0.4c-1.2,0-2.4,0-3.6,0c-0.3,0-0.4,0.1-0.4,0.4c-0.2,1.9-0.3,3.8-0.5,5.6c-0.1,1.6-0.3,3.3-0.4,4.9
		c0,0.6-0.1,1.1-0.1,1.7c0,0.2,0.1,0.3,0.4,0.3c0.1,0,0.2,0,0.3,0c1.1-0.1,1.3,0.4,1.3,1.2c0.1,1.1,0.2,2.3,0.3,3.4
		c0,0.2,0.1,0.4,0.4,0.3C220.6,173,220.8,173,221,173"/>
	<path class="st4" d="M221.1,145.3c2.3,0.1,4.1,1.7,4,3.8c-0.1,2-1.9,3.7-4.1,3.6c-2.3-0.1-4.1-1.7-4-3.8
		C217,146.9,218.9,145.2,221.1,145.3 M223.4,149c0-1.2-1.1-2.2-2.4-2.2c-1.3,0-2.3,1-2.4,2.1c0,1.2,1,2.2,2.3,2.2
		C222.3,151.2,223.4,150.2,223.4,149"/>
	<path class="st4" d="M237.1,153.5c1,0,1.9,0,2.9,0c0.6,0,1,0.3,1,0.9c0.2,2.1,0.4,4.2,0.5,6.3c0.2,1.9,0.3,3.7,0.5,5.6
		c0.1,0.8,0.1,1.5,0.2,2.3c0,0.2,0,0.4-0.1,0.6c-0.1,0.3-0.4,0.5-0.8,0.5c-0.3,0-0.5,0-0.8,0c-0.4,0-0.4,0.1-0.5,0.4
		c-0.1,1.2-0.2,2.5-0.3,3.7c0,0.5-0.4,0.8-0.9,0.8c-1.2,0-2.4,0-3.6,0c-0.5,0-0.8-0.3-0.9-0.8c-0.1-1.2-0.2-2.5-0.3-3.7
		c0-0.3-0.1-0.4-0.5-0.4c-0.3,0-0.5,0-0.8,0c-0.5,0-0.9-0.4-0.9-0.9c0.2-2.6,0.4-5.1,0.6-7.7c0.2-2.2,0.4-4.4,0.6-6.6
		c0.1-0.7,0.3-0.9,1.1-0.9H237.1 M237.1,173c0.2,0,0.4,0,0.6,0c0.3,0,0.4-0.1,0.4-0.4c0.1-1.3,0.2-2.5,0.3-3.8
		c0-0.4,0.4-0.7,0.8-0.7c0.2,0,0.4,0,0.7,0c0.3,0,0.4-0.1,0.4-0.4c-0.1-0.8-0.1-1.6-0.2-2.4c-0.2-1.9-0.3-3.8-0.5-5.7
		c-0.1-1.4-0.2-2.7-0.3-4.1c0-0.3-0.1-0.4-0.4-0.4c-1.2,0-2.4,0-3.6,0c-0.3,0-0.4,0.1-0.4,0.4c-0.2,1.9-0.3,3.8-0.5,5.6
		c-0.1,1.6-0.3,3.3-0.4,4.9c0,0.6-0.1,1.1-0.1,1.7c0,0.2,0.1,0.3,0.4,0.3c0.1,0,0.2,0,0.3,0c1.1-0.1,1.3,0.4,1.3,1.2
		c0.1,1.1,0.2,2.3,0.3,3.4c0,0.2,0.1,0.4,0.4,0.3C236.6,173,236.9,173,237.1,173"/>
	<path class="st4" d="M237.1,145.3c2.3,0.1,4.1,1.7,4,3.8c-0.1,2-1.9,3.7-4.1,3.6c-2.3-0.1-4.1-1.7-4-3.8
		C233.1,146.9,235,145.2,237.1,145.3 M239.4,149c0-1.2-1.1-2.2-2.4-2.2c-1.3,0-2.3,1-2.4,2.1c0,1.2,1,2.2,2.3,2.2
		C238.3,151.2,239.4,150.2,239.4,149"/>
	<path class="st4" d="M157.2,187.4c1,0,1.9,0,2.9,0c0.6,0,1,0.3,1,0.9c0.2,2.1,0.4,4.2,0.5,6.3c0.2,1.9,0.3,3.7,0.5,5.6
		c0.1,0.8,0.1,1.5,0.2,2.3c0,0.2,0,0.4-0.1,0.6c-0.1,0.3-0.4,0.5-0.8,0.5c-0.3,0-0.5,0-0.8,0c-0.4,0-0.4,0.1-0.5,0.4
		c-0.1,1.2-0.2,2.5-0.3,3.7c0,0.5-0.4,0.8-0.9,0.8c-1.2,0-2.4,0-3.6,0c-0.5,0-0.8-0.3-0.9-0.8c-0.1-1.2-0.2-2.5-0.3-3.7
		c0-0.3-0.1-0.4-0.5-0.4c-0.3,0-0.5,0-0.8,0c-0.5,0-0.9-0.4-0.9-0.9c0.2-2.6,0.4-5.1,0.6-7.7c0.2-2.2,0.4-4.4,0.6-6.6
		c0.1-0.7,0.3-0.9,1.1-0.9H157.2 M157.2,206.8c0.2,0,0.4,0,0.6,0c0.3,0,0.4-0.1,0.4-0.4c0.1-1.3,0.2-2.5,0.3-3.8
		c0-0.4,0.4-0.7,0.8-0.7c0.2,0,0.4,0,0.7,0c0.3,0,0.4-0.1,0.4-0.4c-0.1-0.8-0.1-1.6-0.2-2.4c-0.2-1.9-0.3-3.8-0.5-5.7
		c-0.1-1.4-0.2-2.7-0.3-4.1c0-0.3-0.1-0.4-0.4-0.4c-1.2,0-2.4,0-3.6,0c-0.3,0-0.4,0.1-0.4,0.4c-0.2,1.9-0.3,3.8-0.5,5.6
		c-0.1,1.6-0.3,3.3-0.4,4.9c0,0.6-0.1,1.1-0.1,1.7c0,0.2,0.1,0.3,0.4,0.4c0.1,0,0.2,0,0.3,0c1.1-0.1,1.3,0.4,1.3,1.1
		c0.1,1.1,0.2,2.3,0.3,3.4c0,0.2,0.1,0.4,0.4,0.4C156.7,206.8,157,206.8,157.2,206.8"/>
	<path class="st4" d="M157.2,179.1c2.3,0.1,4.1,1.7,4,3.8c-0.1,2-1.9,3.7-4.1,3.6c-2.3-0.1-4.1-1.7-4-3.8
		C153.2,180.7,155.1,179.1,157.2,179.1 M159.5,182.9c0-1.2-1.1-2.2-2.4-2.2c-1.3,0-2.3,1-2.4,2.1c0,1.2,1,2.2,2.3,2.2
		C158.5,185,159.5,184.1,159.5,182.9"/>
	<path class="st4" d="M172.9,187.4c1,0,1.9,0,2.9,0c0.6,0,1,0.3,1,0.9c0.2,2.1,0.4,4.2,0.5,6.3c0.2,1.9,0.3,3.7,0.5,5.6
		c0.1,0.8,0.1,1.5,0.2,2.3c0,0.2,0,0.4-0.1,0.6c-0.1,0.3-0.4,0.5-0.8,0.5c-0.3,0-0.5,0-0.8,0c-0.4,0-0.4,0.1-0.5,0.4
		c-0.1,1.2-0.2,2.5-0.3,3.7c0,0.5-0.4,0.8-0.9,0.8c-1.2,0-2.4,0-3.6,0c-0.5,0-0.8-0.3-0.9-0.8c-0.1-1.2-0.2-2.5-0.3-3.7
		c0-0.3-0.1-0.4-0.5-0.4c-0.3,0-0.5,0-0.8,0c-0.5,0-0.9-0.4-0.9-0.9c0.2-2.6,0.4-5.1,0.6-7.7c0.2-2.2,0.4-4.4,0.6-6.6
		c0.1-0.7,0.3-0.9,1.1-0.9H172.9 M172.9,206.8c0.2,0,0.4,0,0.6,0c0.3,0,0.4-0.1,0.4-0.4c0.1-1.3,0.2-2.5,0.3-3.8
		c0-0.4,0.4-0.7,0.8-0.7c0.2,0,0.4,0,0.7,0c0.3,0,0.4-0.1,0.4-0.4c-0.1-0.8-0.1-1.6-0.2-2.4c-0.2-1.9-0.3-3.8-0.5-5.7
		c-0.1-1.4-0.2-2.7-0.3-4.1c0-0.3-0.1-0.4-0.4-0.4c-1.2,0-2.4,0-3.6,0c-0.3,0-0.4,0.1-0.4,0.4c-0.2,1.9-0.3,3.8-0.5,5.6
		c-0.1,1.6-0.3,3.3-0.4,4.9c0,0.6-0.1,1.1-0.1,1.7c0,0.2,0.1,0.3,0.4,0.4c0.1,0,0.2,0,0.3,0c1.1-0.1,1.3,0.4,1.3,1.1
		c0.1,1.1,0.2,2.3,0.3,3.4c0,0.2,0.1,0.4,0.4,0.4C172.5,206.8,172.7,206.8,172.9,206.8"/>
	<path class="st4" d="M172.9,179.1c2.3,0.1,4.1,1.7,4,3.8c-0.1,2-1.9,3.7-4.1,3.6c-2.3-0.1-4.1-1.7-4-3.8
		C168.9,180.7,170.8,179.1,172.9,179.1 M175.3,182.9c0-1.2-1.1-2.2-2.4-2.2c-1.3,0-2.3,1-2.4,2.1c0,1.2,1,2.2,2.3,2.2
		C174.2,185,175.3,184.1,175.3,182.9"/>
	<path class="st4" d="M189,187.4c1,0,1.9,0,2.9,0c0.6,0,1,0.3,1,0.9c0.2,2.1,0.4,4.2,0.5,6.3c0.2,1.9,0.3,3.7,0.5,5.6
		c0.1,0.8,0.1,1.5,0.2,2.3c0,0.2,0,0.4-0.1,0.6c-0.1,0.3-0.4,0.5-0.8,0.5c-0.3,0-0.5,0-0.8,0c-0.4,0-0.4,0.1-0.5,0.4
		c-0.1,1.2-0.2,2.5-0.3,3.7c0,0.5-0.4,0.8-0.9,0.8c-1.2,0-2.4,0-3.6,0c-0.5,0-0.8-0.3-0.9-0.8c-0.1-1.2-0.2-2.5-0.3-3.7
		c0-0.3-0.1-0.4-0.5-0.4c-0.3,0-0.5,0-0.8,0c-0.5,0-0.9-0.4-0.9-0.9c0.2-2.6,0.4-5.1,0.6-7.7c0.2-2.2,0.4-4.4,0.6-6.6
		c0.1-0.7,0.3-0.9,1.1-0.9H189 M188.9,206.8c0.2,0,0.4,0,0.6,0c0.3,0,0.4-0.1,0.4-0.4c0.1-1.3,0.2-2.5,0.3-3.8
		c0-0.4,0.4-0.7,0.8-0.7c0.2,0,0.4,0,0.7,0c0.3,0,0.4-0.1,0.4-0.4c-0.1-0.8-0.1-1.6-0.2-2.4c-0.2-1.9-0.3-3.8-0.5-5.7
		c-0.1-1.4-0.2-2.7-0.3-4.1c0-0.3-0.1-0.4-0.4-0.4c-1.2,0-2.4,0-3.6,0c-0.3,0-0.4,0.1-0.4,0.4c-0.2,1.9-0.3,3.8-0.5,5.6
		c-0.1,1.6-0.3,3.3-0.4,4.9c0,0.6-0.1,1.1-0.1,1.7c0,0.2,0.1,0.3,0.4,0.4c0.1,0,0.2,0,0.3,0c1.1-0.1,1.3,0.4,1.3,1.1
		c0.1,1.1,0.2,2.3,0.3,3.4c0,0.2,0.1,0.4,0.4,0.4C188.5,206.8,188.7,206.8,188.9,206.8"/>
	<path class="st4" d="M189,179.1c2.3,0.1,4.1,1.7,4,3.8c-0.1,2-1.9,3.7-4.1,3.6c-2.3-0.1-4.1-1.7-4-3.8
		C184.9,180.7,186.8,179.1,189,179.1 M191.3,182.9c0-1.2-1.1-2.2-2.4-2.2c-1.3,0-2.3,1-2.4,2.1c0,1.2,1,2.2,2.3,2.2
		C190.2,185,191.3,184.1,191.3,182.9"/>
	<path class="st4" d="M205,187.4c1,0,1.9,0,2.9,0c0.6,0,1,0.3,1,0.9c0.2,2.1,0.4,4.2,0.5,6.3c0.2,1.9,0.3,3.7,0.5,5.6
		c0.1,0.8,0.1,1.5,0.2,2.3c0,0.2,0,0.4-0.1,0.6c-0.1,0.3-0.4,0.5-0.8,0.5c-0.3,0-0.5,0-0.8,0c-0.4,0-0.4,0.1-0.5,0.4
		c-0.1,1.2-0.2,2.5-0.3,3.7c0,0.5-0.4,0.8-0.9,0.8c-1.2,0-2.4,0-3.6,0c-0.5,0-0.8-0.3-0.9-0.8c-0.1-1.2-0.2-2.5-0.3-3.7
		c0-0.3-0.1-0.4-0.5-0.4c-0.3,0-0.5,0-0.8,0c-0.5,0-0.9-0.4-0.9-0.9c0.2-2.6,0.4-5.1,0.6-7.7c0.2-2.2,0.4-4.4,0.6-6.6
		c0.1-0.7,0.3-0.9,1.1-0.9H205 M205,206.8c0.2,0,0.4,0,0.6,0c0.3,0,0.4-0.1,0.4-0.4c0.1-1.3,0.2-2.5,0.3-3.8c0-0.4,0.4-0.7,0.8-0.7
		c0.2,0,0.4,0,0.7,0c0.3,0,0.4-0.1,0.4-0.4c-0.1-0.8-0.1-1.6-0.2-2.4c-0.2-1.9-0.3-3.8-0.5-5.7c-0.1-1.4-0.2-2.7-0.3-4.1
		c0-0.3-0.1-0.4-0.4-0.4c-1.2,0-2.4,0-3.6,0c-0.3,0-0.4,0.1-0.4,0.4c-0.2,1.9-0.3,3.8-0.5,5.6c-0.1,1.6-0.3,3.3-0.4,4.9
		c0,0.6-0.1,1.1-0.1,1.7c0,0.2,0.1,0.3,0.4,0.4c0.1,0,0.2,0,0.3,0c1.1-0.1,1.3,0.4,1.3,1.1c0.1,1.1,0.2,2.3,0.3,3.4
		c0,0.2,0.1,0.4,0.4,0.4C204.5,206.8,204.8,206.8,205,206.8"/>
	<path class="st4" d="M205,179.1c2.3,0.1,4.1,1.7,4,3.8c-0.1,2-1.9,3.7-4.1,3.6c-2.3-0.1-4.1-1.7-4-3.8
		C201,180.7,202.9,179.1,205,179.1 M207.3,182.9c0-1.2-1.1-2.2-2.4-2.2c-1.3,0-2.3,1-2.4,2.1c0,1.2,1,2.2,2.3,2.2
		C206.3,185,207.3,184.1,207.3,182.9"/>
	<path class="st4" d="M221,187.4c1,0,1.9,0,2.9,0c0.6,0,1,0.3,1,0.9c0.2,2.1,0.4,4.2,0.5,6.3c0.2,1.9,0.3,3.7,0.5,5.6
		c0.1,0.8,0.1,1.5,0.2,2.3c0,0.2,0,0.4-0.1,0.6c-0.1,0.3-0.4,0.5-0.8,0.5c-0.3,0-0.5,0-0.8,0c-0.4,0-0.4,0.1-0.5,0.4
		c-0.1,1.2-0.2,2.5-0.3,3.7c0,0.5-0.4,0.8-0.9,0.8c-1.2,0-2.4,0-3.6,0c-0.5,0-0.8-0.3-0.9-0.8c-0.1-1.2-0.2-2.5-0.3-3.7
		c0-0.3-0.1-0.4-0.5-0.4c-0.3,0-0.5,0-0.8,0c-0.5,0-0.9-0.4-0.9-0.9c0.2-2.6,0.4-5.1,0.6-7.7c0.2-2.2,0.4-4.4,0.6-6.6
		c0.1-0.7,0.3-0.9,1.1-0.9H221 M221,206.8c0.2,0,0.4,0,0.6,0c0.3,0,0.4-0.1,0.4-0.4c0.1-1.3,0.2-2.5,0.3-3.8c0-0.4,0.4-0.7,0.8-0.7
		c0.2,0,0.4,0,0.7,0c0.3,0,0.4-0.1,0.4-0.4c-0.1-0.8-0.1-1.6-0.2-2.4c-0.2-1.9-0.3-3.8-0.5-5.7c-0.1-1.4-0.2-2.7-0.3-4.1
		c0-0.3-0.1-0.4-0.4-0.4c-1.2,0-2.4,0-3.6,0c-0.3,0-0.4,0.1-0.4,0.4c-0.2,1.9-0.3,3.8-0.5,5.6c-0.1,1.6-0.3,3.3-0.4,4.9
		c0,0.6-0.1,1.1-0.1,1.7c0,0.2,0.1,0.3,0.4,0.4c0.1,0,0.2,0,0.3,0c1.1-0.1,1.3,0.4,1.3,1.1c0.1,1.1,0.2,2.3,0.3,3.4
		c0,0.2,0.1,0.4,0.4,0.4C220.6,206.8,220.8,206.8,221,206.8"/>
	<path class="st4" d="M221.1,179.1c2.3,0.1,4.1,1.7,4,3.8c-0.1,2-1.9,3.7-4.1,3.6c-2.3-0.1-4.1-1.7-4-3.8
		C217,180.7,218.9,179.1,221.1,179.1 M223.4,182.9c0-1.2-1.1-2.2-2.4-2.2c-1.3,0-2.3,1-2.4,2.1c0,1.2,1,2.2,2.3,2.2
		C222.3,185,223.4,184.1,223.4,182.9"/>
	<path class="st4" d="M237.1,187.4c1,0,1.9,0,2.9,0c0.6,0,1,0.3,1,0.9c0.2,2.1,0.4,4.2,0.5,6.3c0.2,1.9,0.3,3.7,0.5,5.6
		c0.1,0.8,0.1,1.5,0.2,2.3c0,0.2,0,0.4-0.1,0.6c-0.1,0.3-0.4,0.5-0.8,0.5c-0.3,0-0.5,0-0.8,0c-0.4,0-0.4,0.1-0.5,0.4
		c-0.1,1.2-0.2,2.5-0.3,3.7c0,0.5-0.4,0.8-0.9,0.8c-1.2,0-2.4,0-3.6,0c-0.5,0-0.8-0.3-0.9-0.8c-0.1-1.2-0.2-2.5-0.3-3.7
		c0-0.3-0.1-0.4-0.5-0.4c-0.3,0-0.5,0-0.8,0c-0.5,0-0.9-0.4-0.9-0.9c0.2-2.6,0.4-5.1,0.6-7.7c0.2-2.2,0.4-4.4,0.6-6.6
		c0.1-0.7,0.3-0.9,1.1-0.9H237.1 M237.1,206.8c0.2,0,0.4,0,0.6,0c0.3,0,0.4-0.1,0.4-0.4c0.1-1.3,0.2-2.5,0.3-3.8
		c0-0.4,0.4-0.7,0.8-0.7c0.2,0,0.4,0,0.7,0c0.3,0,0.4-0.1,0.4-0.4c-0.1-0.8-0.1-1.6-0.2-2.4c-0.2-1.9-0.3-3.8-0.5-5.7
		c-0.1-1.4-0.2-2.7-0.3-4.1c0-0.3-0.1-0.4-0.4-0.4c-1.2,0-2.4,0-3.6,0c-0.3,0-0.4,0.1-0.4,0.4c-0.2,1.9-0.3,3.8-0.5,5.6
		c-0.1,1.6-0.3,3.3-0.4,4.9c0,0.6-0.1,1.1-0.1,1.7c0,0.2,0.1,0.3,0.4,0.4c0.1,0,0.2,0,0.3,0c1.1-0.1,1.3,0.4,1.3,1.1
		c0.1,1.1,0.2,2.3,0.3,3.4c0,0.2,0.1,0.4,0.4,0.4C236.6,206.8,236.9,206.8,237.1,206.8"/>
	<path class="st4" d="M237.1,179.1c2.3,0.1,4.1,1.7,4,3.8c-0.1,2-1.9,3.7-4.1,3.6c-2.3-0.1-4.1-1.7-4-3.8
		C233.1,180.7,235,179.1,237.1,179.1 M239.4,182.9c0-1.2-1.1-2.2-2.4-2.2c-1.3,0-2.3,1-2.4,2.1c0,1.2,1,2.2,2.3,2.2
		C238.3,185,239.4,184.1,239.4,182.9"/>
	<path class="st4" d="M157.2,221.2c1,0,1.9,0,2.9,0c0.6,0,1,0.3,1,0.9c0.2,2.1,0.4,4.2,0.5,6.3c0.2,1.9,0.3,3.7,0.5,5.6
		c0.1,0.8,0.1,1.5,0.2,2.3c0,0.2,0,0.4-0.1,0.6c-0.1,0.3-0.4,0.5-0.8,0.5c-0.3,0-0.5,0-0.8,0c-0.4,0-0.4,0.1-0.5,0.4
		c-0.1,1.2-0.2,2.5-0.3,3.7c0,0.5-0.4,0.8-0.9,0.8c-1.2,0-2.4,0-3.6,0c-0.5,0-0.8-0.3-0.9-0.8c-0.1-1.2-0.2-2.5-0.3-3.7
		c0-0.3-0.1-0.4-0.5-0.4c-0.3,0-0.5,0-0.8,0c-0.5,0-0.9-0.4-0.9-0.9c0.2-2.6,0.4-5.1,0.6-7.7c0.2-2.2,0.4-4.4,0.6-6.6
		c0.1-0.7,0.3-0.9,1.1-0.9H157.2 M157.2,240.7c0.2,0,0.4,0,0.6,0c0.3,0,0.4-0.1,0.4-0.4c0.1-1.3,0.2-2.5,0.3-3.8
		c0-0.4,0.4-0.7,0.8-0.7c0.2,0,0.4,0,0.7,0c0.3,0,0.4-0.1,0.4-0.4c-0.1-0.8-0.1-1.6-0.2-2.4c-0.2-1.9-0.3-3.8-0.5-5.7
		c-0.1-1.4-0.2-2.7-0.3-4.1c0-0.3-0.1-0.4-0.4-0.4c-1.2,0-2.4,0-3.6,0c-0.3,0-0.4,0.1-0.4,0.4c-0.2,1.9-0.3,3.8-0.5,5.6
		c-0.1,1.6-0.3,3.3-0.4,4.9c0,0.6-0.1,1.1-0.1,1.7c0,0.2,0.1,0.3,0.4,0.3c0.1,0,0.2,0,0.3,0c1.1-0.1,1.3,0.4,1.3,1.2
		c0.1,1.1,0.2,2.3,0.3,3.4c0,0.2,0.1,0.4,0.4,0.3C156.7,240.7,157,240.7,157.2,240.7"/>
	<path class="st4" d="M157.2,213c2.3,0.1,4.1,1.7,4,3.8c-0.1,2-1.9,3.7-4.1,3.6c-2.3-0.1-4.1-1.7-4-3.8
		C153.2,214.6,155.1,212.9,157.2,213 M159.5,216.7c0-1.2-1.1-2.2-2.4-2.2c-1.3,0-2.3,1-2.4,2.1c0,1.2,1,2.2,2.3,2.2
		C158.5,218.9,159.5,217.9,159.5,216.7"/>
	<path class="st4" d="M172.9,221.2c1,0,1.9,0,2.9,0c0.6,0,1,0.3,1,0.9c0.2,2.1,0.4,4.2,0.5,6.3c0.2,1.9,0.3,3.7,0.5,5.6
		c0.1,0.8,0.1,1.5,0.2,2.3c0,0.2,0,0.4-0.1,0.6c-0.1,0.3-0.4,0.5-0.8,0.5c-0.3,0-0.5,0-0.8,0c-0.4,0-0.4,0.1-0.5,0.4
		c-0.1,1.2-0.2,2.5-0.3,3.7c0,0.5-0.4,0.8-0.9,0.8c-1.2,0-2.4,0-3.6,0c-0.5,0-0.8-0.3-0.9-0.8c-0.1-1.2-0.2-2.5-0.3-3.7
		c0-0.3-0.1-0.4-0.5-0.4c-0.3,0-0.5,0-0.8,0c-0.5,0-0.9-0.4-0.9-0.9c0.2-2.6,0.4-5.1,0.6-7.7c0.2-2.2,0.4-4.4,0.6-6.6
		c0.1-0.7,0.3-0.9,1.1-0.9H172.9 M172.9,240.7c0.2,0,0.4,0,0.6,0c0.3,0,0.4-0.1,0.4-0.4c0.1-1.3,0.2-2.5,0.3-3.8
		c0-0.4,0.4-0.7,0.8-0.7c0.2,0,0.4,0,0.7,0c0.3,0,0.4-0.1,0.4-0.4c-0.1-0.8-0.1-1.6-0.2-2.4c-0.2-1.9-0.3-3.8-0.5-5.7
		c-0.1-1.4-0.2-2.7-0.3-4.1c0-0.3-0.1-0.4-0.4-0.4c-1.2,0-2.4,0-3.6,0c-0.3,0-0.4,0.1-0.4,0.4c-0.2,1.9-0.3,3.8-0.5,5.6
		c-0.1,1.6-0.3,3.3-0.4,4.9c0,0.6-0.1,1.1-0.1,1.7c0,0.2,0.1,0.3,0.4,0.3c0.1,0,0.2,0,0.3,0c1.1-0.1,1.3,0.4,1.3,1.2
		c0.1,1.1,0.2,2.3,0.3,3.4c0,0.2,0.1,0.4,0.4,0.3C172.5,240.7,172.7,240.7,172.9,240.7"/>
	<path class="st4" d="M172.9,213c2.3,0.1,4.1,1.7,4,3.8c-0.1,2-1.9,3.7-4.1,3.6c-2.3-0.1-4.1-1.7-4-3.8
		C168.9,214.6,170.8,212.9,172.9,213 M175.3,216.7c0-1.2-1.1-2.2-2.4-2.2c-1.3,0-2.3,1-2.4,2.1c0,1.2,1,2.2,2.3,2.2
		C174.2,218.9,175.3,217.9,175.3,216.7"/>
	<path class="st4" d="M189,221.2c1,0,1.9,0,2.9,0c0.6,0,1,0.3,1,0.9c0.2,2.1,0.4,4.2,0.5,6.3c0.2,1.9,0.3,3.7,0.5,5.6
		c0.1,0.8,0.1,1.5,0.2,2.3c0,0.2,0,0.4-0.1,0.6c-0.1,0.3-0.4,0.5-0.8,0.5c-0.3,0-0.5,0-0.8,0c-0.4,0-0.4,0.1-0.5,0.4
		c-0.1,1.2-0.2,2.5-0.3,3.7c0,0.5-0.4,0.8-0.9,0.8c-1.2,0-2.4,0-3.6,0c-0.5,0-0.8-0.3-0.9-0.8c-0.1-1.2-0.2-2.5-0.3-3.7
		c0-0.3-0.1-0.4-0.5-0.4c-0.3,0-0.5,0-0.8,0c-0.5,0-0.9-0.4-0.9-0.9c0.2-2.6,0.4-5.1,0.6-7.7c0.2-2.2,0.4-4.4,0.6-6.6
		c0.1-0.7,0.3-0.9,1.1-0.9H189 M188.9,240.7c0.2,0,0.4,0,0.6,0c0.3,0,0.4-0.1,0.4-0.4c0.1-1.3,0.2-2.5,0.3-3.8
		c0-0.4,0.4-0.7,0.8-0.7c0.2,0,0.4,0,0.7,0c0.3,0,0.4-0.1,0.4-0.4c-0.1-0.8-0.1-1.6-0.2-2.4c-0.2-1.9-0.3-3.8-0.5-5.7
		c-0.1-1.4-0.2-2.7-0.3-4.1c0-0.3-0.1-0.4-0.4-0.4c-1.2,0-2.4,0-3.6,0c-0.3,0-0.4,0.1-0.4,0.4c-0.2,1.9-0.3,3.8-0.5,5.6
		c-0.1,1.6-0.3,3.3-0.4,4.9c0,0.6-0.1,1.1-0.1,1.7c0,0.2,0.1,0.3,0.4,0.3c0.1,0,0.2,0,0.3,0c1.1-0.1,1.3,0.4,1.3,1.2
		c0.1,1.1,0.2,2.3,0.3,3.4c0,0.2,0.1,0.4,0.4,0.3C188.5,240.7,188.7,240.7,188.9,240.7"/>
	<path class="st4" d="M189,213c2.3,0.1,4.1,1.7,4,3.8c-0.1,2-1.9,3.7-4.1,3.6c-2.3-0.1-4.1-1.7-4-3.8
		C184.9,214.6,186.8,212.9,189,213 M191.3,216.7c0-1.2-1.1-2.2-2.4-2.2c-1.3,0-2.3,1-2.4,2.1c0,1.2,1,2.2,2.3,2.2
		C190.2,218.9,191.3,217.9,191.3,216.7"/>
	<path class="st4" d="M205,221.2c1,0,1.9,0,2.9,0c0.6,0,1,0.3,1,0.9c0.2,2.1,0.4,4.2,0.5,6.3c0.2,1.9,0.3,3.7,0.5,5.6
		c0.1,0.8,0.1,1.5,0.2,2.3c0,0.2,0,0.4-0.1,0.6c-0.1,0.3-0.4,0.5-0.8,0.5c-0.3,0-0.5,0-0.8,0c-0.4,0-0.4,0.1-0.5,0.4
		c-0.1,1.2-0.2,2.5-0.3,3.7c0,0.5-0.4,0.8-0.9,0.8c-1.2,0-2.4,0-3.6,0c-0.5,0-0.8-0.3-0.9-0.8c-0.1-1.2-0.2-2.5-0.3-3.7
		c0-0.3-0.1-0.4-0.5-0.4c-0.3,0-0.5,0-0.8,0c-0.5,0-0.9-0.4-0.9-0.9c0.2-2.6,0.4-5.1,0.6-7.7c0.2-2.2,0.4-4.4,0.6-6.6
		c0.1-0.7,0.3-0.9,1.1-0.9H205 M205,240.7c0.2,0,0.4,0,0.6,0c0.3,0,0.4-0.1,0.4-0.4c0.1-1.3,0.2-2.5,0.3-3.8c0-0.4,0.4-0.7,0.8-0.7
		c0.2,0,0.4,0,0.7,0c0.3,0,0.4-0.1,0.4-0.4c-0.1-0.8-0.1-1.6-0.2-2.4c-0.2-1.9-0.3-3.8-0.5-5.7c-0.1-1.4-0.2-2.7-0.3-4.1
		c0-0.3-0.1-0.4-0.4-0.4c-1.2,0-2.4,0-3.6,0c-0.3,0-0.4,0.1-0.4,0.4c-0.2,1.9-0.3,3.8-0.5,5.6c-0.1,1.6-0.3,3.3-0.4,4.9
		c0,0.6-0.1,1.1-0.1,1.7c0,0.2,0.1,0.3,0.4,0.3c0.1,0,0.2,0,0.3,0c1.1-0.1,1.3,0.4,1.3,1.2c0.1,1.1,0.2,2.3,0.3,3.4
		c0,0.2,0.1,0.4,0.4,0.3C204.5,240.7,204.8,240.7,205,240.7"/>
	<path class="st4" d="M205,213c2.3,0.1,4.1,1.7,4,3.8c-0.1,2-1.9,3.7-4.1,3.6c-2.3-0.1-4.1-1.7-4-3.8C201,214.6,202.9,212.9,205,213
		 M207.3,216.7c0-1.2-1.1-2.2-2.4-2.2c-1.3,0-2.3,1-2.4,2.1c0,1.2,1,2.2,2.3,2.2C206.3,218.9,207.3,217.9,207.3,216.7"/>
	<path class="st4" d="M221,221.2c1,0,1.9,0,2.9,0c0.6,0,1,0.3,1,0.9c0.2,2.1,0.4,4.2,0.5,6.3c0.2,1.9,0.3,3.7,0.5,5.6
		c0.1,0.8,0.1,1.5,0.2,2.3c0,0.2,0,0.4-0.1,0.6c-0.1,0.3-0.4,0.5-0.8,0.5c-0.3,0-0.5,0-0.8,0c-0.4,0-0.4,0.1-0.5,0.4
		c-0.1,1.2-0.2,2.5-0.3,3.7c0,0.5-0.4,0.8-0.9,0.8c-1.2,0-2.4,0-3.6,0c-0.5,0-0.8-0.3-0.9-0.8c-0.1-1.2-0.2-2.5-0.3-3.7
		c0-0.3-0.1-0.4-0.5-0.4c-0.3,0-0.5,0-0.8,0c-0.5,0-0.9-0.4-0.9-0.9c0.2-2.6,0.4-5.1,0.6-7.7c0.2-2.2,0.4-4.4,0.6-6.6
		c0.1-0.7,0.3-0.9,1.1-0.9H221 M221,240.7c0.2,0,0.4,0,0.6,0c0.3,0,0.4-0.1,0.4-0.4c0.1-1.3,0.2-2.5,0.3-3.8c0-0.4,0.4-0.7,0.8-0.7
		c0.2,0,0.4,0,0.7,0c0.3,0,0.4-0.1,0.4-0.4c-0.1-0.8-0.1-1.6-0.2-2.4c-0.2-1.9-0.3-3.8-0.5-5.7c-0.1-1.4-0.2-2.7-0.3-4.1
		c0-0.3-0.1-0.4-0.4-0.4c-1.2,0-2.4,0-3.6,0c-0.3,0-0.4,0.1-0.4,0.4c-0.2,1.9-0.3,3.8-0.5,5.6c-0.1,1.6-0.3,3.3-0.4,4.9
		c0,0.6-0.1,1.1-0.1,1.7c0,0.2,0.1,0.3,0.4,0.3c0.1,0,0.2,0,0.3,0c1.1-0.1,1.3,0.4,1.3,1.2c0.1,1.1,0.2,2.3,0.3,3.4
		c0,0.2,0.1,0.4,0.4,0.3C220.6,240.7,220.8,240.7,221,240.7"/>
	<path class="st4" d="M221.1,213c2.3,0.1,4.1,1.7,4,3.8c-0.1,2-1.9,3.7-4.1,3.6c-2.3-0.1-4.1-1.7-4-3.8
		C217,214.6,218.9,212.9,221.1,213 M223.4,216.7c0-1.2-1.1-2.2-2.4-2.2c-1.3,0-2.3,1-2.4,2.1c0,1.2,1,2.2,2.3,2.2
		C222.3,218.9,223.4,217.9,223.4,216.7"/>
	<path class="st4" d="M237.1,221.2c1,0,1.9,0,2.9,0c0.6,0,1,0.3,1,0.9c0.2,2.1,0.4,4.2,0.5,6.3c0.2,1.9,0.3,3.7,0.5,5.6
		c0.1,0.8,0.1,1.5,0.2,2.3c0,0.2,0,0.4-0.1,0.6c-0.1,0.3-0.4,0.5-0.8,0.5c-0.3,0-0.5,0-0.8,0c-0.4,0-0.4,0.1-0.5,0.4
		c-0.1,1.2-0.2,2.5-0.3,3.7c0,0.5-0.4,0.8-0.9,0.8c-1.2,0-2.4,0-3.6,0c-0.5,0-0.8-0.3-0.9-0.8c-0.1-1.2-0.2-2.5-0.3-3.7
		c0-0.3-0.1-0.4-0.5-0.4c-0.3,0-0.5,0-0.8,0c-0.5,0-0.9-0.4-0.9-0.9c0.2-2.6,0.4-5.1,0.6-7.7c0.2-2.2,0.4-4.4,0.6-6.6
		c0.1-0.7,0.3-0.9,1.1-0.9H237.1 M237.1,240.7c0.2,0,0.4,0,0.6,0c0.3,0,0.4-0.1,0.4-0.4c0.1-1.3,0.2-2.5,0.3-3.8
		c0-0.4,0.4-0.7,0.8-0.7c0.2,0,0.4,0,0.7,0c0.3,0,0.4-0.1,0.4-0.4c-0.1-0.8-0.1-1.6-0.2-2.4c-0.2-1.9-0.3-3.8-0.5-5.7
		c-0.1-1.4-0.2-2.7-0.3-4.1c0-0.3-0.1-0.4-0.4-0.4c-1.2,0-2.4,0-3.6,0c-0.3,0-0.4,0.1-0.4,0.4c-0.2,1.9-0.3,3.8-0.5,5.6
		c-0.1,1.6-0.3,3.3-0.4,4.9c0,0.6-0.1,1.1-0.1,1.7c0,0.2,0.1,0.3,0.4,0.3c0.1,0,0.2,0,0.3,0c1.1-0.1,1.3,0.4,1.3,1.2
		c0.1,1.1,0.2,2.3,0.3,3.4c0,0.2,0.1,0.4,0.4,0.3C236.6,240.7,236.9,240.7,237.1,240.7"/>
	<path class="st4" d="M237.1,213c2.3,0.1,4.1,1.7,4,3.8c-0.1,2-1.9,3.7-4.1,3.6c-2.3-0.1-4.1-1.7-4-3.8
		C233.1,214.6,235,212.9,237.1,213 M239.4,216.7c0-1.2-1.1-2.2-2.4-2.2c-1.3,0-2.3,1-2.4,2.1c0,1.2,1,2.2,2.3,2.2
		C238.3,218.9,239.4,217.9,239.4,216.7"/>
</g>
</svg>
