<svg version="1.1" id="SVG_T1G1" xmlns="http://www.w3.org/2000/svg" xmlns:xlink="http://www.w3.org/1999/xlink" x="0px" y="0px"
	 viewBox="0 0 558.1 300" data-viewBox="0 0 558.1 300" style="enable-background:new 0 0 558.1 300;" xml:space="preserve">
<style type="text/css">
	.t1-g1-st0{fill:#80CAA4;}
	.t1-g1-st1{fill:none;}
	.t1-g1-st2{fill:#DF3A4A;}
	.t1-g1-st3{fill:#3E4042;}
	.t1-g1-st4{fill:none;stroke:#3E4042;stroke-width:1}
	.t1-g1-st5{fill:none;stroke:#80CAA4;stroke-miterlimit:10;}
	.t1-g1-st6{fill:none;stroke:#80CAA4;stroke-width:1.051;stroke-miterlimit:10;}
	.t1-g1-st7{font-family:'Raleway'; font-weight:600;}
	.t1-g1-st8{font-size:11px;}
	.t1-g1-st9{letter-spacing:-1;}
	.t1-g1-st10{font-family:'Raleway'; font-weight:700;}
	.t1-g1-st11{font-size:50.9934px;}
	.t1-g1-st12{font-family:'Raleway'; font-weight:300;}
	.t1-g1-st13{font-size:29.7292px;}
	.t1-g1-st14{fill:none;stroke:#DF3A4A;stroke-width:2.649;stroke-linecap:round;stroke-linejoin:round;stroke-dasharray:0,7.733;}
	.t1-g1-st15{fill:none;stroke:#DF3A4A;stroke-width:2.649;stroke-linecap:round;stroke-linejoin:round;}
</style>
<g class="t1-g1-anim1">
	<path class="t1-g1-st0" d="M105.7,0C47.3,0,0,47.3,0,105.7C0,164,47.3,211.3,105.7,211.3c58.4,0,105.7-47.3,105.7-105.7
		C211.3,47.3,164,0,105.7,0"/>
	<path class="t1-g1-st2" d="M212.4,105.4C212.4,47.2,165.1,0,107.1,0v105.9l-62.9,85.6C91.1,226,157,215.9,191.5,169
		c5.6-7.6,10-15.8,13.3-24.2C209.7,132.6,212.4,119.3,212.4,105.4"/>
</g>
<line class="t1-g1-st4 t1-g1-anim3" x1="130" y1="120" x2="393" y2="120"/>
<line class="t1-g1-st4 t1-g1-anim4" x1="5" y1="298" x2="393" y2="298"/>
<g class="t1-g1-anim2"><g>
<path class="t1-g1-st2" d="M20.5,275c0,5.6,0,11.3,0,16.9c0,0.9-0.3,1.4-1,1.7c-1,0.4-2-0.2-2.1-1.3c0-0.2,0-0.5,0-0.7
	c0-5.8,0-11.6,0-17.4c0-1-0.2-1.2-1.2-1.2c-0.8,0-1.5,0-2.3,0c-0.8,0-1,0.2-1,1c0,5.9,0,11.8,0,17.7c0,0.3,0,0.6-0.1,0.9
	c-0.2,0.7-0.9,1.2-1.6,1.1c-0.8-0.1-1.4-0.6-1.5-1.4c0-0.2,0-0.5,0-0.7c0-11.2,0-22.4,0-33.6c0-0.9-0.3-1.2-1.1-1.1
	c-0.5,0-0.8,0.3-0.8,0.8c0,0.9,0,1.8,0,2.7c0,3.3,0,6.6,0,9.8c0,1-0.5,1.5-1.4,1.5c-0.5,0-1-0.4-1.1-1c0-0.2,0-0.5,0-0.7
	c0-2.5,0-5.1,0-7.6c0-2.1,0-4.2-0.1-6.3c-0.1-2,1.3-3.7,3.6-3.7c2.2,0.1,4.5,0,6.7,0c1.9,0,3.9,0,5.8,0c2.3,0,3.6,1.3,3.6,3.6
	c0.1,4.7,0.1,9.4,0.1,14.1c0,0.9-0.5,1.5-1.3,1.5c-0.6,0-1.2-0.4-1.3-1c0-0.2,0-0.5,0-0.7c0-4.1,0-8.1,0-12.2c0-0.7-0.3-1-1-1
	c-0.7,0-0.9,0.3-0.9,1C20.5,263.6,20.5,269.3,20.5,275"/>
<path class="t1-g1-st2" d="M15.3,249.9c-2.3,0-4-1.8-4-4.1c0-2.1,1.9-3.9,4-3.9c2.2,0,4,1.8,4,4.1C19.4,248,17.5,249.9,15.3,249.9"/>
</g><g>
<path class="t1-g1-st2" d="M43.7,275c0,5.6,0,11.3,0,16.9c0,0.9-0.3,1.4-1,1.7c-1,0.4-2-0.2-2.1-1.3c0-0.2,0-0.5,0-0.7
	c0-5.8,0-11.6,0-17.4c0-1-0.2-1.2-1.2-1.2c-0.8,0-1.5,0-2.3,0c-0.8,0-1,0.2-1,1c0,5.9,0,11.8,0,17.7c0,0.3,0,0.6-0.1,0.9
	c-0.2,0.7-0.9,1.2-1.6,1.1c-0.8-0.1-1.3-0.6-1.4-1.4c0-0.2,0.1-0.5,0.1-0.7c0-11.2,0-22.4,0-33.6c0-0.9-0.4-1.2-1.2-1.1
	c-0.5,0-0.9,0.3-0.9,0.8c0,0.9,0,1.8,0,2.7c0,3.3,0,6.6,0,9.8c0,1-0.6,1.5-1.4,1.5c-0.5,0-1-0.4-1.1-1c0-0.2,0-0.5,0-0.7
	c0-2.5,0-5.1,0-7.6c0-2.1,0-4.2-0.1-6.3c-0.1-2,1.3-3.7,3.6-3.7c2.2,0.1,4.5,0,6.7,0c1.9,0,3.9,0,5.8,0c2.3,0,3.6,1.3,3.6,3.6
	c0.1,4.7,0.1,9.4,0.1,14.1c0,0.9-0.5,1.5-1.3,1.5c-0.6,0-1.2-0.4-1.3-1c0-0.2,0-0.5,0-0.7c0-4.1,0-8.1,0-12.2c0-0.7-0.3-1-1-1
	c-0.7,0-0.9,0.3-0.9,1C43.7,263.6,43.7,269.3,43.7,275"/>
<path class="t1-g1-st2" d="M38.5,249.9c-2.3,0-4-1.8-4-4.1c0-2.1,1.9-3.9,4-3.9c2.2,0,4,1.8,4,4.1C42.5,248,40.7,249.9,38.5,249.9"/>
</g><g>
<path class="t1-g1-st2" d="M66.8,275c0,5.6,0,11.3,0,16.9c0,0.9-0.3,1.4-1,1.7c-1,0.4-2-0.2-2.1-1.3c0-0.2,0-0.5,0-0.7
	c0-5.8,0-11.6,0-17.4c0-1-0.2-1.2-1.2-1.2c-0.8,0-1.5,0-2.3,0c-0.8,0-1,0.2-1,1c0,5.9,0,11.8,0,17.7c0,0.3,0,0.6-0.1,0.9
	c-0.2,0.7-0.9,1.2-1.6,1.1c-0.8-0.1-1.3-0.6-1.4-1.4c0-0.2,0-0.5,0-0.7c0-11.2,0-22.4,0-33.6c0-0.9-0.3-1.2-1.2-1.1
	c-0.5,0-0.8,0.3-0.8,0.8c0,0.9,0,1.8,0,2.7c0,3.3,0,6.6,0,9.8c0,1-0.5,1.5-1.4,1.5c-0.5,0-1-0.4-1.1-1c0-0.2,0-0.5,0-0.7
	c0-2.5,0-5.1,0-7.6c0-2.1,0-4.2-0.1-6.3c-0.1-2,1.3-3.7,3.6-3.7c2.2,0.1,4.5,0,6.7,0c1.9,0,3.9,0,5.8,0c2.3,0,3.6,1.3,3.6,3.6
	c0.1,4.7,0.1,9.4,0.1,14.1c0,0.9-0.5,1.5-1.3,1.5c-0.6,0-1.2-0.4-1.3-1c0-0.2,0-0.5,0-0.7c0-4.1,0-8.1,0-12.2c0-0.7-0.3-1-1-1
	c-0.7,0-0.9,0.3-0.9,1C66.8,263.6,66.8,269.3,66.8,275"/>
<path class="t1-g1-st2" d="M61.6,249.9c-2.3,0-4-1.8-4-4.1c0-2.1,1.9-3.9,4-3.9c2.2,0,4,1.8,4,4.1C65.7,248,63.8,249.9,61.6,249.9"/>
</g><g>
<path class="t1-g1-st5" d="M90,275c0,5.6,0,11.3,0,16.9c0,0.9-0.3,1.4-1,1.7c-1,0.4-2-0.2-2.1-1.3c0-0.2,0-0.5,0-0.7c0-5.8,0-11.6,0-17.4
	c0-1-0.2-1.2-1.2-1.2c-0.8,0-1.5,0-2.3,0c-0.8,0-1,0.2-1,1c0,5.9,0,11.8,0,17.7c0,0.3,0,0.6-0.1,0.9c-0.2,0.7-0.9,1.2-1.6,1.1
	c-0.8-0.1-1.2-0.6-1.3-1.4c0-0.2,0.2-0.5,0.2-0.7c0-11.2,0-22.4,0-33.6c0-0.9-0.5-1.2-1.3-1.1c-0.5,0-0.9,0.3-0.9,0.8
	c0,0.9-0.1,1.8-0.1,2.7c0,3.3,0,6.6,0,9.8c0,1-0.6,1.5-1.4,1.5c-0.5,0-1-0.4-1.1-1c0-0.2,0-0.5,0-0.7c0-2.5,0-5.1,0-7.6
	c0-2.1,0-4.2-0.1-6.3c-0.1-2,1.3-3.7,3.6-3.7c2.2,0.1,4.5,0,6.7,0c1.9,0,3.9,0,5.8,0c2.3,0,3.6,1.3,3.6,3.6
	c0.1,4.7,0.1,9.4,0.1,14.1c0,0.9-0.5,1.5-1.3,1.5c-0.6,0-1.2-0.4-1.3-1c0-0.2,0-0.5,0-0.7c0-4.1,0-8.1,0-12.2c0-0.7-0.3-1-1-1
	c-0.7,0-0.9,0.3-0.9,1C90,263.6,90,269.3,90,275z"/>
<path class="t1-g1-st6" d="M84.8,249.9c-2.3,0-4-1.8-4-4.1c0-2.1,1.9-3.9,4-3.9c2.2,0,4,1.8,4,4.1C88.8,248,87,249.9,84.8,249.9z"/>
</g><g>
<path class="t1-g1-st6" d="M113.1,275c0,5.6,0,11.3,0,16.9c0,0.9-0.3,1.4-1,1.7c-1,0.4-2-0.2-2.1-1.3c0-0.2,0-0.5,0-0.7
	c0-5.8,0-11.6,0-17.4c0-1-0.2-1.2-1.2-1.2c-0.8,0-1.5,0-2.3,0c-0.8,0-1,0.2-1,1c0,5.9,0,11.8,0,17.7c0,0.3,0,0.6-0.1,0.9
	c-0.2,0.7-0.9,1.2-1.6,1.1c-0.8-0.1-1.4-0.6-1.5-1.4c0-0.2,0-0.5,0-0.7c0-11.2,0-22.4,0-33.6c0-0.9-0.3-1.2-1.1-1.1
	c-0.5,0-0.8,0.3-0.8,0.8c0,0.9,0,1.8,0,2.7c0,3.3,0,6.6,0,9.8c0,1-0.5,1.5-1.4,1.5c-0.5,0-1-0.4-1.1-1c0-0.2,0-0.5,0-0.7
	c0-2.5,0-5.1,0-7.6c0-2.1,0-4.2-0.1-6.3c-0.1-2,1.3-3.7,3.6-3.7c2.2,0.1,4.5,0,6.7,0c1.9,0,3.9,0,5.8,0c2.3,0,3.6,1.3,3.6,3.6
	c0.1,4.7,0.1,9.4,0.1,14.1c0,0.9-0.5,1.5-1.3,1.5c-0.6,0-1.2-0.4-1.3-1c0-0.2,0-0.5,0-0.7c0-4.1,0-8.1,0-12.2c0-0.7-0.3-1-1-1
	c-0.7,0-0.9,0.3-0.9,1C113.1,263.6,113.1,269.3,113.1,275z"/>
<path class="t1-g1-st6" d="M107.9,249.9c-2.3,0-4-1.8-4-4.1c0-2.1,1.9-3.9,4-3.9c2.2,0,4,1.8,4,4.1C112,248,110.1,249.9,107.9,249.9z"/>
</g><g>
<path class="t1-g1-st6" d="M136.3,275c0,5.6,0,11.3,0,16.9c0,0.9-0.3,1.4-1,1.7c-1,0.4-2-0.2-2.1-1.3c0-0.2,0-0.5,0-0.7
	c0-5.8,0-11.6,0-17.4c0-1-0.2-1.2-1.2-1.2c-0.8,0-1.5,0-2.3,0c-0.8,0-1,0.2-1,1c0,5.9,0,11.8,0,17.7c0,0.3,0,0.6-0.1,0.9
	c-0.2,0.7-0.9,1.2-1.6,1.1c-0.8-0.1-1.4-0.6-1.5-1.4c0-0.2,0-0.5,0-0.7c0-11.2,0-22.4,0-33.6c0-0.9-0.3-1.2-1.1-1.1
	c-0.5,0-0.8,0.3-0.8,0.8c0,0.9,0,1.8,0,2.7c0,3.3,0,6.6,0,9.8c0,1-0.5,1.5-1.4,1.5c-0.5,0-1-0.4-1.1-1c0-0.2,0-0.5,0-0.7
	c0-2.5,0-5.1,0-7.6c0-2.1,0-4.2-0.1-6.3c-0.1-2,1.3-3.7,3.6-3.7c2.2,0.1,4.5,0,6.7,0c1.9,0,3.9,0,5.8,0c2.3,0,3.6,1.3,3.6,3.6
	c0.1,4.7,0.1,9.4,0.1,14.1c0,0.9-0.5,1.5-1.3,1.5c-0.6,0-1.2-0.4-1.3-1c0-0.2,0-0.5,0-0.7c0-4.1,0-8.1,0-12.2c0-0.7-0.3-1-1-1
	c-0.7,0-0.9,0.3-0.9,1C136.3,263.6,136.3,269.3,136.3,275z"/>
<path class="t1-g1-st6" d="M131.1,249.9c-2.3,0-4-1.8-4-4.1c0-2.1,1.9-3.9,4-3.9c2.2,0,4,1.8,4,4.1C135.1,248,133.3,249.9,131.1,249.9z"/>
</g><g>
<path class="t1-g1-st6" d="M159.4,275c0,5.6,0,11.3,0,16.9c0,0.9-0.3,1.4-1,1.7c-1,0.4-2-0.2-2.1-1.3c0-0.2,0-0.5,0-0.7
	c0-5.8,0-11.6,0-17.4c0-1-0.2-1.2-1.2-1.2c-0.8,0-1.5,0-2.3,0c-0.8,0-1,0.2-1,1c0,5.9,0,11.8,0,17.7c0,0.3,0,0.6-0.1,0.9
	c-0.2,0.7-0.9,1.2-1.6,1.1c-0.8-0.1-1.4-0.6-1.5-1.4c0-0.2,0-0.5,0-0.7c0-11.2,0-22.4,0-33.6c0-0.9-0.3-1.2-1.1-1.1
	c-0.5,0-0.8,0.3-0.8,0.8c0,0.9,0,1.8,0,2.7c0,3.3,0,6.6,0,9.8c0,1-0.5,1.5-1.4,1.5c-0.5,0-1-0.4-1.1-1c0-0.2,0-0.5,0-0.7
	c0-2.5,0-5.1,0-7.6c0-2.1,0-4.2-0.1-6.3c-0.1-2,1.3-3.7,3.6-3.7c2.2,0.1,4.5,0,6.7,0c1.9,0,3.9,0,5.8,0c2.3,0,3.6,1.3,3.6,3.6
	c0.1,4.7,0.1,9.4,0.1,14.1c0,0.9-0.5,1.5-1.3,1.5c-0.6,0-1.2-0.4-1.3-1c0-0.2,0-0.5,0-0.7c0-4.1,0-8.1,0-12.2c0-0.7-0.3-1-1-1
	c-0.7,0-0.9,0.3-0.9,1C159.4,263.6,159.4,269.3,159.4,275z"/>
<path class="t1-g1-st6" d="M154.2,249.9c-2.3,0-4-1.8-4-4.1c0-2.1,1.9-3.9,4-3.9c2.2,0,4,1.8,4,4.1C158.3,248,156.4,249.9,154.2,249.9z"/>
</g><g>
<path class="t1-g1-st5" d="M182.6,275c0,5.6,0,11.3,0,16.9c0,0.9-0.3,1.4-1,1.7c-1,0.4-2-0.2-2.1-1.3c0-0.2,0-0.5,0-0.7
	c0-5.8,0-11.6,0-17.4c0-1-0.2-1.2-1.2-1.2c-0.8,0-1.5,0-2.3,0c-0.8,0-1,0.2-1,1c0,5.9,0,11.8,0,17.7c0,0.3,0,0.6-0.1,0.9
	c-0.2,0.7-0.9,1.2-1.6,1.1c-0.8-0.1-1.5-0.6-1.6-1.4c0-0.2-0.1-0.5-0.1-0.7c0-11.2,0-22.4,0-33.6c0-0.9-0.2-1.2-1-1.1
	c-0.5,0-0.7,0.3-0.8,0.8c0,0.9,0,1.8,0,2.7c0,3.3,0,6.6,0,9.8c0,1-0.5,1.5-1.4,1.5c-0.5,0-1-0.4-1.1-1c0-0.2,0-0.5,0-0.7
	c0-2.5,0-5.1,0-7.6c0-2.1,0-4.2-0.1-6.3c-0.1-2,1.3-3.7,3.6-3.7c2.2,0.1,4.5,0,6.7,0c1.9,0,3.9,0,5.8,0c2.3,0,3.6,1.3,3.6,3.6
	c0.1,4.7,0.1,9.4,0.1,14.1c0,0.9-0.5,1.5-1.3,1.5c-0.6,0-1.2-0.4-1.3-1c0-0.2,0-0.5,0-0.7c0-4.1,0-8.1,0-12.2c0-0.7-0.3-1-1-1
	c-0.7,0-0.9,0.3-0.9,1C182.6,263.6,182.6,269.3,182.6,275z"/>
<path class="t1-g1-st6" d="M177.4,249.9c-2.3,0-4-1.8-4-4.1c0-2.1,1.9-3.9,4-3.9c2.2,0,4,1.8,4,4.1C181.4,248,179.6,249.9,177.4,249.9z"/>
</g><g>
<path class="t1-g1-st5" d="M205.7,275c0,5.6,0,11.3,0,16.9c0,0.9-0.3,1.4-1,1.7c-1,0.4-2-0.2-2.1-1.3c0-0.2,0-0.5,0-0.7
	c0-5.8,0-11.6,0-17.4c0-1-0.2-1.2-1.2-1.2c-0.8,0-1.5,0-2.3,0c-0.8,0-1,0.2-1,1c0,5.9,0,11.8,0,17.7c0,0.3,0,0.6-0.1,0.9
	c-0.2,0.7-0.9,1.2-1.6,1.1c-0.8-0.1-1.5-0.6-1.6-1.4c0-0.2-0.2-0.5-0.2-0.7c0-11.2,0-22.4,0-33.6c0-0.9-0.1-1.2-1-1.1
	c-0.5,0-0.7,0.3-0.7,0.8c0,0.9,0,1.8,0,2.7c0,3.3,0,6.6,0,9.8c0,1-0.5,1.5-1.4,1.5c-0.5,0-1-0.4-1.1-1c0-0.2,0-0.5,0-0.7
	c0-2.5,0-5.1,0-7.6c0-2.1,0-4.2-0.1-6.3c-0.1-2,1.3-3.7,3.6-3.7c2.2,0.1,4.5,0,6.7,0c1.9,0,3.9,0,5.8,0c2.3,0,3.6,1.3,3.6,3.6
	c0.1,4.7,0.1,9.4,0.1,14.1c0,0.9-0.5,1.5-1.3,1.5c-0.6,0-1.2-0.4-1.3-1c0-0.2,0-0.5,0-0.7c0-4.1,0-8.1,0-12.2c0-0.7-0.3-1-1-1
	c-0.7,0-0.9,0.3-0.9,1C205.7,263.6,205.7,269.3,205.7,275z"/>
<path class="t1-g1-st6" d="M200.5,249.9c-2.3,0-4-1.8-4-4.1c0-2.1,1.9-3.9,4-3.9c2.2,0,4,1.8,4,4.1C204.6,248,202.7,249.9,200.5,249.9z"/>
</g></g>
<g class="t1-g1-anim5">
<text transform="matrix(1 0 0 1 283.5362 64.8266)" class="t1-g1-st2 t1-g1-st10 t1-g1-st11">60</text>
<text transform="matrix(1 0 0 1 345.7999 47.8462)" class="t1-g1-st2 t1-g1-st12 t1-g1-st13">%</text>
<text transform="matrix(1 0 0 1 284.1436 76.6157)" class="t1-g1-st3 t1-g1-st7 t1-g1-st8"><tspan x="0" dy="1em">connect to the</tspan> <tspan x="0" dy="1em">internet and</tspan> <tspan x="0" dy="1em">use Telegram daily</tspan></text>
</g>
<g class="t1-g1-anim6">
<text transform="matrix(1 0 0 1 284.1436 232.5434)" class="t1-g1-st3 t1-g1-st7 t1-g1-st8"><tspan x="0" dy="1em">Over <tspan class="t1-g1-st2">1/3</tspan> watches</tspan> <tspan x="0" dy="1em">satellite TV and</tspan> <tspan x="0" dy="1em">listens to foreign</tspan> <tspan x="0" dy="1em">radio more than</tspan> <tspan x="0" dy="1em">once a week</tspan></text>
</g>
<path class="t1-g1-st2" d="M489.1,75.5c0,0,0.2,0,0.5,0c0.2,0,0.3-0.3,0.3-0.5c0-0.2-0.1-0.5-0.3-0.5c-0.6,0-1.2,0-1.8,0
	c-0.2,0-0.3,0.2-0.3,0.4c0,0.2,0.1,0.4,0.3,0.4c0.3,0,0.6,0.2,0.9,0.2 M488.7,105.3c0.5,0,0.9,0,1.4,0c0.3,0,0.4-0.1,0.4-0.4
	c0-0.2,0-0.4,0-0.6c0-0.3-0.1-0.4-0.4-0.4c-0.9,0-1.9,0-2.8,0c-0.3,0-0.4,0.1-0.4,0.4c0,0.2,0,0.4,0,0.5c0,0.3,0.1,0.4,0.4,0.4
	C487.8,105.3,488.2,105.3,488.7,105.3 M499.1,80.5h-2v-4h-17v26h17v-6h2.2c0,0-0.2,0.1-0.2,0.2c0,3,0,5.9,0,8.9
	c0,0.7-0.2,0.9-0.9,0.9c-6.3,0-12.6,0-18.9,0c-0.8,0-1.2-0.2-1.2-1c0-10.1,0-20.3,0-30.4c0-0.7,0.3-1.1,1.1-1.1c6.3,0,12.7,0,19,0
	c0.7,0,1.1,0.3,1.1,1c0,1.9,0,3.6,0,5.5c0,0.1,0,0,0,0"/>
<path class="t1-g1-st2" d="M488.8,98.1C488.8,98.1,488.8,98.2,488.8,98.1c0.1,0,0.2-0.1,0.3-0.1c1.5-1,3.1-1.9,4.6-2.9
	c0.3-0.2,0.7-0.3,1.1-0.3c4.7,0,9.4,0,14.1,0c1.2,0,2.4,0,3.6,0c1,0,1.8-0.7,1.8-1.7c0-3,0-6,0-9c0-0.3-0.1-0.7-0.3-0.9
	c-0.3-0.6-0.9-0.7-1.6-0.7c-5.9,0-11.8,0-17.7,0c-0.1,0-0.1,0-0.2,0c-1,0.1-1.7,0.7-1.7,1.7c0,2.2,0,4.4,0,6.7
	c0,0.2-0.1,0.4-0.2,0.6c-0.8,1.4-1.7,2.9-2.5,4.3C489.7,96.5,489.2,97.3,488.8,98.1 M504.1,81.5c0,0,5.4,0,8.3,0
	c1.7,0,2.7,1.2,2.7,2.8c0,2.9,0,5.8,0,8.7c0,1.5-1.1,2.6-2.7,2.6c-5.9,0-11.7,0-17.6,0c-0.2,0-0.4,0.1-0.6,0.2
	c-2.1,1.3-4.2,2.7-6.3,4c-0.1,0-0.1,0.1-0.2,0.1c-0.2,0.1-0.4,0.2-0.6,0c-0.2-0.2-0.2-0.4-0.1-0.6c0.4-0.7,0.8-1.4,1.2-2.1
	c1.2-2.1,2.4-4.1,3.5-6.2c0.1-0.1,0.1-0.3,0.1-0.5c0-2.1,0.1-4.2,0-6.3c0-1.4,1-2.8,2.9-2.8c3,0,5.9-0.1,8.9-0.1"/>
<path class="t1-g1-st2" d="M503.4,93c0.8,0,1.4-0.6,1.4-1.3c0-0.7-0.6-1.3-1.4-1.3c-0.7,0-1.4,0.6-1.4,1.3C502,92.4,502.6,93,503.4,93
	 M499.2,91.7c0-0.7-0.6-1.3-1.3-1.3c-0.8,0-1.4,0.6-1.4,1.3c0,0.7,0.6,1.3,1.3,1.4C498.6,93,499.2,92.5,499.2,91.7 M508.9,93
	c0.8,0,1.4-0.6,1.4-1.3c0-0.7-0.6-1.3-1.4-1.3c-0.8,0-1.4,0.6-1.4,1.3C507.5,92.4,508.2,93,508.9,93"/>
<path class="t1-g1-st2" d="M508.9,93c-0.8,0-1.4-0.6-1.4-1.3c0-0.7,0.6-1.3,1.4-1.3c0.8,0,1.4,0.6,1.4,1.3C510.3,92.4,509.7,93,508.9,93"
	/>
<path class="t1-g1-st2" d="M499.2,91.7c0,0.7-0.6,1.3-1.4,1.3c-0.8,0-1.4-0.6-1.3-1.4c0-0.7,0.7-1.3,1.4-1.3
	C498.7,90.4,499.3,91,499.2,91.7"/>
<path class="t1-g1-st2" d="M503.4,93c-0.8,0-1.4-0.6-1.4-1.3c0-0.7,0.6-1.3,1.4-1.3c0.7,0,1.4,0.6,1.4,1.3C504.8,92.4,504.2,93,503.4,93"
	/>
<path class="t1-g1-st2" d="M488.7,40.4c4.4,0.1,8.4,1.4,12,3.9c1.4,1,2.7,2.2,3.8,3.5c0.3,0.3,0.3,0.7,0,0.9c-0.3,0.3-0.7,0.3-1,0.1
	c-0.1-0.1-0.2-0.2-0.4-0.4c-2.6-3-5.9-5.1-9.7-6c-5.8-1.4-11.1-0.3-15.9,3.1c-1.2,0.9-2.4,1.9-3.3,3.1c-0.3,0.3-0.6,0.5-0.9,0.3
	c-0.5-0.2-0.6-0.8-0.2-1.2c0.8-0.8,1.6-1.7,2.4-2.5c2.9-2.5,6.2-4.1,9.9-4.7C486.4,40.6,487.6,40.5,488.7,40.4"/>
<path class="t1-g1-st2" d="M488.8,45.5c4.6,0.1,8.5,1.8,11.6,5.3c0.3,0.4,0.6,0.8,0.9,1.1c0.3,0.4,0.3,0.9-0.1,1.2
	c-0.3,0.3-0.8,0.1-1.1-0.3c-1.5-2-3.3-3.5-5.5-4.5c-2.9-1.3-6-1.6-9.1-0.9c-3.3,0.8-6,2.6-8,5.3c-0.2,0.3-0.4,0.5-0.7,0.6
	c-0.3,0-0.6-0.1-0.7-0.4c-0.2-0.3-0.1-0.6,0.1-0.9c0.7-1,1.5-1.9,2.4-2.7c2.7-2.3,5.8-3.6,9.3-3.8c0.2,0,0.3,0,0.5,0
	C488.5,45.5,488.6,45.5,488.8,45.5"/>
<path class="t1-g1-st2" d="M492,61c0-1.8-1.4-3.2-3.2-3.2c-1.8,0-3.2,1.4-3.2,3.2c0,1.8,1.4,3.2,3.2,3.3C490.5,64.2,492,62.7,492,61
	 M484.1,61.1c-0.1-2.5,2-4.7,4.5-4.8c2.6-0.1,4.8,2,4.9,4.7c0.1,2.5-2,4.6-4.6,4.7C486.3,65.8,484.2,63.7,484.1,61.1"/>
<path class="t1-g1-st2" d="M488.8,50.8c4.1,0.1,7.1,1.9,9.1,5.6c0.2,0.4,0.1,0.9-0.3,1.1c-0.3,0.2-0.8,0-1-0.4c-0.6-1.2-1.4-2.2-2.5-3
	c-1.7-1.3-3.7-1.9-5.9-1.8c-2.1,0.1-3.9,0.9-5.4,2.4c-0.8,0.7-1.4,1.6-1.8,2.6c-0.2,0.4-0.6,0.6-1,0.4c-0.4-0.2-0.6-0.6-0.3-1.1
	c0.3-0.6,0.7-1.2,1.1-1.8c1.7-2.2,4-3.5,6.8-3.9c0.2,0,0.4,0,0.6-0.1C488.3,50.8,488.6,50.8,488.8,50.8"/>
<path class="t1-g1-st2" d="M506.1,247.7c0.1,0.1,0.2,0.2,0.3,0.3c0.5,0.5,1.1,1.1,1.5,1.6c1.9,2.3,3.1,4.9,4.1,7.6
	c0.1,0.3,0.2,0.3,0.6,0.3c2.3,0,4.7-0.1,7-0.1h0.4C516.5,252.5,511.9,249.3,506.1,247.7 M479.8,257.6c0.1,0,0.1,0.1,0.1,0.1
	c2.5,0,5,0,7.5,0c0.1,0,0.3-0.1,0.3-0.3c0.2-0.6,0.4-1.1,0.7-1.7c1.3-2.9,2.8-5.7,5.2-7.8c0,0,0.1-0.1,0.1-0.1
	C487.9,249.4,483.3,252.6,479.8,257.6 M479.7,284.5c1.7,3,3.7,4.7,6.1,6.4c2.9,2.1,6.5,3.5,7.8,3.6c-0.6-0.6-1.2-1.2-1.8-1.9
	c-1.9-2.2-3.1-4.8-4.1-7.5c-0.1-0.4-0.3-0.6-0.7-0.6c-2,0-3.9,0-5.9,0H479.7z M506,294.6c5.9-1.6,10.6-4.9,14.1-10
	c-0.1,0-0.2,0-0.2,0c-2.5,0-4.9,0-7.4,0c-0.3,0-0.3,0.1-0.4,0.3c-0.6,1.5-1.2,3-2,4.4C509.1,291.3,507.7,293.1,506,294.6
	 M510.6,257.5c-0.4-1-0.8-1.9-1.3-2.8c-1.2-2.3-2.5-4.4-4.6-6c-1.1-0.8-2.6-1.3-3.6-1.5v10.3H510.6z M489.1,257.5h10v-10.3
	c-1,0.2-2.7,0.7-3.8,1.6c-2.1,1.6-3.6,3.6-4.8,5.9c-0.5,0.9-0.9,1.8-1.3,2.8 M501.1,295.3C501.1,295.3,501,295.3,501.1,295.3
	c0.1,0,0.1,0,0.2,0c1.9-0.3,3.4-1.4,4.7-2.7c1.7-1.7,2.9-3.9,3.9-6.1c0.3-0.6,0.5-1,0.8-2h-9.6V295.3z M489.2,284.5
	c0,0,0,0.3,0.1,0.3c0.7,1.9,1.6,3.8,2.8,5.5c1.1,1.6,2.5,3.1,4.3,4.1c0.8,0.5,1.8,0.8,2.8,0.9v-10.8H489.2z M514.1,269.5h10
	c0,0,0,0.2,0,0.1c-0.2-3.7-1.2-7.1-3-10.3c-0.1-0.2-0.3-0.2-0.5-0.2c-2.5,0-5.1,0-7.6,0c-0.1,0-0.2-0.2-0.4-0.2
	c1,3.5,1.5,7.6,1.6,10.6 M476.1,269.5h9.5c0.1-3,0.6-7,1.6-10.5c-0.1,0-0.1,0.1-0.2,0.1c-2.6,0-5.3,0.1-7.9,0.1
	c-0.1,0-0.4,0.2-0.4,0.3c-0.5,1.1-1.1,2.1-1.6,3.2c-0.9,2.3-1.3,4.8-1.4,6.8 M512.6,282.9c0.1,0,0.2,0.1,0.3,0.1c2.6,0,5.2,0,7.8,0
	c0.3,0,0.4-0.1,0.5-0.3c1.4-2.5,2.3-5.3,2.7-8.2c0.1-1,0.2-2.1,0.3-3.1h-9.9C514.2,275.5,513.7,279.2,512.6,282.9 M485.1,271.5h-9.4
	c0.1,1,0.1,1.5,0.2,2.2c0.3,3.2,1.3,6.2,2.8,9c0.1,0.3,0.3,0.4,0.6,0.4c2.5,0,5,0,7.5,0c0.1,0,0.3-0.1,0.5-0.2
	c-1.1-3.7-1.5-7.4-1.6-11.4 M512.8,269.5c-0.1-3-0.6-7-1.7-10h-10v10H512.8z M488.8,259.5c-0.9,2-1.9,8-1.7,10h12v-10H488.8z
	 M501.1,283.5h10.1c1.1-4,1.6-8,1.6-12h-11.7V283.5z M499.1,271.5h-12c0,0,0,0.3,0,0.3c0.1,3.6,0.5,7.3,1.5,10.8
	c0.1,0.3,0.2,0.6,0.5,0.6c3.2,0,6.3,0.2,9.5,0.2h0.5V271.5z M473.9,271.1c0-14.4,11.9-26,26.1-25.9c14.1,0.1,25.9,11.4,25.9,26
	c0,14.4-11.8,26-26,26C485.5,297.1,473.9,285.5,473.9,271.1"/>
<path class="t1-g1-st2" d="M453.5,222.3c0.8,0,1.4-0.7,1.4-1.4c0-0.8-0.6-1.5-1.4-1.5c-0.8,0-1.4,0.6-1.4,1.4
	C452,221.7,452.7,222.3,453.5,222.3 M474.3,222.3c0.8,0,1.5-0.7,1.4-1.4c0-0.8-0.7-1.5-1.4-1.5c-0.8,0-1.4,0.6-1.4,1.4
	C472.9,221.7,473.5,222.3,474.3,222.3 M477.6,220.8c0,0.8,0.6,1.5,1.4,1.5c0.8,0,1.5-0.6,1.5-1.4c0-0.8-0.6-1.5-1.4-1.5
	C478.3,219.4,477.6,220.1,477.6,220.8 M466.1,217.5c0,0,8.6,0,12.8,0c0.1,0,0.2-0.1,0.4-0.1c0.4,0,0.6-0.2,0.8-0.6
	c0.1-0.2,0.2-0.5,0.2-0.7c0-4.4,0-8.8,0-13.2c0-0.1,0-0.2,0-0.3c0-0.5-0.4-0.8-0.8-0.9c-0.2,0-0.3,0-0.5,0c-8.4,0-16.8,0-25.3,0
	c-0.1,0-0.2,0-0.2,0c-0.7,0-1.1,0.5-1.1,1.2c0,4.4,0,8.9,0,13.3c0,0.2,0,0.4,0.1,0.5c0.2,0.5,0.6,0.7,1.1,0.7
	c4.2,0,8.5,0.1,12.7,0.1 M466.3,224.5c-4.4,0-8.7,0-13.1,0c-1.3,0-2.3-0.5-3-1.6c-0.3-0.5-0.4-1.1-0.4-1.7c0-1.4,0-2.8,0-4.1
	c0-4.9,0-9.8,0-14.7c0-1.5,1-2.9,2.4-3.2c0.3-0.1,0.7-0.1,1-0.1c8.8,0,17.5,0,26.3,0c1.7,0,2.9,1,3.3,2.6c0.1,0.3,0.1,0.6,0.1,0.9
	c0,6.2,0,12.4,0,18.6c0,2.1-1.4,3.4-3.4,3.4c-4.3,0-8.6,0-12.9,0c-0.1,0-0.4,0-0.4,0"/>
<path class="t1-g1-st2" d="M466.3,195.6c0.4-0.4,0.7-0.7,1-1.1c0.8-0.8,1.7-1.7,2.5-2.5c0.4-0.4,1-0.4,1.4,0c0.4,0.4,0.5,1.1,0.1,1.5
	c-1.4,1.4-2.8,2.9-4.2,4.3c-0.5,0.5-1.1,0.4-1.5,0c-1.4-1.4-2.8-2.8-4.2-4.3c-0.4-0.4-0.4-1.1,0-1.5c0.4-0.4,1-0.4,1.4,0
	c1.1,1.1,2.2,2.2,3.3,3.3C466.1,195.3,466.2,195.4,466.3,195.6"/>
<path class="t1-g1-st2" d="M520.1,217.5h8v-1h-8V217.5z M528.1,207.5h-8v2h8V207.5z M520.1,213.5h8v-2h-8V213.5z M532.7,212.8
	c0.1,3.1,2.7,5.5,5.9,5.4c3.1-0.1,5.5-2.6,5.4-5.5c-0.1-3.2-2.7-5.6-6-5.5C535.1,207.3,532.6,209.9,532.7,212.8 M520.1,202.5h0.5
	c8.3,0,16.5,0,24.8,0c1.1,0,2,0.6,2.4,1.5c0.1,0.3,0.2,0.7,0.2,1c0,5.7,0,11.4,0,17.2c0,1.4-1,2.4-2.5,2.4c-8.9,0-17.8,0-26.7,0
	c-1.3,0-2.5-0.9-2.5-2.4c0-5.5,0-11,0-16.5c0-0.5,0-1,0.1-1.5c0-0.2,0.1-0.4,0.3-0.5c4-3.9,8-7.7,12.1-11.6c0.6-0.5,1.4-0.4,1.6,0.2
	c0.1,0.3,0.1,0.6-0.1,0.9c-0.1,0.1-0.2,0.2-0.2,0.3c-3.1,3-6.3,6-9.4,9C520.4,202.4,520.3,202.5,520.1,202.5"/>
<rect x="420.1" y="7.5" class="t1-g1-st1" width="138" height="290"/>
<line class="t1-g1-st14" x1="470.8" y1="235" x2="478.4" y2="246.2"/>
<path class="t1-g1-st15" d="M479.9,248.4L479.9,248.4 M467.7,230.5L467.7,230.5"/>
<line class="t1-g1-st14" x1="528" y1="235" x2="520.4" y2="246.2"/>
<path class="t1-g1-st15" d="M518.9,248.4L518.9,248.4 M531,230.5L531,230.5"/>
<path class="t1-g1-st2" d="M534.7,36.8c-1.6,0.2-3,0.4-4.5,0.5c-0.4,0-1-0.3-1.3-0.6c-4.1-5.2-9.4-8.4-16-9.1c-2.2-0.2-4.2-1.1-5-3.5
	c-1.9,0.3-3.7,0.5-5.6,0.9c-2.5,0.5-5,1.1-7.5,1.8c-1.3,0.4-2.4,1-2.4,2.7c0,1-0.6,1.5-1.5,1.9c-2.1,0.9-4.1,2.2-6.2,3.2
	c-1.5,0.7-3,1.7-4.7,2c-4.6,0.7-9.2,1.2-13.8,1.7c-0.4,0-0.9-0.2-1.3-0.5c-4-3.1-7.9-6.3-11.2-10.2c-1.3-1.5-2.5-3.1-3-5.2
	c0-0.2-0.2-0.4-0.4-0.5c-2.5-0.9-4.2-2.7-5.8-4.5c-0.8-0.9-0.8-2,0.3-2.6c0.2-0.1,0.3-0.2,0.3-0.3v-3.9c-1,0.8-2.6,1.5-4,2.2
	c-2.1,1-4.1,2.2-6.3,3c-2.8,1.1-5.3,0.4-7.3-1.9c-1-1.1-1.9-2.4-2.8-3.6c-0.4-0.5-0.7-0.9-1-1.4c-0.5,0.6-0.9,1.2-1.4,1.5
	c-1,0.6-1.5,1.2-0.9,2.4c0.1,0.2,0,0.6,0,0.9c0.1,1-0.1,2.1,0.4,2.9c1.1,1.8,0.9,3.3-0.2,4.9c-0.1,0.1-0.2,0.3-0.2,0.4
	c0,0.3,0,0.7,0.1,1c0.5,1.5,1.2,2.9,1.7,4.5c0.9,3.1,1.6,6.3,2.6,9.5c0.7,2.2,2,3.8,4.8,3.6c0.8-0.1,2.2,0.6,2.5,1.2
	c0.4,0.9-0.5,1.8-1.5,2.3c-0.4,0.2-0.8,0.7-0.8,1.1c0.1,2.2-0.8,4-1.9,5.9c-0.8,1.4-1.8,2.8-2.5,4.3c-0.8,1.5-0.7,2.9,0.5,4.2
	c1.9,2.1,3.7,4.3,5.6,6.5c2.7,3.2,5.4,6.5,8.1,9.7c0.9,1.1,1.1,2.2,0.6,3.5c-0.4,1.1-0.7,2.1-1,3.2c-0.2,0.6-0.1,1,0.7,1
	c1.1,0.1,1.6,0.7,1.8,1.9c0.2,1.5,0.5,3,0.9,4.5c0.4,1.6,1.4,2.6,3.1,2.7c1.1,0.1,2.2,0,3.2,0.4c2.1,0.8,3.8,0.3,5.5-0.9
	c0.9-0.6,1.3-0.3,1.7,0.6c2.7,6,5.5,12,8.3,18c0.6,1.4,1.6,2.4,3.2,2.4c3.1,0,5.1,1.7,6.9,4c1,1.3,2.2,2.5,3.5,3.3
	c3.7,2.4,7.8,3.4,12.2,3.4c2.7,0,5.2-0.6,7.4-2.4c1.3-1,2.9-1.8,4.5-2.3c3-1,5.3,0,6.5,3c0.6,1.5,1.2,3.1,1.4,4.7
	c0.5,3,2.1,4.7,5,5.2c2.7,0.4,5.4,0.8,8.1,0.8c4.4,0.1,8.8,0,13.3,0c0.3,0,0.6,0.2,0.8,0.4c1.2,1.2,2.6,1.9,4.3,2.1
	c1.3,0.2,1.9-0.4,2.1-1.7c0.2-1.1,0.2-2.2,0.5-3.3c0.3-1.3,0.8-2.6,1.1-4c0.3-1.5,1.5-2.1,2.5-2.8c1.2-0.9,2.6-1.7,4-2.4
	c1.5-0.8,3.1-1.4,4.7-2.1c-0.2-0.4-0.2-0.8-0.5-1.2c-0.4-0.6-1.1-1.1-1.5-1.7c-3.8-6.7-8.3-12.8-14-17.9c-1.2-1.1-2.3-2.3-3.5-3.5
	c-0.6-0.6-0.5-0.9,0-1.5c1.6-2,3-4,4.4-6.1c0.5-0.7,0.6-1.6,0.8-2.4c0.3-1.2-0.1-1.8-1.3-2.2c-0.5-0.2-1-0.3-1.5-0.4
	c-1.1-0.3-2.3-0.5-3.4-1c-0.4-0.1-0.8-0.7-0.8-1.1c-1.4-8.6-1.8-17.2-1-25.9C535.4,48.3,535.2,42.6,534.7,36.8 M455.8,93
	c-1.7,0.6-5.2,1-7.2,0.8c-0.8-0.1-1.6-0.2-2.3-0.2c-1.9-0.2-3.3-1.1-3.8-3c-0.4-1.6-0.8-3.3-1.1-5c-0.1-0.6-0.3-0.9-0.9-1
	c-1.4-0.2-1.8-0.8-1.4-2.1c0.3-1,0.6-2.1,0.9-3.1c0.5-1.2,0.3-2.3-0.6-3.3c-2.8-3.2-5.5-6.5-8.3-9.8c-1.7-2-3.5-4.1-5.2-6.1
	c-1.3-1.5-1.5-3.2-0.7-5c0.7-1.5,1.6-2.9,2.5-4.3c1.1-1.9,2.1-3.7,1.9-6.1c0-0.4,0.7-1,1.2-1.5c0.4-0.4,0.8-0.7,1.3-1.1
	c0-0.1-0.1-0.2-0.1-0.3c-0.6-0.1-1.2-0.4-1.8-0.3c-2.3,0.2-4-1-4.8-2.9c-1-2.6-1.7-5.3-2.5-8c-0.7-2.6-1.1-5.3-2.7-7.6
	c-0.2-0.2-0.1-0.8,0.1-1.1c1.3-1.8,1.4-3.6,0.2-5.5c-0.4-0.6-0.2-1.6-0.2-2.4c-0.1-0.6,0-1.3-0.2-1.8c-0.4-0.8-0.1-1.2,0.6-1.7
	c0.7-0.5,1.2-1.1,1.7-1.8c0.7-0.9,1.7-0.9,2.4,0c1.1,1.4,2.1,2.9,3.2,4.3c1.9,2.3,4.3,3,7,1.9c2.1-0.8,4-1.9,6-2.9
	c1.3-0.6,2.6-1.4,3.9-1.9c1.2-0.5,1.8,0.1,1.7,1.4c-0.1,1-0.4,2.1,0.3,3c0.1,0.1-0.4,0.8-0.8,1c-1.3,0.8-1.4,0.8-0.3,1.9
	c1.1,1,2.1,2.4,3.5,2.9c1.8,0.7,2.3,1.9,3.1,3.5c1,1.9,2.4,3.7,3.9,5.2c2.8,2.7,5.9,5.3,8.8,7.8c0.3,0.3,0.9,0.6,1.3,0.5
	c4.6-0.5,9.3-1.1,13.9-1.8c1.2-0.2,2.4-1,3.5-1.6c2.2-1.1,4.5-2.3,6.7-3.5c0.3-0.2,0.8-0.6,0.8-0.9c0-2.3,1.6-3.3,3.5-3.8
	c3.1-0.8,6.2-1.4,9.3-2c1.2-0.2,2.4-0.4,3.6-0.5c0.3,0,0.9,0.3,1,0.5c0.6,1.8,2,2.5,3.7,2.8c2,0.4,4,0.7,5.9,1.2
	c4.5,1.3,7.9,4.1,10.7,7.6c0.6,0.8,1.3,1.1,2.2,0.9c1.1-0.2,2.3-0.4,3.4-0.7c0.7-0.2,1,0,1.1,0.7c0.1,2.2,0.4,4.3,0.4,6.5
	c-0.1,5.6-0.3,11.2-0.5,16.7c-0.3,5.9,0.1,11.7,0.9,17.5c0.1,0.6,0.3,1.3,0.2,1.9c-0.1,1.3,0.7,1.7,1.7,1.9c1.2,0.3,2.4,0.5,3.6,0.8
	c1.5,0.5,2.1,1.3,1.9,2.8c-0.2,1.3-0.6,2.6-1.3,3.8c-1.2,2-2.7,3.9-4.1,6c0.9,0.9,1.8,2,2.9,3c5.9,5.3,10.6,11.5,14.6,18.4
	c0.2,0.4,0.7,0.5,1.1,0.8c0.2,0.2,0.4,0.4,0.5,0.6c0.9,2.6,0.9,2.6-1.6,3.7c-1.6,0.7-3.2,1.5-4.7,2.2c-3.4,1.7-5.2,4.5-5.5,8.3
	c-0.1,0.9-0.2,1.7-0.3,2.5c-0.3,2-1.7,3-3.6,2.5c-1.4-0.4-2.7-1.2-4.1-1.9c-0.4-0.2-0.9-0.5-1.4-0.5c-5.9-0.1-11.8-0.2-17.7-0.4
	c-1.6-0.1-3.2-0.7-4.7-1.2c-2-0.7-3.2-2.1-3.8-4.2c-0.5-1.8-0.9-3.6-1.5-5.3c-1.1-2.9-3-3.7-5.9-2.6c-1.4,0.6-2.9,1.3-4.1,2.2
	c-1.7,1.3-3.5,2-5.5,2.2c-6.2,0.6-11.9-0.7-16.8-4.7c-0.7-0.6-1.4-1.4-1.9-2.2c-1.6-2.3-3.6-3.7-6.5-3.7c-1.8,0-2.9-1.1-3.6-2.6
	c-2.1-4.4-4.2-8.8-6.2-13.2C457.3,96.5,456.5,94.7,455.8,93"/>
</svg>
